<svg xml:space="preserve" style="enable-background:new 0 0 4000 4000;" viewBox="0 0 4000 4000" y="0px" x="0px" xmlns:xlink="http://www.w3.org/1999/xlink" xmlns="http://www.w3.org/2000/svg" id="Layer_1" version="1.1">
<style type="text/css">
	.Graphic_x0020_Style_x0020_60{fill:#4D73C6;}
	.Graphic_x0020_Style_x0020_56{fill:#6584C6;}
	.Graphic_x0020_Style_x0020_59{fill:#1B51C6;}
	.Graphic_x0020_Style_x0020_51{fill:#DB6767;}
	.Graphic_x0020_Style_x0020_53{fill:#152A52;}
	.Graphic_x0020_Style_x0020_94{fill:#102140;}
	
		.Graphic_x0020_Style_x0020_209{fill:none;stroke:#1A1A1A;stroke-width:2;stroke-linecap:round;stroke-linejoin:round;stroke-miterlimit:10;}
	.Graphic_x0020_Style_x0020_212{fill:#FFFFFF;}
	
		.Graphic_x0020_Style_x0020_72{fill:none;stroke:#FFFFFF;stroke-width:3;stroke-linecap:round;stroke-linejoin:round;stroke-miterlimit:10;}
	.Graphic_x0020_Style_x0020_110{fill:#FFB114;}
	
		.Graphic_x0020_Style_x0020_73{fill:none;stroke:#FFFFFF;stroke-width:3;stroke-linecap:round;stroke-linejoin:round;stroke-miterlimit:10;}
	.Graphic_x0020_Style_x0020_116{fill:#FFDE70;}
	.Graphic_x0020_Style_x0020_216{fill:#1A1A1A;}
	.Graphic_x0020_Style_x0020_50{fill:#152A52;}
	.Graphic_x0020_Style_x0020_96{fill:#912433;}
	.Graphic_x0020_Style_x0020_58{fill:#102140;}
	
		.Graphic_x0020_Style_x0020_75{fill:none;stroke:#10663F;stroke-width:2;stroke-linecap:round;stroke-linejoin:round;stroke-miterlimit:10;}
	.Graphic_x0020_Style_x0020_76{fill:#339E7E;}
	
		.Graphic_x0020_Style_x0020_61{fill:none;stroke:#3DBE88;stroke-width:2;stroke-linecap:round;stroke-linejoin:round;stroke-miterlimit:10;}
	.Graphic_x0020_Style_x0020_90{fill:#127755;}
	.Graphic_x0020_Style_x0020_93{fill:#127755;}
	.Graphic_x0020_Style_x0020_99{fill:#B080B0;}
	.Graphic_x0020_Style_x0020_86{fill:#572658;}
	.Graphic_x0020_Style_x0020_112{fill:#FFDE70;}
	.Graphic_x0020_Style_x0020_206{fill:url(#SVGID_1_);}
	.Graphic_x0020_Style_x0020_111{fill:url(#SVGID_2_);}
	.Graphic_x0020_Style_x0020_47{fill:#FFCF4A;}
	.st0{fill:url(#SVGID_3_);}
	.st1{fill:url(#SVGID_4_);}
	.st2{fill:url(#SVGID_5_);}
	.st3{fill:url(#SVGID_6_);}
	.st4{fill:url(#SVGID_7_);}
	.st5{fill:url(#SVGID_8_);}
	.st6{fill:url(#SVGID_9_);}
	.st7{fill:url(#SVGID_10_);}
	.st8{fill:#339E7E;}
	.st9{fill:#FFDE70;}
	.st10{fill:#FFCF4A;}
	.st11{fill:#FFB114;}
	.st12{fill:#1A1A1A;stroke:#1A1A1A;stroke-width:2;stroke-linecap:round;stroke-linejoin:round;stroke-miterlimit:10;}
	.st13{fill:#FC9590;}
	.st14{fill:#102140;}
	.st15{fill:#DB6767;}
</style>
<linearGradient y2="0" x2="1" y1="0" x1="0" gradientUnits="userSpaceOnUse" id="SVGID_1_">
	<stop style="stop-color:#4085F0" offset="0"></stop>
	<stop style="stop-color:#275DC9" offset="1"></stop>
</linearGradient>
<linearGradient y2="0" x2="1" y1="0" x1="0" gradientUnits="userSpaceOnUse" id="SVGID_2_">
	<stop style="stop-color:#4085F0" offset="0"></stop>
	<stop style="stop-color:#275DC9" offset="1"></stop>
</linearGradient>
<g>
	<g>
		<g>
			<path d="M3429.5,1021.6c0,109.4-88.7,198-198.1,198H768.6c-54.7,0-104.2-22.2-140.1-58
				c-35.8-35.8-58-85.3-58-140c0-109.4,88.7-198.1,198.1-198.1h2462.9c54.7,0,104.2,22.2,140.1,58
				C3407.3,917.4,3429.5,966.9,3429.5,1021.6z" class="Graphic_x0020_Style_x0020_59"></path>
			<path d="M3429.5,994.7c0,109.4-88.7,198-198.1,198H768.6c-54.7,0-104.2-22.2-140.1-58
				c-35.8-35.8-58-85.3-58-140c0-109.4,88.7-198.1,198.1-198.1h2462.9c54.7,0,104.2,22.2,140.1,58
				C3407.3,890.5,3429.5,940,3429.5,994.7z" class="Graphic_x0020_Style_x0020_56"></path>
			<linearGradient y2="2812.3491" x2="1943.3613" y1="1861.7217" x1="1943.3613" gradientUnits="userSpaceOnUse" id="SVGID_3_">
				<stop style="stop-color:#68B2FC" offset="0"></stop>
				<stop style="stop-color:#EBF0F7" offset="1"></stop>
			</linearGradient>
			<path d="M468.9,2991.3c-11.8-76.6-29.3-264.6,80.5-431.9c157-239.4,511.5-340.5,863.8-220.2
				c33.3-57.2,199.7-329.9,542-419.2c464.2-121.1,823.5,206.6,846.9,228.7c28-18.9,168.4-109.5,309.1-63.5
				c171.6,56.1,291.2,297.9,216,567.4c70.4,40.4,109.1,118.5,97.4,194.8c-13.5,88-91.5,157.2-186.3,160.9
				C2315.1,3002.6,1392,2997,468.9,2991.3z" class="st0"></path>
			<linearGradient y2="3121.0601" x2="3877.0918" y1="3121.0601" x1="122.9083" gradientUnits="userSpaceOnUse" id="SVGID_4_">
				<stop style="stop-color:#68B2FC" offset="0"></stop>
				<stop style="stop-color:#529BF7" offset="1"></stop>
			</linearGradient>
			<path d="M3877.1,3010.8c0-91.5-840.4-165.7-1877.1-165.7s-1877.1,74.2-1877.1,165.7c0,53.2,283.5,100.5,724.3,130.8
				c-10.7,11.4-16.2,23-16.2,34.9c0,121.8,581.2,220.5,1298.1,220.5s1298.1-98.7,1298.1-220.5c0-18.7-13.7-36.8-39.4-54.1
				C3691.7,3093,3877.1,3053.8,3877.1,3010.8z" class="st1"></path>
			<path d="M1937.5,1956.7l-18.6-9.6l33.1-64.5l-33.4-17.2l-33.1,64.5l-219-112.6
				c2.4-38.9-18-77.4-54.9-96.4c-49.8-25.6-110.9-6-136.6,43.8c-25.6,49.8-6,110.9,43.8,136.6c36.9,19,80,13.1,110.3-11.5
				l271.1,139.3c14.5,7.4,32.3,1.7,39.7-12.8l10.3-20C1957.7,1982,1952,1964.2,1937.5,1956.7z M1535.7,1833.5
				c-16.3-8.4-22.8-28.5-14.4-44.8c8.4-16.3,28.5-22.8,44.8-14.4c16.3,8.4,22.8,28.5,14.4,44.8
				C1572.1,1835.4,1552,1841.9,1535.7,1833.5z" class="Graphic_x0020_Style_x0020_47"></path>
			<path d="M529.2,1400.9l-9.4,8l-27.8-32.6l-16.9,14.4l27.8,32.6L392,1517.8
				c-20.8-10.1-46.4-7.6-65,8.3c-25.2,21.5-28.2,59.3-6.7,84.5c21.5,25.2,59.3,28.2,84.5,6.7c18.7-15.9,25.2-40.8,18.5-62.9
				l137.1-116.9c7.3-6.2,8.2-17.3,2-24.6l-8.6-10.1C547.5,1395.5,536.5,1394.6,529.2,1400.9z M371.4,1592.9
				c-8.3,7.1-20.7,6.1-27.7-2.2c-7.1-8.3-6.1-20.7,2.2-27.7c8.3-7.1,20.7-6.1,27.7,2.2C380.7,1573.4,379.7,1585.8,371.4,1592.9z" class="Graphic_x0020_Style_x0020_47"></path>
			<linearGradient y2="1528.3032" x2="3639.1694" y1="1528.3032" x1="3449.6506" gradientUnits="userSpaceOnUse" id="SVGID_5_">
				<stop style="stop-color:#68B2FC" offset="0"></stop>
				<stop style="stop-color:#529BF7" offset="1"></stop>
			</linearGradient>
			<polygon points="3639.2,1630.3 3544.4,1590.4 3449.7,1550.6 3531.6,1488.4 3613.5,1426.3 3626.3,1528.3" class="st2"></polygon>
			<linearGradient y2="1530.4764" x2="1112.6028" y1="1530.4764" x1="969.0091" gradientUnits="userSpaceOnUse" id="SVGID_6_">
				<stop style="stop-color:#68B2FC" offset="0"></stop>
				<stop style="stop-color:#529BF7" offset="1"></stop>
			</linearGradient>
			<polyline points="979.9,1530.5 990.7,1453.8 1051.7,1501.6 1112.6,1549.3 1040.8,1578.2 969,1607.1 979.9,1530.5" class="st3"></polyline>
			<linearGradient y2="2665.5339" x2="3745.8579" y1="2665.5339" x1="3532.481" gradientUnits="userSpaceOnUse" id="SVGID_7_">
				<stop style="stop-color:#4085F0" offset="0"></stop>
				<stop style="stop-color:#275DC9" offset="1"></stop>
			</linearGradient>
			<polygon points="3679,2769.4 3605.7,2688.5 3532.5,2607.6 3639.2,2584.6 3745.9,2561.7 3712.4,2665.5" class="st4"></polygon>
			<linearGradient y2="1974.8685" x2="376.0091" y1="1974.8685" x1="187.2344" gradientUnits="userSpaceOnUse" id="SVGID_8_">
				<stop style="stop-color:#4085F0" offset="0"></stop>
				<stop style="stop-color:#275DC9" offset="1"></stop>
			</linearGradient>
			<polygon points="376,1940.5 301.5,2006.4 226.9,2072.4 207.1,1974.9 187.2,1877.3 281.6,1908.9" class="st5"></polygon>
			<g>
				<linearGradient y2="2763.0952" x2="1345.4087" y1="2763.0952" x1="1210.2192" gradientUnits="userSpaceOnUse" id="SVGID_9_">
					<stop style="stop-color:#4085F0" offset="0"></stop>
					<stop style="stop-color:#275DC9" offset="1"></stop>
				</linearGradient>
				<path d="M1316.5,2914.8h-77.4c-15.9,0-28.9-12.9-28.9-28.9v-245.6c0-15.9,12.9-28.9,28.9-28.9h77.4
					c15.9,0,28.9,12.9,28.9,28.9v245.6C1345.4,2901.9,1332.5,2914.8,1316.5,2914.8z" class="st6"></path>
				<path d="M1546.9,2914.8h-77.4c-15.9,0-28.9-12.9-28.9-28.9v-384.4
					c0-15.9,12.9-28.9,28.9-28.9h77.4c15.9,0,28.9,12.9,28.9,28.9v384.4C1575.8,2901.9,1562.9,2914.8,1546.9,2914.8z" class="Graphic_x0020_Style_x0020_59"></path>
				<linearGradient y2="2616.2644" x2="1806.1559" y1="2616.2644" x1="1670.9664" gradientUnits="userSpaceOnUse" id="SVGID_10_">
					<stop style="stop-color:#4085F0" offset="0"></stop>
					<stop style="stop-color:#275DC9" offset="1"></stop>
				</linearGradient>
				<path d="M1777.3,2914.8h-77.4c-15.9,0-28.9-12.9-28.9-28.9v-539.3c0-15.9,12.9-28.9,28.9-28.9h77.4
					c15.9,0,28.9,12.9,28.9,28.9v539.3C1806.2,2901.9,1793.2,2914.8,1777.3,2914.8z" class="st7"></path>
				<path d="M1996.1,2914.8h-77.4c-15.9,0-28.9-12.9-28.9-28.9v-444.4
					c0-15.9,12.9-28.9,28.9-28.9h77.4c15.9,0,28.9,12.9,28.9,28.9v444.4C2025,2901.9,2012,2914.8,1996.1,2914.8z" class="Graphic_x0020_Style_x0020_59"></path>
				<path d="M2223.4,2914.8h-77.4c-15.9,0-28.9-12.9-28.9-28.9v-717.8
					c0-15.9,12.9-28.9,28.9-28.9h77.4c15.9,0,28.9,12.9,28.9,28.9v717.8C2252.3,2901.9,2239.3,2914.8,2223.4,2914.8z" class="Graphic_x0020_Style_x0020_112"></path>
			</g>
			<g>
				<g>
					<path d="M882.1,2830.3c-24.8-11.3-38.4-38.4-47.4-61c-33.1-91.1-96.6-177.4-178.9-226.7
						l-66.6,0l83.1,185.5L589.9,2928l-0.8,2c0,13.7,113.1,24.7,252.7,24.7c139.6,0,252.7-11.1,252.7-24.7c0-0.7-0.3-1.4-1-2.2
						l-27.8-62.1C1001.9,2865.8,939.4,2856.3,882.1,2830.3z" class="Graphic_x0020_Style_x0020_86"></path>
					<path d="M1094.5,2542.6l-438.8,0c82.3,49.3,145.8,135.5,178.9,226.7
						c9,22.6,22.6,49.7,47.4,61c57.3,26,119.8,35.5,183.7,35.5l-54.3-121.3L1094.5,2542.6z" class="Graphic_x0020_Style_x0020_99"></path>
					<ellipse ry="24.7" rx="252.7" cy="2542.6" cx="841.8" class="Graphic_x0020_Style_x0020_216"></ellipse>
				</g>
				<g>
					<g>
						<path d="M873.3,2412.6c0,0,329.8,189.1,496.7-44.6c166.9-233.7,94.6-451-87.8-550.8
							c-182.3-99.8-433.1-22.1-511.4,99.2C692.6,2037.7,903.6,2366.5,873.3,2412.6z" class="st8"></path>
						<path d="M1251.7,1954.1c0,0-169.6,379.4-493.8,533.3" class="Graphic_x0020_Style_x0020_75"></path>
						<path d="M1362.7,2037.1c0,0-76.4-50.7-143.8-19.1c-17.6-75.7-96.1-147.9-96.1-147.9" class="Graphic_x0020_Style_x0020_75"></path>
						<path d="M1352.7,2159.8c0,0-115-84.5-170.7-74.4c-14.5-51.1-73.6-163.5-180.1-207.8" class="Graphic_x0020_Style_x0020_75"></path>
						<path d="M1397.3,2273.1c0,0-169.7-125.9-259.8-116.8c-2.2-46.9-106.2-200.3-267.3-235.2" class="Graphic_x0020_Style_x0020_75"></path>
						<path d="M1287,2302.9c0,0-96.5-94.8-199.2-89.4c-7.7-56.8-118.5-186-219.9-204.8" class="Graphic_x0020_Style_x0020_75"></path>
						<path d="M1225.1,2374.4c0,0-105-112.1-189.2-97.3c-0.7-61.3-74.1-138.3-166.9-175.2" class="Graphic_x0020_Style_x0020_75"></path>
						<path d="M1180.9,2422.5c0,0-79.4-81.7-202.1-90c-5.6-45.4-64.5-147.3-123.6-154.4" class="Graphic_x0020_Style_x0020_75"></path>
					</g>
					<g>
						<path d="M1049.3,2478.8c0,0,165.5-148.9,254.9-83.8c89.3,65.1,197.9,186.7,97.2,314.3
							c-100.6,127.5-252.6,150.2-347.1,21.3C959.8,2601.7,1078.1,2558.5,1049.3,2478.8z" class="Graphic_x0020_Style_x0020_93"></path>
						<path d="M1339.6,2705.4c0,0-119.6-212.8-290.4-226.5c-132.8-10.7-133.2,0.9-133.2,0.9" class="Graphic_x0020_Style_x0020_61"></path>
						<path d="M1223.7,2415.1c0,0-69.6,68.1-120.2,72.6c55.1,37.9-16.3,106.9-45.9,122.6" class="Graphic_x0020_Style_x0020_61"></path>
						<path d="M1305.1,2436.2c0,0-53.4,67.7-147.1,73.3c26.8,39.3-8.5,127.4-103.2,156.1" class="Graphic_x0020_Style_x0020_61"></path>
						<path d="M1357.1,2504.7c0,0-69,66.1-144.6,48.1c7.8,32.5-20.6,144.4-98.8,153.8" class="Graphic_x0020_Style_x0020_61"></path>
						<path d="M1391.2,2580.1c0,0-87.1,35.3-127.1,22.6c-7,46.6-10.9,142.4-125.8,173.7" class="Graphic_x0020_Style_x0020_61"></path>
						<path d="M1363.9,2637.2c0,0-37.8,17.7-61.1,11.3c4.9,45.5-15.1,100.1-43.9,112.5" class="Graphic_x0020_Style_x0020_61"></path>
					</g>
					<g>
						<path d="M698.3,2433c0,0,51.1-178.2-1.5-244.1c-52.5-65.9-360.3-193.6-475.7,28.2
							c-115.5,221.8,107.3,449.4,248.9,381.2C611.6,2530.2,644.7,2442.7,698.3,2433z" class="Graphic_x0020_Style_x0020_90"></path>
						<path d="M769.7,2493.4c0,0-14.8-37-155.1-110.6c-140.3-73.6-317.9-109.5-400.3-72.5" class="Graphic_x0020_Style_x0020_61"></path>
						<path d="M609.9,2217.5c0,0-45.3,101.9-6.3,159.6c-37.7,9.6-137.6,75.3-163.8,136.8" class="Graphic_x0020_Style_x0020_61"></path>
						<path d="M536.7,2159.2c0,0-45.1,83.8-11.4,183.6c-35.8,10.7-182.2,117.7-189.5,217.1" class="Graphic_x0020_Style_x0020_61"></path>
						<path d="M465.5,2129.4c0,0-43.1,111.9-14,189.3c-34.9,12.7-101.8,46.6-117.5,121.5" class="Graphic_x0020_Style_x0020_61"></path>
						<path d="M370.6,2144c0,0-39,107.6,11.1,156.2c-46.4,12.4-119.9,87-115,151.1" class="Graphic_x0020_Style_x0020_61"></path>
						<path d="M271.5,2226.7c0,0-19,34.6,20.2,68.9c-24.6,9.3-58.1,35.7-57.1,64.9" class="Graphic_x0020_Style_x0020_61"></path>
					</g>
					<g>
						<path d="M889.2,2461.7c0,0-215-87.8-279.8,7.6s-128.4,253.1,15.3,342.9
							c143.8,89.7,301,58.4,348.3-101.5C1020.3,2550.7,888.9,2550,889.2,2461.7z" class="Graphic_x0020_Style_x0020_76"></path>
						<path d="M683.9,2786.5c0,0,39.9-256.7,205.2-324.8c60.5-24.9,60.5,9.4,60.5,9.4" class="Graphic_x0020_Style_x0020_75"></path>
						<path d="M695.4,2460.5c0,0,92.4,42.3,143.7,28.9c-40.7,56.6,53.7,99.3,88.3,104.2" class="Graphic_x0020_Style_x0020_75"></path>
						<path d="M623,2510c0,0,76.3,47.6,170.3,20.1c-12.5,48,53.3,122.1,156.4,116.9" class="Graphic_x0020_Style_x0020_75"></path>
						<path d="M596,2595.6c0,0,91,40.6,159-3.8c3.8,34.7,71.2,134.5,151.2,116.2" class="Graphic_x0020_Style_x0020_75"></path>
						<path d="M589.1,2681.6c0,0,98,3.9,132.7-22.6c23.3,43.3,60.9,135.9,184.8,126.2" class="Graphic_x0020_Style_x0020_75"></path>
						<path d="M636.1,2728.1c0,0,43.4,4.1,63.9-10.5c11.3,46.4,50.1,92.9,82.8,95" class="Graphic_x0020_Style_x0020_75"></path>
					</g>
				</g>
			</g>
			<g>
				<path d="M2684.8,1204.6c-14.3,45.1-76.5,72.6-159.2,74.8c-29.1,0.8-60.8-1.6-93.8-7.4
					c-143.4-33.3-208.4-133.8-252.7-238.8c-17.2-40.8-31.3-82.2-45.7-120.6c-12.3-33-17-70.9-17-70.9c0.5-8.4,6.1-18.4,14.3-28.4
					c27.3-33,84.6-64.8,91.4-31c53.2,333.6,237.2,289.5,290.5,295.7c27.6,3.2,68.9,4.6,104.5,17.2c18.4,6.5,35.4,15.9,48.1,30.1
					c10.1,11.2,17.6,25.4,21.2,43.4C2688.9,1181.6,2688.3,1193.6,2684.8,1204.6z" class="st9"></path>
				<path d="M2665.1,1125.3c-6.7,29-31.5,69.8-32.2,77.3c-0.7,6.5-60.4,46.4-107.3,76.8c-29.1,0.8-60.8-1.6-93.8-7.4
					c-143.4-33.3-208.4-133.8-252.7-238.8c62.4,62.4,183.3,162.9,282.1,121.4c80.5-33.8,126.7-52.6,155.9-59.4
					c21.5-5.1,33.7-3.7,43.6,2.9C2667.5,1102.7,2668,1112.9,2665.1,1125.3z" class="st10"></path>
				<path d="M2684.8,1204.6c-19.3,61-126.3,89.7-253,67.4c-199.1-46.2-247-222.1-298.5-359.4c-12.3-33-17-70.9-17-70.9
					c0.5-8.4,6.1-18.4,14.3-28.4c35.3,104.3,134.4,353.5,282.6,378.4C2531.9,1211.6,2629.2,1209.2,2684.8,1204.6z" class="st11"></path>
				<g>
					<path d="M3061.9,2935.6c-2,33.3-9.6,66.4-22.4,97.4c-5.5,13.2-11.9,26.2-14.5,40.3
						c-1.8,9.7-1.4,20.2,2.1,28.8c20.6,10.2,46.5,7.8,65.1-9.2c47.5-48.2,85.6-117.1,90-186.1c-0.9-3.7-2-7.4-3.4-10.9
						c-3-7.5-8.6-16.1-15.5-22.7c-10.3,12.4-22.5,23.5-33.5,33.7C3111,2926.4,3086.9,2941.3,3061.9,2935.6z" class="Graphic_x0020_Style_x0020_96"></path>
					<path d="M3131.9,2862.7c-6.4,2.1-70.3,34.1-70.1,35.5c0.8,12.4,0.8,24.9,0.1,37.4c25.1,5.7,49.2-9.3,68-28.9
						c11-10.2,23.1-21.3,33.5-33.7C3154.3,2864.5,3143.1,2859,3131.9,2862.7z" class="st12"></path>
					<path d="M3092.3,3092.9c-18.6,17.1-44.5,19.4-65.1,9.2c1.6,3.9,3.8,7.4,6.7,10.3
						c7.3,7.3,18.2,9.7,28.5,8.2c10.3-1.5,19.9-6.7,28.6-13.1c28.9-21.3,47.1-55.2,63.9-88c9.9-19.4,19.8-39.1,25.3-60.2
						c4.5-17.3,6-35.7,2.1-52.6C3177.9,2975.8,3139.7,3044.7,3092.3,3092.9z" class="Graphic_x0020_Style_x0020_212"></path>
					<path d="M2456.1,2032.2c0,0-22.2,37.2,48.7,290.4s558.1,597.7,558.1,597.7
						c39.5-2.7,62.5-22.7,84.2-64.2c0,0-165.9-404.9-339.9-557.4c97.5-410.6-38.9-560.9-38.9-560.9l-270.1,17.3" class="Graphic_x0020_Style_x0020_53"></path>
					<path d="M2455.5,2099c5,43,18.2,112.5,49.3,223.6c70.9,253.2,558.1,597.7,558.1,597.7
						c18-1.2,32.5-6.1,45.1-14.9c-163.1-166-488.6-528.4-561-667.2C2511.8,2170.5,2480.7,2127,2455.5,2099z" class="Graphic_x0020_Style_x0020_58"></path>
				</g>
				<path d="M2300.3,3132.8c-21.9,23.6-47.7,43-75.9,56.8c-12,5.9-24.6,10.8-35.1,19.5
					c-7.2,6-13.4,14.2-16.3,23.4c8.3,23.3,28,41,51.7,42.2c63.3-0.6,132.8-23.9,178.4-72.8c1.7-3.5,3.2-7.1,4.3-10.8
					c2.5-8,3.8-18.6,3-28.9c-15,1.6-30.4,0.8-44.4,0.2C2340.7,3162.9,2314.5,3156,2300.3,3132.8z" class="Graphic_x0020_Style_x0020_96"></path>
				<path d="M2394.7,3130.4c-5.8-3.3-70.7-27.3-71.5-26c-7.1,10-14.8,19.5-23,28.3c14.2,23.2,40.5,30.1,65.8,29.4
					c14.1,0.6,29.5,1.4,44.4-0.2C2409.5,3148.8,2404.9,3136.2,2394.7,3130.4z" class="st12"></path>
				<path d="M2224.7,3274.6c-23.7-1.2-43.4-18.9-51.7-42.2c-1.3,4.1-1.9,8.5-1.6,12.9
					c0.7,11,6.9,21.1,15.1,27.7c8.2,6.6,18.2,10,28.3,11.7c33.6,5.7,67.4-6.2,99.4-18.4c19-7.2,38.1-14.6,55-26.4
					c13.9-9.6,26.3-22.5,33.9-38.2C2357.5,3250.7,2288,3274,2224.7,3274.6z" class="Graphic_x0020_Style_x0020_212"></path>
				<path d="M2627.3,2457.4c5.4,414.6-217.7,679.5-217.7,679.5c-18.1,6.6-33.9,9.9-48.3,9
					c-18.2-1-34.4-8.6-50.8-24c0,0,71.2-539.9,23-799.3c-79.5-428.9,5.9-650.1,5.9-650.1l415.7,222c7.5,31.2,12.5,58.1,15,83.1
					C2782.4,2098,2736.7,2171.8,2627.3,2457.4z" class="Graphic_x0020_Style_x0020_50"></path>
				<path d="M2627.3,2457.4c5.4,414.6-217.7,679.5-217.7,679.5c-18.1,6.6-33.9,9.9-48.3,9
					c29.5-49.7,115.1-196.1,145.9-272.9c37.4-93.5,51.4-436.9,51.4-436.9s30.9-85.7,125.7-227.8c49.5-74.3,73.9-163,85.9-230.8
					C2782.4,2098,2736.7,2171.8,2627.3,2457.4z" class="Graphic_x0020_Style_x0020_94"></path>
				<path d="M2807.5,1810.1c-9.8-22.4-3.2-62.8-3.2-62.8l-240.7,4.7l-6.6,29.3l-228.2-81
					c0,0-22.6,52.4-22.6,141.4c75.6,40.8,199.7,28.4,285.2,22.9C2694.7,1854.3,2728.1,1865.1,2807.5,1810.1z" class="Graphic_x0020_Style_x0020_216"></path>
				<path d="M2325.5,1817.9c0,0,254.3,64,491.9-56.5c49.9-27.8,58.2-143.6,58.2-143.6
					s110.1-407-74.2-503.4c-151.8-74.4-236.1-35.3-349.9,106.1c-113.8,141.4-170,508.2-171.7,539.3
					C2274.8,1803,2325.5,1817.9,2325.5,1817.9z" class="Graphic_x0020_Style_x0020_116"></path>
				<path d="M2875.6,1617.8c0,0,100-369.4-50.1-487.8c-61.1,8.2-106,82.4-184.6,229.6
					c-75.1,140.7-228.5,147.7-309.2,140.4c-33.9,125.8-51.1,242.7-52,259.7c-4.9,43.3,45.8,58.2,45.8,58.2s254.3,64,491.9-56.5
					C2867.3,1733.6,2875.6,1617.8,2875.6,1617.8z" class="st10"></path>
				<path d="M2663.5,989c0,0-1.8,43.2-13.6,114c10.5,48.1,149.2,3.2,149.2,3.2l1.1-132.1c0,0,60.5-29.8,51.5-111.5
					c-8.9-81.7-192.1-86.9-201.8-90.8c-44.9,142.3-52.7,240.8,47.1,212.3" class="st13"></path>
				<path d="M2851.7,862.7c-8.9-81.7-192.1-86.9-201.8-90.8c-1.7,5.5-3.4,11-5.1,16.4
					c20.1,13.5,46.3,26.6,70.9,25c5,25.1-5.8,51.7,9.6,53.4c15.4,1.7,53.3,7.3,61.9,0c8.7-7.3,9.1,27.7-10.8,27.6
					c-20-0.1-17.8,18.1-8.5,39.8c4.7,10.9,24.7,23.3,43.2,32.9C2828.2,953.8,2858.2,921.9,2851.7,862.7z" class="Graphic_x0020_Style_x0020_51"></path>
				<path d="M2203.7,799.5c-3.4,24-14.7,32-29.3,33.4c-9.9,0.9-21.2-1.1-32.6-3.3c-2.4-22.3-57.2-62.2-54.7-75.9
					c-38.6-5.6-88.5-50.7-86.9-69.2c0.8-8.9,10-25.4,26.9-37.6c18.1-13.2,45.2-21.5,80.1-10.7C2174.7,657,2203.7,799.5,2203.7,799.5
					z" class="st13"></path>
				<path d="M2203.7,799.5c-3.4,24-14.7,32-29.3,33.4c-3.2-4.4,4.7-29.9,4.7-35.7
					c0-49.3-3.1-41-34.1-111.9c-19.2-44-78.1-51-118-38.4c18.1-13.2,45.2-21.5,80.1-10.7C2174.7,657,2203.7,799.5,2203.7,799.5z" class="Graphic_x0020_Style_x0020_51"></path>
				<path d="M2306.2,1483.8l-218.6-264.3c43-52,72.6-116.3,82.5-188
					c28.6-206.1-115.4-396.3-321.4-424.8C1642.6,578,1452.3,721.9,1423.8,928c-28.5,206.1,115.4,396.2,321.5,424.8
					c96.2,13.3,188.9-10.9,263.4-61.5l215.5,260.4c18.8,22.7,52.3,25.8,75,7.1C2321.8,1540.1,2325,1506.5,2306.2,1483.8z
					 M1976,1240.5c-62.7,43.1-141.1,63.8-222.5,52.5c-173.1-24-293.9-183.7-269.9-356.7c24-173.1,183.7-293.9,356.8-269.9
					c173,24,293.9,183.7,269.9,356.7c-8.3,59.9-32.9,113.5-68.6,157C2022.7,1203.3,2000.5,1223.6,1976,1240.5z" class="Graphic_x0020_Style_x0020_60"></path>
				<path d="M2110.3,1023.1c-8.3,59.9-32.9,113.5-68.6,157c-19,23.2-41.2,43.4-65.7,60.3
					c-62.7,43.1-141.1,63.8-222.5,52.5c-173.1-24-293.9-183.7-269.9-356.7c24-173.1,183.7-293.9,356.8-269.9
					C2013.4,690.4,2134.2,850.1,2110.3,1023.1z" class="Graphic_x0020_Style_x0020_73"></path>
				<path d="M2200.6,1557.2c-51.5-34.3-89.1-80.5-89.4-138.4c-4.7-4.8-9.7-10-15.2-15.7
					c-24.2,28.4-14.2,159.6,85.8,177.8c18.6,1.5,29.7-2.6,35.9-8.8C2212.4,1566.2,2206.6,1561.2,2200.6,1557.2z" class="Graphic_x0020_Style_x0020_51"></path>
				<path d="M2220.3,1540.4c0,0-7.9-44.2-7.9-64.7s-28.2-18.7-36.3,8.3c-26.8-28.2-42.9-42.8-64.9-65.2
					c0.3,58,37.9,104.1,89.4,138.4c6,4,11.8,9,17,14.8C2227.2,1562.4,2224.9,1547.7,2220.3,1540.4z" class="st13"></path>
				<path d="M2173.1,1610.8c0,0,101.9,35.7,247.9,49.9c146,14.2,340.7-24.9,438.5-204.4c65.4-137,55-266.6-31.4-272.9
					c-86.4-6.3-113.8,93.6-133.9,143.2c-20.2,49.6-70.1,255.8-461.1,195.4C2174,1509.9,2136,1590.8,2173.1,1610.8z" class="st9"></path>
				<path d="M2859.5,1456.3c64.5-134.9,55.3-262.7-27.6-272.5
					c113,76.8-38.3,287.4-222.6,387.3c-139.9,75.8-351.1,19.9-445-11.5c-9.5,20-8.3,42.1,8.8,51.3c0,0,101.9,35.7,247.9,49.9
					C2567,1674.9,2761.7,1635.8,2859.5,1456.3z" class="Graphic_x0020_Style_x0020_110"></path>
			</g>
			<path d="M2627.5,738.7c0,0-1.1,58.5,90.1,62.2c20.9,17.2,12.9,53.1,12.9,53.1s9.1,8.6,18.2,5.4
				c7.5,19.3,48.3-27.4,48.8,9.7c0.5,37-27.9,33.3-29,40.2c-1.1,7,23,69.8,84,58.5c60.9-11.3,64.7-90.7,41.1-103.6
				c26.8-48.8,29-96.6-29-109.5c5.4-47.2-27.9-70.8-89.1-53.1C2763.3,657.2,2623.8,677,2627.5,738.7z" class="st14"></path>
			<rect height="280.4" width="25" class="Graphic_x0020_Style_x0020_212" y="877.3" x="804.1"></rect>
			<path d="M1884.6,718.4c0,0,135.8,51.2,158,175.8" class="Graphic_x0020_Style_x0020_72"></path>
			<path d="M1839,1249.2c0,0,198.1-43.8,210.3-225.5" class="Graphic_x0020_Style_x0020_72"></path>
		</g>
		<g>
			<circle r="161.7" cy="1925.4" cx="3567.5" class="Graphic_x0020_Style_x0020_59"></circle>
			
				<ellipse ry="47.4" rx="47.4" cy="1854.3" cx="3567.5" class="Graphic_x0020_Style_x0020_212" transform="matrix(0.997 -7.730931e-02 7.730931e-02 0.997 -132.6753 281.3499)"></ellipse>
			<path d="M3567.5,1902.4L3567.5,1902.4c-50.9,0-92.2,23.2-92.2,51.9v51.9h184.4v-51.9
				C3659.7,1925.6,3618.4,1902.4,3567.5,1902.4z" class="Graphic_x0020_Style_x0020_212"></path>
		</g>
	</g>
	<path d="M2422.3,1954.3c0,0,56.5,123.8,140.5,132.9" class="Graphic_x0020_Style_x0020_209"></path>
	<path d="M2725.3,972.7c-23.7,9.3-47.4,18.4-65.3,16.2l1.4,27.9
		C2661.4,1016.7,2722.8,985.1,2725.3,972.7z" class="Graphic_x0020_Style_x0020_51"></path>
	<path d="M2596.9,1004.2" class="st15"></path>
</g>
</svg>
