<svg xml:space="preserve" style="enable-background:new 0 0 4000 4000;" viewBox="0 0 4000 4000" y="0px" x="0px" xmlns:xlink="http://www.w3.org/1999/xlink" xmlns="http://www.w3.org/2000/svg" id="Layer_1" version="1.1">
<style type="text/css">
	
		.Graphic_x0020_Style_x0020_209{fill:none;stroke:#1A1A1A;stroke-width:2;stroke-linecap:round;stroke-linejoin:round;stroke-miterlimit:10;}
	
		.Graphic_x0020_Style_x0020_27{fill:#1A1A1A;stroke:#1A1A1A;stroke-width:2;stroke-linecap:round;stroke-linejoin:round;stroke-miterlimit:10;}
	
		.Graphic_x0020_Style_x0020_26{fill:#FFFFFF;stroke:#1A1A1A;stroke-width:2;stroke-linecap:round;stroke-linejoin:round;stroke-miterlimit:10;}
	.Graphic_x0020_Style_x0020_69{fill:#DB6767;}
	.Graphic_x0020_Style_x0020_139{fill:#3B546B;}
	.Graphic_x0020_Style_x0020_5{fill:url(#SVGID_1_);}
	.Graphic_x0020_Style_x0020_208{fill:url(#SVGID_2_);}
	.Graphic_x0020_Style_x0020_6{fill:url(#SVGID_3_);}
	.Graphic_x0020_Style_x0020_7{fill:#FC9590;}
	.Graphic_x0020_Style_x0020_220{fill:#152A52;}
	.Graphic_x0020_Style_x0020_213{fill:#FFB114;}
	.Graphic_x0020_Style_x0020_218{fill:#102140;}
	.Graphic_x0020_Style_x0020_8{fill:#D1334A;}
	.Graphic_x0020_Style_x0020_9{fill:#FFDE70;}
	.Graphic_x0020_Style_x0020_10{fill:#EB485C;}
	.Graphic_x0020_Style_x0020_129{fill:#1A1A1A;}
	
		.Graphic_x0020_Style_x0020_34{fill:none;stroke:#FFFFFF;stroke-width:2;stroke-linecap:round;stroke-linejoin:round;stroke-miterlimit:10;}
	
		.Graphic_x0020_Style_x0020_11{fill:none;stroke:#1A1A1A;stroke-width:3;stroke-linecap:round;stroke-linejoin:round;stroke-miterlimit:10;}
	
		.Graphic_x0020_Style_x0020_24{fill:none;stroke:#1A1A1A;stroke-width:2;stroke-linecap:round;stroke-linejoin:round;stroke-miterlimit:10;}
	.st0{fill:none;stroke:#E2B433;stroke-width:2;stroke-linecap:round;stroke-linejoin:round;}
	.st1{fill:none;stroke:#E2B433;stroke-width:2;stroke-linecap:round;stroke-linejoin:round;stroke-dasharray:11.9191,11.9191;}
	.st2{fill:#339E7E;}
	.st3{fill:#127755;}
	.st4{fill:#D7EFFF;}
	.st5{fill:url(#SVGID_4_);}
	.st6{opacity:0.5;fill:#152A52;}
	.st7{fill:#1A1A1A;}
	.st8{fill:#545154;}
	.st9{fill:#DBD2DB;}
	.st10{fill:#6584C6;}
	
		.st11{fill:none;stroke:#E2B433;stroke-width:2;stroke-linecap:round;stroke-linejoin:round;stroke-miterlimit:10;stroke-dasharray:12;}
	.st12{fill:none;stroke:#E2B433;stroke-width:2;stroke-linecap:round;stroke-linejoin:round;stroke-dasharray:11.8215,11.8215;}
	.st13{fill:none;stroke:#1A1A1A;stroke-width:2;stroke-linecap:round;stroke-linejoin:round;}
	.st14{fill:none;stroke:#1A1A1A;stroke-width:2;stroke-linecap:round;stroke-linejoin:round;stroke-dasharray:11.7862,11.7862;}
	.st15{fill:none;stroke:#E2B433;stroke-width:2;stroke-linecap:round;stroke-linejoin:round;stroke-dasharray:11.7514,11.7514;}
	.st16{fill:none;stroke:#DB3019;stroke-width:3;stroke-linecap:round;stroke-linejoin:round;stroke-miterlimit:10;}
	.st17{fill:#FFFFFF;}
	.st18{fill:#152A52;}
	.st19{fill:#EF5668;}
	.st20{fill:#B9B4B9;}
	.st21{fill:#FFFFFF;stroke:#1A1A1A;stroke-width:2;stroke-linecap:round;stroke-linejoin:round;stroke-miterlimit:10;}
	.st22{fill:url(#SVGID_5_);}
	.st23{fill:url(#SVGID_6_);}
	.st24{fill:url(#SVGID_7_);}
	.st25{fill:url(#SVGID_8_);}
	.st26{fill:#FFB114;}
	.st27{fill:url(#SVGID_9_);}
</style>
<linearGradient y2="0" x2="1" y1="0" x1="0" gradientUnits="userSpaceOnUse" id="SVGID_1_">
	<stop style="stop-color:#4085F0" offset="0"></stop>
	<stop style="stop-color:#275DC9" offset="1"></stop>
</linearGradient>
<linearGradient y2="0" x2="1" y1="0" x1="0" gradientUnits="userSpaceOnUse" id="SVGID_2_">
	<stop style="stop-color:#68B2FC" offset="0"></stop>
	<stop style="stop-color:#EBF0F7" offset="1"></stop>
</linearGradient>
<linearGradient y2="0" x2="1" y1="0" x1="0" gradientUnits="userSpaceOnUse" id="SVGID_3_">
	<stop style="stop-color:#68B2FC" offset="0"></stop>
	<stop style="stop-color:#529BF7" offset="1"></stop>
</linearGradient>
<g>
	<g>
		<g>
			<path d="M1106.4,690.5c0,0,3.1,4,9,11.4" class="st0"></path>
			<path d="M1133.7,724.1c100.2,119.5,461.4,519.3,850.8,569.6c399.6,51.6,865.6-166.8,978.8-223.8" class="st1"></path>
			<path d="M2976.2,1063.4c8.4-4.3,12.8-6.7,12.8-6.7" class="st0"></path>
		</g>
	</g>
	<g>
		<path d="M3269.8,2173.8c0,0-344.2,558.1-147.3,1028.2" class="Graphic_x0020_Style_x0020_11"></path>
		<path d="M3450.8,2209.1c-12.8,25.1-45.2,34.2-72.3,20.3c27.1,13.9,38.6,45.5,25.7,70.5
			c-12.9,25.1-45.2,34.2-72.3,20.3c-9.8-5-22.2-25.6-27.5-34.1c5.1,13.1,9.4,41,2.8,53.9c-10.8,21.2-35.5,31.1-59.2,25.5
			c-4.6-1.1-9.2-2.7-13.7-5c-4.5-2.3-8.5-5-12.1-8.2c-14.8-12.9-21.8-32.1-18.3-50.2c-12.6,13.4-32.3,18.9-51.4,14.5
			c-4.6-1.1-9.2-2.7-13.7-5c-4.5-2.3-8.5-5-12.1-8.2c-18.4-16-24.7-41.8-13.9-63c6.6-13,35.6-24.5,49.2-28.1
			c-10,0.7-37.7,1.5-47.6-3.5c-27.1-13.9-38.6-45.4-25.7-70.5c12.9-25.1,45.2-34.2,72.3-20.3c-27.1-13.9-38.6-45.5-25.7-70.5
			c12.9-25.1,45.2-34.2,72.3-20.3c9.9,5,21.7,18.8,27,27.3c-5.1-13.1-8.9-34.1-2.3-47.1c10.9-21.2,35.5-31.1,59.2-25.5
			c4.6,1.1,9.2,2.7,13.7,5c4.5,2.3,8.5,5,12.1,8.2c14.8,12.9,21.8,32.1,18.3,50.2c12.6-13.4,32.3-18.9,51.4-14.5
			c4.6,1.1,9.2,2.7,13.7,5c4.5,2.3,8.5,5,12.1,8.2c18.3,16,24.7,41.8,13.9,63c-6.6,13-26.4,21.7-40,25.3c10-0.7,28.6,1.3,38.4,6.4
			C3452.1,2152.5,3463.6,2184,3450.8,2209.1z" class="st2"></path>
		<path d="M3161.2,2118.1c30.6,33.3,65.8,54.6,108.7,55.7c-35.7,30.3-53.9,76.5-65.8,128.5" class="Graphic_x0020_Style_x0020_24"></path>
		<path d="M3335.7,2045.3c-9.9,56.2-32.3,98.5-65.8,128.5c25.7,27.1,65,43.2,108.7,55.7" class="Graphic_x0020_Style_x0020_24"></path>
	</g>
	<g>
		<path d="M3576.9,2643.6c0,0-508.4,74.4-691.4,429.5" class="Graphic_x0020_Style_x0020_11"></path>
		<g>
			<path d="M3671.2,2814.2c-29,6.6-58.4-13.4-65.5-44.7c7.1,31.3-10.6,62.1-39.6,68.7c-29.1,6.6-58.4-13.4-65.6-44.7
				c-2.6-11.4,5.6-35.3,9-45.4c-7.2,13-26.8,35.5-41.7,38.9c-24.5,5.6-49.2-7.6-60.9-30.6c-2.3-4.5-4-9.3-5.2-14.5
				c-1.2-5.2-1.7-10.3-1.6-15.3c0.4-20.8,11.2-39.5,28.2-48.9c-19.4-1.1-37.3-13.3-46.7-31.8c-2.3-4.5-4-9.3-5.2-14.5
				c-1.2-5.2-1.7-10.3-1.6-15.3c0.5-25.8,17-48.4,41.5-54c15-3.4,44.1,12.2,56.2,20.8c-7.4-7.6-26.9-29.5-29.5-40.9
				c-7.2-31.3,10.6-62.1,39.6-68.7c29-6.6,58.4,13.4,65.5,44.7c-7.1-31.3,10.6-62.1,39.6-68.8c29.1-6.6,58.4,13.4,65.6,44.7
				c2.6,11.4-0.5,30.3-3.8,40.4c7.2-13,21.6-30.4,36.6-33.8c24.5-5.6,49.2,7.6,60.9,30.6c2.3,4.5,4,9.3,5.2,14.5
				c1.2,5.2,1.7,10.3,1.6,15.3c-0.4,20.8-11.2,39.5-28.2,48.9c19.4,1.1,37.3,13.3,46.7,31.8c2.3,4.5,4,9.3,5.2,14.5
				c1.2,5.2,1.7,10.3,1.6,15.3c-0.5,25.7-17,48.4-41.6,54c-15,3.4-35.5-6.7-47.6-15.3c7.4,7.7,18.4,24,21,35.4
				C3718,2776.7,3700.3,2807.5,3671.2,2814.2z" class="st2"></path>
			<path d="M3548.2,2517.8c-6.1,47.4,0.5,90.4,28.7,125.8c-48.8-8.4-98.6,8.3-148.7,34" class="Graphic_x0020_Style_x0020_24"></path>
			<path d="M3725.6,2609.7c-52.2,30.1-101.7,40.7-148.7,34c-4.5,39.3,9.1,82,28.7,125.8" class="Graphic_x0020_Style_x0020_24"></path>
		</g>
	</g>
	<g>
		<path d="M568.9,2653.4c0,0,512.6,35.3,722.2,375.4" class="Graphic_x0020_Style_x0020_11"></path>
		<g>
			<path d="M487.9,2830.6c29.4,4.4,57.2-17.8,61.9-49.6c-4.7,31.8,15.3,61.1,44.8,65.5c29.5,4.4,57.2-17.8,62-49.6
				c1.7-11.6-8.3-34.8-12.4-44.6c8.2,12.4,29.4,33.3,44.6,35.6c24.8,3.7,48.5-11.4,58.4-35.2c1.9-4.7,3.3-9.6,4.1-14.8
				s0.9-10.4,0.4-15.4c-2-20.7-14.2-38.5-31.9-46.6c19.3-2.6,36.2-16.1,44.1-35.3c1.9-4.7,3.3-9.6,4.1-14.8
				c0.8-5.2,0.9-10.4,0.4-15.4c-2.5-25.6-20.7-46.9-45.5-50.7c-15.2-2.3-43,15.5-54.4,25c6.8-8.2,24.5-31.5,26.3-43.1
				c4.7-31.8-15.3-61.1-44.8-65.5c-29.5-4.4-57.2,17.8-61.9,49.6c4.7-31.8-15.3-61.1-44.8-65.5c-29.5-4.4-57.2,17.8-62,49.6
				c-1.7,11.6,2.8,30.2,6.9,40c-8.2-12.4-23.8-28.7-39-30.9c-24.9-3.7-48.5,11.4-58.4,35.2c-1.9,4.7-3.3,9.6-4.1,14.8
				c-0.8,5.2-0.9,10.4-0.4,15.4c2,20.7,14.2,38.5,31.9,46.6c-19.3,2.6-36.2,16.1-44.1,35.3c-1.9,4.7-3.3,9.6-4.1,14.8
				c-0.8,5.2-0.9,10.4-0.4,15.4c2.5,25.6,20.7,46.9,45.6,50.6c15.2,2.3,34.9-9.4,46.3-18.9c-6.8,8.2-16.5,25.4-18.2,36.9
				C438.4,2796.9,458.4,2826.2,487.9,2830.6z" class="st3"></path>
			<path d="M587.9,2525.7c9.8,46.8,6.4,90.2-19,127.6c48-12.1,98.9,0.7,150.9,22.5" class="Graphic_x0020_Style_x0020_34"></path>
			<path d="M418,2630.9c54.4,26,104.5,32.8,150.9,22.5c7.5,38.8-2.8,82.4-19,127.6" class="Graphic_x0020_Style_x0020_34"></path>
		</g>
	</g>
	<path d="M644.1,3185.3c-10.6-23.3-74-167.7-8.7-280.3c77.1-132.7,313.4-187.6,534.5-57.8
		c43.2-49.9,87.4-74.1,118.5-86.7c138.3-55.8,314.9-0.1,453.6,135.8c17.1-14.3,269.2-218.8,566.3-121.4
		c182.5,59.9,277.5,199.4,306.2,245.6c179.5-260.7,448.6-362.1,621.2-280.3c94.1,44.6,215.8,170.4,196.5,317.8
		c-12.6,96.1-79.5,159-106.9,182C2431.5,3221.9,1537.8,3203.6,644.1,3185.3z" class="st4"></path>
	<linearGradient y2="3276.469" x2="3755.6619" y1="3276.469" x1="400.4799" gradientUnits="userSpaceOnUse" id="SVGID_4_">
		<stop style="stop-color:#68B2FC" offset="0"></stop>
		<stop style="stop-color:#529BF7" offset="1"></stop>
	</linearGradient>
	<ellipse ry="173" rx="1677.6" cy="3276.5" cx="2078.1" class="st5"></ellipse>
	<ellipse ry="81.6" rx="740.1" cy="3321.8" cx="1985.1" class="st6"></ellipse>
	<path d="M1663.6,1303.1c-21.8,60.5-29,123.4-50.8,183.9c-0.7,1.9-1.3,3.7-1.9,5.7l153.3,82.9
		l103.6-505.9c-40.1,8-77.8,24-109.8,51.9C1707.2,1167.6,1685.4,1237.7,1663.6,1303.1z" class="Graphic_x0020_Style_x0020_8"></path>
	<path d="M1549.8,1459.6l61.1,33.1c0.6-1.9,1.2-3.8,1.9-5.7c21.8-60.5,29-123.4,50.8-183.9
		c21.8-65.3,43.6-135.5,94.4-181.5c32-28,69.7-43.9,109.8-51.9l7.8-38C1875.6,1031.7,1647,1057.1,1549.8,1459.6z" class="Graphic_x0020_Style_x0020_10"></path>
	<path d="M1618.3,1240.4c-5.8-4.9-13.1-8.2-21.4-10.3c7.8,6.7,13.5,15.9,15.9,27
		c4.8,31.5-4.8,62.9-26.6,84.7c-15,13.9-29.5,26.6-43.4,39.6c39.1,1.4,72.5-0.2,75.5-4.6C1625.4,1366.1,1653.7,1270.5,1618.3,1240.4
		z" class="Graphic_x0020_Style_x0020_8"></path>
	<path d="M1612.8,1257.1c-2.5-11.1-8.1-20.3-15.9-27c-42.6-10.8-109.6,10.3-109.6,10.3
		s-60.2,73.7-73.6,115.1c7.3,15.6,73.9,23.9,129.2,25.9c13.9-13,28.4-25.7,43.4-39.6C1608,1320,1617.7,1288.6,1612.8,1257.1z" class="Graphic_x0020_Style_x0020_10"></path>
	<path d="M1774.7,3178.9c-4.5-38.4-9.4-69.2-9.4-69.2l-111.8,9.4l-0.1,60.2C1693.3,3187.6,1734.8,3186.4,1774.7,3178.9z" class="st7"></path>
	<path d="M1653.3,3179.3l-0.1,36.2c0,0-1.3,2.6-5.5,6.9c25.2,14.1,67.6,5.4,95.7-0.2
		c11.1-3.2,23.4-8.7,34.2-15.6c-0.9-9.4-1.9-18.7-2.9-27.6C1734.8,3186.4,1693.3,3187.6,1653.3,3179.3z" class="Graphic_x0020_Style_x0020_26"></path>
	<path d="M1743.4,3222.2c-28,5.6-70.4,14.4-95.7,0.2c-10.8,10.9-40.6,32.4-116.5,47.9c-32.7,6.7-127.1,27.9-89.9,60.5
		c55,48.2,324.9,14.6,335.3-13c7.4-19.5,5.3-66.8,1-111.3C1766.7,3213.5,1754.5,3219,1743.4,3222.2z" class="st7"></path>
	<path d="M2332.3,3178.7l-12-66.4l-111.7,10.3c0,0,0.4,23.9,2.1,55.8C2250,3186.9,2293.2,3189.3,2332.3,3178.7z" class="st7"></path>
	<path d="M2337.5,3207.2l-5.2-28.5c-39.2,10.6-82.3,8.2-121.6-0.3c0.7,13,1.6,27.2,2.8,41.7
		c11.9,4.9,25,8.2,36.5,9.4c28.6,0.6,71.9,1.8,94.2-16.6C2339.2,3209.5,2337.5,3207.2,2337.5,3207.2z" class="Graphic_x0020_Style_x0020_26"></path>
	<path d="M2249.9,3229.5c28.6,0.6,71.9,1.8,94.2-16.6c12.5,8.8,51.6,35.1,128.2,46.3
		c33.1,4.8,128.5,20.6,93.2,55.3c-52.1,51.2-316.4,40.3-331.5,15c-10.7-17.9-16.9-64.8-20.5-109.4
		C2225.4,3225.1,2238.4,3228.3,2249.9,3229.5z" class="Graphic_x0020_Style_x0020_129"></path>
	<polygon points="772.6,2483.7 2769.6,2744.2 2817.2,2709.6 830.1,2459.9" class="st8"></polygon>
	<polygon points="1008.3,1248.7 2955.8,1543.8 2817.7,2705.8 830.1,2459.9" class="st9"></polygon>
	<g>
		<g>
			<path d="M2804.4,1948.6c-106.7-14.1-347.7-172.8-560-204.3c-212.8-31.6-343.6,243.8-628.8,277.7
				c-285.6,34-556.8-106.4-556.8-106.4l-21.5-10.3L989,2280.8l1736.2,225.1l79.2-557.6" class="st10"></path>
			<line y2="1369.8" x2="1106.4" y1="2280.8" x1="989" class="st11"></line>
			<g>
				<g>
					<line y2="1462.8" x2="1690.1" y1="1448.4" x1="1692.1" class="st0"></line>
					<line y2="2327.7" x2="1574.9" y1="1491.2" x1="1686.4" class="st12"></line>
					<line y2="2356.2" x2="1571.1" y1="2341.8" x1="1573" class="st0"></line>
				</g>
			</g>
			<g>
				<g>
					<line y2="1541" x2="2272.4" y1="1526.6" x1="2274.4" class="st13"></line>
					<line y2="2402.8" x2="2153.8" y1="1569.3" x1="2268.5" class="st14"></line>
					<line y2="2431.3" x2="2149.8" y1="2416.9" x1="2151.8" class="st13"></line>
				</g>
			</g>
			<g>
				<g>
					<line y2="1618.7" x2="2851.2" y1="1604.3" x1="2853.3" class="st0"></line>
					<line y2="2477.4" x2="2729.3" y1="1646.9" x1="2847.2" class="st15"></line>
					<line y2="2505.9" x2="2725.2" y1="2491.5" x1="2727.3" class="st0"></line>
				</g>
			</g>
			<path d="M1078.1,1589c0,0,358.5,278,574.8,312.1c215.8,34,546.2,106.8,815.7,220
				c268.4,112.7,294.8,116.2,294.8,116.2" class="st16"></path>
			<path d="M1071.5,1640.5c0,0,200.3,583,511.9,623.6c310.6,40.4,390.3-324.8,638.6-356.9c247.9-32.1,596-54,596-54" class="st16"></path>
			<path d="M1052.2,1790.5c0,0,445.8-51.9,596.8-18.8c150.8,33,832.9,307.6,1143,264.4" class="st16"></path>
			<path d="M1066.6,1792.4c1.1-8.5-4.5-16.3-12.4-17.4c-8-1.1-15.3,5-16.4,13.6
				c-1.1,8.5,4.5,16.3,12.4,17.4C1058.1,1807,1065.5,1800.9,1066.6,1792.4z" class="Graphic_x0020_Style_x0020_26"></path>
			<path d="M1051.8,1907.3c1.1-8.5-4.5-16.3-12.4-17.3c-8-1-15.3,5-16.4,13.6
				c-1.1,8.5,4.5,16.3,12.4,17.3C1043.3,1921.9,1050.7,1915.8,1051.8,1907.3z" class="Graphic_x0020_Style_x0020_26"></path>
			<path d="M1085.9,1642.4c1.1-8.6-4.5-16.4-12.4-17.4c-8-1.1-15.3,5-16.4,13.6
				c-1.1,8.6,4.5,16.4,12.4,17.4C1077.5,1657.1,1084.8,1651,1085.9,1642.4z" class="Graphic_x0020_Style_x0020_26"></path>
			<path d="M1092.6,1591c1.1-8.6-4.5-16.4-12.4-17.4c-8-1.1-15.3,5-16.4,13.6
				c-1.1,8.6,4.5,16.4,12.4,17.4C1084.1,1605.6,1091.4,1599.5,1092.6,1591z" class="Graphic_x0020_Style_x0020_26"></path>
			<path d="M1646.2,1902c1.1-8.5-4.4-16.3-12.3-17.3c-7.9-1-15.2,5-16.4,13.5
				c-1.1,8.5,4.4,16.3,12.3,17.3C1637.7,1916.6,1645.1,1910.5,1646.2,1902z" class="Graphic_x0020_Style_x0020_26"></path>
			<path d="M1666.2,1770.6c1.1-8.5-4.4-16.3-12.3-17.3c-7.9-1.1-15.3,5-16.4,13.5
				c-1.1,8.5,4.4,16.3,12.3,17.3C1657.8,1785.2,1665.1,1779.2,1666.2,1770.6z" class="Graphic_x0020_Style_x0020_26"></path>
			<path d="M1632.7,2022.1c1.1-8.5-4.4-16.2-12.3-17.3c-7.9-1-15.2,5-16.4,13.5
				c-1.1,8.5,4.4,16.2,12.3,17.3C1624.2,2036.7,1631.6,2030.6,1632.7,2022.1z" class="Graphic_x0020_Style_x0020_26"></path>
			<path d="M1595.2,2265.6c1.1-8.5-4.4-16.2-12.2-17.2c-7.9-1-15.2,5-16.3,13.5
				c-1.1,8.5,4.4,16.2,12.2,17.2C1586.8,2280.1,1594.1,2274.1,1595.2,2265.6z" class="Graphic_x0020_Style_x0020_26"></path>
			<path d="M2219.8,2028c1.2-8.5-4.3-16.2-12.1-17.2c-7.9-1-15.2,5-16.3,13.5
				c-1.2,8.5,4.3,16.2,12.1,17.2C2211.4,2042.5,2218.7,2036.5,2219.8,2028z" class="Graphic_x0020_Style_x0020_26"></path>
			<path d="M2230.5,1950.4c1.2-8.5-4.3-16.2-12.1-17.3c-7.9-1-15.2,5-16.4,13.5
				c-1.2,8.5,4.3,16.2,12.1,17.2C2222,1965,2229.3,1958.9,2230.5,1950.4z" class="Graphic_x0020_Style_x0020_26"></path>
			<path d="M2236.7,1905.9c1.2-8.5-4.3-16.2-12.1-17.3c-7.9-1-15.2,5-16.4,13.5
				c-1.2,8.5,4.3,16.2,12.1,17.3C2228.2,1920.4,2235.5,1914.4,2236.7,1905.9z" class="Graphic_x0020_Style_x0020_26"></path>
			<path d="M2258.6,1746.2c1.2-8.5-4.3-16.3-12.1-17.3c-7.9-1-15.2,5-16.4,13.5
				c-1.2,8.5,4.3,16.3,12.1,17.3C2250.1,1760.8,2257.5,1754.7,2258.6,1746.2z" class="Graphic_x0020_Style_x0020_26"></path>
			<path d="M2832.1,1855c1.2-8.5-4.2-16.2-12-17.2c-7.8-1-15.2,5-16.4,13.5
				c-1.2,8.5,4.2,16.2,12,17.2C2823.6,1869.5,2830.9,1863.5,2832.1,1855z" class="Graphic_x0020_Style_x0020_26"></path>
			<path d="M2818.6,1950.1c1.2-8.5-4.2-16.2-12-17.2c-7.8-1-15.1,5-16.3,13.5
				c-1.2,8.5,4.2,16.2,12,17.2C2810.1,1964.6,2817.4,1958.6,2818.6,1950.1z" class="Graphic_x0020_Style_x0020_26"></path>
			<path d="M2806.3,2036.3c1.2-8.5-4.2-16.1-12-17.2c-7.8-1-15.1,5-16.3,13.4
				c-1.2,8.5,4.2,16.1,12,17.2C2797.8,2050.7,2805.1,2044.7,2806.3,2036.3z" class="Graphic_x0020_Style_x0020_26"></path>
			<path d="M2777.8,2237.1c1.2-8.4-4.2-16.1-12-17.1c-7.8-1-15.1,5-16.3,13.4
				c-1.2,8.4,4.2,16.1,12,17.1C2769.3,2251.5,2776.6,2245.5,2777.8,2237.1z" class="Graphic_x0020_Style_x0020_26"></path>
		</g>
		<polygon points="1025.3,2405.7 935.1,2394.1 943.3,2330.4 1033.5,2342.1" class="st17"></polygon>
		<polygon points="1597.7,2479.6 1508.1,2468 1516.5,2404.6 1606.2,2416.2" class="st17"></polygon>
		<polygon points="2180.6,2554.8 2091.5,2543.3 2100.2,2480.1 2189.4,2491.6" class="Graphic_x0020_Style_x0020_26"></polygon>
		<polygon points="2755.8,2629.1 2667.2,2617.6 2676.1,2554.6 2764.7,2566.1" class="st17"></polygon>
	</g>
	<path d="M1951.2,1492.8l-241.7-61.1c0,0-107.6,555.1-81,1726.8c41.8,12.2,76.1,15,102.4,13.8
		c1.8-16.5,4.8-33,7.8-49.5c2.4-24.2,12.1-46,16.9-70.2c19.4-159.7,46-309.7,70.2-469.5c21.8-140.4,43.6-273.4,48.4-411.4
		c4.4-83.6,60.8-147.2,111-216.3c9-71.2,14.5-126,14.9-155.7C2002.8,1613.8,1951.2,1492.8,1951.2,1492.8z" class="st18"></path>
	<path d="M1825.8,2583.2c-24.2,159.7-50.8,309.7-70.2,469.5c-4.8,24.2-14.5,46-16.9,70.2
		c-3,16.5-6,33-7.8,49.5c42.2-1.9,64.1-14.1,64.1-14.1s143-827.9,190.3-1202.6c-50.2,69.1-106.6,132.7-111,216.3
		C1869.3,2309.7,1847.5,2442.8,1825.8,2583.2z" class="Graphic_x0020_Style_x0020_218"></path>
	<path d="M2271,2343.6c9.7-84.7,7.3-167-16.9-249.2c-43.6-152.5-128.3-283.1-167-442.8
		c-11.6-49.9-10.7-102.1-5.8-154.2l-128.9-41.7l-43.3,362.9c0,48.5,10.6,104.5,10.6,116.3c-0.2,37.2,236.1,1209.5,286.6,1234.3
		c14,6.9,30.4,9.1,46.9,8.8c-4.6-10.5-7.9-21.5-8.7-33.2C2232.3,2876,2246.8,2612.2,2271,2343.6z" class="st18"></path>
	<path d="M2323.1,2319.1c9.2-285.1-86.3-771.4-86.3-771.4l-155.5-50.4
		c-4.9,52.1-5.8,104.3,5.8,154.2c38.7,159.7,123.4,290.4,167,442.8c24.2,82.3,26.6,164.6,16.9,249.2
		c-24.2,268.6-38.7,532.4-26.6,801c0.8,11.7,4.1,22.7,8.7,33.2c42.9-0.9,86-19.4,86-19.4S2316.1,2536.8,2323.1,2319.1z" class="Graphic_x0020_Style_x0020_218"></path>
	<path d="M1686.7,1584.7c0,0,97.1,87.5,313.5,88.5c216.4,1,256.7-64.6,256.7-64.6l-19.6-28.5
		l-548.9-46.5L1686.7,1584.7z" class="Graphic_x0020_Style_x0020_27"></path>
	<polygon points="1937,865.3 1914.6,1025.6 1980.4,1020.9 2000.1,889.1" class="Graphic_x0020_Style_x0020_218"></polygon>
	<path d="M1922.6,1501.5c89.5-19.4,181.5-58.1,227.5-140.4c45.3-81,71.7-178.5,33.2-269.2
		c-82.6-86.1-209.8-84.7-319.2-58l-151.4,227.9c-18.5,69.1-28.3,144-33.4,201.6C1752,1503.8,1838.9,1517.4,1922.6,1501.5z" class="st19"></path>
	<path d="M2183.3,1091.9c38.5,90.8,12,188.2-33.2,269.2c-46,82.3-137.9,121-227.5,140.4
		c-83.7,15.9-170.6,2.3-243.2-38c-5.1,57.7-5.6,98.1-5.6,98.1s315.4,191.4,575.7,37.3C2297.4,1323.9,2259.2,1171,2183.3,1091.9z" class="Graphic_x0020_Style_x0020_10"></path>
	<polygon points="2639.3,2138.4 2221.7,2347.2 2365.4,2621.2 2760.3,2399.6" class="Graphic_x0020_Style_x0020_9"></polygon>
	<polygon points="2221.7,2347.2 2230.4,2363.6 2416.1,2398.4 2599,2316.7 2650.4,2162.3 
		2639.3,2138.4" class="Graphic_x0020_Style_x0020_27"></polygon>
	<polygon points="2416.8,2385.4 2587.7,2310 2639.3,2138.4 2221.7,2347.2" class="Graphic_x0020_Style_x0020_213"></polygon>
	<path d="M2484,2307.3c35.2-48.4,10.3-104.9-19.9-151.1l-56.8,7c3.5,24.6,21.9,79.4,19.7,109.7
		c-2.7,25.3,2.2,55.4,9.6,65.1C2455.9,2335.2,2473.6,2322.2,2484,2307.3z" class="Graphic_x0020_Style_x0020_7"></path>
	<path d="M2507.9,2196.8c-16.9-39.5-14.6-44.2-14.6-44.2l-29.2,3.6
		c30.3,46.2,55.2,102.7,19.9,151.1c-10.4,14.9-28.1,27.9-47.5,30.7c1.2,1.5,2.4,2.6,3.6,3c7.8,2.7,27.2,10.5,35.7,0.7
		C2502.8,2310.5,2517.3,2218.9,2507.9,2196.8z" class="Graphic_x0020_Style_x0020_69"></path>
	<path d="M2436.1,2235.1l-10.5,5.7c0,0-13.5,12.5-32.2,20.6c-16.8,7.2,16.1-75.7,16.1-75.7
		l-0.7-19.9h21.8" class="Graphic_x0020_Style_x0020_7"></path>
	<path d="M2395.4,1385.8c-79.6-328.7-301.8-349.7-301.8-349.7l90.9,241.4c0.4,9.9,1.8,23.3,4.2,39.4
		c63.9,66.6,90.7,156.5,108.9,249.9c41.1,210.5,48.4,416.2,142.8,605c1.7,3,3.6,5.8,5.5,8.5c31.1-4.1,62-24.4,62-24.4
		S2460.5,1654.7,2395.4,1385.8z" class="st19"></path>
	<path d="M2297.6,1566.8c-18.3-93.4-48.8-214.8-112.7-281.4c28.9,194.8,197.8,832,212.7,878.6
		c12.1,15.7,30.3,18.7,48.3,16.3c-1.9-2.7-3.8-5.5-5.5-8.5C2346,1983.1,2338.8,1777.4,2297.6,1566.8z" class="Graphic_x0020_Style_x0020_8"></path>
	<path d="M1951.6,1052.9l19.5-151.4c0,0-74.4,15.9-70.4-58.5c4-74.4,17.3-171.4,102.3-167.4
		c85,4,89,203.3,94.3,252.4c5.3,49.2,0,136.8,0,136.8S1984.7,1080.8,1951.6,1052.9z" class="Graphic_x0020_Style_x0020_7"></path>
	<path d="M1867.8,662.5c-2.1,10.9-8.3,94.3,99.3,74.4c29.2,19.9,74.4,13.3,74.4,13.3
		s5.3,94.3,12,93c6.6-1.3-1.3-63.8,9.3-59.8c10.6,4-6.4,83.9,14.6,120.9s21.3,130.2,21.3,130.2l90.8,31.2c0,0,30.6-141.9-4.9-284.7
		C2129.4,554.6,1890.7,545.6,1867.8,662.5z" class="Graphic_x0020_Style_x0020_218"></path>
	<polygon points="1008.3,1248.7 969,1301.2 934,1284.7 772.6,2483.7 830.1,2459.9" class="st20"></polygon>
	<path d="M2014.3,602.5c0,0-15.5-56.3,53.2-51.7c68.7,4.7,66.7,79.1,26.4,84.8
		C2053.6,641.2,2014.3,602.5,2014.3,602.5z" class="Graphic_x0020_Style_x0020_218"></path>
	<path d="M2030.5,611c19.4,12.7,67.7,31,72.9,29.5c2.9-0.8,7.4-2.4,5.1-9.4
		c-1-3-18-8-37.1-16.6c-24.7-11.2-53.4-26.2-60.1-26.1C1999.5,588.8,2011.1,598.3,2030.5,611z" class="Graphic_x0020_Style_x0020_213"></path>
	<path d="M2142.4,1745.6c0,0-12.6,62.7,56.6,79.1" class="st21"></path>
	<path d="M1652.1,1347.5c0,0,57-281.9,243-322l30.5-3.4c0,0-99.8,32.1-157.6,113.5
		c-52.9,74.5-94.3,215.2-94.3,215.2L1652.1,1347.5z" class="Graphic_x0020_Style_x0020_220"></path>
	<path d="M1586.2,1225.6c-13.3,10.7-23.7,25.7-35.2,40.4c18.2,2.2,37.9-1.8,37.9-1.8
		s10.6-23,29-30.6c7.6-3.1,39.4,7.5,62.5,2.5c17.8-3.9,33.5-13,44.4-22.8C1676.9,1208.4,1626.9,1196.9,1586.2,1225.6z" class="Graphic_x0020_Style_x0020_69"></path>
	<path d="M1741.2,1189.9c5.3-25.7-19.5-36.3-97.4-35.4c-77.9,0.9-123.1,87.7-123.1,87.7
		c1.2,16,15.2,22.1,30.3,23.9c11.5-14.6,21.9-29.7,35.2-40.4c40.6-28.7,90.7-17.2,138.6-12.3
		C1733.9,1205.3,1739.8,1196.6,1741.2,1189.9z" class="Graphic_x0020_Style_x0020_7"></path>
	<path d="M1945.2,1280.9c0,0,2.1-139.6,38.2-181.9c31.5,11.4,103.4-8.3,103.4-8.3" class="Graphic_x0020_Style_x0020_209"></path>
	<path d="M1925.6,1063.3c0,0,10.9,25.6,58.9,36.7" class="Graphic_x0020_Style_x0020_209"></path>
	<linearGradient y2="2263.7781" x2="670.1223" y1="2263.7781" x1="509.1484" gradientUnits="userSpaceOnUse" id="SVGID_5_">
		<stop style="stop-color:#68B2FC" offset="0"></stop>
		<stop style="stop-color:#529BF7" offset="1"></stop>
	</linearGradient>
	<path d="M670.1,2263.8c0,44.5-36,80.5-80.5,80.5s-80.5-36-80.5-80.5c0-44.5,36-80.5,80.5-80.5
		S670.1,2219.3,670.1,2263.8z" class="st22"></path>
	<linearGradient y2="2367.1589" x2="246.5309" y1="2367.1589" x1="132.7055" gradientUnits="userSpaceOnUse" id="SVGID_6_">
		<stop style="stop-color:#68B2FC" offset="0"></stop>
		<stop style="stop-color:#EBF0F7" offset="1"></stop>
	</linearGradient>
	<path d="M246.5,2367.2c0,31.4-25.5,56.9-56.9,56.9c-31.4,0-56.9-25.5-56.9-56.9c0-31.4,25.5-56.9,56.9-56.9
		C221.1,2310.2,246.5,2335.7,246.5,2367.2z" class="st23"></path>
	<linearGradient y2="1768.7393" x2="3198.1646" y1="1768.7393" x1="3050.2056" gradientUnits="userSpaceOnUse" id="SVGID_7_">
		<stop style="stop-color:#68B2FC" offset="0"></stop>
		<stop style="stop-color:#EBF0F7" offset="1"></stop>
	</linearGradient>
	<path d="M3198.2,1768.7c0,40.9-33.1,74-74,74c-40.9,0-74-33.1-74-74c0-40.9,33.1-74,74-74
		C3165,1694.8,3198.2,1727.9,3198.2,1768.7z" class="st24"></path>
	<linearGradient y2="2127.0159" x2="3867.2944" y1="2127.0159" x1="3755.6619" gradientUnits="userSpaceOnUse" id="SVGID_8_">
		<stop style="stop-color:#4085F0" offset="0"></stop>
		<stop style="stop-color:#275DC9" offset="1"></stop>
	</linearGradient>
	<ellipse ry="55.8" rx="55.8" cy="2127" cx="3811.5" class="st25"></ellipse>
	<path d="M3238.2,1267.9c0,0,154.1,29.6,207.5-104.7s148.2-70,148.2-70s-25.7,132.9,11.9,177.5
		c0,0-97.8,5.7-127.4,68.3c-27,57-119.6,31.6-119.6,31.6S3269.8,1275.8,3238.2,1267.9z" class="st26"></path>
	<path d="M3465.5,1177.1c-0.6,2.2,53.5,94.9,53.5,94.9c17.4-11.9,33.9-17.6,48.9-12.7l-12.7-165
		C3555.2,1094.3,3482.8,1112.2,3465.5,1177.1z" class="st17"></path>
	<g>
		<path d="M453,1398.9l-50.7,13c-6.8,1.7-13.6-2.3-15.4-9.1l-16.7-65.2c-1.7-6.8,2.3-13.6,9.1-15.4l50.7-13
			c6.8-1.7,13.6,2.3,15.4,9.1l16.7,65.2C463.8,1390.3,459.8,1397.1,453,1398.9z" class="st26"></path>
		<path d="M560.1,1371.5l-50.7,13c-6.8,1.7-13.6-2.3-15.4-9.1l-31.7-124.2c-1.7-6.8,2.3-13.6,9.1-15.4l50.7-13
			c6.8-1.7,13.6,2.3,15.4,9.1l31.7,124.2C570.9,1362.9,566.8,1369.8,560.1,1371.5z" class="st26"></path>
		<path d="M667.5,1344l-50.7,13c-6.8,1.7-13.6-2.3-15.4-9.1l-43.7-171c-1.7-6.8,2.3-13.6,9.1-15.4l50.7-13
			c6.8-1.7,13.6,2.3,15.4,9.1l43.7,171C678.4,1335.4,674.3,1342.3,667.5,1344z" class="st26"></path>
		<linearGradient y2="1143.1332" x2="605.3271" y1="1143.1332" x1="345.1479" gradientUnits="userSpaceOnUse" id="SVGID_9_">
			<stop style="stop-color:#4085F0" offset="0"></stop>
			<stop style="stop-color:#275DC9" offset="1"></stop>
		</linearGradient>
		<path d="M351.4,1263.7c0,0,193.5-113.4,194.9-194.8c-33.2,9.1-37.6,9.6-37.6,9.6l78.8-65.7l17.8,104.4
			c0,0-17.7-17.1-20.2-37.6c-19.7,48.9-71.1,145.4-231.5,193.1C335.9,1277.1,351.4,1263.7,351.4,1263.7z" class="st27"></path>
	</g>
	<polygon points="1027.7,623.3 1174.9,811.9 1276.1,800.4" class="st26"></polygon>
	<polygon points="1036.9,647.4 1157.6,872.6 1157.6,806.1" class="st26"></polygon>
	
		<ellipse ry="37.5" rx="37.5" cy="1045" cx="2989.1" class="Graphic_x0020_Style_x0020_139" transform="matrix(0.9732 -0.2298 0.2298 0.9732 -160.1378 714.7001)"></ellipse>
	<path d="M2018.7,890.8l-47.6,10.8l-3.2,24.8C1967.9,926.4,2018.7,906.9,2018.7,890.8z" class="Graphic_x0020_Style_x0020_69"></path>
</g>
</svg>
