<svg xml:space="preserve" style="enable-background:new 0 0 4000 4000;" viewBox="0 0 4000 4000" y="0px" x="0px" xmlns:xlink="http://www.w3.org/1999/xlink" xmlns="http://www.w3.org/2000/svg" id="Layer_1" version="1.1">
<style type="text/css">
	.Graphic_x0020_Style_x0020_53{fill:#152A52;}
	.Graphic_x0020_Style_x0020_212{fill:#FFFFFF;}
	.Graphic_x0020_Style_x0020_216{fill:#1A1A1A;}
	.Graphic_x0020_Style_x0020_50{fill:#152A52;}
	.Graphic_x0020_Style_x0020_58{fill:#102140;}
	
		.Graphic_x0020_Style_x0020_75{fill:none;stroke:#10663F;stroke-width:2;stroke-linecap:round;stroke-linejoin:round;stroke-miterlimit:10;}
	
		.Graphic_x0020_Style_x0020_61{fill:none;stroke:#3DBE88;stroke-width:2;stroke-linecap:round;stroke-linejoin:round;stroke-miterlimit:10;}
	.Graphic_x0020_Style_x0020_93{fill:#127755;}
	.Graphic_x0020_Style_x0020_99{fill:#B080B0;}
	.Graphic_x0020_Style_x0020_86{fill:#572658;}
	.Graphic_x0020_Style_x0020_206{fill:url(#SVGID_1_);}
	.Graphic_x0020_Style_x0020_47{fill:#FFCF4A;}
	.Graphic_x0020_Style_x0020_52{fill:url(#SVGID_2_);}
	.Graphic_x0020_Style_x0020_78{fill:#FFDE70;}
	.Graphic_x0020_Style_x0020_210{fill:#CCC4CC;}
	.Graphic_x0020_Style_x0020_65{fill:none;stroke:#855B87;stroke-linecap:round;stroke-linejoin:round;stroke-miterlimit:10;}
	.Graphic_x0020_Style_x0020_79{fill:#DBD2DB;}
	.Graphic_x0020_Style_x0020_80{fill:#FFB114;}
	.Graphic_x0020_Style_x0020_219{fill:#DB6767;}
	.Graphic_x0020_Style_x0020_89{fill:#EB485C;}
	
		.Graphic_x0020_Style_x0020_48{fill:none;stroke:#FFFFFF;stroke-width:2;stroke-linecap:round;stroke-linejoin:round;stroke-miterlimit:10;}
	
		.Graphic_x0020_Style_x0020_28{fill:none;stroke:#1A1A1A;stroke-width:3;stroke-linecap:round;stroke-linejoin:round;stroke-miterlimit:10;}
	.Graphic_x0020_Style_x0020_83{fill:#3B546B;}
	.Graphic_x0020_Style_x0020_87{fill:#6584C6;}
	.st0{fill:none;stroke:#1A1A1A;stroke-width:2;stroke-linecap:round;stroke-linejoin:round;}
	.st1{fill:none;stroke:#1A1A1A;stroke-width:2;stroke-linecap:round;stroke-linejoin:round;stroke-dasharray:11.9117,11.9117;}
	.st2{fill:url(#SVGID_3_);}
	.st3{fill:#339E7E;}
	.st4{fill:#00593B;}
	.st5{fill:none;stroke:#1A1A1A;stroke-width:2;stroke-linecap:round;stroke-linejoin:round;stroke-miterlimit:10;}
	.st6{fill:#FFFFFF;}
	.st7{fill:#152A52;}
	.st8{fill:#102140;}
	.st9{fill:#1A1A1A;stroke:#1A1A1A;stroke-width:2;stroke-linecap:round;stroke-linejoin:round;stroke-miterlimit:10;}
	.st10{fill:#FC9590;}
	.st11{fill:#FFDE70;}
	.st12{fill:url(#SVGID_4_);}
	.st13{fill:url(#SVGID_5_);}
	.st14{fill:url(#SVGID_6_);}
	.st15{fill:url(#SVGID_7_);}
	.st16{fill:none;stroke:#1A1A1A;stroke-width:3;stroke-linecap:round;stroke-linejoin:round;stroke-miterlimit:10;}
	.st17{fill:url(#SVGID_8_);}
	.st18{fill:none;stroke:#FFCF4A;stroke-linecap:round;stroke-linejoin:round;stroke-miterlimit:10;}
	.st19{fill:#6E696E;}
</style>
<linearGradient y2="0" x2="1" y1="0" x1="0" gradientUnits="userSpaceOnUse" id="SVGID_1_">
	<stop style="stop-color:#4085F0" offset="0"></stop>
	<stop style="stop-color:#275DC9" offset="1"></stop>
</linearGradient>
<linearGradient y2="0" x2="1" y1="0" x1="0" gradientUnits="userSpaceOnUse" id="SVGID_2_">
	<stop style="stop-color:#4085F0" offset="0"></stop>
	<stop style="stop-color:#275DC9" offset="1"></stop>
</linearGradient>
<g>
	<g>
		<g>
			<path d="M1696.8,896.2c-4.2-0.6-8.3-1.2-12.5-1.8" class="st0"></path>
			<path d="M1659.3,891.2C522.5,761.5-406.4,2563.1,1450.4,2756.9" class="st1"></path>
			<path d="M1462.9,2758.2c4.2,0.4,8.4,0.8,12.6,1.2" class="st0"></path>
		</g>
	</g>
	<linearGradient y2="2971.9722" x2="3907.2559" y1="2971.9722" x1="265.8922" gradientUnits="userSpaceOnUse" id="SVGID_3_">
		<stop style="stop-color:#68B2FC" offset="0"></stop>
		<stop style="stop-color:#529BF7" offset="1"></stop>
	</linearGradient>
	<path d="M3907.3,2943.2c0-36.2-95.3-70.1-260.8-99c-45.2-92.9-424.6-165.4-886-165.4c-289.1,0-545.9,28.5-708.6,72.6
		c-989.5,2-1786,87.1-1786,191.9c0,41.9,127.4,80.6,343.4,112.2c-5.7,8.4-8.6,17-8.6,25.7c0,101.6,398.7,184,890.5,184
		c404.3,0,745.7-55.7,854.4-132C3228.4,3119.9,3907.3,3039.9,3907.3,2943.2z" class="st2"></path>
	<path d="M3103.9,2543.5l9.4,180.1c70.1-0.6,140.4-43.1,202.2-75.6
		c29.9-15.6,62.7-27.9,96.4-35.6l8.8-53.7L3103.9,2543.5z" class="Graphic_x0020_Style_x0020_99"></path>
	<path d="M3113.3,2723.6l4.4,83.9c89.8,14,177.6,11.6,263.4-7.1l30.8-188
		c-33.8,7.7-66.5,20-96.4,35.6C3253.7,2680.5,3183.4,2722.9,3113.3,2723.6z" class="Graphic_x0020_Style_x0020_86"></path>
	<ellipse ry="15.4" rx="144.8" cy="2548.3" cx="3288.9" class="Graphic_x0020_Style_x0020_216"></ellipse>
	<g>
		<g>
			<g>
				<path d="M3277.6,2475.5c0,0,347.1,198.9,522.7-46.9s99.5-474.5-92.3-579.6c-191.9-105-455.7-23.3-538.1,104.4
					C3087.4,2081,3309.4,2427,3277.6,2475.5z" class="st3"></path>
				<path d="M3675.7,1993c0,0-178.5,399.2-519.6,561.1" class="Graphic_x0020_Style_x0020_75"></path>
				<path d="M3792.5,2080.4c0,0-80.4-53.3-151.4-20.1c-18.5-79.6-101.1-155.6-101.1-155.6" class="Graphic_x0020_Style_x0020_75"></path>
				<path d="M3781.9,2209.5c0,0-121-88.9-179.6-78.3c-15.3-53.8-77.5-172-189.5-218.7" class="Graphic_x0020_Style_x0020_75"></path>
				<path d="M3828.9,2328.7c0,0-178.6-132.5-273.3-122.9c-2.4-49.4-111.7-210.8-281.3-247.5" class="Graphic_x0020_Style_x0020_75"></path>
				<path d="M3712.9,2360.1c0,0-101.5-99.8-209.6-94.1c-8.1-59.8-124.7-195.8-231.4-215.5" class="Graphic_x0020_Style_x0020_75"></path>
				<path d="M3647.7,2435.2c0,0-110.4-117.9-199.1-102.3c-0.7-64.5-77.9-145.5-175.6-184.3" class="Graphic_x0020_Style_x0020_75"></path>
				<path d="M3601.2,2486c0,0-83.5-86-212.7-94.7c-5.9-47.7-67.9-155-130.1-162.5" class="Graphic_x0020_Style_x0020_75"></path>
			</g>
			<g>
				<path d="M3409,2545.2c0,0,174.2-156.7,268.2-88.2c94,68.5,208.2,196.5,102.3,330.7
					c-105.9,134.2-265.8,158-365.2,22.4C3314.8,2674.4,3439.3,2629,3409,2545.2z" class="st4"></path>
				<path d="M3714.5,2783.6c0,0-125.8-224-305.5-238.4c-139.7-11.2-140.2,1-140.2,1" class="Graphic_x0020_Style_x0020_61"></path>
				<path d="M3592.5,2478.1c0,0-73.3,71.6-126.5,76.4c58,39.8-17.2,112.5-48.3,129" class="Graphic_x0020_Style_x0020_61"></path>
				<path d="M3678.1,2500.3c0,0-56.2,71.2-154.8,77.1c28.2,41.3-8.9,134.1-108.6,164.2" class="Graphic_x0020_Style_x0020_61"></path>
				<path d="M3732.9,2572.4c0,0-72.6,69.6-152.2,50.6c8.2,34.2-21.7,151.9-103.9,161.9" class="Graphic_x0020_Style_x0020_61"></path>
				<path d="M3768.8,2651.7c0,0-91.7,37.2-133.7,23.8c-7.3,49-11.5,149.8-132.4,182.8" class="Graphic_x0020_Style_x0020_61"></path>
				<path d="M3740,2711.9c0,0-39.8,18.7-64.2,11.9c5.1,47.9-15.9,105.3-46.2,118.4" class="Graphic_x0020_Style_x0020_61"></path>
			</g>
			<g>
				<path d="M3259.8,2493.4c0,0-16.6-243.8-136.8-260.8c-120.1-17-298.6-4.1-316.8,173.3
					c-18.2,177.4,84.3,311.4,257.2,282C3236.4,2658.6,3176.2,2534.1,3259.8,2493.4z" class="Graphic_x0020_Style_x0020_93"></path>
				<path d="M2857.8,2450c0,0,261-81.2,402,43.4c51.6,45.6,19.1,61.5,19.1,61.5" class="Graphic_x0020_Style_x0020_61"></path>
				<path d="M3171,2309.9c0,0,2.8,106.9,39.3,149.1c-72.4-12.3-68.9,96.8-57.5,131.7" class="Graphic_x0020_Style_x0020_61"></path>
				<path d="M3090.8,2264.3c0,0-9.7,94.1,59.9,170.2c-51.2,10.5-90.7,106.9-37.9,201.9" class="Graphic_x0020_Style_x0020_61"></path>
				<path d="M2997.4,2278.5c0,0,3.8,104.8,77.2,148.4c-31,19.6-94.1,129.6-39.7,196.7" class="Graphic_x0020_Style_x0020_61"></path>
				<path d="M2912.9,2311.8c0,0,41.7,94.4,82.9,114.9c-30.1,42-100.2,120.5-33.6,233.1" class="Graphic_x0020_Style_x0020_61"></path>
				<path d="M2890.8,2377.8c0,0,16.2,42.9,39.5,55.5c-38.6,32.1-64.6,90.4-51.4,122.2" class="Graphic_x0020_Style_x0020_61"></path>
			</g>
		</g>
	</g>
	<path d="M1086.5,1430.9c-1.7-3.4-448.9,119.9-452,121.6c1.5-2.9,96.8-188.5,270.9-233.5
		c39.3-10.2,82.5-13.1,129.6-5.3c52,8.7,96.1,27.8,131.6,53.8C1128.8,1374.1,1106.5,1397.3,1086.5,1430.9z" class="Graphic_x0020_Style_x0020_87"></path>
	<path d="M634.5,1552.5C634.5,1552.5,634.5,1552.5,634.5,1552.5" class="st5"></path>
	<path d="M3391.5,2694c-62.3,128.1-132.8,241.1-213.1,281.4c-373.3,147.4-705.2,146.5-876.4-36.9
		c-461.2-484.3-881.2-112.3-985.4-267.9c-136-203.2,339.4-385.6,84.4-573.4c-41.7-30.7-74.3-42.1-101.2-40.7l224.3-125.9
		l292.3-150.9l42.7-22c29-5.8,64.9,3.9,112.8,39.2c255,187.8-327.4,472.5-191.4,675.8c63.3,94.6,249.7-20.9,580-87.3
		c465.1-93.4,443.4,144.7,756.5,323.3C3244.3,2796.9,3283.1,2755,3391.5,2694z" class="st6"></path>
	<path d="M1436.6,2047.2l430.2-253.3c0,0,182.4,71,128.7,189.7
		c-194.8,120.3-464.1,240.5-464.1,240.5S1511.7,2072.6,1436.6,2047.2z" class="Graphic_x0020_Style_x0020_210"></path>
	<path d="M1705.9,1470.7c-255.7,133.2-320.6,373.7-181.9,459.8l-224.3,125.9c-86.1,4.5-113.6,139.5-193.7,186.6
		c-25.9,15.3-57.3,21.3-98.1,10.7c-205.8-53.4-157.5-334.5,127.1-482.7c176.9-92.2,171.8-301,31.6-403.5
		c-35.5-25.9-79.6-45.1-131.6-53.8c-47.1-7.9-90.4-4.9-129.6,5.3l493.4-269.3l1-0.6c57-31.2,126-49.1,206-35.7
		C1863.4,1056.6,1927.6,1355.3,1705.9,1470.7z" class="st6"></path>
	<path d="M1322.2,1626.2c206.7-108,488.1-310,488.1-310s18.1-179.5-131-219.1
		c-177.3,85.8-450.6,246-450.6,246S1380.9,1455.3,1322.2,1626.2z" class="Graphic_x0020_Style_x0020_210"></path>
	<path d="M1401,2097.1L1106.1,2243c80.1-47.1,107.6-182.1,193.7-186.6
		C1326.7,2055.1,1359.3,2066.4,1401,2097.1z" class="Graphic_x0020_Style_x0020_87"></path>
	<g>
		<path d="M2330.3,2596.3c-2.3,2.5-43.4-14.6-72.9,21.5c-29.5,36.2,41.9,275.6,82.8,272.6
			c40.9-3,39.9-114.8,40.4-180.1C2381.1,2645.2,2330.3,2596.3,2330.3,2596.3z" class="Graphic_x0020_Style_x0020_58"></path>
		<path d="M2395.7,2570.3l-32.1,94.3c0,0-54-16.5-54.1-64.8c27-68.2,28.3-73.9,28.3-73.9
			S2391.9,2544,2395.7,2570.3z" class="Graphic_x0020_Style_x0020_86"></path>
		<path d="M2727.6,1976.4c-16.9,183.3-325.6,675.4-325.6,675.4c-31.7-2.7-59.5-30.9-84.1-81.5c-3.4-7-6.7-14.4-10-22.3
			c0,0,183.3-484.8,152-586.1c-18.9-61.2-158.3-136.4-265.8-186.4c-70.5-32.8-127.4-54.8-127.4-54.8l156.8-98.9
			C2223.5,1621.9,2744.4,1793.1,2727.6,1976.4z" class="st7"></path>
		<path d="M2317.9,2570.3c-3.4-7-6.7-14.4-10-22.3c0,0,183.3-484.8,152-586.1
			c-18.9-61.2-158.3-136.4-265.8-186.4V1716l75.2-17.7c72.3,14.3,204.8,86.5,286.1,214.3C2633.7,2035.8,2343,2534.4,2317.9,2570.3z" class="Graphic_x0020_Style_x0020_216"></path>
		<path d="M2722.3,2694c-0.5,3.4-44.4,11.2-49.6,57.6c-5.2,46.4,184.5,208.9,217.2,184.3
			c32.8-24.6-28.7-118.1-63.5-173.3C2791.5,2707.5,2722.3,2694,2722.3,2694z" class="Graphic_x0020_Style_x0020_58"></path>
		<path d="M2763.2,2636.7l24.1,96.6c0,0-54.3,15.4-80.6-25.1c-14.3-72-16.3-77.5-16.3-77.5
			S2745.7,2616.6,2763.2,2636.7z" class="Graphic_x0020_Style_x0020_86"></path>
		<path d="M2792.7,2627.6c-1.9,8.1-5.7,14.8-10.8,20.2c-26.3,28.4-88.9,24.5-126.1,19c-17.5-2.6-29.5-5.4-29.5-5.4
			s-149.5-644-482.4-704.3c-332.8-60.3-326.2-239.4-326.2-239.4s25.3-24.1,80.5-42.3c65.5-21.7,173-35.3,330.1,9.2
			c108.7,31,195.9,97.3,266.3,182.2l0,0c0,0,0,0,0,0.1C2681.8,2092.7,2750.6,2450.6,2792.7,2627.6z" class="st7"></path>
		<path d="M2792.7,2627.6c-1.9,8.1-5.7,14.8-10.8,20.2c-10.4-23.6-16.4-62.6-29.2-122
			c-80.2-373.5-254.3-650.9-258.1-659C2681.8,2092.7,2750.6,2450.6,2792.7,2627.6z" class="st8"></path>
		<path d="M2655.7,2666.8c-17.5-2.6-29.5-5.4-29.5-5.4s-149.5-644-482.4-704.3
			c-332.8-60.3-326.2-239.4-326.2-239.4s25.3-24.1,80.5-42.3c44.2,87.4,143,215.1,352.2,253.2
			C2528.5,1979.3,2631,2507.8,2655.7,2666.8z" class="Graphic_x0020_Style_x0020_58"></path>
		<path d="M2097.2,1049.5c0,0,12.7,71.1,0,78.8c-12.7,7.6-60.1-5.1-59.3-9.3c0.8-4.2,11-61.8,11-61.8L2097.2,1049.5z" class="st9"></path>
		<path d="M2378.6,1435.3c-18.4,3.4-38.8,10.1-81,27c-119.7,31.8,20-277.2-182.7-339.5
			l-12.1,438c133.3,18.4,251.7-62.1,278.9-67.5C2398.5,1490,2407.5,1434.9,2378.6,1435.3z" class="Graphic_x0020_Style_x0020_47"></path>
		<path d="M2166.1,1262.1c0,0,33.6,60.1,51.3,152.4c17.8,92.3,139.7,92.3,139.7,92.3
			s-58.4,77.9-67.8,83.8c-9.3,5.9-95.3-7.4-95.3-7.4s-66.4-158.1-68.1-163.8S2166.1,1262.1,2166.1,1262.1z" class="Graphic_x0020_Style_x0020_80"></path>
		<path d="M2380.5,1441.2c0,0,57.2,3.4,69,22.4c11.9,19.1,9.7,61,9.7,61s-18.7,17.2-42.3,3
			c-23.6-14.2-24.6-42.3-41.1-44C2355.5,1468.3,2367.8,1445,2380.5,1441.2z" class="st10"></path>
		<path d="M2285,1621.9c-30.2,113.3-479.2,109.8-479.2,109.8s-6.8-235.4,6.6-401.9
			c2.2-27.1,4.9-52.4,8.3-74.5c20.1-132.1,123-137.5,123-137.5c91.8-19.6,155.6-11.1,201.1,18.6c38.7,60.1,63.6,133.2,61.2,231.6
			c-2.8,49.7,0.1,86.4,7,116.2C2226.2,1541.5,2254.2,1573,2285,1621.9z" class="Graphic_x0020_Style_x0020_78"></path>
		<path d="M2285,1621.9c-30.2,113.3-479.2,109.8-479.2,109.8s-6.8-235.4,6.6-401.9
			c51.6,50.7,142.9,123.5,242.4,123.7c88.7,0.2,134.9,16.8,158.1,30.7C2226.2,1541.5,2254.2,1573,2285,1621.9z" class="Graphic_x0020_Style_x0020_47"></path>
		<polygon points="2302,1698.3 2487.3,1577.1 2477.7,1577.1 2315.2,1671.3" class="Graphic_x0020_Style_x0020_216"></polygon>
		<polygon points="2082.7,1602.6 2316.4,1673.2 2302,1698.3 2071.7,1621.8" class="Graphic_x0020_Style_x0020_216"></polygon>
		<path d="M2336.8,1493.3c-7.6,1.7-254.1,109.3-254.1,109.3l233.8,70.6l189.7-119.7
			L2336.8,1493.3z" class="Graphic_x0020_Style_x0020_83"></path>
		<polygon points="2522.2,1429 2315.2,1671.3 2330.6,1680.9 2534.2,1441.2" class="Graphic_x0020_Style_x0020_50"></polygon>
		<polygon points="2726,1312.8 2522.2,1429 2534.2,1441.2 2733.6,1324.7" class="Graphic_x0020_Style_x0020_50"></polygon>
		<polygon points="2330.6,1680.9 2542.6,1554.5 2733.6,1324.7 2534.2,1441.2" class="Graphic_x0020_Style_x0020_83"></polygon>
		<path d="M2106.1,1553.3c-65.9,36.7-331.3,168.8-394-50.7c-48.4-169.3,26.9-269.1,99-323.3
			c52.4-39.3,103.1-54.5,103.1-54.5l-90.2,218c-40.8,172.7,154.2,200.6,229.5,170.5c13.6-5.4,25.1-9.9,35.1-13.6
			c19.2-0.4,30.7,11.6,32.6,24.8C2122.8,1535.2,2118.1,1546.9,2106.1,1553.3z" class="st11"></path>
		<path d="M2049.8,1146.7l5.1-75.6c0,0,107.7,36.5,111.1-141c2.1-107.7-93.3-134.3-148.8-77.6
			c-55.5,56.7-23.7,153.2-37.2,194.2c-9,27.2-40.1,66.4-51.5,90.5C1922.8,1149.4,2013.6,1201,2049.8,1146.7z" class="st10"></path>
	</g>
	<path d="M1869.1,1143.6c0,0,53.6-16.2,84.1-21.8c70-16.7,60.4-90.1,55.9-142c-4.5-51.9,15.8-63.2,24.8-57.6
		c9,5.6,39.9-4.5,48.8-26c56.2,1.1,51.7,53.9,97.1,62.9c0,0,50.2-71.9,14.3-121.6s-87.9-31.6-87.9-31.6s-64.4-56.5-133.3,3.4
		C1904.1,869.1,1864.6,1103.2,1869.1,1143.6z" class="st8"></path>
	<g>
		<linearGradient y2="2044.3826" x2="529.9542" y1="2044.3826" x1="330.538" gradientUnits="userSpaceOnUse" id="SVGID_4_">
			<stop style="stop-color:#68B2FC" offset="0"></stop>
			<stop style="stop-color:#529BF7" offset="1"></stop>
		</linearGradient>
		<polygon points="530,2151.7 430.2,2109.8 330.5,2067.8 416.7,2002.4 502.9,1937.1 516.4,2044.4" class="st12"></polygon>
		<linearGradient y2="1589.0651" x2="3036.0349" y1="1589.0651" x1="2884.9419" gradientUnits="userSpaceOnUse" id="SVGID_5_">
			<stop style="stop-color:#68B2FC" offset="0"></stop>
			<stop style="stop-color:#529BF7" offset="1"></stop>
		</linearGradient>
		<polygon points="3036,1608.9 2960.5,1639.3 2884.9,1669.7 2896.4,1589.1 2907.8,1508.4 2971.9,1558.6" class="st13"></polygon>
		<linearGradient y2="2073.6863" x2="3029.6582" y1="2073.6863" x1="2805.1379" gradientUnits="userSpaceOnUse" id="SVGID_6_">
			<stop style="stop-color:#4085F0" offset="0"></stop>
			<stop style="stop-color:#275DC9" offset="1"></stop>
		</linearGradient>
		<polygon points="2959.3,2183 2882.2,2097.9 2805.1,2012.7 2917.4,1988.6 3029.7,1964.4 2994.5,2073.7" class="st14"></polygon>
		<linearGradient y2="2717.501" x2="247.8613" y1="2717.501" x1="92.7441" gradientUnits="userSpaceOnUse" id="SVGID_7_">
			<stop style="stop-color:#4085F0" offset="0"></stop>
			<stop style="stop-color:#275DC9" offset="1"></stop>
		</linearGradient>
		<polygon points="247.9,2791 170.3,2778.4 92.7,2765.8 142.4,2704.9 192.1,2644 220,2717.5" class="st15"></polygon>
	</g>
	<path d="M2037.9,1340.8c6.9-19.9-3-114.8-8.9-161.5c-16.1,13.6-40.2,13.7-40.2,13.7l2.1,7.6
		c0,0,26.7,2.1,33-8.5c4.2,33.5,8.5,151,8.5,151S2035,1349.1,2037.9,1340.8z" class="Graphic_x0020_Style_x0020_80"></path>
	<g>
		<g>
			<line y2="2131.6" x2="1865.7" y1="2296.4" x1="1505.4" class="Graphic_x0020_Style_x0020_28"></line>
			<line y2="2259.1" x2="1786.6" y1="2426.3" x1="1429.8" class="st16"></line>
			<line y2="2377.7" x2="1734.7" y1="2552.5" x1="1361.3" class="st16"></line>
			<line y2="1583.3" x2="1528" y1="1746.5" x1="1220.8" class="Graphic_x0020_Style_x0020_28"></line>
			<line y2="1716" x2="1436.6" y1="1910.5" x1="1032.2" class="st16"></line>
			<line y2="1897.8" x2="1437.6" y1="2140" x1="966.7" class="st16"></line>
			<line y2="2131.6" x2="1202.2" y1="2224.2" x1="1063.9" class="st16"></line>
			<line y2="2046.3" x2="958.9" y1="1831.2" x1="1401" class="st16"></line>
			<line y2="1054.3" x2="1528" y1="1264.3" x1="1150.9" class="st16"></line>
			<line y2="2504" x2="1755.4" y1="2601.1" x1="1548" class="st16"></line>
		</g>
		<g>
			<line y2="2131.6" x2="1865.7" y1="2296.4" x1="1505.4" class="Graphic_x0020_Style_x0020_65"></line>
			<line y2="2259.1" x2="1786.6" y1="2426.3" x1="1429.8" class="Graphic_x0020_Style_x0020_65"></line>
			<line y2="2377.7" x2="1734.7" y1="2552.5" x1="1361.3" class="Graphic_x0020_Style_x0020_65"></line>
			<line y2="1583.3" x2="1528" y1="1746.5" x1="1220.8" class="Graphic_x0020_Style_x0020_65"></line>
			<line y2="1716" x2="1436.6" y1="1910.5" x1="1032.2" class="Graphic_x0020_Style_x0020_65"></line>
			<line y2="1897.8" x2="1437.6" y1="2140" x1="966.7" class="Graphic_x0020_Style_x0020_65"></line>
			<line y2="2131.6" x2="1202.2" y1="2224.2" x1="1063.9" class="Graphic_x0020_Style_x0020_65"></line>
			<line y2="2046.3" x2="958.9" y1="1831.2" x1="1401" class="Graphic_x0020_Style_x0020_65"></line>
			<line y2="1054.3" x2="1528" y1="1264.3" x1="1150.9" class="Graphic_x0020_Style_x0020_65"></line>
			<line y2="2504" x2="1755.4" y1="2601.1" x1="1548" class="Graphic_x0020_Style_x0020_65"></line>
		</g>
	</g>
	<g>
		<path d="M960.2,2743.5c-17.3,175.4-282.7,210-408.4,72.7
			c-125.8-137.3,130.4-396.9,130.4-396.9l-33.5-81.9c0,0,23.6-18.2,41-22.3c5.3-1.3,10-1.2,13.3,1.2c13.8,10.1,35.8,14.2,79.6,2.6
			c43.8-11.5,56.5,18.5,56.5,18.5l-49.6,85.4c0,0,142.3,110,167.9,254.1C961.2,2698.4,962.5,2720.7,960.2,2743.5z" class="Graphic_x0020_Style_x0020_78"></path>
		<path d="M960.2,2743.5c-17.3,175.4-282.7,210-408.4,72.7
			c-125.8-137.3,130.4-396.9,130.4-396.9l-33.5-81.9c0,0,23.6-18.2,41-22.3c12.3,39.7,32.6,110.5,23,117.9
			c-13.5,10.3-198.7,209.1-81.2,316.3c99.7,91.1,267.9,70.3,326-72.4C961.2,2698.4,962.5,2720.7,960.2,2743.5z" class="Graphic_x0020_Style_x0020_80"></path>
		<path d="M739.2,2427.4c0,0,11.5,62.3-9.8,82.5c-11.5,3.5-11.5-4.6-11.5-4.6
			s18.7-45,14.1-77.9C734.3,2420.9,739.2,2427.4,739.2,2427.4z" class="Graphic_x0020_Style_x0020_53"></path>
		<path d="M772.6,2428.2c0,0,72.3,101.4,147.3,85.7c16.9-19.6-2.7-23.1-2.7-23.1
			s-109.6-32.1-124.2-62.6C783.4,2426.6,772.6,2428.2,772.6,2428.2z" class="Graphic_x0020_Style_x0020_53"></path>
		<path d="M661.8,2412c0,0,101.1,18.1,136.1,5.4c21.2,2.7,7.7,11.2,7.7,11.2
			s-120,13.5-140-5.4C648,2413.1,661.8,2412,661.8,2412z" class="Graphic_x0020_Style_x0020_53"></path>
		<path d="M751.1,2706.9c-7.5-2.5-14.3-5.1-20.4-7.8c-6.1-2.6-11.4-5.8-15.8-9.5
			c-4.4-3.7-7.9-8.2-10.3-13.4c-2.5-5.2-3.7-11.5-3.7-19c0-11.5,3.6-21.3,10.7-29.2c7.1-7.9,17.3-13.3,30.6-16.2v-20.6
			c1.5-0.3,3.9-0.8,7.1-1.3c3.2-0.5,6.5-0.8,9.9-0.8c6.6,0,11.8,1.1,15.5,3.4c3.7,2.3,5.6,7.2,5.6,14.6v3.3
			c10.5,1.4,19,4.1,25.3,8.1c6.4,4.1,9.5,9.7,9.5,16.8c0,4.4-1,8.2-3.1,11.3c-2,3.1-4.5,5.8-7.4,8c-3.7-2.4-8.7-4.5-15-6.2
			c-6.3-1.8-13.2-2.7-20.6-2.7c-7.6,0-13.2,1.1-16.8,3.2c-3.6,2.1-5.3,4.8-5.3,8c0,2.5,1.1,4.6,3.3,6.2c2.2,1.6,5.5,3.1,9.9,4.5
			l13.5,4.3c16,5.1,28.2,11.6,36.8,19.5c8.6,7.9,12.9,18.6,12.9,32.2c0,11.5-3.7,21.3-10.9,29.4c-7.3,8.1-18,13.5-32.1,16.4v20.4
			c-1.5,0.3-3.9,0.8-7.1,1.3c-3.2,0.5-6.5,0.8-9.9,0.8c-6.6,0-11.8-1.1-15.5-3.4c-3.7-2.3-5.6-7.2-5.6-14.6v-2.5
			c-6.1-0.7-11.7-1.8-16.7-3.3c-5-1.5-9.3-3.5-13-5.9c-3.7-2.4-6.5-5.2-8.5-8.4c-2-3.2-3.1-6.9-3.1-10.9c0-4.9,1.4-9.1,4.3-12.6
			c2.9-3.5,6-6.2,9.4-8c4.7,3.7,10.6,7,17.4,9.7c6.9,2.7,14.4,4.1,22.5,4.1c8.3,0,14.2-1.3,17.6-3.8c3.4-2.5,5.1-5.5,5.1-8.9
			c0-3.4-1.4-6-4.1-7.8c-2.7-1.8-6.5-3.5-11.5-5.2L751.1,2706.9z" class="Graphic_x0020_Style_x0020_212"></path>
	</g>
	<path d="M2028.6,794.5c0,0-17.2-87.2-90.6-50.8c-73.4,36.4-28.8,207.5-28.8,207.5L2028.6,794.5z" class="st8"></path>
	<polyline points="2538.7,1993 2506.2,2048.2 2563.5,2026.5 2544.3,2067.2 2572.6,2067.2" class="Graphic_x0020_Style_x0020_48"></polyline>
	<polyline points="2702,1938.9 2677.6,1975.7 2713.7,1975.7 2683.2,2002.8 2702,2013" class="Graphic_x0020_Style_x0020_48"></polyline>
	<g>
		<path d="M3385.5,1220.5c0,48.7-16.8,93.5-45,128.9l-162.2-128.9l207-6.4
			C3385.5,1216.2,3385.5,1218.3,3385.5,1220.5z" class="Graphic_x0020_Style_x0020_89"></path>
		<path d="M3178.4,1220.5l108.7,176.3c-31.6,19.5-68.8,30.8-108.7,30.8
			c-114.4,0-207.1-92.7-207.1-207.1c0-114.4,92.7-207.1,207.1-207.1c53.9,0,103.1,20.6,139.9,54.4L3178.4,1220.5z" class="Graphic_x0020_Style_x0020_212"></path>
		<linearGradient y2="1144.1299" x2="3385.4182" y1="1144.1299" x1="3178.4114" gradientUnits="userSpaceOnUse" id="SVGID_8_">
			<stop style="stop-color:#4085F0" offset="0"></stop>
			<stop style="stop-color:#275DC9" offset="1"></stop>
		</linearGradient>
		<path d="M3385.4,1214.1l-207,6.4l139.9-152.7C3358.2,1104.3,3383.7,1156.2,3385.4,1214.1z" class="st17"></path>
		<path d="M3340.6,1349.4c-14.9,18.7-33,34.8-53.5,47.5l-108.7-176.3L3340.6,1349.4z" class="Graphic_x0020_Style_x0020_47"></path>
	</g>
	<path d="M2106.1,1553.3c-65.9,36.7-331.3,168.8-394-50.7c-48.4-169.3,26.9-269.1,99-323.3
		c-48.9,67-107.4,181-68.3,309.8c54.8,180.3,316.5,65.6,378.5,35.4C2122.8,1535.2,2118.1,1546.9,2106.1,1553.3z" class="Graphic_x0020_Style_x0020_80"></path>
	<path d="M2091.7,1506.8c0,0,65.2-23.3,99.1-8c33.9,15.2,43.6,98.2,43.6,98.2s-2.1,5.5-11.4,0
		c-9.3-5.5-23.7-54.4-23.7-54.4s-5.1,26-26.7,31.9c-21.6,5.9-45.3-11.9-51-18.6c-5.7-6.8-29.9-9.4-29.9-9.4
		S2080.2,1524.6,2091.7,1506.8z" class="st10"></path>
	<path d="M2014.5,1043.5c20.2,18.6,40.4,27.6,40.4,27.6l-1.6,23.3
		C2053.4,1094.4,2013.7,1056.5,2014.5,1043.5z" class="Graphic_x0020_Style_x0020_219"></path>
	<polygon points="2539.4,1487.2 2519.8,1516.1 2519.8,1533.2 2539.4,1510.2" class="Graphic_x0020_Style_x0020_47"></polygon>
	<path d="M2395.7,2674.2c0,0-86.8,7.9-64.8,29.4c22,21.5,128.7-5.6,76.8,19.2c-51.9,24.8-120.8,14.1-76.2,26
		c44.6,11.9,111.2,12.4,81.3,29.9c-29.9,17.5-94.9,14.7-68.3,26c26.5,11.3,47.4,30.5,47.4,30.5" class="st18"></path>
	<path d="M2826.4,2714.4c0,0-102.5,59.4-55.1,56c47.4-3.4,101-36,86.5-8.5c-14.5,27.6-63.6,53.4-32.3,58.4
		c31.3,5.1,71.7-24.9,61,0c-10.7,24.9-81.8,33.6-41.5,39s43.3,6.8,43.3,6.8" class="st18"></path>
	<g>
		<path d="M2163.9,2911.9c0,38.1-42.6,72.7-112.6,98.7l3.6-42.1c7.1-2.6,13.9-5.3,20.4-8.1
			c56.4-24,91-54.2,93.8-87.1c0.1,0.3,0.1,0.6,0.2,0.9C2169.9,2877.5,2163.9,2908.6,2163.9,2911.9z" class="Graphic_x0020_Style_x0020_80"></path>
		<path d="M2054.9,2968.5l-3.6,42.1c-78.4,29.2-191,47.5-316.2,47.5c-236.8,0-428.8-65.5-428.8-146.2
			c0-3.9,4.6-39,5.4-42.7c0,80.8,192,146.2,428.8,146.2C1864.8,3015.4,1976.6,2997.3,2054.9,2968.5z" class="st19"></path>
		<path d="M2120.7,2821.5l-380.2,47.6l314.4,99.4c-78.3,28.8-190.2,46.8-314.4,46.8
			c-236.8,0-428.8-65.5-428.8-146.2s192-146.2,428.8-146.2c184.9,0,342.4,39.9,402.6,95.8L2120.7,2821.5z" class="Graphic_x0020_Style_x0020_79"></path>
		<path d="M2169.3,2869.1c0,1.4-0.1,2.9-0.2,4.3c-2.8,32.9-37.4,63.1-93.8,87.1
			c-6.5,2.8-13.3,5.4-20.4,8.1l-314.4-99.4l380.2-47.6l22.4-2.8C2160.1,2834.4,2169.3,2851.4,2169.3,2869.1z" class="Graphic_x0020_Style_x0020_47"></path>
	</g>
</g>
</svg>
