<svg xml:space="preserve" style="enable-background:new 0 0 4000 4000;" viewBox="0 0 4000 4000" y="0px" x="0px" xmlns:xlink="http://www.w3.org/1999/xlink" xmlns="http://www.w3.org/2000/svg" id="Layer_1" version="1.1">
<style type="text/css">
	
		.Graphic_x0020_Style_x0020_27{fill:#1A1A1A;stroke:#1A1A1A;stroke-width:2;stroke-linecap:round;stroke-linejoin:round;stroke-miterlimit:10;}
	.Graphic_x0020_Style_x0020_139{fill:#3B546B;}
	.Graphic_x0020_Style_x0020_115{fill:url(#SVGID_1_);}
	.Graphic_x0020_Style_x0020_122{fill:#FFB114;}
	.Graphic_x0020_Style_x0020_128{fill:#102140;}
	.Graphic_x0020_Style_x0020_127{fill:#EB485C;}
	.Graphic_x0020_Style_x0020_126{fill:#D1334A;}
	.Graphic_x0020_Style_x0020_121{fill:#FFDE70;}
	
		.Graphic_x0020_Style_x0020_95{fill:none;stroke:#1A1A1A;stroke-width:3;stroke-linecap:round;stroke-linejoin:round;stroke-miterlimit:10;}
	.Graphic_x0020_Style_x0020_113{fill:#FFFFFF;}
	.Graphic_x0020_Style_x0020_114{fill:#D1334A;}
	
		.Graphic_x0020_Style_x0020_118{fill:#1A1A1A;stroke:#1A1A1A;stroke-width:2;stroke-linecap:round;stroke-linejoin:round;stroke-miterlimit:10;}
	
		.Graphic_x0020_Style_x0020_119{fill:none;stroke:#1A1A1A;stroke-width:3;stroke-linecap:round;stroke-linejoin:round;stroke-miterlimit:10;}
	.Graphic_x0020_Style_x0020_123{fill:url(#SVGID_2_);}
	.Graphic_x0020_Style_x0020_124{fill:#DB6767;}
	.Graphic_x0020_Style_x0020_125{fill:#3B546B;}
	
		.Graphic_x0020_Style_x0020_132{fill:none;stroke:#FFFFFF;stroke-width:2;stroke-linecap:round;stroke-linejoin:round;stroke-miterlimit:10;}
	
		.Graphic_x0020_Style_x0020_133{fill:none;stroke:#1A1A1A;stroke-width:3;stroke-linecap:round;stroke-linejoin:round;stroke-miterlimit:10;}
	
		.Graphic_x0020_Style_x0020_135{fill:none;stroke:#1A1A1A;stroke-width:2;stroke-linecap:round;stroke-linejoin:round;stroke-miterlimit:10;}
	.st0{fill:#FFDE70;}
	.st1{fill:#339E7E;}
	.st2{fill:#127755;}
	.st3{fill:#D7EFFF;}
	.st4{fill:url(#SVGID_3_);}
	.st5{opacity:0.5;fill:#152A52;}
	.st6{fill:#1A1A1A;}
	.st7{fill:#152A52;}
	.st8{fill:#9D2638;}
	.st9{fill:#EF5668;}
	.st10{fill:#FC9590;}
	.st11{fill:#102140;}
	.st12{fill:url(#SVGID_4_);}
	.st13{fill:url(#SVGID_5_);}
	.st14{fill:#FFB114;}
	.st15{fill:url(#SVGID_6_);}
	.st16{fill:url(#SVGID_7_);}
	.st17{fill:url(#SVGID_8_);}
</style>
<linearGradient y2="0" x2="1" y1="0" x1="0" gradientUnits="userSpaceOnUse" id="SVGID_1_">
	<stop style="stop-color:#4085F0" offset="0"></stop>
	<stop style="stop-color:#275DC9" offset="1"></stop>
</linearGradient>
<linearGradient y2="0" x2="1" y1="0" x1="0" gradientUnits="userSpaceOnUse" id="SVGID_2_">
	<stop style="stop-color:#68B2FC" offset="0"></stop>
	<stop style="stop-color:#529BF7" offset="1"></stop>
</linearGradient>
<g>
	<path d="M2647.9,563.5l-346.9,976.2l-106.3,256H824.4C824.4,1795.7,863.2,328.3,2647.9,563.5z" class="st0"></path>
	<g>
		<path d="M782.1,2380.2c0,0-150.8,389.3,27,660.8" class="Graphic_x0020_Style_x0020_133"></path>
		<g>
			<path d="M940.4,2381.8c-6.9,23.2-32.8,35.9-57.8,28.5c25,7.5,39.7,32.4,32.7,55.5c-6.9,23.2-32.8,35.9-57.8,28.5
				c-9.1-2.7-22.7-18.1-28.5-24.5c6.3,10.3,14.4,33.1,10.8,45.1c-5.8,19.6-25.1,31.8-46,30.8c-4.1-0.2-8.2-0.9-12.3-2.1
				c-4.1-1.2-8-2.9-11.5-5c-14.5-8.6-23.4-23.7-23.3-39.5c-8.6,13.3-24.3,21-41.2,20.3c-4.1-0.2-8.2-0.9-12.3-2.1
				c-4.1-1.2-8-2.9-11.5-5c-18-10.7-27.4-31.4-21.6-51c3.6-12,26.3-26.3,37.2-31.4c-8.4,2.2-31.6,7.2-40.7,4.5
				c-25-7.5-39.7-32.3-32.7-55.5c6.9-23.2,32.8-35.9,57.9-28.5c-25-7.5-39.7-32.4-32.8-55.5c6.9-23.2,32.8-35.9,57.8-28.5
				c9.1,2.7,21.2,12.4,27,18.8c-6.3-10.3-12.9-27.4-9.3-39.4c5.9-19.6,25.1-31.8,46-30.8c4.1,0.2,8.2,0.9,12.3,2.1
				c4.1,1.2,8,2.9,11.5,5c14.5,8.6,23.4,23.7,23.3,39.5c8.5-13.3,24.3-21,41.2-20.3c4.1,0.2,8.2,0.9,12.3,2.1c4.1,1.2,8,2.9,11.5,5
				c18,10.7,27.4,31.4,21.5,51c-3.6,12-18.9,22.4-29.9,27.6c8.4-2.2,24.3-3.4,33.4-0.6C932.7,2333.7,947.4,2358.6,940.4,2381.8z" class="st1"></path>
			<path d="M681.6,2350.2c31.1,23.3,64.1,35.8,100.5,30c-25.4,31.2-33.6,73-35.5,118.8" class="Graphic_x0020_Style_x0020_135"></path>
			<path d="M817.6,2261.5c0.4,49-11.9,88.2-35.5,118.8c26,18.9,61.6,26.4,100.5,30" class="Graphic_x0020_Style_x0020_135"></path>
		</g>
	</g>
	<g>
		<path d="M404.9,2956.4c0,0,463.4-124.3,751.6,112.4" class="Graphic_x0020_Style_x0020_133"></path>
		<g>
			<path d="M387.1,3137.5c27.3-5,45.1-33.1,39.6-62.6c5.5,29.5,32.1,49.3,59.4,44.3c27.4-5.1,45.1-33.1,39.7-62.6
				c-2-10.7-17.9-28.2-24.5-35.6c11,8.5,36.1,20.5,50.2,17.9c23.1-4.3,39.4-24.8,40.9-48.8c0.3-4.7,0-9.5-0.9-14.4
				c-0.9-4.9-2.4-9.4-4.3-13.7c-8-17.6-24.2-29.7-42.3-31.5c16.2-8.1,27-25.2,28.2-44.5c0.3-4.7,0-9.5-0.9-14.4
				c-0.9-4.9-2.4-9.4-4.3-13.7c-10-21.9-32.5-35.2-55.6-30.9c-14.1,2.6-33.3,26.8-40.5,38.6c3.5-9.3,12.1-35.3,10.1-46
				c-5.4-29.5-32.1-49.3-59.4-44.3c-27.3,5.1-45.1,33.1-39.6,62.6c-5.5-29.5-32.1-49.4-59.4-44.3c-27.4,5.1-45.1,33.1-39.7,62.6
				c2,10.7,11.6,25.8,18.2,33.2c-11-8.5-29.7-18.1-43.9-15.5c-23.1,4.3-39.4,24.8-40.9,48.8c-0.3,4.7,0,9.5,0.9,14.4
				c0.9,4.9,2.4,9.4,4.3,13.7c8,17.6,24.2,29.7,42.3,31.5c-16.2,8.1-27,25.2-28.2,44.5c-0.3,4.7,0,9.5,0.9,14.4
				c0.9,4.9,2.4,9.4,4.3,13.7c10,21.9,32.5,35.2,55.6,30.9c14.1-2.6,28-18.9,35.2-30.7c-3.5,9.3-6.8,27.4-4.9,38.1
				C333.2,3122.7,359.8,3142.6,387.1,3137.5z" class="st2"></path>
			<path d="M383,2837.9c22.8,38.4,33,77.7,21.9,118.5c38.7-25.2,87.6-29.3,140.1-25.9" class="Graphic_x0020_Style_x0020_132"></path>
			<path d="M264.8,2982.3c55.9,6.5,102.2-2.7,140.1-25.9c18.4,32,22.5,73.7,21.9,118.5" class="Graphic_x0020_Style_x0020_132"></path>
		</g>
	</g>
	<path d="M921.1,3127.2c-31.5-135.5,19.3-274.7,125.7-348.9c128.5-89.6,316.3-69.3,434,56.8
		c-36.3-201.6,98-391.7,283.9-426c198.5-36.6,402.5,114.2,421.9,332.7c22.4-10.2,209.4-91.8,389.4,8.1
		c102.5,56.8,151.7,144.2,170.4,182.6c-20.9-322.8,198.5-536.2,365.1-523.3c126.7,9.8,253.2,152.8,296.1,344.8
		c120.6-37.5,159-7.5,170.4,4.1c54.9,56,2.9,218.6-133.9,409.7C2603.2,3154.2,1762.2,3140.7,921.1,3127.2z" class="st3"></path>
	<linearGradient y2="3203.4531" x2="3686.5027" y1="3203.4531" x1="342.6395" gradientUnits="userSpaceOnUse" id="SVGID_3_">
		<stop style="stop-color:#68B2FC" offset="0"></stop>
		<stop style="stop-color:#529BF7" offset="1"></stop>
	</linearGradient>
	<ellipse ry="258.5" rx="1671.9" cy="3203.5" cx="2014.6" class="st4"></ellipse>
	<ellipse ry="82.3" rx="625.4" cy="3120.7" cx="1307.1" class="st5"></ellipse>
	<ellipse ry="34.9" rx="265.3" cy="3074.9" cx="2371" class="st5"></ellipse>
	<g>
		<polygon points="1133,2189.5 824.4,3120.7 863.2,3120.7 1168.8,2196.9" class="Graphic_x0020_Style_x0020_139"></polygon>
		<polygon points="1426.8,2189.5 1735.4,3120.7 1696.6,3120.7 1391,2196.9" class="Graphic_x0020_Style_x0020_139"></polygon>
		<rect height="54.3" width="486.4" class="Graphic_x0020_Style_x0020_125" y="2160.5" x="1032.9"></rect>
	</g>
	<g>
		<path d="M1433.1,2291.6c0,0-141-27.3-165.9,5.6c-24.9,32.9-0.6,345.2,52.7,319.7c53.4-25.5,112.2-70,54.5-213.8
			c88.3-23.1,88.3-23.1,88.3-23.1L1433.1,2291.6z" class="st6"></path>
		<path d="M2178.6,2832c0,0,69.2,178.8,111.9,197.1c42.7,18.3,272.3-93.9,272.7-143.7c0.4-49.8-60.3-110.7-200.9-24
			c-59.6,24.5-71.4-51.8-71.4-51.8L2178.6,2832z" class="st6"></path>
		<path d="M2135,2152.7c112.2,129.5,192,681.8,192,681.8s-109.2,73.3-146.4,61.6c-37.2-11.7-219.6-424.1-267.5-676.8
			c-280.4,10.9-952.2-58.3-648.8-554.7c203.6,108.6,207.6,140.3,207.6,140.3S2022.9,2023.3,2135,2152.7z" class="st7"></path>
		<path d="M1598.8,1472.5c7.3,22.6-12.3,292.3,180.5,368c239.1,93.9,190.5,130.8,190.5,130.8
			l-392-79.4l-153.5-79.8L1598.8,1472.5z" class="Graphic_x0020_Style_x0020_126"></path>
		<path d="M1581.4,1670.9l17.3-169.4c0,0,0.8,130.5,4.3,150.2c3.5,19.7,6.4,47.6,6.4,47.6l-20.3-7.6L1581.4,1670.9z" class="st8"></path>
		<path d="M1552.3,1792.2c-0.4,1.3-2.9,16.5-2.9,16.5l155.9-14.7l-6.1-12.3L1552.3,1792.2z" class="st8"></path>
		<path d="M1285.2,1729.8c0,0-307.9,127.9-141.1,343.6c127,164.2,664.1,75.2,664.1,75.2l-401.3,126.1
			c0,0-27.4,95.7,0.9,142.6c28.2,46.9,580.9-30.3,700-252.6c109-203.4-145.5-232.6-296.4-280.3c-150.9-47.7-402.1-105.5-402.1-105.5" class="st7"></path>
		<path d="M1563.1,1663.2c-36.6-61-63.5-141.6-139.1-153.8c-75.6-11.5-153.3,7.2-219.1-36.9
			c-35,81.4-69.4,203.7-71.6,253.9c-2.3,50.8,10.9,92.2,33.9,123.8c63.1,87,200.1,100.3,291.7,34.7c17.2-12.3,68.8-33.2,81.9-55.2
			c22.8-38.3,37-88.3,45.7-140.6C1577.8,1682.2,1569.9,1673.7,1563.1,1663.2z" class="Graphic_x0020_Style_x0020_127"></path>
		<path d="M1593.8,1401.7c-29-126.2-226.5-98.6-226.5-98.6s-79.3,33.6-133.3,112.7c-9.3,13.9-19.2,33.7-29.2,56.7
			c65.8,44.1,143.5,25.4,219.1,36.9c75.7,12.2,102.5,92.7,139.1,153.8c6.8,10.5,14.7,19,23.4,25.9
			C1609,1553,1593.8,1401.7,1593.8,1401.7z" class="st9"></path>
		<path d="M1841.7,1708.5c0,0-325.8-23.1-436.1-68.8c-110.3-45.6-10.8-192.1-10.8-192.1l-12.6-146.1
			c-22.7,1-47.8,15.3-47.8,15.3c-2.8,1.9-5.7,3.9-8.5,6.1c-54.3,103.7-107.5,223.5-60.6,335.2c22,58.6,85.4,97.6,146.4,100.1
			c146.4,9.2,292.9-5.3,439.3,0.9C1854,1739.8,1841.7,1708.5,1841.7,1708.5z" class="st9"></path>
		<path d="M1411.8,1758.4c-61-2.4-124.5-41.5-146.4-100.1c-46.9-111.7,6.3-231.5,60.6-335.2
			c-89.8,70.4-171.7,313.4-98.6,412.3c75.4,102,588.8,45.1,613.1,38.3c6.5-1.8,9.6-7.4,10.7-14.5
			C1704.6,1753.1,1558.2,1767.5,1411.8,1758.4z" class="Graphic_x0020_Style_x0020_114"></path>
		<path d="M1972.5,1729.8c-38.7-18.3-162.1-12.9-162.1-12.9c-2.3,4.7-3.7,9-4.3,13c57.3-0.1,103.3,29.1,135.2,71.7
			l72.1,2.2C2013.3,1803.9,2011.2,1748.1,1972.5,1729.8z" class="st10"></path>
		<path d="M1806,1729.9c-3.8,22.1,14.5,32.7,29,33.2c17.2,0.5,40.5,36.5,40.5,36.5l65.7,2
			C1909.3,1759,1863.3,1729.8,1806,1729.9z" class="Graphic_x0020_Style_x0020_124"></path>
		<path d="M1636.4,1194.7l-163.8,138.7c-9.9,9.9,71.5,110.1,106.2,89c30.4-75.1,55.1-99.6,55.1-99.6
			s10.3,49.3,50.6,51.7c40.2,2.4,142.8-139.1,129-176.4C1799.8,1160.7,1753.8,1121.2,1636.4,1194.7z" class="st10"></path>
		<path d="M1829.8,1273c0,0-76-26.2-81.2-52.8c-5.1-26.7-38.5,31.9-51.8,33.7s0.7-34.6-13.2-25.6
			c-13.9,9,6.4,23.9-24.8,31.3c-31.2,7.5-81-38.6-81-38.6s57.5-80.3,119.7-89.1C1759.8,1122.9,1908.2,1155.8,1829.8,1273z" class="st11"></path>
	</g>
	<linearGradient y2="2569.4077" x2="533.7024" y1="2569.4077" x1="383.3973" gradientUnits="userSpaceOnUse" id="SVGID_4_">
		<stop style="stop-color:#4085F0" offset="0"></stop>
		<stop style="stop-color:#275DC9" offset="1"></stop>
	</linearGradient>
	<path d="M533.7,2569.4c0,41.5-33.6,75.2-75.2,75.2s-75.2-33.7-75.2-75.2s33.6-75.2,75.2-75.2
		S533.7,2527.9,533.7,2569.4z" class="st12"></path>
	<linearGradient y2="2012.2461" x2="803.6432" y1="2012.2461" x1="728.4908" gradientUnits="userSpaceOnUse" id="SVGID_5_">
		<stop style="stop-color:#4085F0" offset="0"></stop>
		<stop style="stop-color:#275DC9" offset="1"></stop>
	</linearGradient>
	<path d="M803.6,2012.2c0,20.8-16.8,37.6-37.6,37.6c-20.8,0-37.6-16.8-37.6-37.6c0-20.8,16.8-37.6,37.6-37.6
		C786.8,1974.7,803.6,1991.5,803.6,2012.2z" class="st13"></path>
	<ellipse ry="53.2" rx="53.1" cy="2201.7" cx="221.4" class="st14"></ellipse>
	<linearGradient y2="2201.7124" x2="2786.0962" y1="2201.7124" x1="2647.9434" gradientUnits="userSpaceOnUse" id="SVGID_6_">
		<stop style="stop-color:#68B2FC" offset="0"></stop>
		<stop style="stop-color:#529BF7" offset="1"></stop>
	</linearGradient>
	<ellipse ry="69.1" rx="69.1" cy="2201.7" cx="2717" class="st15"></ellipse>
	<ellipse ry="52.1" rx="52.1" cy="2265.6" cx="3779.6" class="st14"></ellipse>
	<g>
		<ellipse ry="196.5" rx="196.5" cy="1202.6" cx="3098.3" class="Graphic_x0020_Style_x0020_122"></ellipse>
		<ellipse ry="161.9" rx="161.9" cy="1202.6" cx="3098.3" class="Graphic_x0020_Style_x0020_121"></ellipse>
		<polyline points="3098.3,1104.4 3098.3,1205.3 3175.1,1269.8" class="Graphic_x0020_Style_x0020_119"></polyline>
	</g>
	<g>
		<path d="M735.3,1529.8c0,25.1-4.5,49.2-12.8,71.4l-191.7-71.4l63.1-194.6
			C676,1361.8,735.3,1438.9,735.3,1529.8z" class="Graphic_x0020_Style_x0020_114"></path>
		<linearGradient y2="1569.2008" x2="661.2261" y1="1569.2008" x1="291.921" gradientUnits="userSpaceOnUse" id="SVGID_7_">
			<stop style="stop-color:#68B2FC" offset="0"></stop>
			<stop style="stop-color:#529BF7" offset="1"></stop>
		</linearGradient>
		<path d="M661.2,1660.7c-37.2,50.6-97.2,83.5-164.8,83.5c-112.9,0-204.5-91.6-204.5-204.5c0-57,23.3-108.5,60.9-145.6
			l143.6,145.6L661.2,1660.7z" class="st16"></path>
		<path d="M559.5,1345.2l-63.1,194.6l-143.6-145.6c36.9-36.5,87.6-59,143.6-59
			C518.4,1335.2,539.7,1338.7,559.5,1345.2z" class="Graphic_x0020_Style_x0020_122"></path>
		<path d="M688.1,1611.1c-6.6,17.9-15.7,34.5-26.8,49.6l-164.8-121L688.1,1611.1z" class="Graphic_x0020_Style_x0020_118"></path>
	</g>
	<g>
		<path d="M3236.7,1979c-9.5-2.5-18.1-6.6-25.6-11.9l45.9-65.1l67,43.1
			C3305.9,1973.3,3271,1988,3236.7,1979z" class="Graphic_x0020_Style_x0020_114"></path>
		
			<linearGradient gradientTransform="matrix(-0.1308 0.9914 -0.9914 -0.1308 6388.7534 -1561.9022)" y2="2662.6589" x2="3896.0383" y1="2662.6589" x1="3752.2339" gradientUnits="userSpaceOnUse" id="SVGID_8_">
			<stop style="stop-color:#68B2FC" offset="0"></stop>
			<stop style="stop-color:#529BF7" offset="1"></stop>
		</linearGradient>
		<path d="M3204.1,1947.7c-17.6-16.9-27.3-41.8-23.8-67.9c5.8-43.6,45.8-74.3,89.4-68.5c22,2.9,40.7,14.5,53.1,30.9
			l-63.5,48L3204.1,1947.7z" class="st17"></path>
		<path d="M3331.1,1924.5l-71.9-34.3l63.5-48c12.2,16.1,18.3,36.8,15.4,58.4
			C3337,1909.1,3334.6,1917.2,3331.1,1924.5z" class="Graphic_x0020_Style_x0020_122"></path>
	</g>
	<rect height="32.9" width="381.9" class="Graphic_x0020_Style_x0020_27" y="1795.7" x="1851.5"></rect>
	<polygon points="2301.1,1539.7 2203.2,1781.4 2233.4,1784.6 2331.7,1542.9" class="Graphic_x0020_Style_x0020_27"></polygon>
	<rect height="49.4" width="934.2" class="Graphic_x0020_Style_x0020_139" y="1828.6" x="1834"></rect>
	<path d="M2119.3,1303l8.4-58h-26.2v-29.8h31.4l5.2-36.3h-27.5v-30.1h32.1l8.1-56.4h28.8
		l-8.1,56.4h29.5l8.4-56.4h28.8l-8.4,56.4h25.9v30.1h-30.5l-5.2,36.3h26.9v29.8h-31.8l-8.1,58H2178l8.1-58h-29.5l-8.1,58H2119.3z
		 M2191.3,1215.1l5.2-36.3H2167l-5.2,36.3H2191.3z" class="Graphic_x0020_Style_x0020_113"></path>
	<path d="M1109.9,1301l6.7-46h-20.8v-23.6h24.9l4.1-28.8H1103v-23.9h25.4l6.4-44.7h22.9
		l-6.4,44.7h23.4l6.7-44.7h22.9l-6.7,44.7h20.5v23.9h-24.1l-4.1,28.8h21.3v23.6H1186l-6.4,46h-23.1l6.4-46h-23.4l-6.4,46H1109.9z
		 M1166.9,1231.4l4.1-28.8h-23.4l-4.1,28.8H1166.9z" class="Graphic_x0020_Style_x0020_113"></path>
	<path d="M2246.4,793.7v-27.2h151v27.2H2246.4z M2246.4,854.3V827h151v27.2H2246.4z" class="Graphic_x0020_Style_x0020_113"></path>
	<g>
		<path d="M1784.1,885.9v16.5h-104.6v-16.5H1784.1z"></path>
	</g>
	<g>
		<path d="M822.4,1008v16.5H717.8V1008H822.4z"></path>
	</g>
	<path d="M1403.6,894.2v55.8h53.5V974h-53.5v56.3h-25.1V974H1325v-24.1h53.5v-55.8H1403.6z" class="Graphic_x0020_Style_x0020_113"></path>
	<g>
		<path d="M2806.8,1558.1v41h39.3v17.7h-39.3v41.4h-18.4v-41.4H2749v-17.7h39.3v-41H2806.8z" class="Graphic_x0020_Style_x0020_128"></path>
	</g>
	<g>
		<path d="M1004.8,1494.3l40.3-136.4h19l-40.3,136.4H1004.8z"></path>
	</g>
	<path d="M2139.5,640.2h-89.2l82.5,82.5c0,0-88.2,83.5-83.5,83.5c4.7,0,90.2,0,90.2,0" class="Graphic_x0020_Style_x0020_95"></path>
</g>
</svg>
