<?xml version="1.0" standalone="no"?><!DOCTYPE svg PUBLIC "-//W3C//DTD SVG 1.1//EN" "http://www.w3.org/Graphics/SVG/1.1/DTD/svg11.dtd"><svg height="4000" node-id="1" sillyvg="true" template-height="4000" template-width="4000" version="1.1" viewBox="0 0 4000 4000" width="4000" xmlns="http://www.w3.org/2000/svg" xmlns:xlink="http://www.w3.org/1999/xlink"><defs node-id="184"><linearGradient gradientUnits="userSpaceOnUse" id="SVGID_4_" node-id="20" spreadMethod="pad" x1="483.0315" x2="2643.924" y1="2841.7678" y2="2841.7678"><stop offset="0" stop-color="#68b2fc"></stop><stop offset="1" stop-color="#ebf0f7"></stop></linearGradient><linearGradient gradientUnits="userSpaceOnUse" id="SVGID_5_" node-id="24" spreadMethod="pad" x1="42.652" x2="3930.29" y1="3178.227" y2="3178.227"><stop offset="0" stop-color="#68b2fc"></stop><stop offset="1" stop-color="#529bf7"></stop></linearGradient><linearGradient gradientUnits="userSpaceOnUse" id="SVGID_6_" node-id="61" spreadMethod="pad" x1="3605.3945" x2="3696.465" y1="2614.875" y2="2614.875"><stop offset="0" stop-color="#4085f0"></stop><stop offset="1" stop-color="#275dc9"></stop></linearGradient><linearGradient gradientUnits="userSpaceOnUse" id="SVGID_7_" node-id="65" spreadMethod="pad" x1="3096.3792" x2="3165.3108" y1="2276.8271" y2="2276.8271"><stop offset="0" stop-color="#68b2fc"></stop><stop offset="1" stop-color="#ebf0f7"></stop></linearGradient><linearGradient gradientUnits="userSpaceOnUse" id="SVGID_8_" node-id="69" spreadMethod="pad" x1="596.6236" x2="650.3729" y1="2078.8977" y2="2078.8977"><stop offset="0" stop-color="#4085f0"></stop><stop offset="1" stop-color="#275dc9"></stop></linearGradient><linearGradient gradientUnits="userSpaceOnUse" id="SVGID_9_" node-id="73" spreadMethod="pad" x1="470.5894" x2="629.2929" y1="2541.16" y2="2541.16"><stop offset="0" stop-color="#4085f0"></stop><stop offset="1" stop-color="#275dc9"></stop></linearGradient><linearGradient gradientUnits="userSpaceOnUse" id="SVGID_10_" node-id="77" spreadMethod="pad" x1="907.9185" x2="996.7891" y1="2268.0378" y2="2268.0378"><stop offset="0" stop-color="#4085f0"></stop><stop offset="1" stop-color="#275dc9"></stop></linearGradient><linearGradient gradientUnits="userSpaceOnUse" id="SVGID_11_" node-id="90" spreadMethod="pad" x1="1779.3611" x2="1845.9863" y1="1461.2434" y2="1461.2434"><stop offset="0" stop-color="#68b2fc"></stop><stop offset="1" stop-color="#529bf7"></stop></linearGradient><linearGradient gradientUnits="userSpaceOnUse" id="SVGID_12_" node-id="94" spreadMethod="pad" x1="1806.0111" x2="1942.3973" y1="1717.9801" y2="1717.9801"><stop offset="0" stop-color="#68b2fc"></stop><stop offset="1" stop-color="#529bf7"></stop></linearGradient></defs><g node-id="547"><path d="M 3107.20 1215.00 C 3107.20 1347.93 2999.43 1455.70 2866.50 1455.70 C 2733.57 1455.70 2625.80 1347.93 2625.80 1215.00 C 2625.80 1082.07 2733.57 974.30 2866.50 974.30 C 2999.43 974.30 3107.20 1082.07 3107.20 1215.00 Z" fill="#152a52" fill-rule="nonzero" group-id="1" node-id="245" stroke="none" target-height="481.39996" target-width="481.3999" target-x="2625.8" target-y="974.3"></path><g node-id="548"><path d="M 3003.23 1042.51 L 3011.13 1050.80 L 3018.52 1059.29 L 3025.41 1067.99 L 3031.82 1076.90 L 3037.76 1086.03 L 3043.31 1095.48 L 3048.38 1105.06 L 3052.98 1114.78 L 3057.11 1124.64 L 3060.78 1134.66 L 3064.01 1144.86 L 3066.78 1155.13 L 3069.07 1165.46 L 3070.91 1175.86 L 3072.29 1186.35 L 3073.21 1196.91 L 3073.67 1207.45 L 3073.67 1217.98 L 3073.21 1228.52 L 3072.29 1239.07 L 3070.91 1249.56 L 3069.07 1259.97 L 3066.77 1270.30 L 3064.01 1280.56 L 3060.78 1290.76 L 3057.11 1300.78 L 3052.98 1310.64 L 3048.38 1320.36 L 3043.31 1329.94 L 3037.76 1339.39 L 3031.82 1348.52 L 3025.41 1357.43 L 3018.52 1366.13 L 3011.13 1374.62 L 3003.23 1382.91 L 2994.94 1390.81 L 2986.45 1398.19 L 2977.75 1405.09 L 2968.84 1411.50 L 2959.71 1417.44 L 2950.26 1422.99 L 2940.68 1428.06 L 2930.97 1432.66 L 2921.10 1436.79 L 2911.08 1440.46 L 2900.88 1443.69 L 2890.62 1446.45 L 2880.29 1448.75 L 2869.88 1450.59 L 2859.39 1451.97 L 2848.84 1452.89 L 2838.30 1453.35 L 2827.77 1453.35 L 2817.23 1452.89 L 2806.68 1451.97 L 2796.18 1450.59 L 2785.78 1448.75 L 2775.45 1446.45 L 2765.18 1443.69 L 2754.98 1440.46 L 2744.96 1436.79 L 2735.10 1432.66 L 2725.38 1428.06 L 2715.80 1422.99 L 2706.35 1417.44 L 2697.22 1411.50 L 2688.31 1405.09 L 2679.61 1398.20 L 2671.12 1390.81 L 2662.83 1382.91 L 2654.94 1374.62 L 2647.55 1366.13 L 2640.66 1357.43 L 2634.24 1348.52 L 2628.30 1339.39 L 2622.75 1329.94 L 2617.68 1320.36 L 2613.08 1310.64 L 2608.95 1300.78 L 2605.28 1290.76 L 2602.05 1280.56 L 2599.29 1270.30 L 2596.99 1259.97 L 2595.15 1249.56 L 2593.77 1239.07 L 2592.85 1228.52 L 2592.39 1217.98 L 2592.39 1207.45 L 2592.85 1196.91 L 2593.77 1186.35 L 2595.15 1175.86 L 2596.99 1165.46 L 2599.29 1155.13 L 2602.05 1144.86 L 2605.28 1134.66 L 2608.95 1124.64 L 2613.08 1114.78 L 2617.68 1105.06 L 2622.75 1095.48 L 2628.30 1086.03 L 2634.24 1076.90 L 2640.66 1067.99 L 2647.55 1059.29 L 2654.94 1050.80 L 2662.83 1042.51 L 2671.12 1034.62 L 2679.62 1027.23 L 2688.31 1020.34 L 2697.22 1013.92 L 2706.35 1007.98 L 2715.80 1002.43 L 2725.38 997.36 L 2735.10 992.76 L 2744.96 988.63 L 2754.98 984.96 L 2765.19 981.73 L 2775.45 978.97 L 2785.78 976.67 L 2796.18 974.83 L 2806.67 973.45 L 2817.23 972.53 L 2827.77 972.07 L 2838.30 972.07 L 2848.84 972.53 L 2859.39 973.45 L 2869.88 974.83 L 2880.29 976.67 L 2890.62 978.97 L 2900.88 981.73 L 2911.08 984.96 L 2921.10 988.63 L 2930.96 992.76 L 2940.68 997.36 L 2950.26 1002.43 L 2959.71 1007.98 L 2968.84 1013.92 L 2977.75 1020.34 L 2986.45 1027.23 L 2994.94 1034.62 L 3003.23 1042.51 Z" fill="#ccc4cc" fill-rule="nonzero" group-id="1,2" node-id="249" stroke="none" target-height="481.28076" target-width="481.28052" target-x="2592.392" target-y="972.0714"></path></g><g node-id="549"><path d="M 2942.63 1103.11 L 2948.54 1109.37 L 2954.01 1115.80 L 2959.04 1122.40 L 2963.65 1129.19 L 2967.85 1136.16 L 2971.71 1143.40 L 2975.14 1150.73 L 2978.16 1158.17 L 2980.77 1165.72 L 2982.99 1173.39 L 2985.20 1183.14 L 2986.77 1192.94 L 2987.72 1202.79 L 2988.03 1212.71 L 2987.72 1222.64 L 2986.77 1232.49 L 2985.20 1242.28 L 2982.99 1252.03 L 2980.77 1259.71 L 2978.16 1267.26 L 2975.14 1274.69 L 2971.71 1282.03 L 2967.85 1289.26 L 2963.65 1296.24 L 2959.04 1303.02 L 2954.01 1309.63 L 2948.54 1316.05 L 2942.63 1322.31 L 2936.37 1328.22 L 2929.95 1333.69 L 2923.34 1338.72 L 2916.56 1343.33 L 2909.58 1347.53 L 2902.35 1351.39 L 2895.01 1354.82 L 2887.58 1357.84 L 2880.03 1360.45 L 2872.35 1362.67 L 2862.60 1364.88 L 2852.81 1366.45 L 2842.96 1367.40 L 2833.03 1367.71 L 2823.11 1367.39 L 2813.26 1366.45 L 2803.47 1364.88 L 2793.71 1362.67 L 2786.04 1360.45 L 2778.49 1357.84 L 2771.05 1354.82 L 2763.72 1351.39 L 2756.48 1347.53 L 2749.51 1343.33 L 2742.72 1338.72 L 2736.12 1333.69 L 2729.69 1328.22 L 2723.43 1322.31 L 2717.52 1316.05 L 2712.06 1309.63 L 2707.03 1303.02 L 2702.41 1296.24 L 2698.21 1289.26 L 2694.36 1282.03 L 2690.92 1274.69 L 2687.90 1267.26 L 2685.29 1259.71 L 2683.08 1252.03 L 2680.87 1242.28 L 2679.29 1232.49 L 2678.35 1222.64 L 2678.03 1212.71 L 2678.35 1202.79 L 2679.29 1192.94 L 2680.87 1183.14 L 2683.08 1173.39 L 2685.29 1165.72 L 2687.90 1158.17 L 2690.92 1150.73 L 2694.36 1143.40 L 2698.21 1136.16 L 2702.41 1129.19 L 2707.03 1122.40 L 2712.06 1115.80 L 2717.52 1109.37 L 2723.43 1103.11 L 2729.69 1097.20 L 2736.12 1091.74 L 2742.72 1086.71 L 2749.51 1082.09 L 2756.48 1077.89 L 2763.72 1074.04 L 2771.05 1070.60 L 2778.49 1067.58 L 2786.04 1064.97 L 2793.71 1062.76 L 2803.47 1060.55 L 2813.26 1058.97 L 2823.11 1058.03 L 2833.03 1057.71 L 2842.96 1058.03 L 2852.81 1058.97 L 2862.60 1060.55 L 2872.35 1062.76 L 2880.03 1064.97 L 2887.58 1067.58 L 2895.01 1070.60 L 2902.35 1074.04 L 2909.58 1077.89 L 2916.56 1082.09 L 2923.34 1086.71 L 2929.95 1091.74 L 2936.37 1097.20 L 2942.63 1103.11 Z" fill="#ffffff" fill-rule="nonzero" group-id="1,3" node-id="254" stroke="none" target-height="309.99695" target-width="309.9973" target-x="2678.0337" target-y="1057.7133"></path></g><path d="M 2235.80 2165.50 C 2235.80 2165.50 2411.90 2286.20 2372.20 2384.50 C 2332.50 2482.70 2235.80 2478.00 2235.80 2478.00 L 2144.40 2216.20 L 2235.80 2165.50 Z" fill="#572658" fill-rule="nonzero" group-id="1" node-id="257" stroke="none" target-height="317.19995" target-width="267.5" target-x="2144.4" target-y="2165.5"></path><path d="M 1446.20 1756.40 C 1446.20 1756.40 1424.30 2427.40 1628.00 2458.70 C 1831.80 2490.10 2211.20 2446.20 2233.10 2402.30 C 2255.00 2358.40 2136.40 1787.80 1890.00 1743.90 C 1643.60 1700.00 1468.20 1715.60 1446.20 1756.40 Z" fill="#572658" fill-rule="nonzero" group-id="1" node-id="259" stroke="none" target-height="790.1001" target-width="830.69995" target-x="1424.3" target-y="1700"></path><path d="M 494.70 3139.00 C 446.50 2908.20 555.20 2716.70 692.20 2682.80 C 796.70 2657.00 896.00 2728.20 922.60 2748.60 C 945.90 2720.30 1078.20 2565.70 1308.20 2546.40 C 1530.20 2527.70 1682.80 2648.70 1712.70 2673.40 C 1779.90 2636.40 1907.20 2580.20 2065.40 2593.40 C 2314.40 2614.30 2536.10 2798.20 2643.90 3063.70 C 1927.50 3088.90 1211.10 3113.90 494.70 3139.00 Z" fill="url(#SVGID_4_)" fill-rule="nonzero" group-id="1" node-id="261" stroke="none" target-height="611.30005" target-width="2197.4" target-x="446.5" target-y="2527.7"></path><path d="M 3488.70 3087.60 C 3368.30 3038.30 2793.70 2999.90 2102.90 2998.30 C 1331.80 2996.60 705.30 3041.50 693.60 3099.00 C 297.10 3124.50 42.70 3164.70 42.60 3210.50 C 42.40 3290.00 809.70 3356.10 1756.30 3358.20 C 2559.50 3360.00 3233.70 3315.10 3419.70 3252.90 C 3729.30 3234.30 3930.10 3203.90 3930.20 3169.10 C 3930.40 3136.80 3759.00 3107.60 3488.70 3087.60 Z" fill="url(#SVGID_5_)" fill-rule="nonzero" group-id="1" node-id="263" stroke="none" target-height="363.3999" target-width="3888" target-x="42.4" target-y="2996.6"></path><path d="M 3564.80 3131.20 C 3564.80 3160.72 3414.48 3189.03 3146.90 3209.90 C 2879.32 3230.77 2516.41 3242.50 2138.00 3242.50 C 1759.59 3242.50 1396.68 3230.77 1129.10 3209.90 C 861.52 3189.03 711.20 3160.72 711.20 3131.20 C 711.20 3101.68 861.52 3073.37 1129.10 3052.50 C 1396.68 3031.63 1759.59 3019.90 2138.00 3019.90 C 2516.41 3019.90 2879.32 3031.63 3146.90 3052.50 C 3414.48 3073.37 3564.80 3101.68 3564.80 3131.20 Z" fill="#152a52" fill-opacity="0.5" fill-rule="nonzero" group-id="1,4" node-id="267" stroke="none" target-height="222.6001" target-width="2853.6" target-x="711.2" target-y="3019.9"></path><path d="M 1952.60 1020.10 C 1950.50 1006.30 1918.00 943.90 1865.30 934.20 C 1812.70 924.50 1768.30 953.60 1768.30 953.60 C 1758.30 969.60 1769.60 982.70 1776.70 988.80 C 1810.10 987.70 1842.90 979.90 1876.90 986.40 C 1909.00 990.70 1914.00 1024.10 1930.40 1046.10 C 1944.40 1043.40 1953.90 1029.40 1952.60 1020.10 Z" fill="#fc9590" fill-rule="nonzero" group-id="1" node-id="270" stroke="none" target-height="121.599976" target-width="195.59998" target-x="1758.3" target-y="924.5"></path><path d="M 1876.90 986.40 C 1842.90 979.90 1810.10 987.70 1776.70 988.80 C 1779.40 991.10 1781.50 992.40 1781.50 992.40 C 1781.50 992.40 1870.20 1044.10 1877.80 1037.40 C 1885.40 1030.70 1871.60 1012.50 1871.60 1012.50 C 1871.60 1012.50 1882.70 1022.20 1907.60 1040.20 C 1915.80 1046.10 1923.70 1047.50 1930.50 1046.10 C 1914.00 1024.10 1909.00 990.70 1876.90 986.40 Z" fill="#db6767" fill-rule="nonzero" group-id="1" node-id="272" stroke="none" target-height="67.599976" target-width="153.80005" target-x="1776.7" target-y="979.9"></path><path d="M 2081.40 1223.90 C 2011.00 1173.30 1938.50 1146.90 1861.50 1113.90 C 1843.90 1107.30 1826.30 1087.50 1832.90 1065.50 C 1837.40 1055.10 1842.90 1043.60 1851.40 1035.30 C 1820.50 1029.40 1801.50 1026.40 1801.50 1026.40 C 1801.50 1026.40 1728.40 1089.40 1801.50 1128.70 C 1873.70 1178.90 2027.60 1196.20 2088.30 1232.90 C 2086.80 1229.40 2084.50 1226.20 2081.40 1223.90 Z" fill="#ffcf4a" fill-rule="nonzero" group-id="1,5" node-id="276" stroke="none" target-height="206.5" target-width="359.90002" target-x="1728.4" target-y="1026.4"></path><path d="M 2292.40 1184.90 C 2189.10 1106.40 1954.30 1055.00 1851.50 1035.40 C 1843.00 1043.70 1837.50 1055.20 1833.00 1065.60 C 1826.40 1087.60 1844.00 1107.40 1861.60 1114.00 C 1938.60 1147.00 2011.10 1173.40 2081.50 1224.00 C 2084.60 1226.30 2086.90 1229.50 2088.40 1233.00 C 2106.80 1244.10 2116.60 1257.00 2113.00 1273.20 C 2097.20 1342.40 1951.00 1403.00 1951.00 1403.00 L 1594.60 1386.50 L 1524.60 1547.30 L 1570.60 1662.30 L 2038.00 1629.90 C 2029.60 1569.60 2066.50 1516.50 2118.80 1485.60 C 2180.40 1448.20 2226.60 1397.60 2263.90 1338.30 C 2291.60 1296.00 2312.00 1232.20 2292.40 1184.90 Z" fill="#ffde70" fill-rule="nonzero" group-id="1,5" node-id="278" stroke="none" target-height="626.9" target-width="787.4" target-x="1524.6" target-y="1035.4"></path><path d="M 2292.40 1184.90 C 2312.00 1232.20 2291.60 1296.10 2264.00 1338.30 C 2226.60 1397.70 2180.40 1448.30 2118.90 1485.60 C 2066.60 1516.60 2029.70 1569.70 2038.10 1629.90 L 2071.60 1627.60 C 2064.20 1515.10 2305.80 1413.70 2340.60 1279.60 C 2349.60 1244.70 2329.50 1213.00 2292.40 1184.90 Z" fill="#ffb114" fill-rule="nonzero" group-id="1,5" node-id="280" stroke="none" target-height="445" target-width="319.90015" target-x="2029.7" target-y="1184.9"></path><path d="M 1492.10 1314.10 C 1505.40 1331.10 1526.10 1339.30 1548.90 1343.00 C 1522.30 1323.60 1498.90 1299.70 1492.90 1273.10 C 1477.20 1203.80 1731.00 1086.00 1825.00 1020.60 C 1851.00 1006.60 1853.50 991.40 1845.90 977.60 C 1754.30 1057.80 1660.50 1112.40 1555.90 1177.70 C 1507.50 1208.50 1452.50 1261.30 1492.10 1314.10 Z" fill="#ffb114" fill-rule="nonzero" group-id="1,5" node-id="282" stroke="none" target-height="365.40002" target-width="401" target-x="1452.5" target-y="977.6"></path><path d="M 1338.20 1263.50 C 1332.10 1223.80 1339.80 1184.10 1358.30 1150.30 C 1297.70 1195.10 1257.80 1240.50 1265.30 1279.70 C 1291.50 1415.70 1541.70 1515.20 1534.30 1627.70 L 1558.10 1576.50 C 1552.30 1566.60 1545.80 1556.80 1538.30 1547.20 C 1465.70 1452.60 1355.70 1391.00 1338.20 1263.50 Z" fill="#ffb114" fill-rule="nonzero" group-id="1,5" node-id="284" stroke="none" target-height="477.3999" target-width="300.29993" target-x="1257.8" target-y="1150.3"></path><path d="M 1548.90 1342.90 C 1526.10 1339.20 1505.40 1331.00 1492.10 1314.00 C 1452.50 1261.20 1507.50 1208.40 1555.90 1177.70 C 1660.50 1112.30 1754.30 1057.70 1845.90 977.60 C 1832.10 952.60 1785.40 932.30 1785.40 932.30 C 1785.40 932.30 1508.40 1039.50 1358.30 1150.30 C 1339.80 1184.10 1332.10 1223.80 1338.20 1263.50 C 1355.80 1391.00 1465.70 1452.60 1538.30 1547.20 C 1545.80 1556.80 1552.30 1566.50 1558.10 1576.50 L 1643.00 1393.80 C 1642.90 1393.70 1591.80 1374.20 1548.90 1342.90 Z" fill="#ffde70" fill-rule="nonzero" group-id="1,5" node-id="286" stroke="none" target-height="644.2" target-width="513.80005" target-x="1332.1" target-y="932.3"></path><path d="M 2628.30 2879.50 C 2628.30 2879.50 2606.10 2942.30 2619.10 2989.40 C 2632.20 3036.50 2846.70 2980.20 2922.60 2895.20 C 2998.50 2810.20 2927.80 2789.20 2884.70 2803.60 C 2841.50 2818.00 2688.50 2836.30 2688.50 2836.30 L 2628.30 2879.50 Z" fill="#1a1a1a" fill-rule="nonzero" group-id="1,5" node-id="288" stroke="none" target-height="247.30005" target-width="392.3999" target-x="2606.1" target-y="2789.2"></path><path d="M 2606.10 2837.60 L 2625.70 2910.90 C 2625.70 2910.90 2722.50 2857.30 2722.50 2836.30 C 2712.30 2819.20 2704.20 2802.70 2698.10 2788.70 C 2673.20 2814.90 2641.50 2833.60 2606.10 2837.60 Z" fill="#ffffff" fill-rule="nonzero" group-id="1,5" node-id="290" stroke="none" target-height="122.19995" target-width="116.3999" target-x="2606.1" target-y="2788.7"></path><path d="M 2698.20 2788.80 C 2688.00 2765.20 2683.30 2748.70 2683.30 2748.70 L 2591.50 2783.10 L 2606.10 2837.60 C 2641.50 2833.60 2673.20 2814.90 2698.20 2788.80 Z" fill="#1a1a1a" fill-rule="nonzero" group-id="1,5" node-id="292" stroke="#1a1a1a" stroke-linecap="round" stroke-width="2" target-height="88.90015" target-width="106.69995" target-x="2591.5" target-y="2748.7"></path><path d="M 2519.10 2580.70 C 2516.90 2574.10 2510.30 2571.90 2508.10 2565.30 C 2501.50 2541.10 2497.10 2514.70 2488.30 2492.70 C 2470.70 2442.10 2466.30 2389.30 2461.90 2336.60 C 2453.10 2242.00 2461.90 2145.30 2422.30 2057.30 C 2356.30 2136.50 2257.40 2171.70 2160.60 2209.00 C 2145.20 2215.60 2129.80 2224.40 2114.40 2231.00 C 2083.60 2244.20 2050.60 2253.00 2022.00 2266.20 C 1938.40 2299.20 1848.30 2292.60 1760.30 2281.60 C 1714.10 2277.20 1692.10 2233.20 1676.70 2191.40 C 1670.10 2169.40 1667.90 2143.00 1665.70 2121.00 C 1660.70 2069.20 1662.00 2017.50 1663.00 1965.70 L 1582.40 1965.00 C 1582.40 1965.00 1504.90 2249.20 1668.10 2369.20 C 1935.00 2565.40 2398.70 2122.30 2398.70 2122.30 C 2398.70 2122.30 2421.60 2432.00 2472.60 2612.50 C 2523.60 2793.00 2582.50 2819.20 2582.50 2819.20 C 2582.50 2819.20 2606.40 2812.60 2632.10 2803.00 C 2622.10 2788.60 2612.00 2774.20 2602.50 2758.70 C 2571.80 2701.70 2538.80 2642.30 2519.10 2580.70 Z" fill="#102140" fill-rule="nonzero" group-id="1,5" node-id="294" stroke="none" target-height="854.19995" target-width="1127.2001" target-x="1504.9" target-y="1965"></path><path d="M 2562.90 1851.30 C 2394.10 1800.30 2021.30 1969.00 2021.30 1969.00 L 1663.00 1965.80 C 1662.10 2017.60 1660.70 2069.30 1665.70 2121.10 C 1667.90 2143.10 1670.10 2169.50 1676.70 2191.50 C 1692.10 2233.30 1714.10 2277.30 1760.30 2281.70 C 1848.30 2292.70 1938.40 2299.30 2022.00 2266.30 C 2050.60 2253.10 2083.60 2244.30 2114.40 2231.10 C 2129.80 2224.50 2145.20 2215.70 2160.60 2209.10 C 2257.40 2171.70 2356.30 2136.50 2422.30 2057.40 C 2461.90 2145.40 2453.10 2242.10 2461.90 2336.70 C 2466.30 2389.50 2470.70 2442.30 2488.30 2492.80 C 2497.10 2514.80 2501.50 2541.20 2508.10 2565.40 C 2510.30 2572.00 2516.90 2574.20 2519.10 2580.80 C 2538.90 2642.40 2571.90 2701.70 2602.70 2758.90 C 2612.10 2774.40 2622.30 2788.80 2632.30 2803.20 C 2657.70 2793.70 2684.80 2781.40 2692.60 2769.70 C 2708.10 2746.10 2731.70 1902.30 2562.90 1851.30 Z" fill="#152a52" fill-rule="nonzero" group-id="1,5" node-id="296" stroke="none" target-height="1002.8999" target-width="1071" target-x="1660.7" target-y="1800.3"></path><path d="M 2556.10 2162.00 L 2588.10 2152.90 C 2588.10 2152.90 2637.70 2343.30 2591.40 2495.80 C 2545.10 2648.30 2506.40 2709.90 2506.40 2709.90 L 2466.70 2595.00 L 2556.10 2162.00 Z" fill="#102140" fill-rule="nonzero" group-id="1,5" node-id="298" stroke="none" target-height="557" target-width="171" target-x="2466.7" target-y="2152.9"></path><path d="M 2009.90 1440.10 C 2004.30 1432.00 1998.70 1424.80 1992.90 1418.80 C 1981.70 1407.10 1970.20 1399.60 1958.50 1397.50 C 1856.50 1379.20 1770.10 1381.80 1770.10 1381.80 C 1770.10 1381.80 1708.80 1371.90 1640.30 1392.80" fill="#ffde70" fill-rule="nonzero" group-id="1,5" node-id="300" stroke="none" target-height="68.19995" target-width="369.59998" target-x="1640.3" target-y="1371.9"></path><path d="M 1624.00 1973.80 C 1613.00 1962.80 1606.40 1947.40 1604.20 1932.00 C 1586.60 1800.10 1626.20 1659.30 1538.20 1547.20 C 1536.80 1545.40 1535.30 1543.50 1533.90 1541.70 L 1510.40 1540.70 C 1510.70 1554.50 1512.60 1569.50 1516.40 1585.80 C 1568.70 1810.80 1443.10 2020.10 1618.40 2020.10 C 1634.20 2020.10 1651.40 2019.60 1669.40 2018.80 C 1657.40 2001.80 1641.50 1986.60 1624.00 1973.80 Z" fill="#ffb114" fill-rule="nonzero" group-id="1,5" node-id="302" stroke="none" target-height="479.40002" target-width="226.30005" target-x="1443.1" target-y="1540.7"></path><path d="M 2044.10 1654.90 C 2074.20 1748.80 2097.20 1841.30 2105.00 1937.00 C 2125.30 1926.70 2137.70 1915.90 2139.10 1904.90 C 2143.80 1868.60 2114.30 1697.90 2067.60 1564.20 L 2047.20 1563.30 C 2035.40 1591.00 2032.80 1622.20 2044.10 1654.90 Z" fill="#ffb114" fill-rule="nonzero" group-id="1,5" node-id="304" stroke="none" target-height="373.69995" target-width="111" target-x="2032.8" target-y="1563.3"></path><path d="M 1538.30 1547.20 C 1626.30 1659.40 1586.70 1800.10 1604.30 1932.00 C 1606.50 1947.40 1613.10 1962.80 1624.10 1973.80 C 1641.50 1986.60 1657.40 2001.80 1669.60 2018.80 C 1815.50 2011.90 2023.80 1978.20 2105.10 1937.10 C 2097.30 1841.40 2074.30 1748.90 2044.20 1655.00 C 2033.00 1622.30 2035.50 1591.10 2047.40 1563.50 L 1534.10 1541.80 C 1535.40 1543.50 1536.80 1545.30 1538.30 1547.20 Z" fill="#ffde70" fill-rule="nonzero" group-id="1,5" node-id="306" stroke="none" target-height="477" target-width="571.0001" target-x="1534.1" target-y="1541.8"></path><path d="M 1793.40 1934.20 C 1766.40 1761.80 1749.20 1597.30 1688.10 1436.80 C 1717.90 1565.00 1798.70 1928.60 1769.20 1985.20 C 1774.00 1990.60 1784.80 1994.30 1799.50 1996.60 C 1799.80 1975.20 1796.40 1953.10 1793.40 1934.20 Z" fill="#dbd2db" fill-rule="nonzero" group-id="1,5" node-id="308" stroke="none" target-height="559.7999" target-width="111.70007" target-x="1688.1" target-y="1436.8"></path><path d="M 1927.50 1507.60 C 1919.50 1483.70 1923.10 1459.70 1928.20 1435.80 C 1925.80 1416.20 1925.90 1403.60 1929.40 1400.50 C 1752.90 1375.20 1677.40 1392.10 1677.40 1392.10 C 1677.40 1392.10 1681.50 1408.90 1688.00 1436.80 C 1749.10 1597.20 1766.30 1761.80 1793.30 1934.20 C 1796.30 1953.10 1799.70 1975.20 1799.30 1996.60 C 1849.30 2004.30 1944.50 1995.30 2001.80 1977.40 C 1981.20 1915.90 1992.70 1852.50 1975.80 1789.10 C 1951.70 1694.50 1956.10 1602.10 1927.50 1507.60 Z" fill="#ffffff" fill-rule="nonzero" group-id="1,5" node-id="310" stroke="none" target-height="629.1001" target-width="324.40002" target-x="1677.4" target-y="1375.2"></path><path d="M 1928.20 1435.80 C 1923.10 1459.70 1919.50 1483.70 1927.50 1507.60 C 1956.10 1602.20 1951.70 1694.50 1975.90 1789.10 C 1992.80 1852.50 1981.30 1916.00 2001.90 1977.40 C 2016.20 1972.90 2028.20 1967.90 2036.40 1962.50 C 2041.10 1902.90 1942.10 1550.40 1928.20 1435.80 Z" fill="#dbd2db" fill-rule="nonzero" group-id="1,5" node-id="312" stroke="none" target-height="541.6" target-width="121.599976" target-x="1919.5" target-y="1435.8"></path><path d="M 1739.00 1411.80 L 1741.20 1329.20 C 1741.20 1329.20 1699.60 1316.50 1670.70 1276.00 C 1641.80 1235.60 1611.60 1103.50 1720.40 1066.80 C 1829.20 1030.10 1866.00 1203.20 1866.00 1239.00 C 1866.00 1262.50 1859.40 1304.50 1834.10 1314.10 C 1828.30 1338.40 1860.50 1401.30 1860.50 1401.30 C 1860.50 1401.30 1778.30 1448.70 1739.00 1411.80 Z" fill="#fc9590" fill-rule="nonzero" group-id="1,5" node-id="314" stroke="none" target-height="418.59998" target-width="254.40002" target-x="1611.6" target-y="1030.1"></path><path d="M 2268.20 2932.30 C 2268.20 2932.30 2233.30 2929.70 2222.00 2955.80 C 2219.90 2960.60 2210.30 2981.90 2215.90 2999.40 C 2223.00 3021.30 2247.30 3042.10 2264.10 3072.50 C 2306.70 3149.40 2376.50 3233.00 2452.20 3220.00 C 2581.70 3197.80 2400.70 2951.40 2362.80 2938.30 C 2324.90 2925.30 2268.20 2932.30 2268.20 2932.30 Z" fill="#1a1a1a" fill-rule="nonzero" group-id="1,5" node-id="316" stroke="none" target-height="307.69995" target-width="371.3999" target-x="2210.3" target-y="2925.3"></path><path d="M 2404.40 2873.20 L 2287.50 2835.70 L 2273.90 2875.70 C 2309.90 2901.30 2352.20 2923.70 2393.40 2923.90 C 2400.20 2886.00 2404.40 2873.20 2404.40 2873.20 Z" fill="#1a1a1a" fill-rule="nonzero" group-id="1,5" node-id="318" stroke="#1a1a1a" stroke-linecap="round" stroke-width="2" target-height="88.19995" target-width="130.5" target-x="2273.9" target-y="2835.7"></path><path d="M 2273.90 2875.70 L 2250.90 2943.00 C 2250.90 2943.00 2311.70 3003.50 2349.20 3009.70 C 2362.90 3012.00 2404.40 3006.50 2387.00 2963.10 C 2389.30 2947.80 2391.50 2934.80 2393.40 2923.90 C 2352.20 2923.70 2309.90 2901.30 2273.90 2875.70 Z" fill="#ffffff" fill-rule="nonzero" group-id="1,5" node-id="320" stroke="none" target-height="136.30005" target-width="153.5" target-x="2250.9" target-y="2875.7"></path><path d="M 2591.50 2198.00 C 2591.70 2148.40 2582.30 2113.40 2559.00 2102.50 C 2435.50 2044.30 2342.70 2171.80 2342.70 2171.80 C 2342.70 2171.80 2219.40 2267.20 2058.00 2359.30 C 2068.30 2365.60 2089.70 2365.30 2116.50 2361.10 C 2248.40 2306.50 2344.50 2184.60 2475.10 2130.00 C 2533.80 2104.80 2569.40 2145.30 2591.50 2198.00 Z" fill="#1a1a1a" fill-rule="nonzero" group-id="1,5" node-id="322" stroke="none" target-height="321.30005" target-width="533.69995" target-x="2058" target-y="2044.3"></path><path d="M 2426.70 2255.30 C 2400.30 2277.30 2380.50 2308.10 2373.90 2343.30 C 2354.10 2475.20 2371.70 2602.80 2365.10 2732.50 C 2362.10 2779.70 2340.00 2835.30 2302.00 2869.40 C 2350.70 2895.20 2413.80 2895.20 2413.80 2895.20 C 2413.80 2895.20 2563.90 2484.90 2588.20 2253.30 C 2546.90 2216.30 2467.40 2225.70 2426.70 2255.30 Z" fill="#152a52" fill-rule="nonzero" group-id="1,5" node-id="324" stroke="none" target-height="678.8999" target-width="286.19995" target-x="2302" target-y="2216.3"></path><path d="M 2475.10 2129.90 C 2344.50 2184.50 2248.50 2306.40 2116.50 2361.00 C 2202.30 2347.60 2342.70 2294.70 2342.70 2294.70 C 2342.70 2294.70 2300.00 2691.10 2272.50 2848.10 C 2281.10 2856.70 2291.20 2863.60 2302.00 2869.40 C 2340.10 2835.30 2362.10 2779.70 2365.10 2732.50 C 2371.70 2602.80 2354.10 2475.20 2373.90 2343.30 C 2380.50 2308.10 2400.30 2277.30 2426.70 2255.30 C 2467.40 2225.70 2546.90 2216.40 2588.20 2253.30 C 2590.30 2233.40 2591.40 2214.90 2591.50 2198.00 C 2569.40 2145.30 2533.80 2104.80 2475.10 2129.90 Z" fill="#102140" fill-rule="nonzero" group-id="1,5" node-id="326" stroke="none" target-height="764.59985" target-width="475" target-x="2116.5" target-y="2104.8"></path><path d="M 1687.30 1118.70 C 1687.30 1118.70 1796.30 1136.50 1873.90 1061.80 C 1886.10 1016.70 1838.00 990.50 1838.00 990.50 C 1838.00 990.50 1666.30 986.10 1649.80 1068.10 C 1607.90 1073.30 1594.00 1109.10 1606.20 1151.80 C 1618.40 1194.50 1625.00 1287.60 1672.70 1283.30 C 1689.90 1276.50 1634.90 1202.30 1660.20 1189.30 C 1685.50 1176.20 1676.80 1230.30 1688.10 1239.90 C 1699.40 1249.50 1709.00 1230.30 1699.40 1209.40 C 1689.80 1188.50 1678.50 1163.20 1678.50 1163.20 C 1678.50 1163.20 1696.10 1153.50 1687.30 1118.70 Z" fill="#102140" fill-rule="nonzero" group-id="1,5" node-id="328" stroke="none" target-height="301.5" target-width="292.09998" target-x="1594" target-y="986.1"></path><path d="M 3056.70 2030.40 L 1070.00 2030.40 C 1054.60 2011.20 1049.90 1993.40 1070.00 1978.70 L 3056.80 1978.70 C 3077.60 1995.30 3076.30 2012.60 3056.70 2030.40 Z" fill="#ccc4cc" fill-rule="nonzero" group-id="1" node-id="331" stroke="none" target-height="51.700073" target-width="2027.7001" target-x="1049.9" target-y="1978.7"></path><path d="M 3623.70 2578.30 L 3696.50 2615.90 L 3678.10 2651.40 L 3605.40 2613.80 Z" fill="url(#SVGID_6_)" fill-rule="nonzero" group-id="1" node-id="333" stroke="none" target-height="73.09985" target-width="91.1001" target-x="3605.4" target-y="2578.3"></path><path d="M 3165.30 2265.70 L 3127.60 2312.90 L 3096.40 2288.00 L 3134.10 2240.80 Z" fill="url(#SVGID_7_)" fill-rule="nonzero" group-id="1" node-id="335" stroke="none" target-height="72.09985" target-width="68.90015" target-x="3096.4" target-y="2240.8"></path><path d="M 614.60 2112.90 L 596.60 2056.20 L 632.40 2044.90 L 650.40 2101.60 Z" fill="url(#SVGID_8_)" fill-rule="nonzero" group-id="1" node-id="337" stroke="none" target-height="67.99988" target-width="53.80005" target-x="596.6" target-y="2044.9"></path><path d="M 629.30 2569.50 L 481.20 2589.80 L 470.60 2512.80 L 618.70 2492.50 Z" fill="url(#SVGID_9_)" fill-rule="nonzero" group-id="1" node-id="339" stroke="none" target-height="97.30005" target-width="158.69998" target-x="470.6" target-y="2492.5"></path><path d="M 941.60 2329.90 L 907.90 2223.60 L 963.20 2206.10 L 996.80 2312.40 Z" fill="url(#SVGID_10_)" fill-rule="nonzero" group-id="1" node-id="341" stroke="none" target-height="123.799805" target-width="88.89996" target-x="907.9" target-y="2206.1"></path><path d="M 1246.50 2030.40 L 980.00 3135.90 L 1000.70 3135.90 L 1288.30 2030.40 Z" fill="#3c353c" fill-rule="nonzero" group-id="1" node-id="343" stroke="none" target-height="1105.4999" target-width="308.30005" target-x="980" target-y="2030.4"></path><path d="M 1343.70 2030.40 L 1288.30 2030.40 L 1000.70 3135.90 L 1020.80 3135.90 Z" fill="#504650" fill-rule="nonzero" group-id="1" node-id="345" stroke="none" target-height="1105.4999" target-width="342.99994" target-x="1000.7" target-y="2030.4"></path><path d="M 2801.20 2030.40 L 3124.10 3135.90 L 3146.60 3135.90 L 2843.80 2030.40 Z" fill="#504650" fill-rule="nonzero" group-id="1" node-id="347" stroke="none" target-height="1105.4999" target-width="345.40015" target-x="2801.2" target-y="2030.4"></path><path d="M 2898.40 2030.40 L 2843.80 2030.40 L 3146.60 3135.90 L 3164.90 3135.90 Z" fill="#3c353c" fill-rule="nonzero" group-id="1" node-id="349" stroke="none" target-height="1105.4999" target-width="321.09985" target-x="2843.8" target-y="2030.4"></path><path d="M 1447.90 1005.70 L 1479.40 1108.90 L 1353.40 1005.70 L 966.10 1005.70 C 925.80 1005.70 893.10 959.30 893.10 902.20 L 893.10 745.40 C 893.10 688.20 925.80 641.90 966.10 641.90 L 1447.90 641.90 C 1488.20 641.90 1520.90 688.30 1520.90 745.40 L 1520.90 902.20 C 1520.90 959.40 1488.20 1005.70 1447.90 1005.70 Z" fill="#ffffff" fill-rule="nonzero" group-id="1" node-id="351" stroke="none" target-height="467" target-width="627.80005" target-x="893.1" target-y="641.9"></path><path d="M 1219.10 885.40 C 1220.00 871.50 1220.00 871.50 1221.00 857.50 L 1194.80 846.20 C 1192.00 837.90 1190.60 833.70 1187.80 825.40 L 1201.80 800.50 C 1192.60 790.00 1192.60 790.00 1183.40 779.50 L 1156.80 790.00 C 1148.90 786.10 1145.00 784.10 1137.10 780.20 L 1129.30 752.70 C 1115.40 751.80 1115.40 751.80 1101.40 750.80 L 1090.00 777.00 C 1081.70 779.80 1077.50 781.20 1069.20 784.00 L 1044.30 770.00 C 1033.80 779.20 1033.80 779.20 1023.30 788.40 L 1033.80 815.00 C 1029.90 822.90 1027.90 826.80 1024.00 834.70 L 996.50 842.50 C 995.60 856.40 995.60 856.40 994.60 870.40 L 1020.80 881.80 C 1023.60 890.10 1025.00 894.30 1027.80 902.60 L 1013.80 927.50 C 1023.00 938.00 1023.00 938.00 1032.20 948.50 L 1058.80 938.00 C 1066.70 941.90 1070.60 943.90 1078.50 947.80 L 1086.30 975.30 C 1100.20 976.20 1100.20 976.20 1114.20 977.20 L 1125.50 951.00 C 1133.80 948.20 1138.00 946.80 1146.30 944.00 L 1171.20 958.00 C 1181.70 948.80 1181.70 948.80 1192.20 939.60 L 1181.70 913.00 C 1185.60 905.10 1187.60 901.20 1191.50 893.30 L 1219.10 885.40 Z M 1107.70 911.80 C 1081.30 911.80 1059.90 890.40 1059.90 864.00 C 1059.90 837.60 1081.30 816.20 1107.70 816.20 C 1134.10 816.20 1155.50 837.60 1155.50 864.00 C 1155.50 890.40 1134.10 911.80 1107.70 911.80 Z" fill="#1a1a1a" fill-rule="nonzero" group-id="1" node-id="353" stroke="none" target-height="226.40002" target-width="226.40002" target-x="994.6" target-y="750.8"></path><path d="M 1374.40 808.90 C 1377.10 798.40 1377.10 798.40 1379.70 788.00 L 1361.30 775.70 C 1360.30 769.00 1359.80 765.60 1358.90 758.80 L 1373.00 741.80 C 1367.50 732.50 1367.50 732.50 1362.00 723.20 L 1340.30 727.50 C 1334.90 723.40 1332.10 721.40 1326.70 717.30 L 1324.70 695.30 C 1314.20 692.60 1314.20 692.60 1303.80 690.00 L 1291.50 708.40 C 1284.80 709.40 1281.40 709.90 1274.60 710.80 L 1257.60 696.70 C 1248.30 702.20 1248.30 702.20 1239.00 707.70 L 1243.30 729.40 C 1239.20 734.80 1237.20 737.60 1233.10 743.00 L 1211.10 745.00 C 1208.40 755.50 1208.40 755.50 1205.80 765.90 L 1224.20 778.20 C 1225.20 784.90 1225.70 788.30 1226.60 795.10 L 1212.50 812.10 C 1218.00 821.40 1218.00 821.40 1223.50 830.70 L 1245.20 826.40 C 1250.60 830.50 1253.40 832.50 1258.80 836.60 L 1260.80 858.60 C 1271.30 861.30 1271.30 861.30 1281.70 863.90 L 1294.00 845.50 C 1300.70 844.50 1304.10 844.00 1310.90 843.10 L 1327.90 857.20 C 1337.20 851.70 1337.20 851.70 1346.50 846.20 L 1342.20 824.50 C 1346.30 819.10 1348.30 816.30 1352.40 810.90 L 1374.40 808.90 Z M 1285.90 813.30 C 1265.80 809.60 1252.50 790.30 1256.20 770.20 C 1259.90 750.10 1279.20 736.80 1299.30 740.50 C 1319.40 744.20 1332.70 763.50 1329.00 783.60 C 1325.30 803.70 1306.00 817.00 1285.90 813.30 Z" fill="#ffb114" fill-rule="nonzero" group-id="1" node-id="355" stroke="none" target-height="173.90002" target-width="173.8999" target-x="1205.8" target-y="690"></path><path d="M 2261.90 2333.70 C 2223.20 2338.70 1848.80 2430.00 1757.40 2424.20 C 1609.30 2414.80 1626.20 2246.60 1564.00 2184.70 C 1541.40 2162.20 1540.20 2170.40 1517.60 2165.50 C 1529.70 2179.60 1539.70 2195.70 1547.00 2213.50 C 1577.80 2288.30 1571.20 2389.40 1646.00 2431.20 C 1764.80 2492.80 1903.30 2475.20 2033.00 2453.20 C 2125.10 2436.00 2210.60 2410.00 2298.80 2392.40 C 2297.90 2388.60 2316.40 2387.00 2333.20 2382.80 L 2343.40 2306.90 C 2314.10 2316.90 2286.90 2330.50 2261.90 2333.70 Z" fill="#d0b3d0" fill-rule="nonzero" group-id="1" node-id="357" stroke="none" target-height="330.6001" target-width="825.7999" target-x="1517.6" target-y="2162.2"></path><path d="M 2033.10 2453.20 C 1903.40 2475.20 1764.80 2492.80 1646.10 2431.20 C 1571.30 2389.40 1577.90 2288.30 1547.10 2213.50 C 1539.80 2195.70 1529.80 2179.60 1517.70 2165.50 C 1478.10 2156.90 1445.60 2167.10 1445.60 2167.10 C 1445.60 2167.10 1452.60 2410.10 1556.00 2504.10 C 1659.50 2598.20 2220.70 2485.30 2270.90 2469.30 C 2299.70 2460.10 2306.20 2424.40 2298.90 2392.40 C 2210.60 2410.00 2125.20 2436.00 2033.10 2453.20 Z" fill="#b080b0" fill-rule="nonzero" group-id="1" node-id="359" stroke="none" target-height="441.30005" target-width="860.6" target-x="1445.6" target-y="2156.9"></path><path d="M 1785.60 1437.30 L 1779.40 1464.40 L 1804.40 1488.30 L 1831.90 1488.30 L 1846.00 1452.20 L 1813.50 1434.20 Z" fill="url(#SVGID_11_)" fill-rule="nonzero" group-id="1" node-id="361" stroke="none" target-height="54.100098" target-width="66.599976" target-x="1779.4" target-y="1434.2"></path><path d="M 1806.00 1491.70 L 1831.90 1488.30 L 1942.40 1764.20 C 1942.40 1764.20 1932.20 1943.70 1917.30 1947.60 C 1902.40 1951.50 1813.40 1778.30 1813.40 1778.30 L 1806.00 1491.70 Z" fill="url(#SVGID_12_)" fill-rule="nonzero" group-id="1" node-id="363" stroke="none" target-height="463.19995" target-width="136.40002" target-x="1806" target-y="1488.3"></path><path d="M 1712.00 1393.10 L 1730.40 1368.00 C 1730.40 1368.00 1784.50 1400.50 1786.80 1434.20 C 1759.00 1453.80 1712.00 1393.10 1712.00 1393.10 Z" fill="#ccc4cc" fill-rule="nonzero" group-id="1" node-id="365" stroke="none" target-height="85.80005" target-width="74.80005" target-x="1712" target-y="1368"></path><path d="M 1712.00 1386.40 L 1730.40 1361.30 C 1730.40 1361.30 1784.50 1393.80 1786.80 1427.50 C 1759.00 1447.10 1712.00 1386.40 1712.00 1386.40 Z" fill="#ffffff" fill-rule="nonzero" group-id="1" node-id="367" stroke="none" target-height="85.79993" target-width="74.80005" target-x="1712" target-y="1361.3"></path><path d="M 1806.00 1433.00 C 1806.00 1433.00 1838.10 1368.30 1858.90 1365.60 C 1879.30 1396.20 1879.30 1396.20 1879.30 1396.20 C 1879.30 1396.20 1844.80 1435.40 1818.90 1434.20 C 1806.80 1434.90 1806.00 1433.00 1806.00 1433.00 Z" fill="#ccc4cc" fill-rule="nonzero" group-id="1" node-id="369" stroke="none" target-height="69.80005" target-width="73.30005" target-x="1806" target-y="1365.6"></path><path d="M 1806.00 1427.10 C 1806.00 1427.10 1838.10 1362.40 1858.90 1359.70 C 1879.30 1390.30 1879.30 1390.30 1879.30 1390.30 C 1879.30 1390.30 1844.80 1429.50 1818.90 1428.30 C 1806.80 1429.10 1806.00 1427.10 1806.00 1427.10 Z" fill="#ffffff" fill-rule="nonzero" group-id="1" node-id="371" stroke="none" target-height="69.80005" target-width="73.30005" target-x="1806" target-y="1359.7"></path><path d="M 2893.28 1152.47 L 2898.07 1157.68 L 2902.31 1163.10 L 2906.03 1168.73 L 2909.25 1174.58 L 2912.01 1180.70 L 2914.25 1186.91 L 2915.99 1193.23 L 2917.23 1199.67 L 2917.98 1206.20 L 2918.23 1212.71 L 2917.98 1219.22 L 2917.23 1225.75 L 2915.99 1232.20 L 2914.25 1238.52 L 2912.01 1244.73 L 2909.25 1250.84 L 2906.03 1256.70 L 2902.31 1262.33 L 2898.07 1267.74 L 2893.28 1272.96 L 2888.06 1277.75 L 2882.65 1281.99 L 2877.02 1285.71 L 2871.16 1288.93 L 2865.05 1291.68 L 2858.84 1293.93 L 2852.52 1295.67 L 2846.07 1296.91 L 2839.54 1297.66 L 2833.03 1297.91 L 2826.52 1297.66 L 2819.99 1296.91 L 2813.55 1295.67 L 2807.23 1293.93 L 2801.02 1291.69 L 2794.90 1288.93 L 2789.05 1285.71 L 2783.42 1281.99 L 2778.00 1277.75 L 2772.79 1272.96 L 2768.00 1267.74 L 2763.75 1262.33 L 2760.03 1256.70 L 2756.82 1250.84 L 2754.06 1244.73 L 2751.82 1238.52 L 2750.08 1232.20 L 2748.83 1225.75 L 2748.08 1219.22 L 2747.83 1212.71 L 2748.08 1206.20 L 2748.83 1199.67 L 2750.08 1193.23 L 2751.82 1186.91 L 2754.06 1180.70 L 2756.82 1174.58 L 2760.03 1168.73 L 2763.75 1163.10 L 2768.00 1157.68 L 2772.79 1152.47 L 2778.00 1147.68 L 2783.42 1143.43 L 2789.05 1139.71 L 2794.90 1136.50 L 2801.02 1133.74 L 2807.23 1131.50 L 2813.55 1129.76 L 2819.99 1128.51 L 2826.52 1127.76 L 2833.03 1127.51 L 2839.54 1127.76 L 2846.07 1128.51 L 2852.52 1129.76 L 2858.84 1131.50 L 2865.05 1133.74 L 2871.16 1136.50 L 2877.02 1139.71 L 2882.65 1143.43 L 2888.06 1147.68 L 2893.28 1152.47 Z" fill="#eb485c" fill-rule="nonzero" group-id="1,6" node-id="375" stroke="none" target-height="170.39856" target-width="170.39844" target-x="2747.8333" target-y="1127.5126"></path><path d="M 3256.10 874.50 L 3178.80 922.60 L 3169.50 952.30 L 3253.50 905.00 Z" fill="#152a52" fill-rule="nonzero" group-id="1" node-id="378" stroke="none" target-height="77.79999" target-width="86.6001" target-x="3169.5" target-y="874.5"></path><path d="M 3253.50 905.00 L 3169.40 952.30 L 3162.50 974.30 L 2827.60 1206.70 C 2825.50 1215.50 2828.50 1218.20 2834.10 1217.80 L 3171.40 985.40 L 3176.90 985.90 L 3269.80 930.20 L 3251.90 923.80 L 3253.50 905.00 Z" fill="#ffffff" fill-rule="nonzero" group-id="1" node-id="380" stroke="#1a1a1a" stroke-linecap="round" stroke-width="2" target-height="313.19995" target-width="444.30005" target-x="2825.5" target-y="905"></path><path d="M 3269.80 930.00 L 3177.00 985.80 L 3219.50 989.50 L 3310.40 944.50 Z" fill="#152a52" fill-rule="nonzero" group-id="1" node-id="382" stroke="none" target-height="59.5" target-width="133.3999" target-x="3177" target-y="930"></path><path d="M 3094.80 1502.10 C 3094.80 1502.10 3152.60 1991.60 3284.20 2206.10 C 3233.40 2161.00 2968.20 1902.00 3094.80 1502.10 Z" fill="#339e7e" fill-rule="nonzero" group-id="1,7,9,14,17" node-id="392" stroke="none" target-height="704.0001" target-width="316" target-x="2968.2" target-y="1502.1"></path><path d="M 3075.10 1668.50 L 3125.40 1686.60" fill="#ffffff" fill-rule="nonzero" group-id="1,7,9,14,17" node-id="394" stroke="#1a1a1a" stroke-linecap="round" stroke-width="2" target-height="18.099976" target-width="50.299805" target-x="3075.1" target-y="1668.5"></path><path d="M 3094.80 1502.10 C 3398.50 1672.10 3292.50 2213.10 3292.50 2213.10 C 3292.50 2213.10 3289.50 2210.70 3284.20 2206.10 C 3152.60 1991.70 3094.80 1502.10 3094.80 1502.10 Z" fill="#127755" fill-rule="nonzero" group-id="1,7,9,14,17" node-id="396" stroke="none" target-height="711.0001" target-width="303.69995" target-x="3094.8" target-y="1502.1"></path><path d="M 3393.00 2374.00 C 3393.00 2374.00 3446.20 2429.90 3302.00 2232.70 C 3296.00 2224.40 3290.00 2215.50 3284.30 2206.10" fill="none" group-id="1,7,9,14,17" node-id="398" stroke="#1a1a1a" stroke-linecap="round" stroke-width="3" target-height="223.7998" target-width="161.8999" target-x="3284.3" target-y="2206.1"></path><path d="M 3162.80 1874.20 L 3093.20 1831.50" fill="none" group-id="1,7,9,14" node-id="401" stroke="#1a1a1a" stroke-linecap="round" stroke-width="2" target-height="42.69995" target-width="69.6001" target-x="3093.2" target-y="1831.5"></path><path d="M 3144.30 1793.30 L 3079.40 1747.80" fill="none" group-id="1,7,9,14" node-id="403" stroke="#1a1a1a" stroke-linecap="round" stroke-width="2" target-height="45.5" target-width="64.90015" target-x="3079.4" target-y="1747.8"></path><path d="M 3165.80 2037.40 C 3165.80 2037.40 3201.60 2087.50 3240.80 2120.20" fill="none" group-id="1,7,9,14" node-id="405" stroke="#1a1a1a" stroke-linecap="round" stroke-width="2" target-height="82.79993" target-width="75" target-x="3165.8" target-y="2037.4"></path><path d="M 3118.50 1941.20 L 3191.80 1992.60" fill="none" group-id="1,7,9,14" node-id="407" stroke="#1a1a1a" stroke-linecap="round" stroke-width="2" target-height="51.400024" target-width="73.30005" target-x="3118.5" target-y="1941.2"></path><path d="M 3122.60 1682.80 L 3180.50 1610.60" fill="none" group-id="1,7,9,14" node-id="409" stroke="#ffffff" stroke-linecap="round" stroke-width="2" target-height="72.20007" target-width="57.899902" target-x="3122.6" target-y="1610.6"></path><path d="M 3235.20 1687.10 L 3143.60 1790.20" fill="none" group-id="1,7,9,14" node-id="411" stroke="#ffffff" stroke-linecap="round" stroke-width="2" target-height="103.099976" target-width="91.59985" target-x="3143.6" target-y="1687.1"></path><path d="M 3162.20 1871.80 L 3265.70 1772.70" fill="none" group-id="1,7,9,14" node-id="413" stroke="#ffffff" stroke-linecap="round" stroke-width="2" target-height="99.1001" target-width="103.5" target-x="3162.2" target-y="1772.7"></path><path d="M 3193.30 1992.90 L 3283.60 1888.00" fill="none" group-id="1,7,9,14" node-id="415" stroke="#ffffff" stroke-linecap="round" stroke-width="2" target-height="104.900024" target-width="90.30005" target-x="3193.3" target-y="1888"></path><path d="M 3239.50 2117.00 L 3295.70 2041.30" fill="none" group-id="1,7,9,14" node-id="417" stroke="#ffffff" stroke-linecap="round" stroke-width="2" target-height="75.69995" target-width="56.19995" target-x="3239.5" target-y="2041.3"></path><path d="M 3957.30 1795.40 C 3902.70 2104.10 3442.70 2220.20 3442.70 2220.20 C 3442.70 2220.20 3443.80 2216.90 3446.20 2210.80 C 3581.40 2025.80 3952.50 1798.40 3957.30 1795.40 C 3957.30 1795.40 3957.30 1795.40 3957.30 1795.40 Z" fill="#00593b" fill-rule="nonzero" group-id="1,7,10,15" node-id="425" stroke="none" target-height="424.79993" target-width="514.6001" target-x="3442.7" target-y="1795.4"></path><path d="M 3957.30 1795.40 C 3952.50 1798.30 3581.40 2025.70 3446.20 2210.80 C 3468.70 2152.70 3604.70 1842.20 3957.30 1795.40 Z" fill="#339e7e" fill-rule="nonzero" group-id="1,7,10,15" node-id="427" stroke="none" target-height="415.40002" target-width="511.1001" target-x="3446.2" target-y="1795.4"></path><path d="M 3327.20 2449.60 C 3327.20 2449.60 3310.80 2425.10 3429.70 2235.10 C 3434.70 2227.10 3440.20 2219.00 3446.20 2210.80" fill="none" group-id="1,7,10,15" node-id="429" stroke="#1a1a1a" stroke-linecap="round" stroke-width="3" target-height="238.80005" target-width="135.3999" target-x="3310.8" target-y="2210.8"></path><path d="M 3554.60 2048.40 L 3520.30 2128.90" fill="none" group-id="1,7,10" node-id="432" stroke="#1a1a1a" stroke-linecap="round" stroke-width="2" target-height="80.5" target-width="34.30005" target-x="3520.3" target-y="2048.4"></path><path d="M 3614.90 1979.90 L 3598.70 2057.80" fill="none" group-id="1,7,10" node-id="434" stroke="#1a1a1a" stroke-linecap="round" stroke-width="2" target-height="77.900024" target-width="16.199951" target-x="3598.7" target-y="1979.9"></path><path d="M 3700.60 1904.90 L 3683.10 1985.60" fill="none" group-id="1,7,10" node-id="436" stroke="#1a1a1a" stroke-linecap="round" stroke-width="2" target-height="80.69995" target-width="17.5" target-x="3683.1" target-y="1904.9"></path><path d="M 3773.00 1871.10 L 3759.20 1928.70" fill="none" group-id="1,7,10" node-id="438" stroke="#1a1a1a" stroke-linecap="round" stroke-width="2" target-height="57.599976" target-width="13.800049" target-x="3759.2" target-y="1871.1"></path><path d="M 3844.00 1938.70 C 3840.90 1937.90 3759.20 1928.70 3759.20 1928.70" fill="none" group-id="1,7,10" node-id="440" stroke="#ffffff" stroke-linecap="round" stroke-width="2" target-height="10" target-width="84.80005" target-x="3759.2" target-y="1928.7"></path><path d="M 3683.40 1984.00 L 3807.20 2007.90" fill="none" group-id="1,7,10" node-id="442" stroke="#ffffff" stroke-linecap="round" stroke-width="2" target-height="23.900024" target-width="123.80005" target-x="3683.4" target-y="1984"></path><path d="M 3601.10 2052.10 L 3722.50 2076.70" fill="none" group-id="1,7,10" node-id="444" stroke="#ffffff" stroke-linecap="round" stroke-width="2" target-height="24.599854" target-width="121.3999" target-x="3601.1" target-y="2052.1"></path><path d="M 3522.40 2124.00 L 3607.30 2136.20" fill="none" group-id="1,7,10" node-id="446" stroke="#ffffff" stroke-linecap="round" stroke-width="2" target-height="12.199951" target-width="84.90015" target-x="3522.4" target-y="2124"></path><path d="M 3467.30 1576.80 C 3467.30 1576.80 3301.70 2019.50 3319.80 2260.20 C 3296.20 2199.40 3183.80 1862.10 3467.30 1576.80 Z" fill="#339e7e" fill-rule="nonzero" group-id="1,7,10,16,18" node-id="452" stroke="none" target-height="683.3999" target-width="283.5" target-x="3183.8" target-y="1576.8"></path><path d="M 3467.30 1576.80 C 3651.70 1855.00 3323.70 2269.80 3323.70 2269.80 C 3323.70 2269.80 3322.20 2266.50 3319.80 2260.20 C 3301.70 2019.60 3467.30 1576.80 3467.30 1576.80 Z" fill="#127755" fill-rule="nonzero" group-id="1,7,10,16,18" node-id="454" stroke="none" target-height="693" target-width="350" target-x="3301.7" target-y="1576.8"></path><path d="M 3393.00 2529.50 C 3393.00 2529.50 3359.60 2522.10 3323.20 2290.70 C 3321.70 2281.00 3320.50 2270.80 3319.70 2260.20" fill="none" group-id="1,7,10,16,18" node-id="456" stroke="#1a1a1a" stroke-linecap="round" stroke-width="3" target-height="269.30005" target-width="73.30005" target-x="3319.7" target-y="2260.2"></path><path d="M 3361.90 1923.90 L 3321.30 1856.90" fill="none" group-id="1,7,10,16" node-id="459" stroke="#1a1a1a" stroke-linecap="round" stroke-width="2" target-height="67" target-width="40.599854" target-x="3321.3" target-y="1856.9"></path><path d="M 3381.70 1846.80 L 3346.30 1779.50" fill="none" group-id="1,7,10,16" node-id="461" stroke="#1a1a1a" stroke-linecap="round" stroke-width="2" target-height="67.30005" target-width="35.399902" target-x="3346.3" target-y="1779.5"></path><path d="M 3292.80 2064.30 C 3292.80 2064.30 3301.30 2122.70 3320.40 2167.80" fill="none" group-id="1,7,10,16" node-id="463" stroke="#1a1a1a" stroke-linecap="round" stroke-width="2" target-height="103.5" target-width="27.599854" target-x="3292.8" target-y="2064.3"></path><path d="M 3314.70 1968.90 L 3334.60 2037.60" fill="none" group-id="1,7,10,16" node-id="465" stroke="#1a1a1a" stroke-linecap="round" stroke-width="2" target-height="68.69995" target-width="19.900146" target-x="3314.7" target-y="1968.9"></path><path d="M 3492.70 1706.90 L 3411.70 1743.10" fill="none" group-id="1,7,10,16" node-id="467" stroke="#ffffff" stroke-linecap="round" stroke-width="2" target-height="36.19995" target-width="81" target-x="3411.7" target-y="1706.9"></path><path d="M 3505.80 1796.10 L 3382.50 1843.80" fill="none" group-id="1,7,10,16" node-id="469" stroke="#ffffff" stroke-linecap="round" stroke-width="2" target-height="47.700073" target-width="123.30005" target-x="3382.5" target-y="1796.1"></path><path d="M 3362.50 1921.60 L 3494.20 1882.50" fill="none" group-id="1,7,10,16" node-id="471" stroke="#ffffff" stroke-linecap="round" stroke-width="2" target-height="39.099976" target-width="131.69995" target-x="3362.5" target-y="1882.5"></path><path d="M 3335.80 2038.50 L 3458.90 1988.70" fill="none" group-id="1,7,10,16" node-id="473" stroke="#ffffff" stroke-linecap="round" stroke-width="2" target-height="49.80005" target-width="123.09985" target-x="3335.8" target-y="1988.7"></path><path d="M 3320.70 2164.50 L 3401.90 2124.60" fill="none" group-id="1,7,10,16" node-id="475" stroke="#ffffff" stroke-linecap="round" stroke-width="2" target-height="39.899902" target-width="81.19995" target-x="3320.7" target-y="2124.6"></path><path d="M 3383.30 2475.20 C 3383.30 2429.40 3372.00 2379.40 3383.30 2333.10 C 3324.20 2324.00 3269.90 2326.60 3222.20 2345.60 L 3248.40 2787.20 L 3361.50 2787.20 C 3362.40 2783.00 3363.10 2778.70 3363.50 2774.20 C 3374.50 2673.10 3381.10 2576.30 3383.30 2475.20 Z" fill="#b080b0" fill-rule="nonzero" group-id="1" node-id="480" stroke="none" target-height="463.19995" target-width="161.1001" target-x="3222.2" target-y="2324"></path><path d="M 3443.10 2345.60 C 3422.70 2340.30 3402.80 2336.00 3383.40 2333.10 C 3372.10 2379.40 3383.40 2429.40 3383.40 2475.20 C 3381.20 2576.40 3374.60 2673.10 3363.60 2774.30 C 3363.20 2778.80 3362.50 2783.10 3361.60 2787.30 L 3416.90 2787.30 L 3443.10 2345.60 Z" fill="#572658" fill-rule="nonzero" group-id="1" node-id="482" stroke="none" target-height="454.19995" target-width="81.5" target-x="3361.6" target-y="2333.1"></path><path d="M 3361.30 2824.80 C 3362.20 2814.50 3362.40 2800.60 3364.20 2787.20 L 3248.50 2787.20 L 3267.40 3105.20 C 3299.20 3114.00 3329.90 3117.60 3359.20 3114.20 C 3361.00 3017.10 3352.70 2922.00 3361.30 2824.80 Z" fill="#846084" fill-rule="nonzero" group-id="1" node-id="484" stroke="none" target-height="330.40015" target-width="115.69995" target-x="3248.5" target-y="2787.2"></path><path d="M 3416.80 2787.20 L 3364.20 2787.20 C 3362.40 2800.60 3362.20 2814.50 3361.30 2824.80 C 3352.70 2922.00 3361.00 3017.10 3359.20 3114.20 C 3372.40 3112.70 3385.30 3109.70 3398.00 3105.20 L 3416.80 2787.20 Z" fill="#411d42" fill-rule="nonzero" group-id="1" node-id="486" stroke="none" target-height="327" target-width="64.1001" target-x="3352.7" target-y="2787.2"></path><path d="M 766.50 1493.60 C 766.50 1510.30 761.90 1526.80 753.20 1541.00 C 748.90 1548.00 743.60 1553.80 739.70 1561.20 C 732.80 1574.50 727.80 1589.30 723.20 1603.50 C 718.50 1618.10 715.50 1633.30 716.60 1648.60 C 716.60 1648.60 633.70 1648.60 633.70 1648.60 C 638.70 1648.60 625.60 1599.00 624.20 1595.00 C 618.60 1579.50 613.70 1563.40 604.40 1549.60 C 595.20 1535.90 587.40 1522.20 585.70 1505.30 C 572.40 1379.00 763.20 1366.60 766.50 1493.60 Z" fill="#ffde70" fill-rule="nonzero" group-id="1,8,11" node-id="492" stroke="none" target-height="282" target-width="194.09998" target-x="572.4" target-y="1366.6"></path><path d="M 585.60 1505.40 C 585.10 1504.40 584.90 1503.90 584.90 1503.90 L 585.50 1503.90 C 585.50 1504.40 585.60 1504.90 585.60 1505.40 Z" fill="#ffffff" fill-rule="nonzero" group-id="1,8,11" node-id="494" stroke="#1a1a1a" stroke-linecap="round" stroke-width="2" target-height="1.5" target-width="0.6999512" target-x="584.9" target-y="1503.9"></path><path d="M 661.00 1648.60 L 661.00 1495.00 C 661.00 1495.00 645.60 1478.30 642.60 1502.10 C 639.70 1525.90 673.70 1521.20 679.60 1513.80 C 685.50 1506.40 688.60 1484.90 679.00 1489.30 C 669.30 1493.70 673.90 1522.50 696.10 1519.20 C 718.20 1515.90 712.00 1489.00 703.20 1488.90 C 694.40 1488.80 690.30 1514.60 691.50 1540.90 C 692.80 1567.20 690.70 1648.60 690.70 1648.60" fill="none" group-id="1,8,11" node-id="496" stroke="#134411" stroke-linecap="round" stroke-width="3" target-height="170.29993" target-width="78.5" target-x="639.7" target-y="1478.3"></path><path d="M 726.70 1658.90 L 625.50 1658.90 C 624.40 1658.90 623.50 1658.00 623.50 1656.90 L 623.50 1647.10 C 623.50 1646.00 624.40 1645.10 625.50 1645.10 L 726.70 1645.10 C 727.80 1645.10 728.70 1646.00 728.70 1647.10 L 728.70 1656.90 C 728.70 1658.00 727.80 1658.90 726.70 1658.90 Z" fill="#572658" fill-rule="nonzero" group-id="1,8,11" node-id="498" stroke="none" target-height="13.800049" target-width="105.20001" target-x="623.5" target-y="1645.1"></path><path d="M 726.70 1672.70 L 625.50 1672.70 C 624.40 1672.70 623.50 1671.80 623.50 1670.70 L 623.50 1660.90 C 623.50 1659.80 624.40 1658.90 625.50 1658.90 L 726.70 1658.90 C 727.80 1658.90 728.70 1659.80 728.70 1660.90 L 728.70 1670.70 C 728.70 1671.80 727.80 1672.70 726.70 1672.70 Z" fill="#e8766f" fill-rule="nonzero" group-id="1,8,11" node-id="500" stroke="none" target-height="13.799927" target-width="105.20001" target-x="623.5" target-y="1658.9"></path><path d="M 726.70 1686.50 L 625.50 1686.50 C 624.40 1686.50 623.50 1685.60 623.50 1684.50 L 623.50 1674.70 C 623.50 1673.60 624.40 1672.70 625.50 1672.70 L 726.70 1672.70 C 727.80 1672.70 728.70 1673.60 728.70 1674.70 L 728.70 1684.50 C 728.70 1685.60 727.80 1686.50 726.70 1686.50 Z" fill="#572658" fill-rule="nonzero" group-id="1,8,11" node-id="502" stroke="none" target-height="13.800049" target-width="105.20001" target-x="623.5" target-y="1672.7"></path><path d="M 726.70 1700.20 L 625.50 1700.20 C 624.40 1700.20 623.50 1699.30 623.50 1698.20 L 623.50 1688.40 C 623.50 1687.30 624.40 1686.40 625.50 1686.40 L 726.70 1686.40 C 727.80 1686.40 728.70 1687.30 728.70 1688.40 L 728.70 1698.20 C 728.70 1699.40 727.80 1700.20 726.70 1700.20 Z" fill="#e8766f" fill-rule="nonzero" group-id="1,8,11" node-id="504" stroke="none" target-height="13.799927" target-width="105.20001" target-x="623.5" target-y="1686.4"></path><path d="M 632.00 1700.20 C 640.10 1716.40 656.80 1727.50 676.10 1727.50 C 695.40 1727.50 712.10 1716.40 720.20 1700.20 L 632.00 1700.20 Z" fill="#572658" fill-rule="nonzero" group-id="1,8,11" node-id="506" stroke="none" target-height="27.300049" target-width="88.20001" target-x="632" target-y="1700.2"></path><path d="M 584.90 1593.20 L 536.10 1630.00" fill="#ffffff" fill-rule="nonzero" group-id="1,8,12" node-id="511" stroke="#1a1a1a" stroke-linecap="round" stroke-width="2" target-height="36.80005" target-width="48.80005" target-x="536.1" target-y="1593.2"></path><path d="M 543.80 1500.80 L 483.20 1500.80" fill="#ffffff" fill-rule="nonzero" group-id="1,8,12" node-id="513" stroke="#1a1a1a" stroke-linecap="round" stroke-width="2" target-height="0" target-width="60.599976" target-x="483.2" target-y="1500.8"></path><path d="M 599.10 1398.30 L 549.90 1346.30" fill="#ffffff" fill-rule="nonzero" group-id="1,8,12" node-id="515" stroke="#1a1a1a" stroke-linecap="round" stroke-width="2" target-height="52" target-width="49.19995" target-x="549.9" target-y="1346.3"></path><path d="M 767.30 1593.20 L 816.10 1630.00" fill="#ffffff" fill-rule="nonzero" group-id="1,8,13" node-id="520" stroke="#1a1a1a" stroke-linecap="round" stroke-width="2" target-height="36.80005" target-width="48.799988" target-x="767.3" target-y="1593.2"></path><path d="M 808.30 1500.80 L 868.90 1500.80" fill="#ffffff" fill-rule="nonzero" group-id="1,8,13" node-id="522" stroke="#1a1a1a" stroke-linecap="round" stroke-width="2" target-height="0" target-width="60.600037" target-x="808.3" target-y="1500.8"></path><path d="M 753.00 1398.30 L 802.20 1346.30" fill="#ffffff" fill-rule="nonzero" group-id="1,8,13" node-id="524" stroke="#1a1a1a" stroke-linecap="round" stroke-width="2" target-height="52" target-width="49.200012" target-x="753" target-y="1346.3"></path><path d="M 675.70 1336.50 L 675.70 1266.60" fill="#ffffff" fill-rule="nonzero" group-id="1,8" node-id="527" stroke="#1a1a1a" stroke-linecap="round" stroke-width="2" target-height="69.900024" target-width="0" target-x="675.7" target-y="1266.6"></path><path d="M 3443.00 2344.80 C 3443.00 2352.70 3393.57 2359.10 3332.60 2359.10 C 3271.63 2359.10 3222.20 2352.70 3222.20 2344.80 C 3222.20 2336.90 3271.63 2330.50 3332.60 2330.50 C 3393.57 2330.50 3443.00 2336.90 3443.00 2344.80 Z" fill="#1a1a1a" fill-rule="nonzero" group-id="1" node-id="530" stroke="#1a1a1a" stroke-linecap="round" stroke-width="2" target-height="28.600098" target-width="220.80005" target-x="3222.2" target-y="2330.5"></path><path d="M 2336.10 3049.10 C 2336.10 3049.10 2416.50 3037.80 2423.40 3019.80 C 2434.40 3041.70 2434.40 3041.70 2434.40 3041.70 C 2434.40 3041.70 2385.80 3066.30 2345.60 3060.00 C 2332.00 3055.40 2336.10 3049.10 2336.10 3049.10 Z" fill="#b080b0" fill-rule="nonzero" group-id="1" node-id="532" stroke="none" target-height="46.5" target-width="102.3999" target-x="2332" target-y="3019.8"></path><path d="M 2359.70 3090.40 C 2359.70 3090.40 2440.10 3079.10 2447.00 3061.10 C 2458.00 3083.00 2458.00 3083.00 2458.00 3083.00 C 2458.00 3083.00 2409.40 3107.60 2369.20 3101.30 C 2355.50 3096.70 2359.70 3090.40 2359.70 3090.40 Z" fill="#b080b0" fill-rule="nonzero" group-id="1" node-id="534" stroke="none" target-height="46.5" target-width="102.5" target-x="2355.5" target-y="3061.1"></path><path d="M 2394.20 3129.70 C 2394.20 3129.70 2456.40 3121.00 2461.70 3107.10 C 2470.20 3124.10 2470.20 3124.10 2470.20 3124.10 C 2470.20 3124.10 2432.60 3143.10 2401.50 3138.20 C 2391.00 3134.60 2394.20 3129.70 2394.20 3129.70 Z" fill="#b080b0" fill-rule="nonzero" group-id="1" node-id="536" stroke="none" target-height="36" target-width="79.19995" target-x="2391" target-y="3107.1"></path><path d="M 2763.60 2826.40 C 2763.60 2826.40 2775.10 2859.50 2767.80 2877.80 C 2786.60 2876.80 2786.60 2876.80 2786.60 2876.80 C 2786.60 2876.80 2793.60 2827.20 2785.70 2821.40 C 2765.20 2821.80 2763.60 2826.40 2763.60 2826.40 Z" fill="#b080b0" fill-rule="nonzero" group-id="1" node-id="538" stroke="none" target-height="56.400146" target-width="30" target-x="2763.6" target-y="2821.4"></path><path d="M 2812.20 2819.30 C 2812.20 2819.30 2829.40 2851.60 2821.60 2868.80 C 2836.80 2867.20 2836.80 2867.20 2836.80 2867.20 C 2836.80 2867.20 2847.30 2813.40 2831.10 2812.30 C 2812.20 2819.30 2812.20 2819.30 2812.20 2819.30 Z" fill="#b080b0" fill-rule="nonzero" group-id="1" node-id="540" stroke="none" target-height="56.5" target-width="35.100098" target-x="2812.2" target-y="2812.3"></path><path d="M 2852.90 2808.80 C 2852.90 2808.80 2866.00 2826.60 2863.90 2852.20 C 2876.40 2851.70 2876.40 2851.70 2876.40 2851.70 C 2876.40 2851.70 2876.40 2805.20 2864.60 2804.70 C 2852.90 2805.60 2852.90 2808.80 2852.90 2808.80 Z" fill="#b080b0" fill-rule="nonzero" group-id="1" node-id="542" stroke="none" target-height="47.5" target-width="23.5" target-x="2852.9" target-y="2804.7"></path></g><path d="M 1740.70 1327.90 C 1740.70 1327.90 1814.70 1327.40 1834.00 1314.10 C 1830.20 1329.50 1837.10 1337.60 1838.50 1349.80 C 1838.50 1349.80 1792.60 1367.50 1775.80 1358.90 C 1765.00 1354.30 1741.70 1332.10 1740.70 1327.90 Z" fill="#e8766f" fill-rule="nonzero" node-id="545" stroke="none" target-height="53.400024" target-width="97.80005" target-x="1740.7" target-y="1314.1"></path></svg>