<svg xml:space="preserve" style="enable-background:new 0 0 4000 4000;" viewBox="0 0 4000 4000" y="0px" x="0px" xmlns:xlink="http://www.w3.org/1999/xlink" xmlns="http://www.w3.org/2000/svg" id="Layer_1" version="1.1">
<style type="text/css">
	
		.Graphic_x0020_Style_x0020_62{fill:none;stroke:#10663F;stroke-width:2;stroke-linecap:round;stroke-linejoin:round;stroke-miterlimit:10;}
	.Graphic_x0020_Style_x0020_212{fill:#FFFFFF;}
	.Graphic_x0020_Style_x0020_216{fill:#1A1A1A;}
	.Graphic_x0020_Style_x0020_58{fill:#102140;}
	
		.Graphic_x0020_Style_x0020_61{fill:none;stroke:#3DBE88;stroke-width:2;stroke-linecap:round;stroke-linejoin:round;stroke-miterlimit:10;}
	.Graphic_x0020_Style_x0020_93{fill:#127755;}
	.Graphic_x0020_Style_x0020_47{fill:#FFCF4A;}
	.Graphic_x0020_Style_x0020_52{fill:url(#SVGID_1_);}
	.Graphic_x0020_Style_x0020_219{fill:#DB6767;}
	.Graphic_x0020_Style_x0020_89{fill:#EB485C;}
	.Graphic_x0020_Style_x0020_88{fill:#D1334A;}
	.Graphic_x0020_Style_x0020_92{fill:#FC9590;}
	.st0{fill:url(#SVGID_2_);}
	.st1{fill:url(#SVGID_3_);}
	.st2{fill:#FC9590;}
	.st3{fill:#152A52;}
	.st4{fill:#102140;}
	.st5{fill:#092252;}
	.st6{fill:#DB6767;}
	.st7{fill:#EF5668;}
	.st8{fill:#339E7E;}
	.st9{fill:#00593B;}
	.st10{fill:url(#SVGID_4_);}
	.st11{fill:url(#SVGID_5_);}
	.st12{fill:url(#SVGID_6_);}
	.st13{fill:url(#SVGID_7_);}
</style>
<linearGradient y2="0" x2="1" y1="0" x1="0" gradientUnits="userSpaceOnUse" id="SVGID_1_">
	<stop style="stop-color:#4085F0" offset="0"></stop>
	<stop style="stop-color:#275DC9" offset="1"></stop>
</linearGradient>
<g>
	<linearGradient y2="3056.55" x2="2182.7097" y1="2225.0723" x1="2151.4507" gradientUnits="userSpaceOnUse" id="SVGID_2_">
		<stop style="stop-color:#68B2FC" offset="0"></stop>
		<stop style="stop-color:#EBF0F7" offset="1"></stop>
	</linearGradient>
	<path d="M681.1,3069.5c-116.8-183.5-136.6-404.2-40.7-552.8c139.3-215.8,526.5-285.3,826.2-46.5
		c213.9-151.2,486-177,704-64c227.9,118.1,304.1,339.8,320,389.8c173.8-255.5,465.5-343.5,663.3-244.4
		c156.3,78.3,208.7,250.8,221.1,296.7c66.9-81.5,175.1-111,261.8-75.6c108,44,167.6,182,116.4,308.4
		C2729.1,3077.3,1705.1,3073.4,681.1,3069.5z" class="st0"></path>
	<linearGradient y2="3126.0767" x2="3958.4885" y1="3126.0767" x1="234.8887" gradientUnits="userSpaceOnUse" id="SVGID_3_">
		<stop style="stop-color:#68B2FC" offset="0"></stop>
		<stop style="stop-color:#529BF7" offset="1"></stop>
	</linearGradient>
	<ellipse ry="187.2" rx="1861.8" cy="3126.1" cx="2096.7" class="st1"></ellipse>
	<path d="M2042.4,2372.6c0,69.1-14.8,134.6-41.4,193.8c-74,164.5-239.3,279-431.3,279
		c-261.1,0-472.7-211.7-472.7-472.8c0-110.2,37.7-211.6,101-292c31.6-40.2,69.6-75.2,112.5-103.4c74.4-48.9,163.5-77.4,259.2-77.4
		c93,0,179.7,26.8,252.8,73.2C1954.6,2056.9,2042.4,2204.5,2042.4,2372.6z" class="Graphic_x0020_Style_x0020_212"></path>
	<path d="M2042.4,2372.6c0,69.1-14.8,134.6-41.4,193.8l-431.3-193.8l252.8-399.5
		C1954.6,2056.9,2042.4,2204.5,2042.4,2372.6z" class="Graphic_x0020_Style_x0020_47"></path>
	<path d="M3423.4,1381.7c0,61-25.7,115.9-66.9,154.6c-11,10.3-23.1,19.5-36.1,27.3
		c-31.8,19.1-69,30.1-108.9,30.1c-117,0-211.9-94.9-211.9-211.9s94.9-211.9,211.9-211.9c32,0,62.3,7.1,89.5,19.8
		c55.5,25.9,97.9,75.1,114.6,135C3420.7,1342.8,3423.4,1361.9,3423.4,1381.7z" class="Graphic_x0020_Style_x0020_212"></path>
	<path d="M1549.4,992.6c0,65.8-30,124.6-77,163.4c-36.6,30.3-83.7,48.5-134.9,48.5
		c-117,0-211.9-94.9-211.9-211.9s94.9-211.9,211.9-211.9c67.7,0,128,31.8,166.8,81.2C1532.6,897.9,1549.4,943.3,1549.4,992.6z" class="Graphic_x0020_Style_x0020_212"></path>
	<g>
		<path d="M2774.8,1903.4c0,0,10.6-24.8,52.1-33.8c41.5-9.1,55.3-2.5,75.6,42.6
			c20.4,45.1,44.4,221.8,14.5,220.4c-15.7-0.8-45.3-11.6-70.3-55c-22.5-39.1-40.9-110.4-46.8-123.9
			C2787.6,1925.3,2774.8,1903.4,2774.8,1903.4z" class="Graphic_x0020_Style_x0020_216"></path>
		<path d="M2596.1,1954.1l195.4-59.5c41.9,0,64.7,58.1,37.3,83.6l-175,46.7L2596.1,1954.1z" class="st2"></path>
		<path d="M2791.5,2091.9c-125.1,44.4-839.5,322.9-879.9,68.6c-40.4-254.3,197.8-690.3,197.8-690.3l12-1l179.7-15.1
			l16.1,157.4c6.2,24.7,2.9,61.8-6.4,103c-21.2,93.6-73.8,208.4-118.7,246.2c6.1,16.2,292.6-6.1,462.2-54.5c0,0,34.1,16.5,68.4,50.1
			c24.8,24.2,49.6,57.3,61.9,99.5C2787.8,2067.1,2790.2,2079.1,2791.5,2091.9z" class="st3"></path>
		<path d="M2791.5,2091.9c-1.2-12.7-3.6-24.8-6.9-36.1c-95.9,30.7-583.1,184.6-725.3,184.6c-0.3,0-0.6,0-1,0
			c-31.4,3.5-62.9,3.3-93.2-2C2141,2341.1,2683.9,2130,2791.5,2091.9z" class="st4"></path>
		<path d="M2111.7,1994.2c37.8-6.9,81.3-175.1,112.5-332.9c8-40.4,71.1,83.3,86.5,53.2
			c-21.2,93.6-73.8,208.4-118.7,246.2c6.1,16.2,292.6-6.1,462.2-54.5C2654.2,1906.2,2221.5,2052.8,2111.7,1994.2z" class="Graphic_x0020_Style_x0020_58"></path>
		<path d="M2575.4,3073.5c0,0-172.6,45.6-182.3,95c-9.7,49.5,57.7,36.9,143.3,36.9
			c85.6,0,171.9,3.9,164.1-44.6c-7.8-48.5-38.8-98.9-64-97.9C2611.3,3063.8,2575.4,3073.5,2575.4,3073.5z" class="Graphic_x0020_Style_x0020_216"></path>
		<path d="M2512.1,2845.4l43.4,252.3c0,0,50.2,33.9,100.4-1c-4.8-59.2-41.5-251.4-41.5-251.4H2512.1z" class="st2"></path>
		<path d="M2660.3,2356.2c-42.4-193.7-278.5-936.5-278.5-936.5h-174.7v291.6c1.3,10.9,6.9,43.9,15.8,92
			c16.6,28.7,33,56.9,42.2,90.3c28.5,107.4,50.4,203.9,72.4,313.5c46,236.8,48.2,460.4,127.2,681.8c2.1,5.3,4.6,10.5,7.3,15.6
			c44.6,35.3,123.8,21.9,184.1,0.6c39.5-13.9,70.9-31.3,79.1-40.5C2759.2,2837.6,2660.3,2356.2,2660.3,2356.2z" class="st3"></path>
		<path d="M2337.3,2207.3c-21.9-109.6-43.8-206.1-72.4-313.5c-9.1-33.4-25.6-61.6-42.2-90.3
			c47.4,258.5,185.8,956.8,221.5,1061.4c5.9,17.4,15.4,30.4,27.4,39.9c-2.7-5.1-5.1-10.3-7.3-15.6
			C2385.6,2667.7,2383.4,2444.1,2337.3,2207.3z" class="st5"></path>
		<path d="M2735,2864.9c-8.2,9.3-39.6,26.6-79.1,40.5c-0.1-28.6-0.1-84.8,0.1-160.2
			c0.3-97.5-255.6-1057.9-322.2-1325.5h48.1c0,0,236.1,742.7,278.5,936.5C2660.3,2356.2,2759.2,2837.6,2735,2864.9z" class="Graphic_x0020_Style_x0020_58"></path>
		<path d="M2047.9,803.7c0,0-25.4,53,34.3,53.8c-1.5-58.5,4.3-70.8,37.9-70.8c33.6,0,41.7,47.1,47.1,45.7
			c5.4-1.3,18.8-22.9,25.6-13.5s-2.7,35,0,47.1c2.7,12.1,35,209.7,35,209.7s234.9,145.1,261.8,111.5
			c-22.3-52.7,187.6-154.7-115-281.5c-105.4-44.2-61.1-231.3-227.7-218.4C2057.8,694.3,2047.9,803.7,2047.9,803.7z" class="st4"></path>
		<path d="M1668.3,1899.9c0.2,2.1-3.1,8.8-7.6,10.1c-2.4,0.7-5.2-0.1-8-4c-12.9-17.9-29.2-65.5-35.1-62.2
			c-21.3,12.1-39.6,34.2-61.3,45.8c-29.2,15.7-84,14.8-88,0c-4-14.8,82.7-72.3,120.4-107.3c37.7-35,300-479,300-479
			s16.1,9.8,32.8,20.7c18.2,11.8,37.2,24.9,36.8,27.7c-7.1,48.4-290.3,450.8-291.7,460.2C1666.3,1814.2,1665,1860.2,1668.3,1899.9z" class="st2"></path>
		<path d="M1668.3,1899.9c0.2,2.1-3.1,8.8-7.6,10.1c-4.4-24.8-12.4-80.2-6.3-98.7c7.5-23.1,267.2-442.8,285.4-475.4
			c18.2,11.8,19,13,18.5,15.9c-7.1,48.4-290.3,450.8-291.7,460.2C1666.3,1814.2,1665,1860.2,1668.3,1899.9z" class="st6"></path>
		<path d="M2116.6,1019.3c0,0-131.8,48.6-252.8,293.5c16.8,65.3,95.5,72.7,95.5,72.7l95.9-113.3" class="st7"></path>
		<path d="M2328.6,1260.1c13.6-91,10-182.1-27.3-264c-7.4-2.3-15.3-3.5-23.7-3.5c-111.7,0-127.8,10.8-127.8,10.8
			s-30.8,11.9-63.4,32.2l-43.9,145.9c-22,30.1-13.9,67.8-13.9,67.8c8.6,42.3,23.7,76.7,40.5,113.3c15.7,34.3,24.2,69.7,28.7,95.4
			C2207.9,1443.5,2310.5,1378.2,2328.6,1260.1z" class="st7"></path>
		<path d="M2301.2,996.1c37.3,82,40.9,173,27.3,264c-18,118-120.7,183.4-230.9,197.8
			c4,22.7,4.9,37.9,4.9,37.9s212.6,41.7,289.3-43.1C2403.1,1220.2,2391.3,1024.4,2301.2,996.1z" class="Graphic_x0020_Style_x0020_89"></path>
		<path d="M2593.7,1976.1c0,0-14.6,163.4-51.4,146.2c-11.4-5.3-14.6-17.1-15.1-30.7
			c-1.2-30.5,11.6-70.1-20.8-66.7c-46.9,5,19.4-86.2,19.4-86.2c0.4-70.3-5.4-305.9-24.9-378.3c-22.9-84.8-72.7-234.1-72.7-234.1
			l66.6-20.4l30.3-9.3c0,0,63.2,180.3,68.6,364.6C2599.1,1845.6,2593.7,1976.1,2593.7,1976.1z" class="Graphic_x0020_Style_x0020_92"></path>
		<path d="M2593.7,1976.1c0,0-14.6,163.4-51.4,146.2c-11.4-5.3-14.6-17.1-15.1-30.7
			c9.8-5.4,24.1-15.4,38.3-32.8c25.5-31.3,3.4-327.2,8.1-437.4c3.4-79.5-48.1-233.3-78.8-315.5l30.3-9.3c0,0,63.2,180.3,68.6,364.6
			C2599.1,1845.6,2593.7,1976.1,2593.7,1976.1z" class="Graphic_x0020_Style_x0020_219"></path>
		<path d="M2339,1218.7c-13.9,20.5-6.8,48.6,20.6,84l61.6,68.6c0,0,5.9,2.6,15.1,5.1
			C2413.9,1317.7,2383.3,1261.5,2339,1218.7z" class="Graphic_x0020_Style_x0020_88"></path>
		<path d="M2283.6,992.8l55.4,225.9c44.3,42.8,74.9,99,97.3,157.7c28.4,7.9,88.2,16,105-49.5
			C2450.3,1002.1,2283.6,992.8,2283.6,992.8z" class="st7"></path>
		<path d="M2223.9,806.7c0,0,2.1,48.1,11.6,96c10.8,54.1,29.3,109,35.2,114.1c-17.5,37.7-129.2,14.1-129.2,14.1v-94.3
			c0,0-59.2,14.2-59.2-26.2c0-40.4-15.4-151.1,36.3-160.1C2203.6,735.6,2223.9,806.7,2223.9,806.7z" class="st2"></path>
	</g>
	<path d="M2104.9,749.5c14.2,7.5,66.5,59.6,64.2,94.5c6.9,0.7,13.3-0.2,13.3-0.2s-10.9-37.1,12.4-37.1
		s24.7,30.5,17.5,43.6c-7.3,13.1,0,27.6,0,30.5c0,1.1,14.6,14,21.5,12.7c11.7-2.2,18.6-20.1,21.4-22.9c4.4-4.4-17.5-106.9-24-113.5
		C2224.6,750.6,2136.9,721.1,2104.9,749.5z" class="st4"></path>
	<g>
		<g>
			<g>
				<path d="M629.8,2652.5c0,0-328.6,188.4-494.9-44.4s-94.2-449.3,87.4-548.8c181.7-99.5,431.5-22.1,509.5,98.8
					S599.6,2606.6,629.8,2652.5z" class="st8"></path>
				<path d="M252.8,2195.6c0,0,169,378,492,531.3" class="Graphic_x0020_Style_x0020_62"></path>
				<path d="M142.2,2278.4c0,0,76.1-50.5,143.3-19c17.5-75.4,95.8-147.3,95.8-147.3" class="Graphic_x0020_Style_x0020_62"></path>
				<path d="M152.2,2400.7c0,0,114.5-84.2,170-74.1c14.5-50.9,73.4-162.9,179.5-207.1" class="Graphic_x0020_Style_x0020_62"></path>
				<path d="M107.8,2513.6c0,0,169.1-125.5,258.8-116.4c2.2-46.8,105.8-199.6,266.3-234.4" class="Graphic_x0020_Style_x0020_62"></path>
				<path d="M217.6,2543.2c0,0,96.1-94.5,198.4-89.1c7.6-56.6,118-185.4,219.1-204" class="Graphic_x0020_Style_x0020_62"></path>
				<path d="M279.4,2614.4c0,0,104.6-111.7,188.5-96.9c0.7-61.1,73.8-137.8,166.3-174.5" class="Graphic_x0020_Style_x0020_62"></path>
				<path d="M323.3,2662.4c0,0,79.1-81.4,201.4-89.6c5.6-45.2,64.3-146.7,123.2-153.9" class="Graphic_x0020_Style_x0020_62"></path>
			</g>
			<g>
				<path d="M574.3,2685.8c0,0-197.5-83.9-258.5,3.4c-61,87.3-121.9,232.1,9.8,316.9c131.6,84.7,277.2,57.8,323-89.2
					C694.3,2769.7,573,2767.4,574.3,2685.8z" class="st9"></path>
				<path d="M380.6,2983.2c0,0,42.3-231.4,193.7-297.4C692,2634.5,696,2645,696,2645" class="Graphic_x0020_Style_x0020_61"></path>
				<path d="M395.4,2682.3c0,0,84.8,40.3,132.3,28.5c-38.4,51.8,48.4,92.4,80.2,97.4" class="Graphic_x0020_Style_x0020_61"></path>
				<path d="M327.9,2727c0,0,69.8,45,157,20.7c-12.2,44.2,47.6,113.5,142.9,109.9" class="Graphic_x0020_Style_x0020_61"></path>
				<path d="M301.8,2805.7c0,0,83.6,38.7,146.8-1.4c3.1,32.1,64,125.1,138.2,109.3" class="Graphic_x0020_Style_x0020_61"></path>
				<path d="M294.3,2885.1c0,0,90.5,4.9,122.9-19.2c20.9,40.3,54.5,126.3,169.1,118.9" class="Graphic_x0020_Style_x0020_61"></path>
				<path d="M337.2,2928.6c0,0,40,4.3,59.2-8.8c9.8,43,45.1,86.5,75.2,88.8" class="Graphic_x0020_Style_x0020_61"></path>
			</g>
			<g>
				<path d="M771.3,2612.1c0,0-44.7-155.9,1.3-213.6c46-57.6,315.2-169.4,416.2,24.6
					c101,194.1-93.8,393.2-217.7,333.5S818.2,2620.6,771.3,2612.1z" class="Graphic_x0020_Style_x0020_93"></path>
				<path d="M708.9,2664.9c0,0,13-32.4,135.7-96.8c122.8-64.4,278.1-95.8,350.2-63.4" class="Graphic_x0020_Style_x0020_61"></path>
				<path d="M848.7,2423.5c0,0,39.6,89.2,5.5,139.7c33,8.4,120.3,65.8,143.3,119.7" class="Graphic_x0020_Style_x0020_61"></path>
				<path d="M912.7,2372.5c0,0,39.5,73.3,9.9,160.6c31.3,9.4,159.4,103,165.8,189.9" class="Graphic_x0020_Style_x0020_61"></path>
				<path d="M975,2346.5c0,0,37.7,97.9,12.3,165.6c30.5,11.1,89.1,40.8,102.8,106.3" class="Graphic_x0020_Style_x0020_61"></path>
				<path d="M1058,2359.2c0,0,34.1,94.1-9.7,136.6c40.6,10.8,104.9,76.2,100.6,132.2" class="Graphic_x0020_Style_x0020_61"></path>
				<path d="M1144.7,2431.6c0,0,16.6,30.2-17.7,60.3c21.5,8.1,50.8,31.2,49.9,56.8" class="Graphic_x0020_Style_x0020_61"></path>
			</g>
			<g>
				<path d="M632.3,2654.8c0,0,188.1-76.8,244.8,6.6c56.7,83.5,112.4,221.5-13.4,300c-125.8,78.5-263.3,51.1-304.7-88.8
					S632.5,2732.1,632.3,2654.8z" class="st8"></path>
				<path d="M811.8,2939c0,0-34.9-224.6-179.5-284.2c-52.9-21.8-67,22.5-67,22.5" class="Graphic_x0020_Style_x0020_62"></path>
				<path d="M801.8,2653.9c0,0-80.8,37-125.7,25.3c35.6,49.5-47,86.8-77.3,91.2" class="Graphic_x0020_Style_x0020_62"></path>
				<path d="M865.2,2697.1c0,0-66.7,41.7-148.9,17.6c10.9,42-46.6,106.9-136.8,102.2" class="Graphic_x0020_Style_x0020_62"></path>
				<path d="M888.8,2772c0,0-79.6,35.5-139.1-3.3c-3.3,30.3-62.3,117.7-132.3,101.7" class="Graphic_x0020_Style_x0020_62"></path>
				<path d="M894.8,2847.3c0,0-85.7,3.5-116.1-19.8c-20.4,37.8-53.3,118.9-161.7,110.4" class="Graphic_x0020_Style_x0020_62"></path>
				<path d="M853.7,2888c0,0-37.9,3.6-55.9-9.1c-9.8,40.6-43.9,81.3-72.4,83.1" class="Graphic_x0020_Style_x0020_62"></path>
			</g>
		</g>
	</g>
	<g>
		<linearGradient y2="1984.8022" x2="3432.1543" y1="1984.8022" x1="3285.7573" gradientUnits="userSpaceOnUse" id="SVGID_4_">
			<stop style="stop-color:#68B2FC" offset="0"></stop>
			<stop style="stop-color:#529BF7" offset="1"></stop>
		</linearGradient>
		<polygon points="3432.2,1993 3359,2029.8 3285.8,2066.6 3290.5,1984.8 3295.2,1903 3363.7,1948" class="st10"></polygon>
		<linearGradient y2="1761.2626" x2="591.4848" y1="1761.2626" x1="455.5528" gradientUnits="userSpaceOnUse" id="SVGID_5_">
			<stop style="stop-color:#68B2FC" offset="0"></stop>
			<stop style="stop-color:#529BF7" offset="1"></stop>
		</linearGradient>
		<polygon points="591.5,1779.1 523.5,1806.4 455.6,1833.8 465.8,1761.3 476.1,1688.7 533.8,1733.9" class="st11"></polygon>
		<linearGradient y2="2410.8591" x2="3328.9832" y1="2410.8591" x1="3136.7505" gradientUnits="userSpaceOnUse" id="SVGID_6_">
			<stop style="stop-color:#4085F0" offset="0"></stop>
			<stop style="stop-color:#275DC9" offset="1"></stop>
		</linearGradient>
		<polygon points="3329,2513 3232.9,2475.2 3136.8,2437.3 3217.6,2373 3298.5,2308.7 3313.7,2410.9" class="st12"></polygon>
		<linearGradient y2="1899.8671" x2="1044.3329" y1="1899.8671" x1="859.3524" gradientUnits="userSpaceOnUse" id="SVGID_7_">
			<stop style="stop-color:#4085F0" offset="0"></stop>
			<stop style="stop-color:#275DC9" offset="1"></stop>
		</linearGradient>
		<polygon points="1044.3,1988.9 951.8,1971 859.4,1953.1 921.1,1881.9 982.9,1810.8 1013.6,1899.9" class="st13"></polygon>
	</g>
	<path d="M1569.7,2372.6l-371.8-292c31.6-40.2,69.6-75.2,112.5-103.4L1569.7,2372.6z" class="Graphic_x0020_Style_x0020_89"></path>
	<path d="M3415.6,1324.6l-204.1,57.1l89.5-192.1C3356.5,1215.4,3398.9,1264.7,3415.6,1324.6z" class="Graphic_x0020_Style_x0020_89"></path>
	<path d="M3356.4,1536.2c-11,10.3-23.1,19.5-36.1,27.3l-108.9-181.8L3356.4,1536.2z" class="Graphic_x0020_Style_x0020_47"></path>
	<path d="M1549.4,992.6c0,65.8-30,124.6-77,163.4l-134.9-163.4l166.8-130.7
		C1532.6,897.9,1549.4,943.3,1549.4,992.6z" class="Graphic_x0020_Style_x0020_47"></path>
	<path d="M2177.3,923.3l-38.3,13.9l2.5,31.9C2141.6,969.1,2175.8,937.1,2177.3,923.3z" class="st6"></path>
</g>
</svg>
