<?xml version="1.0" standalone="no"?><!DOCTYPE svg PUBLIC "-//W3C//DTD SVG 1.1//EN" "http://www.w3.org/Graphics/SVG/1.1/DTD/svg11.dtd"><svg height="4000" node-id="1" sillyvg="true" template-height="4000" template-width="4000" version="1.1" viewBox="0 0 4000 4000" width="4000" xmlns="http://www.w3.org/2000/svg" xmlns:xlink="http://www.w3.org/1999/xlink"><defs node-id="134"><linearGradient gradientUnits="userSpaceOnUse" id="SVGID_2_" node-id="8" spreadMethod="pad" x1="782.0663" x2="3677.5886" y1="2901.4192" y2="2901.4192"><stop offset="0" stop-color="#68b2fc"></stop><stop offset="1" stop-color="#ebf0f7"></stop></linearGradient><linearGradient gradientUnits="userSpaceOnUse" id="SVGID_3_" node-id="12" spreadMethod="pad" x1="90.8645" x2="3909.1355" y1="3160.7646" y2="3160.7646"><stop offset="0" stop-color="#68b2fc"></stop><stop offset="1" stop-color="#529bf7"></stop></linearGradient><linearGradient gradientUnits="userSpaceOnUse" id="SVGID_4_" node-id="100" spreadMethod="pad" x1="3700.4368" x2="3860.5637" y1="2465.0364" y2="2465.0364"><stop offset="0" stop-color="#68b2fc"></stop><stop offset="1" stop-color="#529bf7"></stop></linearGradient><linearGradient gradientUnits="userSpaceOnUse" id="SVGID_5_" node-id="104" spreadMethod="pad" x1="178.1031" x2="326.7837" y1="1683.4894" y2="1683.4894"><stop offset="0" stop-color="#68b2fc"></stop><stop offset="1" stop-color="#529bf7"></stop></linearGradient><linearGradient gradientUnits="userSpaceOnUse" id="SVGID_6_" node-id="108" spreadMethod="pad" x1="2864.5798" x2="3074.8413" y1="1817.1658" y2="1817.1658"><stop offset="0" stop-color="#4085f0"></stop><stop offset="1" stop-color="#275dc9"></stop></linearGradient><linearGradient gradientUnits="userSpaceOnUse" id="SVGID_7_" node-id="112" spreadMethod="pad" x1="345.9751" x2="548.3041" y1="2684.297" y2="2684.297"><stop offset="0" stop-color="#4085f0"></stop><stop offset="1" stop-color="#275dc9"></stop></linearGradient></defs><path d="M 782.10 3227.60 C 784.50 3208.70 817.60 2983.40 1020.70 2884.00 C 1158.50 2816.60 1290.00 2848.50 1326.20 2858.50 C 1380.70 2687.80 1534.00 2573.50 1698.50 2575.30 C 1896.70 2577.40 2008.50 2746.90 2016.70 2759.80 C 2059.70 2723.40 2140.20 2665.70 2255.30 2638.90 C 2458.60 2591.60 2623.40 2674.40 2668.90 2699.40 C 2728.20 2673.30 2941.80 2588.00 3197.10 2664.40 C 3523.90 2762.20 3657.80 3046.80 3677.60 3090.80 C 2712.40 3136.40 1747.20 3182.00 782.10 3227.60 Z" fill="url(#SVGID_2_)" fill-rule="nonzero" node-id="175" stroke="none" target-height="654.1001" target-width="2895.5" target-x="782.1" target-y="2573.5"></path><path d="M 3909.10 3106.50 C 3909.10 3015.00 3236.70 2940.90 2407.20 2940.90 C 1577.70 2940.90 905.40 3015.00 905.40 3106.50 C 905.40 3126.80 938.50 3146.20 999.00 3164.20 C 488.80 3169.80 90.90 3216.00 90.90 3272.20 C 90.90 3332.20 544.70 3380.80 1104.40 3380.80 C 1664.10 3380.80 2117.90 3332.20 2117.90 3272.20 C 2117.90 3271.20 2117.80 3270.10 2117.50 3269.10 C 2211.30 3271.10 2308.20 3272.20 2407.40 3272.20 C 2467.70 3272.20 2527.20 3271.80 2585.70 3271.00 C 2585.70 3271.40 2585.60 3271.80 2585.60 3272.20 C 2585.60 3332.20 2874.80 3380.80 3231.50 3380.80 C 3588.20 3380.80 3877.40 3332.20 3877.40 3272.20 C 3877.40 3241.60 3802.20 3214.00 3681.40 3194.30 C 3825.70 3168.80 3909.10 3138.70 3909.10 3106.50 Z" fill="url(#SVGID_3_)" fill-rule="nonzero" node-id="177" stroke="none" target-height="439.90015" target-width="3818.2002" target-x="90.9" target-y="2940.9"></path><g node-id="401"><path d="M 2927.70 1283.50 C 2927.70 916.70 2630.30 619.30 2263.50 619.30 C 1896.70 619.30 1599.30 916.70 1599.30 1283.50 C 1599.30 1472.30 1678.10 1642.60 1804.50 1763.50 L 1802.80 1764.40 C 1802.80 1764.40 1977.80 1888.00 1982.40 2276.00 C 2042.30 2477.50 2263.60 2443.90 2263.60 2443.90 C 2263.60 2443.90 2484.80 2477.50 2544.80 2276.00 C 2549.40 1887.90 2724.40 1764.40 2724.40 1764.40 L 2722.70 1763.50 C 2848.90 1642.60 2927.70 1472.30 2927.70 1283.50 Z" fill="#ffde70" fill-rule="nonzero" group-id="1" node-id="181" stroke="none" target-height="1858.2" target-width="1328.3999" target-x="1599.3" target-y="619.3"></path><path d="M 1645.20 1182.60 C 1645.20 1182.60 1820.90 1352.20 2008.70 1359.60 C 2196.50 1367.00 1906.10 1772.70 1829.30 1698.70 C 1752.50 1624.70 1616.50 1513.70 1645.20 1182.60 Z" fill="#ffeba9" fill-rule="nonzero" group-id="1" node-id="183" stroke="none" target-height="590.1" target-width="580" target-x="1616.5" target-y="1182.6"></path><path d="M 2263.50 619.30 C 2148.80 619.30 2040.80 648.40 1946.70 699.60 C 2161.30 738.60 2611.70 859.50 2626.90 1229.10 C 2646.60 1709.80 2339.70 1894.30 2339.70 1894.30 L 2339.70 2443.50 C 2409.60 2435.00 2507.80 2400.10 2544.70 2275.90 C 2549.30 1887.80 2724.30 1764.30 2724.30 1764.30 L 2722.50 1763.40 C 2848.90 1642.50 2927.70 1472.10 2927.70 1283.40 C 2927.70 916.70 2630.30 619.30 2263.50 619.30 Z" fill="#ffcf4a" fill-rule="nonzero" group-id="1" node-id="185" stroke="none" target-height="1824.2" target-width="981" target-x="1946.7" target-y="619.3"></path><path d="M 2023.70 2620.10 C 2073.90 2699.60 2162.60 2752.40 2263.50 2752.40 C 2318.20 2752.40 2369.20 2736.90 2412.60 2710.00 C 2334.20 2698.60 2262.50 2658.50 2186.30 2633.10 C 2134.80 2615.00 2079.20 2617.40 2023.70 2620.10 Z" fill="#666266" fill-rule="nonzero" group-id="1" node-id="187" stroke="none" target-height="137.3999" target-width="388.90015" target-x="2023.7" target-y="2615"></path><path d="M 2518.40 2593.20 L 2008.60 2593.20 C 2013.10 2602.50 2018.20 2611.40 2023.60 2620.10 C 2079.10 2617.40 2134.70 2615.00 2186.10 2633.20 C 2262.30 2658.60 2334.00 2698.70 2412.40 2710.10 C 2457.90 2681.90 2494.80 2641.40 2518.40 2593.20 Z" fill="#999399" fill-rule="nonzero" group-id="1" node-id="189" stroke="none" target-height="116.90015" target-width="509.79993" target-x="2008.6" target-y="2593.2"></path><path d="M 2384.60 2725.30 C 2384.90 2783.90 2385.40 2846.90 2385.40 2846.90 C 2385.40 2846.90 2380.90 2999.10 2491.40 3013.90 C 2601.90 3028.70 2764.10 3013.90 2764.10 3013.90" fill="none" group-id="1" node-id="191" stroke="#1a1a1a" stroke-linecap="round" stroke-width="3" target-height="303.3999" target-width="383.2002" target-x="2380.9" target-y="2725.3"></path><path d="M 2141.40 2333.40 C 2133.60 1980.80 2118.40 1586.90 2118.40 1586.90 C 2118.40 1586.90 2097.60 1469.90 1965.80 1506.20 C 1834.00 1542.60 1961.30 1756.10 2217.30 1712.20 C 2473.30 1668.30 2293.00 1398.30 2211.20 1499.20 C 2129.40 1600.10 2253.60 1765.20 2420.20 1698.60 C 2586.80 1631.90 2574.70 1492.80 2462.60 1476.80 C 2350.50 1460.80 2391.40 1680.40 2385.30 1824.30 C 2382.60 1889.40 2382.30 2104.70 2382.80 2321.00" fill="none" group-id="1" node-id="193" stroke="#1a1a1a" stroke-linecap="round" stroke-width="3" target-height="935.09985" target-width="752.80005" target-x="1834" target-y="1398.3"></path><path d="M 1205.30 3001.80 L 1944.60 3014.00 C 1944.60 3014.00 2115.00 2999.20 2138.90 2865.20 C 2142.40 2845.70 2144.40 2783.60 2145.30 2727.80" fill="none" group-id="1" node-id="195" stroke="#1a1a1a" stroke-linecap="round" stroke-width="3" target-height="286.19995" target-width="940" target-x="1205.3" target-y="2727.8"></path><path d="M 2600.60 2262.40 C 2600.60 2249.30 2595.30 2237.50 2586.80 2229.00 C 2578.30 2220.50 2566.40 2215.20 2553.40 2215.20 L 1973.80 2215.20 C 1947.70 2215.20 1926.50 2236.40 1926.50 2262.50 C 1926.50 2263.90 1926.60 2265.40 1926.70 2266.80 L 2600.40 2266.80 C 2600.50 2265.20 2600.60 2263.80 2600.60 2262.40 Z" fill="#999399" fill-rule="nonzero" group-id="1" node-id="197" stroke="none" target-height="51.600098" target-width="674.1001" target-x="1926.5" target-y="2215.2"></path><path d="M 1926.70 2266.60 C 1927.70 2277.90 1932.70 2288.10 1940.30 2295.70 C 1948.90 2304.20 1960.70 2309.50 1973.70 2309.50 L 2553.30 2309.50 C 2577.90 2309.50 2598.20 2290.60 2600.30 2266.50 L 1926.70 2266.50 Z" fill="#666266" fill-rule="nonzero" group-id="1" node-id="199" stroke="none" target-height="43" target-width="673.6001" target-x="1926.7" target-y="2266.5"></path><path d="M 2600.60 2356.90 C 2600.60 2343.80 2595.30 2332.00 2586.80 2323.50 C 2578.30 2314.90 2566.40 2309.60 2553.40 2309.60 L 1973.80 2309.60 C 1947.70 2309.60 1926.50 2330.80 1926.50 2356.90 C 1926.50 2360.90 1927.10 2364.80 1928.00 2368.50 L 2599.10 2368.50 C 2600.00 2364.70 2600.60 2360.90 2600.60 2356.90 Z" fill="#999399" fill-rule="nonzero" group-id="1" node-id="201" stroke="none" target-height="58.899902" target-width="674.1001" target-x="1926.5" target-y="2309.6"></path><path d="M 1927.90 2368.50 C 1930.00 2376.90 1934.30 2384.40 1940.20 2390.30 C 1948.80 2398.80 1960.60 2404.10 1973.60 2404.10 L 2553.20 2404.10 C 2575.30 2404.10 2593.80 2388.90 2599.00 2368.40 L 1927.90 2368.40 Z" fill="#666266" fill-rule="nonzero" group-id="1" node-id="203" stroke="none" target-height="35.700195" target-width="671.1" target-x="1927.9" target-y="2368.4"></path><path d="M 2600.60 2451.40 C 2600.60 2438.30 2595.30 2426.50 2586.80 2418.00 C 2578.30 2409.50 2566.40 2404.20 2553.40 2404.20 L 1973.80 2404.20 C 1947.70 2404.20 1926.50 2425.40 1926.50 2451.50 C 1926.50 2455.10 1926.90 2458.50 1927.70 2461.90 L 2599.50 2461.90 C 2600.10 2458.40 2600.60 2455.00 2600.60 2451.40 Z" fill="#999399" fill-rule="nonzero" group-id="1" node-id="205" stroke="none" target-height="57.69995" target-width="674.1001" target-x="1926.5" target-y="2404.2"></path><path d="M 1927.60 2461.80 C 1929.60 2470.70 1934.00 2478.60 1940.30 2484.80 C 1948.90 2493.40 1960.70 2498.70 1973.70 2498.70 L 2553.30 2498.70 C 2575.80 2498.70 2594.60 2482.90 2599.40 2461.80 L 1927.60 2461.80 Z" fill="#666266" fill-rule="nonzero" group-id="1" node-id="207" stroke="none" target-height="36.899902" target-width="671.7999" target-x="1927.6" target-y="2461.8"></path><path d="M 2600.60 2545.90 C 2600.60 2532.90 2595.30 2521.00 2586.80 2512.50 C 2578.30 2504.00 2566.40 2498.70 2553.40 2498.70 L 1973.80 2498.70 C 1947.70 2498.70 1926.50 2519.90 1926.50 2545.90 C 1926.50 2550.20 1927.10 2554.30 1928.20 2558.30 L 2598.90 2558.30 C 2600.00 2554.40 2600.60 2550.20 2600.60 2545.90 Z" fill="#999399" fill-rule="nonzero" group-id="1" node-id="209" stroke="none" target-height="59.600098" target-width="674.1001" target-x="1926.5" target-y="2498.7"></path><path d="M 1928.20 2558.30 C 1930.40 2566.40 1934.60 2573.60 1940.30 2579.30 C 1948.90 2587.80 1960.70 2593.10 1973.70 2593.10 L 2553.30 2593.10 C 2575.10 2593.10 2593.40 2578.30 2598.80 2558.20 L 1928.20 2558.20 Z" fill="#666266" fill-rule="nonzero" group-id="1" node-id="211" stroke="none" target-height="34.900146" target-width="670.6001" target-x="1928.2" target-y="2558.2"></path><path d="M 2079.00 2266.60 C 2080.00 2277.90 2085.00 2288.10 2092.60 2295.70 C 2101.20 2304.20 2113.00 2309.50 2126.00 2309.50 L 2553.30 2309.50 C 2577.90 2309.50 2598.20 2290.60 2600.30 2266.50 L 2079.00 2266.50 Z" fill="#ccc4cc" fill-rule="nonzero" group-id="1" node-id="213" stroke="none" target-height="43" target-width="521.30005" target-x="2079" target-y="2266.5"></path><path d="M 2600.60 2262.40 C 2600.60 2249.30 2595.30 2237.50 2586.80 2229.00 C 2578.30 2220.50 2566.40 2215.20 2553.40 2215.20 L 2126.00 2215.20 C 2099.90 2215.20 2078.70 2236.40 2078.70 2262.50 C 2078.70 2263.90 2078.80 2265.40 2078.90 2266.80 L 2600.30 2266.80 C 2600.50 2265.20 2600.60 2263.80 2600.60 2262.40 Z" fill="#d6d0d6" fill-rule="nonzero" group-id="1" node-id="215" stroke="none" target-height="51.600098" target-width="521.90015" target-x="2078.7" target-y="2215.2"></path><path d="M 2600.60 2356.90 C 2600.60 2343.80 2595.30 2332.00 2586.80 2323.50 C 2578.30 2314.90 2566.40 2309.60 2553.40 2309.60 L 2126.00 2309.60 C 2099.90 2309.60 2078.70 2330.80 2078.70 2356.90 C 2078.70 2360.90 2079.30 2364.80 2080.20 2368.50 L 2599.00 2368.50 C 2600.00 2364.70 2600.60 2360.90 2600.60 2356.90 Z" fill="#d6d0d6" fill-rule="nonzero" group-id="1" node-id="217" stroke="none" target-height="58.899902" target-width="521.90015" target-x="2078.7" target-y="2309.6"></path><path d="M 2080.20 2368.50 C 2082.30 2376.90 2086.60 2384.40 2092.50 2390.30 C 2101.10 2398.80 2112.90 2404.10 2125.90 2404.10 L 2553.20 2404.10 C 2575.30 2404.10 2593.80 2388.90 2599.00 2368.40 L 2080.20 2368.40 Z" fill="#ccc4cc" fill-rule="nonzero" group-id="1" node-id="219" stroke="none" target-height="35.700195" target-width="518.80005" target-x="2080.2" target-y="2368.4"></path><path d="M 2600.60 2451.40 C 2600.60 2438.30 2595.30 2426.50 2586.80 2418.00 C 2578.30 2409.50 2566.40 2404.20 2553.40 2404.20 L 2126.00 2404.20 C 2099.90 2404.20 2078.70 2425.40 2078.70 2451.50 C 2078.70 2455.10 2079.10 2458.50 2079.90 2461.90 L 2599.40 2461.90 C 2600.10 2458.40 2600.60 2455.00 2600.60 2451.40 Z" fill="#d6d0d6" fill-rule="nonzero" group-id="1" node-id="221" stroke="none" target-height="57.69995" target-width="521.90015" target-x="2078.7" target-y="2404.2"></path><path d="M 2079.90 2461.80 C 2081.90 2470.70 2086.30 2478.60 2092.60 2484.80 C 2101.20 2493.40 2113.00 2498.70 2126.00 2498.70 L 2553.30 2498.70 C 2575.80 2498.70 2594.60 2482.90 2599.40 2461.80 L 2079.90 2461.80 Z" fill="#ccc4cc" fill-rule="nonzero" group-id="1" node-id="223" stroke="none" target-height="36.899902" target-width="519.5" target-x="2079.9" target-y="2461.8"></path><path d="M 2600.60 2545.90 C 2600.60 2532.90 2595.30 2521.00 2586.80 2512.50 C 2578.30 2504.00 2566.40 2498.70 2553.40 2498.70 L 2126.00 2498.70 C 2099.90 2498.70 2078.70 2519.90 2078.70 2545.90 C 2078.70 2550.20 2079.30 2554.30 2080.40 2558.30 L 2598.80 2558.30 C 2600.00 2554.40 2600.60 2550.20 2600.60 2545.90 Z" fill="#d6d0d6" fill-rule="nonzero" group-id="1" node-id="225" stroke="none" target-height="59.600098" target-width="521.90015" target-x="2078.7" target-y="2498.7"></path><path d="M 2080.40 2558.30 C 2082.60 2566.40 2086.80 2573.60 2092.50 2579.30 C 2101.10 2587.80 2112.90 2593.10 2125.90 2593.10 L 2553.20 2593.10 C 2575.00 2593.10 2593.30 2578.30 2598.70 2558.20 L 2080.40 2558.20 Z" fill="#ccc4cc" fill-rule="nonzero" group-id="1" node-id="227" stroke="none" target-height="34.900146" target-width="518.30005" target-x="2080.4" target-y="2558.2"></path></g><path d="M 1607.00 3042.40 L 1675.90 3152.70 C 1675.90 3152.70 1666.40 3257.70 1704.50 3264.90 C 1742.70 3272.10 1907.30 3267.30 1912.10 3264.90 C 1914.40 3263.70 1944.60 3238.00 1924.00 3218.50 C 1902.00 3197.70 1828.10 3182.40 1794.60 3162.30 C 1725.70 3120.90 1692.50 3042.40 1692.50 3042.40 L 1607.00 3042.40 Z" fill="#1a1a1a" fill-rule="nonzero" node-id="230" stroke="none" target-height="229.7002" target-width="337.59998" target-x="1607" target-y="3042.4"></path><path d="M 514.10 2961.60 L 428.90 3055.00 C 428.90 3055.00 339.00 3100.30 347.30 3138.30 C 355.60 3176.20 424.30 3326.00 428.30 3329.50 C 430.30 3331.20 465.70 3349.00 475.70 3322.40 C 486.30 3294.00 471.50 3220.00 477.00 3181.30 C 488.20 3101.70 547.50 3070.20 547.50 3070.20 L 514.10 2961.60 Z" fill="#1a1a1a" fill-rule="nonzero" node-id="232" stroke="none" target-height="387.3999" target-width="208.5" target-x="339" target-y="2961.6"></path><path d="M 1730.10 3075.30 C 1696.70 3123.00 1591.90 3167.30 1548.90 3084.40 C 1547.00 3080.70 1543.50 3075.00 1538.80 3067.50 C 1479.20 2973.50 1209.90 2596.30 1043.00 2292.10 C 926.40 2079.70 888.50 1847.30 909.20 1824.80 C 946.70 1783.90 1103.60 1801.40 1190.20 1814.80 C 1224.80 1820.10 1248.10 1824.80 1248.10 1824.80 C 1248.10 1824.80 1763.50 3027.50 1730.10 3075.30 Z" fill="#152a52" fill-rule="nonzero" node-id="234" stroke="none" target-height="1383.4" target-width="875" target-x="888.5" target-y="1783.9"></path><path d="M 1730.10 3075.30 C 1696.70 3123.00 1591.90 3167.30 1548.90 3084.40 C 1547.00 3080.70 1543.50 3075.00 1538.80 3067.50 C 1567.90 3052.90 1617.60 3032.10 1641.30 3009.00 C 1675.50 2975.50 1607.00 2806.00 1570.80 2646.20 C 1537.80 2500.60 1242.40 1917.40 1190.20 1814.80 C 1224.80 1820.10 1248.10 1824.80 1248.10 1824.80 C 1248.10 1824.80 1763.50 3027.50 1730.10 3075.30 Z" fill="#102140" fill-rule="nonzero" node-id="236" stroke="none" target-height="1352.5" target-width="573.30005" target-x="1190.2" target-y="1814.8"></path><path d="M 1145.30 2123.40 C 1140.90 2168.60 1137.00 2215.50 1133.20 2261.70 C 1124.60 2365.40 1116.40 2465.90 1103.20 2537.10 C 1063.50 2751.90 703.90 3046.60 522.50 3099.10 C 485.20 3084.90 465.80 3065.40 456.00 3046.60 C 439.60 3014.70 450.90 2984.60 450.90 2984.60 C 450.90 2984.60 779.60 2727.40 798.60 2502.50 C 806.40 2410.60 753.10 2202.00 748.60 2082.50 C 741.90 1904.30 780.30 1824.80 780.30 1824.80 L 1088.50 1824.80 L 1145.30 2123.40 Z" fill="#152a52" fill-rule="nonzero" node-id="238" stroke="none" target-height="1274.3" target-width="705.7001" target-x="439.6" target-y="1824.8"></path><path d="M 1133.20 2261.70 C 1124.60 2365.40 1116.40 2465.90 1103.20 2537.10 C 1063.50 2751.90 703.90 3046.60 522.50 3099.10 C 485.20 3084.90 465.80 3065.40 456.00 3046.60 C 461.40 3045.20 467.20 3043.80 473.30 3042.40 C 623.70 3006.80 988.80 2619.80 1052.40 2500.20 C 1085.80 2437.30 1114.00 2340.00 1133.20 2261.70 Z" fill="#102140" fill-rule="nonzero" node-id="240" stroke="none" target-height="837.40015" target-width="677.19995" target-x="456" target-y="2261.7"></path><path d="M 1013.90 1067.40 C 1013.90 1067.40 870.70 1172.30 802.30 1292.30 C 725.20 1427.60 735.40 1511.40 813.90 1517.20" fill="#eb485c" fill-rule="nonzero" node-id="242" stroke="none" target-height="449.79993" target-width="288.7" target-x="725.2" target-y="1067.4"></path><path d="M 923.90 1226.20 C 923.70 1207.20 774.40 1433.70 787.30 1487.10 C 792.30 1507.70 873.20 1477.60 875.30 1470.10 C 877.40 1462.70 902.40 1290.90 903.70 1282.40 C 905.10 1273.90 923.90 1226.20 923.90 1226.20 Z" fill="#d1334a" fill-rule="nonzero" node-id="244" stroke="none" target-height="300.5" target-width="149.5" target-x="774.4" target-y="1207.2"></path><path d="M 1514.50 896.90 C 1519.00 879.00 1514.50 856.70 1530.10 847.80 C 1540.00 839.90 1552.90 832.90 1563.20 824.40 C 1562.00 823.80 1560.70 823.40 1559.20 823.00 C 1530.50 816.10 1505.40 840.50 1488.90 878.30 C 1472.40 916.10 1394.30 987.60 1394.30 987.60 C 1395.20 995.10 1400.20 1002.30 1405.80 1008.00 C 1452.80 980.20 1505.10 955.20 1514.50 896.90 Z" fill="#db6767" fill-rule="nonzero" node-id="246" stroke="none" target-height="191.90002" target-width="168.8999" target-x="1394.3" target-y="816.1"></path><path d="M 1563.20 824.40 C 1552.80 832.90 1539.90 839.90 1530.10 847.80 C 1514.50 856.70 1518.90 879.00 1514.50 896.90 C 1505.10 955.20 1452.80 980.30 1405.90 1008.10 C 1413.70 1016.10 1422.50 1021.40 1422.50 1021.40 C 1422.50 1021.40 1454.50 1004.20 1475.80 987.70 C 1481.60 983.20 1496.70 977.00 1512.70 976.30 C 1522.20 975.90 1546.90 985.80 1555.40 987.70 C 1564.00 989.60 1567.90 977.50 1558.90 969.50 C 1550.30 961.10 1537.00 962.30 1536.00 918.60 C 1535.60 902.10 1590.70 837.40 1563.20 824.40 Z" fill="#fc9590" fill-rule="nonzero" node-id="248" stroke="none" target-height="197" target-width="184.79993" target-x="1405.9" target-y="824.4"></path><path d="M 1469.20 1015.40 C 1459.00 1041.60 1229.30 1293.80 1191.40 1292.30 C 1180.40 1291.90 1167.30 1282.40 1154.30 1269.20 C 1122.50 1237.00 1090.90 1182.60 1090.90 1182.60 C 1090.90 1182.60 1400.80 938.20 1432.80 949.80 C 1449.60 955.90 1461.70 966.50 1467.70 978.90 C 1473.30 990.20 1474.00 1002.90 1469.20 1015.40 Z" fill="#eb485c" fill-rule="nonzero" node-id="250" stroke="none" target-height="355.60004" target-width="383.09998" target-x="1090.9" target-y="938.2"></path><path d="M 1469.20 1015.40 C 1459.00 1041.60 1229.30 1293.80 1191.40 1292.30 C 1180.40 1291.90 1167.30 1282.40 1154.30 1269.20 C 1205.40 1226.70 1357.90 1098.60 1432.80 1022.50 C 1448.90 1006.10 1460.20 991.60 1467.80 979.00 C 1473.30 990.20 1474.00 1002.90 1469.20 1015.40 Z" fill="#d1334a" fill-rule="nonzero" node-id="252" stroke="none" target-height="314.80005" target-width="319.69995" target-x="1154.3" target-y="979"></path><path d="M 1009.00 1095.70 C 1009.00 1095.70 1028.10 1021.40 1024.50 949.50 C 1019.70 853.70 1061.10 764.50 1121.30 750.10 C 1221.50 726.20 1271.80 795.40 1264.60 886.10 C 1257.40 976.80 1247.00 1080.20 1208.80 1062.70 C 1170.60 1045.20 1142.00 1042.00 1142.00 1042.00 L 1114.00 1130.70 C 1114.00 1130.70 1019.40 1128.10 1009.00 1095.70 Z" fill="#fc9590" fill-rule="nonzero" node-id="254" stroke="none" target-height="404.49994" target-width="262.80005" target-x="1009" target-y="726.2"></path><path d="M 1288.00 1882.70 C 1288.50 1887.00 1006.00 1987.10 716.50 1923.10 C 697.50 1738.70 768.20 1530.10 845.30 1365.10 L 1013.90 1067.40 C 1022.80 1069.60 1031.90 1071.40 1041.20 1073.00 C 1104.40 1084.00 1175.80 1090.30 1227.10 1207.10 C 1265.60 1294.80 1279.80 1521.40 1285.10 1688.10 C 1288.50 1798.50 1288.00 1882.70 1288.00 1882.70 Z" fill="#ef5668" fill-rule="nonzero" node-id="256" stroke="none" target-height="919.69995" target-width="591" target-x="697.5" target-y="1067.4"></path><path d="M 1288.00 1882.70 C 1288.50 1887.00 1006.00 1987.10 716.50 1923.10 C 697.50 1738.70 768.20 1530.10 845.30 1365.10 L 1013.90 1067.40 C 1022.80 1069.60 1031.90 1071.40 1041.20 1073.00 C 1041.20 1073.00 831.40 1409.10 936.40 1566.70 C 1008.90 1675.40 1183.70 1689.70 1285.00 1688.20 C 1288.50 1798.50 1288.00 1882.70 1288.00 1882.70 Z" fill="#eb485c" fill-rule="nonzero" node-id="258" stroke="none" target-height="919.69995" target-width="591" target-x="697.5" target-y="1067.4"></path><path d="M 1822.50 1776.20 C 1782.50 1762.30 1738.50 1759.20 1697.80 1769.10 C 1706.50 1781.60 1717.10 1792.30 1718.30 1792.30 C 1720.70 1792.30 1779.90 1776.20 1809.30 1795.10 C 1859.80 1827.50 1917.10 1823.10 1922.00 1790.10 C 1922.50 1786.70 1921.90 1783.50 1920.50 1780.30 C 1914.40 1784.40 1907.50 1787.60 1900.60 1789.70 C 1873.80 1796.30 1847.00 1785.10 1822.50 1776.20 Z" fill="#db6767" fill-rule="nonzero" node-id="260" stroke="none" target-height="68.30005" target-width="224.69995" target-x="1697.8" target-y="1759.2"></path><path d="M 1831.70 1734.40 C 1831.70 1734.40 1865.90 1718.10 1857.90 1702.90 C 1843.80 1676.20 1690.60 1734.40 1690.60 1734.40 C 1681.60 1740.70 1688.60 1755.80 1697.80 1769.00 C 1738.50 1759.20 1782.50 1762.20 1822.50 1776.10 C 1847.00 1785.00 1873.80 1796.20 1900.60 1789.50 C 1907.50 1787.40 1914.40 1784.30 1920.50 1780.10 C 1908.30 1752.60 1831.70 1734.40 1831.70 1734.40 Z" fill="#fc9590" fill-rule="nonzero" node-id="262" stroke="none" target-height="120" target-width="238.90002" target-x="1681.6" target-y="1676.2"></path><path d="M 1758.90 1796.20 C 1744.30 1822.40 1424.90 1862.00 1343.50 1818.40 C 1265.20 1776.50 1068.90 1358.70 1053.50 1325.80 C 1052.90 1324.40 1052.50 1323.70 1052.50 1323.70 L 1215.20 1182.60 C 1286.90 1262.10 1369.60 1588.50 1404.60 1661.20 C 1439.50 1733.90 1675.20 1713.60 1710.10 1713.60 C 1736.70 1713.60 1759.50 1746.20 1762.50 1773.40 C 1763.30 1781.90 1762.30 1789.90 1758.90 1796.20 Z" fill="#ef5668" fill-rule="nonzero" node-id="264" stroke="none" target-height="679.4" target-width="710.80005" target-x="1052.5" target-y="1182.6"></path><path d="M 1018.70 954.00 C 1018.70 954.00 1084.70 984.20 1111.20 964.60 C 1137.70 945.00 1099.00 894.60 1125.50 885.10 C 1152.00 875.60 1146.20 903.70 1160.50 908.40 C 1174.80 913.20 1165.80 855.90 1183.80 851.10 C 1201.80 846.30 1265.50 878.10 1286.20 872.30 C 1306.90 866.50 1313.20 836.20 1313.20 836.20 C 1313.20 836.20 1270.20 809.70 1257.50 769.90 C 1244.80 730.10 1131.30 689.80 1099.50 746.60 C 1050.80 744.50 997.30 874.50 1018.70 954.00 Z" fill="#102140" fill-rule="nonzero" node-id="266" stroke="none" target-height="294.40002" target-width="315.89996" target-x="997.3" target-y="689.8"></path><path d="M 2962.90 3117.50 C 2921.30 3113.00 2875.70 3107.90 2833.90 3094.90 C 2853.60 3127.10 2882.60 3155.60 2918.30 3178.70 C 3051.00 3218.10 3200.00 3219.90 3367.30 3178.70 C 3394.20 3161.30 3417.20 3140.90 3435.40 3118.10 C 3278.80 3131.30 3121.30 3130.30 2962.90 3117.50 Z" fill="#572658" fill-rule="nonzero" group-id="2" node-id="270" stroke="none" target-height="125" target-width="601.5" target-x="2833.9" target-y="3094.9"></path><path d="M 3402.40 2837.50 C 3396.40 2832.20 3390.00 2827.20 3383.40 2822.30 C 3221.80 2806.70 3061.50 2808.20 2902.10 2822.30 C 2894.60 2827.80 2887.50 2833.60 2880.70 2839.60 C 2904.30 2849.90 2938.70 2849.00 2960.60 2851.90 C 3108.60 2865.50 3256.50 2857.10 3402.40 2837.50 Z" fill="#572658" fill-rule="nonzero" group-id="2" node-id="272" stroke="none" target-height="58.80005" target-width="521.69995" target-x="2880.7" target-y="2806.7"></path><path d="M 3402.40 2837.50 C 3256.50 2857.10 3108.60 2865.50 2960.70 2851.90 C 2938.80 2849.00 2904.40 2849.90 2880.80 2839.60 C 2833.30 2881.90 2804.70 2936.00 2804.70 2994.90 C 2804.70 3030.50 2815.10 3064.30 2833.90 3094.90 C 2875.70 3108.00 2921.30 3113.00 2962.90 3117.50 C 3121.30 3130.30 3278.80 3131.30 3435.40 3118.10 C 3464.30 3081.90 3480.90 3039.80 3480.90 2994.90 C 3480.80 2935.00 3451.30 2880.10 3402.40 2837.50 Z" fill="#b080b0" fill-rule="nonzero" group-id="2" node-id="274" stroke="none" target-height="293.80005" target-width="676.19995" target-x="2804.7" target-y="2837.5"></path><path d="M 3028.90 2680.40 C 3028.90 2680.40 3344.50 2861.30 3504.20 2637.70 C 3663.90 2414.10 3594.70 2206.20 3420.20 2110.60 C 3245.70 2015.00 3005.80 2089.40 2930.90 2205.50 C 2856.00 2321.60 3057.90 2636.40 3028.90 2680.40 Z" fill="#339e7e" fill-rule="nonzero" group-id="2,6,9" node-id="280" stroke="none" target-height="846.30005" target-width="807.8999" target-x="2856" target-y="2015"></path><path d="M 3391.10 2241.70 C 3391.10 2241.70 3228.80 2604.80 2918.50 2752.00" fill="none" group-id="2,6,9" node-id="282" stroke="#10663f" stroke-linecap="round" stroke-width="2" target-height="510.30005" target-width="472.6001" target-x="2918.5" target-y="2241.7"></path><path d="M 3497.30 2321.20 C 3497.30 2321.20 3424.20 2272.70 3359.70 2302.90 C 3342.90 2230.50 3267.70 2161.40 3267.70 2161.40" fill="none" group-id="2,6,9" node-id="284" stroke="#10663f" stroke-linecap="round" stroke-width="2" target-height="159.80005" target-width="229.6001" target-x="3267.7" target-y="2161.4"></path><path d="M 3487.60 2438.60 C 3487.60 2438.60 3377.60 2357.70 3324.30 2367.40 C 3310.40 2318.50 3253.80 2211.00 3151.90 2168.50" fill="none" group-id="2,6,9" node-id="286" stroke="#10663f" stroke-linecap="round" stroke-width="2" target-height="270.1001" target-width="335.7002" target-x="3151.9" target-y="2168.5"></path><path d="M 3530.30 2547.00 C 3530.30 2547.00 3367.90 2426.50 3281.70 2435.20 C 3279.60 2390.30 3180.10 2243.50 3025.90 2210.10" fill="none" group-id="2,6,9" node-id="288" stroke="#10663f" stroke-linecap="round" stroke-width="2" target-height="336.8999" target-width="504.40015" target-x="3025.9" target-y="2210.1"></path><path d="M 3424.80 2575.50 C 3424.80 2575.50 3332.50 2484.70 3234.20 2489.90 C 3226.90 2435.50 3120.80 2311.90 3023.70 2293.90" fill="none" group-id="2,6,9" node-id="290" stroke="#10663f" stroke-linecap="round" stroke-width="2" target-height="281.6001" target-width="401.1001" target-x="3023.7" target-y="2293.9"></path><path d="M 3365.50 2643.90 C 3365.50 2643.90 3265.10 2536.70 3184.40 2550.80 C 3183.70 2492.10 3113.50 2418.40 3024.70 2383.20" fill="none" group-id="2,6,9" node-id="292" stroke="#10663f" stroke-linecap="round" stroke-width="2" target-height="260.69995" target-width="340.80005" target-x="3024.7" target-y="2383.2"></path><path d="M 3323.30 2690.00 C 3323.30 2690.00 3247.30 2611.80 3129.90 2603.90 C 3124.50 2560.50 3068.10 2463.00 3011.60 2456.10" fill="none" group-id="2,6,9" node-id="294" stroke="#10663f" stroke-linecap="round" stroke-width="2" target-height="233.8999" target-width="311.69995" target-x="3011.6" target-y="2456.1"></path><path d="M 2911.20 2595.60 C 2911.20 2595.60 2907.20 2382.60 2803.30 2362.60 C 2699.40 2342.70 2543.50 2346.30 2520.10 2499.90 C 2496.70 2653.50 2580.10 2774.60 2732.00 2756.50 C 2883.80 2738.40 2836.70 2627.50 2911.20 2595.60 Z" fill="#00593b" fill-rule="nonzero" group-id="2,6,10" node-id="299" stroke="none" target-height="431.90015" target-width="414.5" target-x="2496.7" target-y="2342.7"></path><path d="M 2563.10 2540.60 C 2563.10 2540.60 2790.00 2485.10 2911.20 2595.60 C 3005.40 2681.50 2997.60 2689.30 2997.60 2689.30" fill="none" group-id="2,6,10" node-id="301" stroke="#3dbe88" stroke-linecap="round" stroke-width="2" target-height="204.19995" target-width="442.2998" target-x="2563.1" target-y="2485.1"></path><path d="M 2841.80 2432.00 C 2841.80 2432.00 2839.70 2525.20 2869.60 2563.50 C 2807.10 2549.70 2805.50 2644.80 2813.90 2675.70" fill="none" group-id="2,6,10" node-id="303" stroke="#3dbe88" stroke-linecap="round" stroke-width="2" target-height="243.69995" target-width="64.1001" target-x="2805.5" target-y="2432"></path><path d="M 2773.90 2388.90 C 2773.90 2388.90 2761.50 2470.40 2818.80 2539.60 C 2773.80 2546.50 2735.20 2628.80 2777.10 2713.80" fill="none" group-id="2,6,10" node-id="305" stroke="#3dbe88" stroke-linecap="round" stroke-width="2" target-height="324.90015" target-width="83.6001" target-x="2735.2" target-y="2388.9"></path><path d="M 2692.00 2397.20 C 2692.00 2397.20 2690.80 2488.60 2752.80 2529.70 C 2725.00 2545.50 2665.30 2638.50 2709.80 2699.30" fill="none" group-id="2,6,10" node-id="307" stroke="#3dbe88" stroke-linecap="round" stroke-width="2" target-height="302.1001" target-width="87.5" target-x="2665.3" target-y="2397.2"></path><path d="M 2617.00 2422.60 C 2617.00 2422.60 2649.20 2506.60 2684.20 2526.20 C 2656.20 2561.50 2591.80 2626.80 2645.00 2727.70" fill="none" group-id="2,6,10" node-id="309" stroke="#3dbe88" stroke-linecap="round" stroke-width="2" target-height="305.09985" target-width="92.3999" target-x="2591.8" target-y="2422.6"></path><path d="M 2594.90 2479.10 C 2594.90 2479.10 2607.20 2517.10 2626.90 2529.20 C 2591.90 2555.50 2566.80 2605.10 2576.90 2633.40" fill="none" group-id="2,6,10" node-id="311" stroke="#3dbe88" stroke-linecap="round" stroke-width="2" target-height="154.2998" target-width="60.099854" target-x="2566.8" target-y="2479.1"></path><path d="M 3177.30 2805.10 C 3177.30 2805.10 3095.00 2962.20 3131.40 3034.10 C 3167.90 3106.00 3431.60 3285.30 3582.70 3099.80 C 3733.80 2914.30 3569.10 2657.90 3423.20 2694.40 C 3277.30 2730.90 3229.40 2806.40 3177.30 2805.10 Z" fill="#127755" fill-rule="nonzero" group-id="2,6,11" node-id="316" stroke="none" target-height="627.40015" target-width="638.80005" target-x="3095" target-y="2657.9"></path><path d="M 3117.40 2752.00 C 3117.40 2752.00 3128.90 2772.20 3246.10 2868.40 C 3363.40 2964.50 3522.80 3032.50 3607.20 3013.80" fill="none" group-id="2,6,11" node-id="318" stroke="#3dbe88" stroke-linecap="round" stroke-width="2" target-height="280.5" target-width="489.80005" target-x="3117.4" target-y="2752"></path><path d="M 3218.50 3024.20 C 3218.50 3024.20 3280.70 2937.40 3255.30 2875.80 C 3292.50 2874.10 3398.80 2831.90 3435.30 2779.30" fill="none" group-id="2,6,11" node-id="320" stroke="#3dbe88" stroke-linecap="round" stroke-width="2" target-height="244.8999" target-width="216.80005" target-x="3218.5" target-y="2779.3"></path><path d="M 3275.80 3093.00 C 3275.80 3093.00 3334.30 3023.20 3322.00 2923.10 C 3357.60 2920.00 3515.50 2848.00 3541.60 2756.30" fill="none" group-id="2,6,11" node-id="322" stroke="#3dbe88" stroke-linecap="round" stroke-width="2" target-height="336.69995" target-width="265.80005" target-x="3275.8" target-y="2756.3"></path><path d="M 3336.80 3134.70 C 3336.80 3134.70 3398.90 3038.10 3386.60 2960.10 C 3421.80 2955.00 3491.10 2936.10 3520.20 2869.00" fill="none" group-id="2,6,11" node-id="324" stroke="#3dbe88" stroke-linecap="round" stroke-width="2" target-height="265.69995" target-width="183.3999" target-x="3336.8" target-y="2869"></path><path d="M 3428.50 3139.30 C 3428.50 3139.30 3485.80 3046.00 3448.30 2990.80 C 3494.20 2988.20 3577.50 2932.40 3585.40 2871.50" fill="none" group-id="2,6,11" node-id="326" stroke="#3dbe88" stroke-linecap="round" stroke-width="2" target-height="267.80005" target-width="156.8999" target-x="3428.5" target-y="2871.5"></path><path d="M 3537.40 3081.00 C 3537.40 3081.00 3561.90 3052.30 3531.80 3012.50 C 3556.70 3008.50 3593.20 2990.30 3597.80 2962.70" fill="none" group-id="2,6,11" node-id="328" stroke="#3dbe88" stroke-linecap="round" stroke-width="2" target-height="118.30005" target-width="66" target-x="3531.8" target-y="2962.7"></path><path d="M 3044.10 2727.40 C 3044.10 2727.40 2838.30 2643.40 2776.30 2734.60 C 2714.30 2825.90 2653.40 2976.80 2791.00 3062.70 C 2928.60 3148.60 3079.00 3118.60 3124.30 2965.60 C 3169.60 2812.60 3043.90 2812.00 3044.10 2727.40 Z" fill="#339e7e" fill-rule="nonzero" group-id="2,6,12" node-id="333" stroke="none" target-height="505.2002" target-width="516.2002" target-x="2653.4" target-y="2643.4"></path><path d="M 2847.70 3038.30 C 2847.70 3038.30 2885.90 2792.70 3044.10 2727.50 C 3102.00 2703.70 3117.40 2752.10 3117.40 2752.10 C 3117.40 2752.10 3151.40 2765.00 3142.80 2811.20" fill="none" group-id="2,6,12" node-id="335" stroke="#10663f" stroke-linecap="round" stroke-width="2" target-height="334.6001" target-width="303.69995" target-x="2847.7" target-y="2703.7"></path><path d="M 2858.70 2726.40 C 2858.70 2726.40 2947.10 2766.90 2996.20 2754.10 C 2957.20 2808.30 3047.60 2849.10 3080.70 2853.80" fill="none" group-id="2,6,12" node-id="337" stroke="#10663f" stroke-linecap="round" stroke-width="2" target-height="127.40015" target-width="222" target-x="2858.7" target-y="2726.4"></path><path d="M 2789.40 2773.60 C 2789.40 2773.60 2862.40 2819.20 2952.30 2792.80 C 2940.30 2838.80 3003.30 2909.70 3102.00 2904.60" fill="none" group-id="2,6,12" node-id="339" stroke="#10663f" stroke-linecap="round" stroke-width="2" target-height="136.09985" target-width="312.6001" target-x="2789.4" target-y="2773.6"></path><path d="M 2763.60 2855.50 C 2763.60 2855.50 2850.70 2894.40 2915.70 2851.90 C 2919.30 2885.10 2983.80 2980.60 3060.40 2963.10" fill="none" group-id="2,6,12" node-id="341" stroke="#10663f" stroke-linecap="round" stroke-width="2" target-height="128.7002" target-width="296.7998" target-x="2763.6" target-y="2851.9"></path><path d="M 2756.90 2937.90 C 2756.90 2937.90 2850.70 2941.70 2883.90 2916.20 C 2906.20 2957.60 2942.20 3046.30 3060.80 3037.00" fill="none" group-id="2,6,12" node-id="343" stroke="#10663f" stroke-linecap="round" stroke-width="2" target-height="130.1001" target-width="303.90015" target-x="2756.9" target-y="2916.2"></path><path d="M 2802.00 2982.40 C 2802.00 2982.40 2843.50 2986.30 2863.20 2972.40 C 2874.00 3016.80 2911.20 3061.30 2942.40 3063.30" fill="none" group-id="2,6,12" node-id="345" stroke="#10663f" stroke-linecap="round" stroke-width="2" target-height="90.90015" target-width="140.3999" target-x="2802" target-y="2972.4"></path><path d="M 3084.80 2726.40 C 3084.80 2726.40 3119.80 2763.30 3108.70 2811.20 C 3120.60 2811.30 3134.20 2811.20 3134.20 2811.20 C 3134.20 2811.20 3129.70 2766.40 3084.80 2726.40 Z" fill="#1a1a1a" fill-rule="nonzero" group-id="2" node-id="349" stroke="#1a1a1a" stroke-linecap="round" stroke-width="2" target-height="84.90015" target-width="49.399902" target-x="3084.8" target-y="2726.4"></path><path d="M 3860.60 2474.00 L 3780.50 2514.30 L 3700.40 2554.50 L 3705.60 2465.00 L 3710.80 2375.60 L 3785.70 2424.80 Z" fill="url(#SVGID_4_)" fill-rule="nonzero" group-id="3" node-id="354" stroke="none" target-height="178.8999" target-width="160.2002" target-x="3700.4" target-y="2375.6"></path><path d="M 326.80 1703.00 L 252.40 1732.90 L 178.10 1762.80 L 189.30 1683.50 L 200.60 1604.10 L 263.70 1653.60 Z" fill="url(#SVGID_5_)" fill-rule="nonzero" group-id="3" node-id="356" stroke="none" target-height="158.70007" target-width="148.69998" target-x="178.1" target-y="1604.1"></path><path d="M 3074.80 1928.90 L 2969.70 1887.50 L 2864.60 1846.10 L 2953.00 1775.70 L 3041.50 1705.40 L 3058.20 1817.20 Z" fill="url(#SVGID_6_)" fill-rule="nonzero" group-id="3" node-id="358" stroke="none" target-height="223.5" target-width="210.19995" target-x="2864.6" target-y="1705.4"></path><path d="M 548.30 2781.70 L 447.10 2762.10 L 346.00 2742.50 L 413.50 2664.70 L 481.10 2586.90 L 514.70 2684.30 Z" fill="url(#SVGID_7_)" fill-rule="nonzero" group-id="3" node-id="360" stroke="none" target-height="194.80005" target-width="202.29999" target-x="346" target-y="2586.9"></path><path d="M 1804.30 2071.40 L 1782.40 2210.90 L 1545.00 2173.50 L 1566.90 2034.00 L 1674.70 2122.50 Z" fill="#ffffff" fill-rule="nonzero" group-id="4" node-id="365" stroke="none" target-height="176.8999" target-width="259.30005" target-x="1545" target-y="2034"></path><path d="M 1804.30 2071.40 L 1674.70 2122.50 L 1566.90 2034.00 Z" fill="#4d73c6" fill-rule="nonzero" group-id="4" node-id="367" stroke="none" target-height="88.5" target-width="237.40002" target-x="1566.9" target-y="2034"></path><path d="M 3337.80 832.60 C 3337.80 933.70 3255.80 1015.60 3154.80 1015.60 C 3107.60 1015.60 3064.50 997.70 3032.10 968.30 C 3046.30 952.80 3062.50 935.00 3078.30 917.50 C 3098.60 935.80 3125.40 946.90 3154.90 946.90 C 3218.10 946.90 3269.30 895.70 3269.30 832.50 C 3269.30 787.40 3243.30 748.50 3205.40 729.90 C 3215.30 709.50 3225.70 688.20 3235.40 668.20 C 3296.00 698.00 3337.80 760.40 3337.80 832.60 Z" fill="#ffde70" fill-rule="nonzero" group-id="5,7" node-id="374" stroke="none" target-height="347.39996" target-width="305.69995" target-x="3032.1" target-y="668.2"></path><path d="M 3077.60 917.00 L 3031.30 967.70 C 2994.70 934.30 2971.80 886.20 2971.80 832.60 C 2971.80 804.60 2978.10 778.00 2989.40 754.30 L 3051.40 783.70 C 3044.40 798.50 3040.40 815.10 3040.40 832.60 C 3040.40 866.00 3054.70 896.10 3077.60 917.00 Z" fill="#4d73c6" fill-rule="nonzero" group-id="5,7" node-id="376" stroke="none" target-height="213.40002" target-width="105.80005" target-x="2971.8" target-y="754.3"></path><path d="M 3235.30 668.20 C 3225.60 688.30 3215.20 709.60 3205.30 729.90 C 3190.10 722.40 3172.90 718.20 3154.80 718.20 C 3109.10 718.20 3069.70 744.90 3051.40 783.60 L 2989.40 754.20 C 3018.70 692.30 3081.80 649.50 3154.80 649.50 C 3183.70 649.60 3211.00 656.30 3235.30 668.20 Z" fill="#ef5668" fill-rule="nonzero" group-id="5,7" node-id="378" stroke="none" target-height="134.09998" target-width="245.90015" target-x="2989.4" target-y="649.5"></path><path d="M 3499.80 1696.50 C 3451.80 1701.40 3406.20 1687.70 3370.10 1661.30 C 3347.30 1692.30 3323.90 1724.00 3303.40 1751.70 C 3361.20 1794.10 3434.20 1816.10 3511.20 1808.30 C 3553.10 1804.00 3592.00 1791.30 3626.60 1772.00 L 3570.60 1674.60 C 3549.30 1686.20 3525.40 1693.90 3499.80 1696.50 Z" fill="#ef5668" fill-rule="nonzero" group-id="5,8" node-id="383" stroke="none" target-height="154.79993" target-width="323.2002" target-x="3303.4" target-y="1661.3"></path><path d="M 3778.90 1479.80 C 3766.90 1362.30 3688.50 1267.50 3584.70 1229.10 C 3572.20 1263.40 3558.80 1299.80 3546.00 1334.60 C 3610.80 1358.60 3659.60 1417.80 3667.10 1491.20 C 3675.00 1568.50 3634.70 1639.50 3570.60 1674.60 L 3626.60 1772.00 C 3727.90 1715.50 3791.40 1602.60 3778.90 1479.80 Z" fill="#ffcf4a" fill-rule="nonzero" group-id="5,8" node-id="385" stroke="none" target-height="542.9" target-width="245.3999" target-x="3546" target-y="1229.1"></path><path d="M 3294.50 1529.20 C 3293.60 1519.90 3293.40 1510.80 3293.80 1501.80 L 3181.80 1490.00 C 3180.70 1506.60 3181.00 1523.50 3182.70 1540.60 C 3191.60 1627.80 3237.00 1702.30 3302.10 1750.70 L 3369.10 1660.50 C 3328.40 1630.30 3300.10 1583.60 3294.50 1529.20 Z" fill="#4d73c6" fill-rule="nonzero" group-id="5,8" node-id="387" stroke="none" target-height="260.69995" target-width="188.40015" target-x="3180.7" target-y="1490"></path><path d="M 3584.70 1229.10 C 3572.20 1263.40 3558.80 1299.80 3546.00 1334.60 C 3520.00 1324.90 3491.30 1320.90 3461.90 1323.90 C 3387.50 1331.50 3327.70 1381.60 3304.30 1447.70 C 3298.20 1464.80 3294.60 1483.00 3293.80 1501.80 L 3181.80 1490.00 C 3183.70 1462.30 3189.30 1435.50 3198.30 1410.20 C 3235.80 1304.50 3331.50 1224.40 3450.40 1212.20 C 3497.50 1207.40 3543.20 1213.80 3584.70 1229.10 Z" fill="#ef5668" fill-rule="nonzero" group-id="5,8" node-id="389" stroke="none" target-height="294.40002" target-width="402.8999" target-x="3181.8" target-y="1207.4"></path><path d="M 1758.90 1796.20 C 1744.30 1822.40 1424.90 1862.00 1343.50 1818.40 C 1265.20 1776.50 1068.90 1358.70 1053.50 1325.80 C 1098.80 1331.10 1145.40 1401.20 1210.60 1534.80 C 1298.00 1713.90 1280.10 1787.00 1453.50 1799.30 C 1575.50 1808.00 1699.60 1786.70 1762.50 1773.30 C 1763.30 1781.90 1762.30 1789.90 1758.90 1796.20 Z" fill="#d1334a" fill-rule="nonzero" node-id="393" stroke="none" target-height="536.19995" target-width="709.80005" target-x="1053.5" target-y="1325.8"></path><path d="M 1462.80 901.80 L 1459.90 900.10 C 1460.10 900.20 1461.20 900.70 1462.80 901.80 Z" fill="#eb485c" fill-rule="nonzero" node-id="395" stroke="none" target-height="1.7000122" target-width="2.9000244" target-x="1459.9" target-y="900.1"></path><path d="M 1108.20 1011.90 L 1142.00 1042.00 L 1133.30 1067.30 C 1118.30 1057.80 1111.20 1037.70 1108.20 1011.90 Z" fill="#db6767" fill-rule="nonzero" node-id="397" stroke="none" target-height="55.400024" target-width="33.80005" target-x="1108.2" target-y="1011.9"></path><path d="M 1017.50 1997.00 C 1017.50 1997.00 1008.00 2104.80 926.80 2122.50" fill="none" node-id="399" stroke="#1a1a1a" stroke-linecap="round" stroke-width="2" target-height="125.5" target-width="90.70001" target-x="926.8" target-y="1997"></path></svg>