<?xml version="1.0" standalone="no"?><!DOCTYPE svg PUBLIC "-//W3C//DTD SVG 1.1//EN" "http://www.w3.org/Graphics/SVG/1.1/DTD/svg11.dtd"><svg height="4000" node-id="1" sillyvg="true" template-height="4000" template-width="4000" version="1.1" viewBox="0 0 4000 4000" width="4000" xmlns="http://www.w3.org/2000/svg" xmlns:xlink="http://www.w3.org/1999/xlink"><defs node-id="159"><linearGradient gradientUnits="userSpaceOnUse" id="SVGID_2_" node-id="8" spreadMethod="pad" x1="1442.9683" x2="3522.3303" y1="3329.9744" y2="3329.9744"><stop offset="0" stop-color="#68b2fc"></stop><stop offset="1" stop-color="#529bf7"></stop></linearGradient><linearGradient gradientUnits="userSpaceOnUse" id="SVGID_3_" node-id="42" spreadMethod="pad" x1="2084.9993" x2="2147.2869" y1="2897.8005" y2="363.0966"><stop offset="0" stop-color="#68b2fc"></stop><stop offset="0.07983631" stop-color="#89c2fb"></stop><stop offset="0.1726" stop-color="#a7d0fa"></stop><stop offset="0.275" stop-color="#c0dcf9"></stop><stop offset="0.3891" stop-color="#d3e5f8"></stop><stop offset="0.5213" stop-color="#e1ebf7"></stop><stop offset="0.6878" stop-color="#e9eff7"></stop><stop offset="1" stop-color="#ebf0f7"></stop></linearGradient><linearGradient gradientUnits="userSpaceOnUse" id="SVGID_4_" node-id="52" spreadMethod="pad" x1="2166.2214" x2="2166.2214" y1="2279.0146" y2="3189.3948"><stop offset="0" stop-color="#68b2fc"></stop><stop offset="1" stop-color="#ebf0f7"></stop></linearGradient><linearGradient gradientUnits="userSpaceOnUse" id="SVGID_5_" node-id="109" spreadMethod="pad" x1="1163.5513" x2="1322.6045" y1="2352.3835" y2="2352.3835"><stop offset="0" stop-color="#4085f0"></stop><stop offset="1" stop-color="#275dc9"></stop></linearGradient><linearGradient gradientUnits="userSpaceOnUse" id="SVGID_6_" node-id="119" spreadMethod="pad" x1="1422.8489" x2="1681.1439" y1="1862.8687" y2="1862.8687"><stop offset="0" stop-color="#4085f0"></stop><stop offset="1" stop-color="#275dc9"></stop></linearGradient><linearGradient gradientUnits="userSpaceOnUse" id="SVGID_7_" node-id="123" spreadMethod="pad" x1="1504.865" x2="1599.1279" y1="1738.5973" y2="1738.5973"><stop offset="0" stop-color="#4085f0"></stop><stop offset="1" stop-color="#275dc9"></stop></linearGradient><linearGradient gradientUnits="userSpaceOnUse" id="SVGID_8_" node-id="140" spreadMethod="pad" x1="1609.6176" x2="1772.0979" y1="1051.4445" y2="1051.4445"><stop offset="0" stop-color="#4085f0"></stop><stop offset="1" stop-color="#275dc9"></stop></linearGradient></defs><path d="M 2013.10 3441.50 C 2309.10 3459.70 2531.80 3357.50 2626.40 3307.30 C 2688.10 3348.40 2795.10 3406.70 2937.80 3422.30 C 3254.50 3457.00 3482.80 3252.80 3522.30 3216.30 L 1443.00 3216.30 C 1443.00 3216.30 1701.00 3422.30 2013.10 3441.50 Z" fill="url(#SVGID_2_)" fill-rule="nonzero" node-id="218" stroke="none" target-height="243.3999" target-width="2079.3" target-x="1443" target-y="3216.3"></path><g node-id="474"><g node-id="475"><g node-id="483"><path d="M 3860.20 2386.50 C 3612.20 2593.20 3208.80 2329.90 3208.80 2329.90 C 3208.80 2329.90 3211.80 2328.10 3217.60 2325.00 C 3438.60 2280.60 3854.80 2385.10 3860.20 2386.50 C 3860.20 2386.50 3860.20 2386.50 3860.20 2386.50 Z" fill="#00593b" fill-rule="nonzero" group-id="1,2,10" node-id="226" stroke="none" target-height="312.59985" target-width="651.3999" target-x="3208.8" target-y="2280.6"></path><path d="M 3860.10 2386.50 C 3854.70 2385.20 3438.50 2280.70 3217.60 2325.10 C 3272.90 2295.60 3579.60 2150.60 3860.10 2386.50 Z" fill="#339e7e" fill-rule="nonzero" group-id="1,2,10" node-id="228" stroke="none" target-height="235.8999" target-width="642.5" target-x="3217.6" target-y="2150.6"></path><path d="M 2971.60 2425.40 C 2971.60 2425.40 2976.60 2392.90 3189.40 2331.80 C 3198.40 2329.20 3207.80 2327.00 3217.60 2325.00" fill="none" group-id="1,2,10" node-id="230" stroke="#1a1a1a" stroke-linecap="round" stroke-width="3" target-height="100.3999" target-width="246" target-x="2971.6" target-y="2325"></path></g><path d="M 3404.30 2278.10 L 3325.50 2316.40" fill="none" group-id="1,2" node-id="233" stroke="#1a1a1a" stroke-linecap="round" stroke-width="2" target-height="38.299805" target-width="78.80005" target-x="3325.5" target-y="2278.1"></path><path d="M 3493.30 2269.60 L 3429.00 2319.90" fill="none" group-id="1,2" node-id="235" stroke="#1a1a1a" stroke-linecap="round" stroke-width="2" target-height="50.299805" target-width="64.30005" target-x="3429" target-y="2269.6"></path><path d="M 3604.70 2275.60 L 3537.60 2327.10" fill="none" group-id="1,2" node-id="237" stroke="#1a1a1a" stroke-linecap="round" stroke-width="2" target-height="51.5" target-width="67.09985" target-x="3537.6" target-y="2275.6"></path><path d="M 3678.70 2304.60 L 3629.90 2340.20" fill="none" group-id="1,2" node-id="239" stroke="#1a1a1a" stroke-linecap="round" stroke-width="2" target-height="35.599854" target-width="48.80005" target-x="3629.9" target-y="2304.6"></path><path d="M 3683.00 2414.10 C 3681.40 2411.00 3629.90 2340.20 3629.90 2340.20" fill="none" group-id="1,2" node-id="241" stroke="#ffffff" stroke-linecap="round" stroke-width="2" target-height="73.90015" target-width="53.100098" target-x="3629.9" target-y="2340.2"></path><path d="M 3538.90 2326.10 L 3610.00 2441.40" fill="none" group-id="1,2" node-id="243" stroke="#ffffff" stroke-linecap="round" stroke-width="2" target-height="115.299805" target-width="71.1001" target-x="3538.9" target-y="2326.1"></path><path d="M 3434.60 2317.20 L 3503.60 2431.30" fill="none" group-id="1,2" node-id="245" stroke="#ffffff" stroke-linecap="round" stroke-width="2" target-height="114.1001" target-width="69" target-x="3434.6" target-y="2317.2"></path><path d="M 3330.30 2314.10 L 3381.90 2389.90" fill="none" group-id="1,2" node-id="247" stroke="#ffffff" stroke-linecap="round" stroke-width="2" target-height="75.799805" target-width="51.599854" target-x="3330.3" target-y="2314.1"></path></g><g node-id="476"><g node-id="484"><path d="M 3780.80 1827.80 C 3780.80 1827.80 3321.70 1997.80 3140.80 2189.10 C 3174.40 2123.30 3372.70 1775.70 3780.80 1827.80 Z" fill="#339e7e" fill-rule="nonzero" group-id="1,3,11" node-id="254" stroke="none" target-height="413.40015" target-width="640" target-x="3140.8" target-y="1775.7"></path><path d="M 3780.80 1827.80 C 3675.40 2198.30 3135.60 2199.60 3135.60 2199.60 C 3135.60 2199.60 3137.30 2195.80 3140.80 2189.00 C 3321.70 1997.80 3780.80 1827.80 3780.80 1827.80 Z" fill="#127755" fill-rule="nonzero" group-id="1,3,11" node-id="256" stroke="none" target-height="371.80005" target-width="645.19995" target-x="3135.6" target-y="1827.8"></path><path d="M 2972.00 2451.50 C 2972.00 2451.50 2956.70 2415.60 3118.70 2214.30 C 3125.50 2205.90 3132.90 2197.40 3140.90 2189.00" fill="none" group-id="1,3,11" node-id="258" stroke="#1a1a1a" stroke-linecap="round" stroke-width="3" target-height="262.5" target-width="184.19995" target-x="2956.7" target-y="2189"></path></g><path d="M 3436.40 1983.40 L 3464.20 1897.60" fill="none" group-id="1,3" node-id="261" stroke="#1a1a1a" stroke-linecap="round" stroke-width="2" target-height="85.80005" target-width="27.800049" target-x="3436.4" target-y="1897.6"></path><path d="M 3510.60 1945.50 L 3541.90 1864.30" fill="none" group-id="1,3" node-id="263" stroke="#1a1a1a" stroke-linecap="round" stroke-width="2" target-height="81.19995" target-width="31.299805" target-x="3510.6" target-y="1864.3"></path><path d="M 3607.90 1899.70 L 3631.30 1849.00" fill="none" group-id="1,3" node-id="265" stroke="#1a1a1a" stroke-linecap="round" stroke-width="2" target-height="50.69995" target-width="23.400146" target-x="3607.9" target-y="1849"></path><path d="M 3280.30 2022.20 C 3280.30 2022.20 3239.00 2072.40 3215.10 2122.60" fill="none" group-id="1,3" node-id="267" stroke="#1a1a1a" stroke-linecap="round" stroke-width="2" target-height="100.40015" target-width="65.19995" target-x="3215.1" target-y="2022.2"></path><path d="M 3370.50 1972.90 L 3328.20 2041.00" fill="none" group-id="1,3" node-id="269" stroke="#1a1a1a" stroke-linecap="round" stroke-width="2" target-height="68.099976" target-width="42.30005" target-x="3328.2" target-y="1972.9"></path><path d="M 3693.00 1945.50 L 3612.60 1897.60" fill="none" group-id="1,3" node-id="271" stroke="#ffffff" stroke-linecap="round" stroke-width="2" target-height="47.900024" target-width="80.3999" target-x="3612.6" target-y="1897.6"></path><path d="M 3629.90 2022.20 L 3513.50 1944.00" fill="none" group-id="1,3" node-id="273" stroke="#ffffff" stroke-linecap="round" stroke-width="2" target-height="78.19995" target-width="116.3999" target-x="3513.5" target-y="1944"></path><path d="M 3438.60 1982.20 L 3553.50 2074.20" fill="none" group-id="1,3" node-id="275" stroke="#ffffff" stroke-linecap="round" stroke-width="2" target-height="92" target-width="114.8999" target-x="3438.6" target-y="1982.2"></path><path d="M 3328.20 2042.70 L 3446.20 2119.00" fill="none" group-id="1,3" node-id="277" stroke="#ffffff" stroke-linecap="round" stroke-width="2" target-height="76.30005" target-width="118" target-x="3328.2" target-y="2042.7"></path><path d="M 3217.80 2120.40 L 3301.30 2165.60" fill="none" group-id="1,3" node-id="279" stroke="#ffffff" stroke-linecap="round" stroke-width="2" target-height="45.200195" target-width="83.5" target-x="3217.8" target-y="2120.4"></path></g><path d="M 1484.70 1204.30 C 1484.70 758.20 1864.60 474.80 2346.90 577.30 C 2826.50 679.20 2710.60 1030.00 2823.20 1174.20 C 2935.80 1318.30 3324.30 1152.40 3293.50 1517.80 C 3269.90 1798.50 2985.00 1780.00 2986.00 2012.20 C 2986.80 2187.10 3174.50 2221.10 3191.00 2404.10 C 3213.70 2655.00 2895.40 2976.90 2660.40 2940.70 C 2425.40 2904.40 2428.30 2534.00 2153.90 2470.40 C 1948.30 2422.80 1873.60 2614.00 1563.00 2627.20 C 1366.00 2635.60 1020.40 2574.70 941.90 2343.80 C 876.20 2150.40 1011.10 1876.30 1291.60 1722.80 C 1144.20 1671.50 1059.70 1530.70 1080.60 1409.30 C 1106.50 1259.10 1293.60 1139.20 1484.70 1204.30 Z" fill="url(#SVGID_3_)" fill-rule="nonzero" group-id="1" node-id="282" stroke="none" target-height="2502.0999" target-width="2448.1" target-x="876.2" target-y="474.8"></path><path d="M 977.90 2782.20 C 1038.90 2491.40 1282.80 2232.60 1601.00 2179.30 C 1925.30 2125.00 2169.30 2310.40 2212.00 2344.10 C 2268.80 2293.00 2509.10 2088.00 2782.80 2135.10 C 3131.00 2195.00 3435.10 2645.90 3357.60 3216.30 C 2577.50 3216.30 1797.50 3216.30 1017.40 3216.30 C 987.50 3138.90 937.30 2976.10 977.90 2782.20 Z" fill="url(#SVGID_4_)" fill-rule="nonzero" group-id="1" node-id="284" stroke="none" target-height="1128.3" target-width="2497.8" target-x="937.3" target-y="2088"></path><path d="M 139.80 3216.30 L 3525.20 3216.30" fill="none" group-id="1" node-id="286" stroke="#1a1a1a" stroke-linecap="round" stroke-width="3" target-height="0" target-width="3385.4" target-x="139.8" target-y="3216.3"></path><path d="M 287.40 2572.90 C 287.30 2574.30 287.30 2575.80 287.30 2577.20 L 287.30 2601.30 L 2566.50 2601.30 L 2566.50 2577.20 C 2566.50 2575.70 2566.40 2574.30 2566.40 2572.90 L 287.40 2572.90 Z" fill="#152a52" fill-rule="nonzero" group-id="1" node-id="288" stroke="none" target-height="28.400146" target-width="2279.2" target-x="287.3" target-y="2572.9"></path><path d="M 2445.90 2456.70 L 407.90 2456.70 C 342.80 2456.70 289.70 2508.40 287.40 2572.90 L 2566.40 2572.90 C 2564.10 2508.30 2511.10 2456.70 2445.90 2456.70 Z" fill="#ccc4cc" fill-rule="nonzero" group-id="1" node-id="290" stroke="none" target-height="116.19995" target-width="2279" target-x="287.4" target-y="2456.7"></path><path d="M 287.30 2601.40 L 287.30 3095.80 C 287.30 3162.40 341.30 3216.40 407.90 3216.40 L 2445.90 3216.40 C 2512.50 3216.40 2566.50 3162.40 2566.50 3095.80 L 2566.50 2601.40 L 287.30 2601.40 Z" fill="#ffffff" fill-rule="nonzero" group-id="1" node-id="292" stroke="none" target-height="615" target-width="2279.2" target-x="287.3" target-y="2601.4"></path><path d="M 478.20 2529.00 C 478.20 2547.50 463.20 2562.50 444.70 2562.50 C 426.20 2562.50 411.20 2547.50 411.20 2529.00 C 411.20 2510.50 426.20 2495.50 444.70 2495.50 C 463.20 2495.50 478.20 2510.50 478.20 2529.00 Z" fill="#ffffff" fill-rule="nonzero" group-id="1" node-id="294" stroke="none" target-height="67" target-width="67" target-x="411.2" target-y="2495.5"></path><path d="M 649.10 2529.00 C 649.10 2547.50 634.10 2562.50 615.60 2562.50 C 597.10 2562.50 582.10 2547.50 582.10 2529.00 C 582.10 2510.50 597.10 2495.50 615.60 2495.50 C 634.10 2495.50 649.10 2510.50 649.10 2529.00 Z" fill="#ffffff" fill-rule="nonzero" group-id="1" node-id="296" stroke="none" target-height="67" target-width="67" target-x="582.1" target-y="2495.5"></path><path d="M 819.90 2529.00 C 819.90 2547.50 804.90 2562.50 786.40 2562.50 C 767.90 2562.50 752.90 2547.50 752.90 2529.00 C 752.90 2510.50 767.90 2495.50 786.40 2495.50 C 804.90 2495.50 819.90 2510.50 819.90 2529.00 Z" fill="#ffffff" fill-rule="nonzero" group-id="1" node-id="298" stroke="none" target-height="67" target-width="67" target-x="752.9" target-y="2495.5"></path><path d="M 3237.80 3168.10 C 3148.90 3182.90 3064.10 3175.70 2977.60 3171.10 C 2985.50 3182.10 2996.60 3189.50 3011.90 3191.10 C 3040.00 3194.10 3251.10 3205.20 3254.10 3175.00 C 3254.60 3170.00 3253.90 3165.00 3252.30 3160.00 C 3248.60 3164.00 3243.90 3166.90 3237.80 3168.10 Z" fill="#1a1a1a" fill-rule="nonzero" group-id="1" node-id="300" stroke="#1a1a1a" stroke-linecap="round" stroke-width="2" target-height="45.19995" target-width="277" target-x="2977.6" target-y="3160"></path><path d="M 3028.00 3060.10 C 3039.30 3059.20 3050.90 3056.30 3062.00 3051.70 L 3060.20 3015.40 L 2963.60 3031.50 C 2963.60 3031.50 2962.70 3042.80 2962.00 3058.30 C 2981.80 3068.20 3007.90 3061.90 3028.00 3060.10 Z" fill="#1a1a1a" fill-rule="nonzero" group-id="1" node-id="302" stroke="none" target-height="52.80005" target-width="100" target-x="2962" target-y="3015.4"></path><path d="M 3161.90 3104.80 C 3105.60 3098.00 3063.40 3078.90 3063.40 3078.90 L 3062.00 3051.70 C 3050.90 3056.40 3039.30 3059.30 3028.00 3060.10 C 3007.90 3061.90 2981.80 3068.20 2961.90 3058.30 C 2960.70 3083.10 2959.80 3118.70 2963.50 3136.60 C 2966.30 3149.90 2970.70 3161.80 2977.40 3171.20 C 3063.90 3175.80 3148.80 3183.00 3237.60 3168.20 C 3243.70 3167.00 3248.40 3164.10 3252.00 3160.20 C 3243.70 3134.70 3208.90 3110.50 3161.90 3104.80 Z" fill="#2c132c" fill-rule="nonzero" group-id="1" node-id="304" stroke="none" target-height="131.30005" target-width="292.19995" target-x="2959.8" target-y="3051.7"></path><path d="M 2920.50 2314.00 C 2945.10 2347.60 2958.60 2385.70 2967.50 2426.00 C 2972.00 2446.20 2972.00 2464.10 2976.50 2484.30 C 2989.90 2547.00 2987.70 2607.50 3010.10 2668.00 C 3023.80 2703.60 3037.50 2748.40 3063.00 2779.90 C 3034.10 2590.80 2977.20 2350.70 2934.30 2272.80 C 2860.60 2138.80 2284.40 2072.20 2284.40 2072.20 L 2278.60 2086.70 C 2485.00 2122.10 2690.30 2152.70 2873.40 2280.50 C 2889.10 2291.60 2907.10 2300.60 2920.50 2314.00 Z" fill="#152a52" fill-rule="nonzero" group-id="1" node-id="306" stroke="none" target-height="707.69995" target-width="784.3999" target-x="2278.6" target-y="2072.2"></path><path d="M 3010.10 2668.00 C 2987.70 2607.50 2989.90 2547.00 2976.50 2484.30 C 2972.00 2464.10 2972.00 2446.20 2967.50 2426.00 C 2958.50 2385.70 2945.10 2347.60 2920.50 2314.00 C 2907.10 2300.60 2889.10 2291.60 2873.50 2280.40 C 2690.40 2152.70 2485.10 2122.00 2278.70 2086.60 L 2207.80 2263.70 C 2207.80 2263.70 2358.50 2348.10 2753.50 2339.10 C 2768.60 2444.60 2961.00 3048.60 2961.00 3048.60 C 2961.00 3048.60 3008.90 3038.50 3066.20 3029.40 C 3090.20 3025.60 3083.90 2916.00 3063.10 2779.90 C 3037.50 2748.40 3023.80 2703.60 3010.10 2668.00 Z" fill="#10203e" fill-rule="nonzero" group-id="1" node-id="308" stroke="none" target-height="962" target-width="882.3999" target-x="2207.8" target-y="2086.6"></path><path d="M 2253.70 2119.00 C 2253.70 2119.00 2805.70 2184.50 2873.50 2348.30 C 2920.00 2466.30 2903.50 2538.80 2903.50 2538.80 L 2231.70 2171.40 L 2253.70 2119.00 Z" fill="#1a1a1a" fill-rule="nonzero" group-id="1" node-id="310" stroke="none" target-height="419.80005" target-width="688.30005" target-x="2231.7" target-y="2119"></path><path d="M 2862.50 2420.60 C 2862.50 2420.60 3017.40 2725.10 3016.10 3037.80" fill="none" group-id="1" node-id="312" stroke="#1a1a1a" stroke-linecap="round" stroke-width="3" target-height="617.19995" target-width="154.8999" target-x="2862.5" target-y="2420.6"></path><path d="M 2817.80 3223.30 C 2852.00 3228.30 3069.00 3248.40 3078.10 3234.40 C 3079.90 3231.50 3081.40 3227.00 3082.20 3221.50 C 2986.80 3220.50 2890.20 3223.60 2798.60 3198.20 C 2802.40 3212.00 2808.40 3222.00 2817.80 3223.30 Z" fill="#1a1a1a" fill-rule="nonzero" group-id="1" node-id="314" stroke="#1a1a1a" stroke-linecap="round" stroke-width="2" target-height="50.19995" target-width="283.59985" target-x="2798.6" target-y="3198.2"></path><path d="M 2893.70 3099.00 L 2885.10 3078.70 L 2793.60 3098.80 C 2793.60 3098.80 2792.40 3113.10 2792.20 3132.00 C 2830.30 3137.40 2866.20 3126.40 2893.70 3099.00 Z" fill="#1a1a1a" fill-rule="nonzero" group-id="1" node-id="316" stroke="none" target-height="58.69995" target-width="101.5" target-x="2792.2" target-y="3078.7"></path><path d="M 3038.80 3161.00 C 2990.60 3156.00 2899.10 3111.80 2899.10 3111.80 L 2893.70 3099.00 C 2866.10 3126.50 2830.30 3137.50 2792.30 3132.00 C 2792.10 3152.80 2793.20 3179.10 2798.50 3198.20 C 2890.10 3223.60 2986.70 3220.50 3082.10 3221.50 C 3085.10 3200.20 3077.20 3165.00 3038.80 3161.00 Z" fill="#572658" fill-rule="nonzero" group-id="1" node-id="318" stroke="none" target-height="124.6001" target-width="293" target-x="2792.1" target-y="3099"></path><path d="M 2774.90 2533.60 C 2779.40 2506.70 2783.90 2477.60 2770.40 2452.90 C 2741.30 2401.40 2676.30 2399.10 2622.50 2392.40 C 2456.70 2374.50 2288.70 2392.40 2131.90 2343.10 C 2102.00 2305.10 2061.50 2269.50 2036.20 2228.00 C 2018.80 2244.70 2002.10 2259.50 1986.40 2269.70 C 1952.90 2291.50 2040.90 2436.90 2074.60 2456.60 C 2074.60 2456.60 2246.10 2458.50 2403.60 2456.60 C 2525.20 2455.20 2638.70 2444.20 2678.10 2452.50 C 2678.10 2452.50 2575.60 2730.90 2783.60 3116.80 C 2825.20 3128.00 2855.80 3119.30 2875.30 3108.70 C 2809.90 3024.70 2776.90 2920.30 2750.30 2815.80 C 2727.80 2721.80 2754.70 2632.10 2774.90 2533.60 Z" fill="#102140" fill-rule="nonzero" group-id="1" node-id="320" stroke="none" target-height="900" target-width="922.4" target-x="1952.9" target-y="2228"></path><path d="M 2901.20 3088.50 C 2901.20 3088.50 2967.50 2402.40 2813.80 2299.90 C 2660.00 2197.40 2330.00 2152.50 2330.00 2152.50 C 2330.00 2152.50 2240.40 2085.90 2207.70 2092.90 C 2150.40 2105.20 2090.00 2176.10 2036.10 2228.00 C 2061.40 2269.50 2102.00 2305.10 2131.80 2343.10 C 2288.60 2392.40 2456.60 2374.50 2622.40 2392.40 C 2676.20 2399.10 2741.10 2401.40 2770.30 2452.90 C 2783.70 2477.50 2779.30 2506.70 2774.80 2533.60 C 2754.60 2632.20 2727.80 2721.80 2750.20 2815.90 C 2776.80 2920.40 2809.80 3024.80 2875.20 3108.80 C 2892.50 3099.40 2901.20 3088.50 2901.20 3088.50 Z" fill="#152a52" fill-rule="nonzero" group-id="1" node-id="322" stroke="none" target-height="1022.90015" target-width="931.4" target-x="2036.1" target-y="2085.9"></path><path d="M 2419.60 1723.10 L 2464.60 1759.70 L 2986.50 1895.10 L 2949.90 1859.00 Z" fill="#1a1a1a" fill-rule="nonzero" group-id="1" node-id="324" stroke="#1a1a1a" stroke-linecap="round" stroke-width="2" target-height="172" target-width="566.8999" target-x="2419.6" target-y="1723.1"></path><path d="M 2630.90 570.00 L 2419.70 1723.10 L 2950.00 1859.00 L 3363.90 726.30 C 3363.80 726.30 3000.60 512.50 2630.90 570.00 Z" fill="#dbd2db" fill-rule="nonzero" group-id="1" node-id="326" stroke="none" target-height="1346.5" target-width="944.19995" target-x="2419.7" target-y="512.5"></path><path d="M 3034.90 1158.50 L 3015.80 1247.40" fill="#ffffff" fill-rule="nonzero" group-id="1,4" node-id="330" stroke="#1a1a1a" stroke-linecap="round" stroke-width="2" target-height="88.900024" target-width="19.099854" target-x="3015.8" target-y="1158.5"></path><path d="M 2758.70 1478.40 L 2727.80 1599.10" fill="#ffffff" fill-rule="nonzero" group-id="1,4" node-id="332" stroke="#1a1a1a" stroke-linecap="round" stroke-width="2" target-height="120.69995" target-width="30.899902" target-x="2727.8" target-y="1478.4"></path><path d="M 2674.50 1590.60 L 2801.10 1617.40" fill="#ffffff" fill-rule="nonzero" group-id="1,4" node-id="334" stroke="#1a1a1a" stroke-linecap="round" stroke-width="2" target-height="26.800049" target-width="126.6001" target-x="2674.5" target-y="1590.6"></path><path d="M 2854.70 1119.80 L 2781.10 1392.80" fill="#ffffff" fill-rule="nonzero" group-id="1,4" node-id="336" stroke="#1a1a1a" stroke-linecap="round" stroke-width="2" target-height="273" target-width="73.59985" target-x="2781.1" target-y="1119.8"></path><path d="M 2923.50 873.80 L 2903.10 961.00 L 2882.50 1039.40" fill="none" group-id="1,4" node-id="338" stroke="#1a1a1a" stroke-linecap="round" stroke-width="2" target-height="165.60004" target-width="41" target-x="2882.5" target-y="873.8"></path><path d="M 2727.80 998.90 L 2745.80 919.40 L 3079.40 996.70 L 3063.90 1074.10" fill="none" group-id="1,4" node-id="340" stroke="#1a1a1a" stroke-linecap="round" stroke-width="2" target-height="154.69995" target-width="351.59985" target-x="2727.8" target-y="919.4"></path><path d="M 2881.40 777.00 L 2859.80 861.90 L 2993.20 892.20 L 3009.50 804.30 Z" fill="#ffb114" fill-rule="nonzero" group-id="1,4" node-id="342" stroke="none" target-height="115.20001" target-width="149.69995" target-x="2859.8" target-y="777"></path><path d="M 2827.60 1023.80 L 2806.00 1108.70 L 2939.40 1139.00 L 2955.60 1051.10 Z" fill="#ffffff" fill-rule="nonzero" group-id="1,4" node-id="344" stroke="none" target-height="115.20001" target-width="149.6001" target-x="2806" target-y="1023.8"></path><path d="M 2775.00 1195.90 L 2753.40 1280.80 L 2886.80 1311.10 L 2903.00 1223.20 Z" fill="#ffde70" fill-rule="nonzero" group-id="1,4" node-id="346" stroke="none" target-height="115.19995" target-width="149.6001" target-x="2753.4" target-y="1195.9"></path><path d="M 2719.10 1379.50 L 2697.50 1464.40 L 2830.80 1494.80 L 2847.10 1406.80 Z" fill="#ffb114" fill-rule="nonzero" group-id="1,4" node-id="348" stroke="none" target-height="115.30005" target-width="149.6001" target-x="2697.5" target-y="1379.5"></path><path d="M 2813.00 1570.60 L 2791.40 1655.50 L 2924.80 1685.80 L 2941.00 1597.90 Z" fill="#ffb114" fill-rule="nonzero" group-id="1,4" node-id="350" stroke="none" target-height="115.20007" target-width="149.6001" target-x="2791.4" target-y="1570.6"></path><path d="M 2562.90 1523.80 L 2541.40 1608.80 L 2674.70 1639.10 L 2691.00 1551.20 Z" fill="#ffffff" fill-rule="nonzero" group-id="1,4" node-id="352" stroke="none" target-height="115.29993" target-width="149.6001" target-x="2541.4" target-y="1523.8"></path><path d="M 2653.10 977.60 L 2631.50 1062.50 L 2764.90 1092.80 L 2781.10 1004.90 Z" fill="#ffb114" fill-rule="nonzero" group-id="1,4" node-id="354" stroke="none" target-height="115.20007" target-width="149.6001" target-x="2631.5" target-y="977.6"></path><path d="M 3006.20 1062.20 L 2984.60 1147.10 L 3117.90 1177.40 L 3134.20 1089.50 Z" fill="#ffffff" fill-rule="nonzero" group-id="1,4" node-id="356" stroke="none" target-height="115.20007" target-width="149.59985" target-x="2984.6" target-y="1062.2"></path><path d="M 2962.60 1236.00 L 2941.00 1321.00 L 3074.40 1351.30 L 3090.60 1263.40 Z" fill="#ffb114" fill-rule="nonzero" group-id="1,4" node-id="358" stroke="none" target-height="115.30005" target-width="149.6001" target-x="2941" target-y="1236"></path><path d="M 2495.50 1109.00 C 2494.30 1135.10 2448.10 1341.50 2379.70 1409.80 C 2312.90 1476.50 2177.00 1462.10 2088.60 1515.70 C 2135.60 1510.40 2183.70 1511.80 2232.80 1516.40 C 2284.30 1523.10 2340.30 1529.80 2387.40 1511.90 C 2503.80 1469.60 2540.20 1337.30 2579.80 1224.60 C 2589.00 1148.50 2589.00 1089.00 2589.00 1089.00 C 2589.00 1089.00 2496.60 1082.90 2495.50 1109.00 Z" fill="#ef5668" fill-rule="nonzero" group-id="1" node-id="361" stroke="none" target-height="446.90002" target-width="500.3999" target-x="2088.6" target-y="1082.9"></path><path d="M 2387.30 1511.90 C 2340.30 1529.80 2284.20 1523.10 2232.70 1516.40 C 2183.60 1511.80 2135.50 1510.40 2088.50 1515.70 C 2086.40 1517.00 2084.40 1518.20 2082.30 1519.50 L 2153.00 1749.90 C 2153.00 1749.90 2429.90 1623.20 2519.10 1452.00 C 2553.30 1386.40 2570.70 1297.80 2579.60 1224.50 C 2540.10 1337.30 2503.70 1469.60 2387.30 1511.90 Z" fill="#d1334a" fill-rule="nonzero" group-id="1" node-id="363" stroke="none" target-height="525.4" target-width="497.30005" target-x="2082.3" target-y="1224.5"></path><path d="M 2114.00 2058.60 C 2202.60 2072.90 2285.20 2056.90 2367.00 2034.00 C 2355.00 1921.00 2314.70 1594.30 2246.50 1566.40 C 2184.60 1541.00 2123.90 1521.30 2082.50 1523.90 C 2068.70 1524.80 2030.50 1547.40 2030.50 1547.40 C 2030.50 1547.40 1940.80 1683.50 1900.30 1854.30 C 1902.70 1862.00 1905.20 1869.60 1908.00 1877.20 C 1939.30 1966.70 2015.40 2040.70 2114.00 2058.60 Z" fill="#ef5668" fill-rule="nonzero" group-id="1" node-id="365" stroke="none" target-height="551.59985" target-width="466.69995" target-x="1900.3" target-y="1521.3"></path><path d="M 2114.00 2058.60 C 2015.40 2040.70 1939.30 1966.70 1907.90 1877.10 C 1905.10 1869.60 1902.60 1861.90 1900.20 1854.20 C 1865.10 2001.80 1866.70 2175.50 1994.60 2309.70 C 2355.70 2150.00 2370.80 2072.10 2370.80 2072.10 C 2370.80 2072.10 2369.50 2057.80 2367.00 2033.90 C 2285.20 2056.90 2202.60 2072.90 2114.00 2058.60 Z" fill="#eb485c" fill-rule="nonzero" group-id="1" node-id="367" stroke="none" target-height="455.5" target-width="505.70007" target-x="1865.1" target-y="1854.2"></path><path d="M 2176.40 1651.50 C 2176.40 1651.50 2278.60 1730.80 2331.10 1774.80 C 2321.10 1736.90 2242.30 1657.70 2176.40 1651.50 Z" fill="#d1334a" fill-rule="nonzero" group-id="1" node-id="369" stroke="none" target-height="123.30005" target-width="154.7002" target-x="2176.4" target-y="1651.5"></path><path d="M 2129.70 1850.20 C 2288.80 1901.70 2497.10 1977.90 2627.00 1839.00 C 2680.90 1781.90 2694.40 1705.80 2697.70 1628.80 C 2676.20 1609.30 2616.20 1609.60 2610.80 1630.60 C 2604.20 1655.90 2537.60 1864.80 2443.00 1845.50 C 2348.30 1826.20 2273.70 1692.70 2176.40 1651.30 L 2034.20 1844.40 C 2034.20 1844.40 2037.90 1846.40 2044.60 1850.00 C 2073.60 1845.70 2102.30 1843.40 2129.70 1850.20 Z" fill="#ef5668" fill-rule="nonzero" group-id="1" node-id="371" stroke="none" target-height="368.59998" target-width="663.5" target-x="2034.2" target-y="1609.3"></path><path d="M 2705.30 1643.30 C 2704.90 1637.60 2702.10 1632.80 2697.70 1628.80 C 2694.40 1705.80 2680.90 1781.90 2627.00 1839.00 C 2497.10 1977.90 2288.70 1901.70 2129.70 1850.20 C 2102.30 1843.40 2073.60 1845.70 2044.60 1850.10 C 2106.30 1882.80 2427.20 2044.80 2570.00 1956.30 C 2728.30 1858.30 2707.50 1676.60 2705.30 1643.30 Z" fill="#d1334a" fill-rule="nonzero" group-id="1" node-id="373" stroke="none" target-height="416" target-width="683.7001" target-x="2044.6" target-y="1628.8"></path><path d="M 2256.80 1283.60 C 2256.80 1283.60 2303.80 1452.40 2269.00 1467.30 C 2202.40 1495.80 2210.80 1496.00 2210.80 1496.00 L 2213.40 1590.10 C 2213.40 1590.10 2128.90 1583.20 2070.90 1545.10 C 2077.30 1434.40 2076.60 1224.50 2152.10 1231.70 C 2227.70 1238.70 2256.80 1283.60 2256.80 1283.60 Z" fill="#fc9590" fill-rule="nonzero" group-id="1" node-id="375" stroke="none" target-height="365.59998" target-width="232.90015" target-x="2070.9" target-y="1224.5"></path><path d="M 2027.80 1438.90 C 2027.80 1438.90 2059.60 1486.80 2118.20 1458.00 C 2165.80 1439.90 2153.90 1346.80 2153.90 1346.80 C 2153.90 1346.80 2183.30 1326.70 2187.40 1338.90 C 2191.50 1351.00 2200.70 1383.90 2200.70 1383.90 L 2213.70 1372.10 C 2213.70 1372.10 2205.10 1328.30 2217.80 1317.80 C 2230.50 1307.30 2272.50 1300.10 2272.50 1300.10 L 2295.50 1296.70 C 2295.50 1296.70 2276.10 1147.40 2181.90 1174.20 C 2117.00 1153.20 2015.20 1193.50 2027.80 1438.90 Z" fill="#102140" fill-rule="nonzero" group-id="1" node-id="377" stroke="none" target-height="339.40002" target-width="280.30005" target-x="2015.2" target-y="1147.4"></path><path d="M 2614.80 1629.20 C 2614.80 1629.20 2612.30 1649.80 2639.40 1666.90 C 2666.50 1684.00 2706.10 1659.10 2697.20 1639.30 C 2688.30 1619.40 2625.80 1613.10 2614.80 1629.20 Z" fill="#1a1a1a" fill-rule="nonzero" group-id="1" node-id="379" stroke="#1a1a1a" stroke-linecap="round" stroke-width="2" target-height="70.900024" target-width="93.80005" target-x="2612.3" target-y="1613.1"></path><path d="M 2676.30 1574.60 C 2650.20 1586.80 2657.90 1620.60 2660.50 1650.80 C 2677.20 1652.20 2693.10 1650.80 2693.10 1650.80 C 2693.10 1650.80 2685.40 1625.50 2691.80 1608.60 C 2698.20 1591.70 2730.70 1584.50 2730.70 1584.50 C 2730.70 1584.50 2757.50 1540.30 2754.80 1528.20 C 2753.60 1522.90 2744.60 1513.10 2734.90 1503.60 C 2732.60 1537.30 2708.00 1556.80 2676.30 1574.60 Z" fill="#db6767" fill-rule="nonzero" group-id="1" node-id="381" stroke="none" target-height="148.59998" target-width="107.30005" target-x="2650.2" target-y="1503.6"></path><path d="M 2772.20 1439.80 C 2772.20 1439.80 2724.00 1441.10 2674.40 1473.30 C 2624.80 1505.50 2625.00 1637.00 2625.00 1637.00 C 2630.10 1646.00 2645.60 1649.60 2660.50 1650.80 C 2657.90 1620.60 2650.20 1586.80 2676.30 1574.60 C 2707.90 1556.80 2732.60 1537.20 2734.90 1503.60 C 2722.30 1491.40 2708.40 1479.90 2708.40 1479.90 C 2708.40 1479.90 2752.10 1471.90 2772.20 1459.80 C 2792.30 1447.80 2772.20 1439.80 2772.20 1439.80 Z" fill="#fc9590" fill-rule="nonzero" group-id="1" node-id="383" stroke="none" target-height="211" target-width="167.5" target-x="2624.8" target-y="1439.8"></path><path d="M 2555.30 976.40 C 2555.30 960.70 2566.50 947.30 2577.70 938.30 C 2594.40 920.00 2622.20 909.10 2630.70 888.10 C 2630.40 885.10 2629.50 882.30 2627.80 880.00 C 2624.20 875.10 2566.00 896.10 2536.30 941.30 C 2506.70 986.50 2513.20 1107.10 2513.20 1107.10 C 2517.90 1114.10 2528.60 1117.10 2546.50 1114.00 C 2562.80 1070.20 2551.40 1023.30 2555.30 976.40 Z" fill="#fc9590" fill-rule="nonzero" group-id="1" node-id="385" stroke="none" target-height="242" target-width="124" target-x="2506.7" target-y="875.1"></path><path d="M 2577.70 1032.50 C 2571.00 1005.60 2562.00 978.70 2573.20 951.80 C 2581.30 932.80 2609.90 922.90 2626.80 907.60 C 2629.70 900.30 2631.20 893.70 2630.70 888.20 C 2622.10 909.20 2594.30 920.10 2577.70 938.40 C 2566.50 947.40 2555.30 960.80 2555.30 976.50 C 2551.40 1023.40 2562.80 1070.30 2546.50 1114.20 C 2551.50 1113.30 2557.10 1112.00 2563.20 1110.20 C 2564.00 1083.70 2583.60 1059.80 2577.70 1032.50 Z" fill="#fc9590" fill-rule="nonzero" group-id="1" node-id="387" stroke="none" target-height="225.99994" target-width="84.69995" target-x="2546.5" target-y="888.2"></path><path d="M 2573.30 951.80 C 2562.10 978.70 2571.10 1005.60 2577.80 1032.50 C 2583.70 1059.80 2564.00 1083.70 2563.30 1110.10 C 2568.20 1108.60 2573.50 1106.80 2579.10 1104.70 C 2582.60 1087.60 2593.20 1047.40 2606.70 1029.30 C 2620.30 1011.20 2631.30 956.50 2617.30 953.90 C 2603.20 951.40 2595.70 1019.20 2582.60 1001.10 C 2572.80 987.60 2613.70 940.90 2626.90 907.50 C 2610.00 922.90 2581.40 932.80 2573.30 951.80 Z" fill="#db6767" fill-rule="nonzero" group-id="1" node-id="389" stroke="none" target-height="202.59998" target-width="69.19995" target-x="2562.1" target-y="907.5"></path><path d="M 659.60 1824.60 L 738.00 1824.60 L 738.00 1865.30 L 659.60 1865.30 Z" fill="#152a52" fill-rule="nonzero" group-id="1" node-id="391" stroke="none" target-height="40.700073" target-width="78.400024" target-x="659.6" target-y="1824.6"></path><path d="M 1163.60 2311.00 L 1322.70 2311.00 L 1322.70 2393.70 L 1163.60 2393.70 Z" fill="url(#SVGID_5_)" fill-rule="nonzero" group-id="1" node-id="393" stroke="none" target-height="82.69995" target-width="159.09998" target-x="1163.6" target-y="2311"></path><path d="M 3079.60 3078.60 C 3079.60 3078.60 3050.50 3088.60 3063.60 3096.10 C 3076.80 3103.60 3101.50 3071.90 3109.50 3078.60 C 3117.50 3085.20 3077.20 3101.60 3088.70 3104.00 C 3100.30 3106.40 3109.50 3080.40 3123.80 3084.80 C 3138.20 3089.20 3102.20 3107.20 3115.80 3110.00 C 3129.40 3112.80 3120.60 3092.50 3143.40 3093.80 C 3166.20 3095.20 3149.00 3114.70 3149.00 3114.70" fill="none" group-id="1" node-id="395" stroke="#ffffff" stroke-linecap="round" stroke-width="2" target-height="42.80005" target-width="115.69995" target-x="3050.5" target-y="3071.9"></path><path d="M 2925.10 3114.80 C 2925.10 3114.80 2882.80 3133.60 2899.10 3140.00 C 2915.50 3146.40 2931.80 3112.40 2954.60 3120.00 C 2977.40 3127.60 2921.90 3144.20 2937.50 3150.10 C 2953.00 3156.00 2963.40 3127.70 2981.00 3132.50 C 2998.60 3137.20 2956.20 3156.60 2969.00 3160.10 C 2981.80 3163.60 2985.00 3135.60 3002.10 3139.60 C 3019.30 3143.60 2982.50 3160.00 2998.10 3164.00 C 3013.70 3168.00 3016.10 3150.10 3016.10 3150.10" fill="none" group-id="1" node-id="397" stroke="#ffffff" stroke-linecap="round" stroke-width="2" target-height="55.600098" target-width="136.5" target-x="2882.8" target-y="3112.4"></path><path d="M 2249.50 2228.00 C 2249.50 2228.00 2263.90 2309.70 2212.00 2344.10" fill="none" group-id="1" node-id="399" stroke="#ffffff" stroke-linecap="round" stroke-width="2" target-height="116.1001" target-width="51.899902" target-x="2212" target-y="2228"></path><path d="M 2879.30 3106.50 C 2879.30 3106.50 2771.30 2910.50 2802.90 2714.60 C 2828.50 2555.90 2817.60 2434.20 2790.20 2402.30 C 2724.10 2325.20 2249.50 2284.80 2249.50 2284.80" fill="none" group-id="1" node-id="401" stroke="#1a1a1a" stroke-linecap="round" stroke-width="3" target-height="821.69995" target-width="629.80005" target-x="2249.5" target-y="2284.8"></path><path d="M 3363.80 726.30 L 3388.20 820.50 L 2986.50 1895.10 L 2949.90 1859.00 Z" fill="#545154" fill-rule="nonzero" group-id="1" node-id="403" stroke="none" target-height="1168.8" target-width="438.30005" target-x="2949.9" target-y="726.3"></path><path d="M 1656.70 1823.90 L 1598.80 1806.80 L 1552.00 1850.60 L 1505.20 1806.80 L 1447.30 1823.90 L 1422.80 1918.90 L 1552.00 1918.90 L 1681.10 1918.90 Z" fill="url(#SVGID_6_)" fill-rule="nonzero" group-id="1,5" node-id="407" stroke="none" target-height="112.099976" target-width="258.29993" target-x="1422.8" target-y="1806.8"></path><path d="M 1599.10 1738.60 C 1599.10 1771.96 1578.01 1799.00 1552.00 1799.00 C 1525.99 1799.00 1504.90 1771.96 1504.90 1738.60 C 1504.90 1705.24 1525.99 1678.20 1552.00 1678.20 C 1578.01 1678.20 1599.10 1705.24 1599.10 1738.60 Z" fill="url(#SVGID_7_)" fill-rule="nonzero" group-id="1,5" node-id="409" stroke="none" target-height="120.80005" target-width="94.19995" target-x="1504.9" target-y="1678.2"></path><path d="M 1426.50 1456.70 L 1387.80 1445.30 L 1356.60 1474.60 L 1325.40 1445.30 L 1286.70 1456.70 L 1270.40 1520.20 L 1356.60 1520.20 L 1442.80 1520.20 Z" fill="#152a52" fill-rule="nonzero" group-id="1,6" node-id="414" stroke="none" target-height="74.8999" target-width="172.40002" target-x="1270.4" target-y="1445.3"></path><path d="M 1388.10 1399.80 C 1388.10 1422.11 1374.00 1440.20 1356.60 1440.20 C 1339.20 1440.20 1325.10 1422.11 1325.10 1399.80 C 1325.10 1377.49 1339.20 1359.40 1356.60 1359.40 C 1374.00 1359.40 1388.10 1377.49 1388.10 1399.80 Z" fill="#152a52" fill-rule="nonzero" group-id="1,6" node-id="416" stroke="none" target-height="80.79993" target-width="63" target-x="1325.1" target-y="1359.4"></path><path d="M 881.80 1538.70 C 881.80 1563.70 902.00 1583.90 927.00 1583.90 L 1104.90 1583.90 C 1129.90 1583.90 1150.10 1563.70 1150.10 1538.70 L 1150.10 1518.00 L 881.80 1518.00 L 881.80 1538.70 Z" fill="#152a52" fill-rule="nonzero" group-id="1,7" node-id="421" stroke="none" target-height="65.900024" target-width="268.3" target-x="881.8" target-y="1518"></path><path d="M 881.80 1108.00 L 1150.10 1108.00 L 1150.10 1518.00 L 881.80 1518.00 Z" fill="#ffffff" fill-rule="nonzero" group-id="1,7" node-id="423" stroke="none" target-height="410" target-width="268.3" target-x="881.8" target-y="1108"></path><path d="M 881.80 1097.90 L 881.80 1107.90 L 1150.10 1107.90 L 1150.10 1097.90 C 1150.10 1072.90 1129.90 1052.70 1104.90 1052.70 L 927.00 1052.70 C 902.00 1052.70 881.80 1073.00 881.80 1097.90 Z" fill="#152a52" fill-rule="nonzero" group-id="1,7" node-id="425" stroke="none" target-height="55.200073" target-width="268.3" target-x="881.8" target-y="1052.7"></path><path d="M 1032.00 1549.60 C 1032.00 1559.26 1024.16 1567.10 1014.50 1567.10 C 1004.84 1567.10 997.00 1559.26 997.00 1549.60 C 997.00 1539.94 1004.84 1532.10 1014.50 1532.10 C 1024.16 1532.10 1032.00 1539.94 1032.00 1549.60 Z" fill="#ffffff" fill-rule="nonzero" group-id="1,7" node-id="427" stroke="none" target-height="35" target-width="35" target-x="997" target-y="1532.1"></path><path d="M 1004.30 1402.60 L 1004.30 1381.70 C 989.60 1381.00 975.30 1377.10 967.00 1372.30 L 973.60 1346.60 C 982.80 1351.70 995.80 1356.30 1010.00 1356.30 C 1022.50 1356.30 1031.10 1351.50 1031.10 1342.70 C 1031.10 1334.40 1024.10 1329.10 1007.80 1323.60 C 984.30 1315.70 968.30 1304.70 968.30 1283.40 C 968.30 1264.10 981.90 1248.90 1005.40 1244.30 L 1005.40 1223.40 L 1026.90 1223.40 L 1026.90 1242.70 C 1041.60 1243.40 1051.50 1246.40 1058.70 1249.90 L 1052.30 1274.70 C 1046.60 1272.30 1036.50 1267.20 1020.70 1267.20 C 1006.40 1267.20 1001.80 1273.30 1001.80 1279.50 C 1001.80 1286.70 1009.50 1291.40 1028.10 1298.40 C 1054.20 1307.60 1064.80 1319.70 1064.80 1339.50 C 1064.80 1359.00 1051.00 1375.70 1025.70 1380.10 L 1025.70 1402.50 L 1004.30 1402.50 Z" fill="#ffde70" fill-rule="nonzero" group-id="1,7" node-id="429" stroke="none" target-height="179.19995" target-width="97.80005" target-x="967" target-y="1223.4"></path><path d="M 395.60 2866.20 L 1386.90 2866.20 L 1386.90 2912.70 L 395.60 2912.70 Z" fill="#ffde70" fill-rule="nonzero" group-id="1" node-id="432" stroke="none" target-height="46.5" target-width="991.30005" target-x="395.6" target-y="2866.2"></path><path d="M 395.60 3031.20 L 1386.90 3031.20 L 1386.90 3077.70 L 395.60 3077.70 Z" fill="#ffde70" fill-rule="nonzero" group-id="1" node-id="434" stroke="none" target-height="46.5" target-width="991.30005" target-x="395.6" target-y="3031.2"></path><path d="M 395.60 2707.20 L 1386.90 2707.20 L 1386.90 2753.70 L 395.60 2753.70 Z" fill="#ffde70" fill-rule="nonzero" group-id="1" node-id="436" stroke="none" target-height="46.5" target-width="991.30005" target-x="395.6" target-y="2707.2"></path><path d="M 1772.00 1056.10 C 1772.00 1056.10 1747.70 1047.50 1744.20 1020.40 C 1740.70 993.40 1709.70 994.90 1707.80 973.00 C 1705.80 951.10 1703.10 936.60 1681.90 941.70 C 1660.70 946.80 1667.80 991.90 1683.50 1009.90 C 1699.20 1027.90 1667.40 1030.30 1652.20 1028.70 C 1636.90 1027.10 1604.40 1030.70 1619.30 1060.00 C 1602.20 1069.10 1610.40 1090.00 1625.00 1095.00 C 1612.50 1105.60 1621.50 1127.90 1631.10 1132.90 C 1622.70 1161.80 1651.50 1163.90 1676.20 1161.50 C 1700.90 1159.10 1750.30 1147.80 1770.20 1147.80 C 1772.80 1091.00 1772.00 1056.10 1772.00 1056.10 Z" fill="url(#SVGID_8_)" fill-rule="nonzero" group-id="1,8" node-id="440" stroke="none" target-height="227.30005" target-width="170.6001" target-x="1602.2" target-y="936.6"></path><path d="M 1768.30 1030.80 L 1811.80 1030.80 L 1811.80 1164.80 L 1768.30 1164.80 Z" fill="#ffffff" fill-rule="nonzero" group-id="1,8" node-id="442" stroke="none" target-height="134" target-width="43.5" target-x="1768.3" target-y="1030.8"></path><path d="M 1772.40 1544.00 L 1736.60 1519.20 L 1695.80 1534.60 L 1708.40 1492.80 L 1681.10 1458.80 L 1724.70 1457.90 L 1748.70 1421.50 L 1763.00 1462.60 L 1805.00 1474.10 L 1770.30 1500.50 Z" fill="#ffde70" fill-rule="nonzero" group-id="1" node-id="445" stroke="none" target-height="122.5" target-width="123.900024" target-x="1681.1" target-y="1421.5"></path><path d="M 438.90 2149.10 C 438.90 2149.10 473.10 2178.70 533.00 2143.20 C 558.70 2118.60 595.00 2121.00 595.00 2121.00" fill="none" group-id="1,9,12" node-id="451" stroke="#1a1a1a" stroke-linecap="round" stroke-width="3" target-height="60.099854" target-width="156.1" target-x="438.9" target-y="2118.6"></path><path d="M 416.90 2329.50 L 471.40 2160.40 L 530.20 2329.50" fill="none" group-id="1,9,12" node-id="453" stroke="#1a1a1a" stroke-linecap="round" stroke-width="3" target-height="169.1001" target-width="113.30002" target-x="416.9" target-y="2160.4"></path><path d="M 594.90 2095.10 L 594.90 2446.70" fill="none" group-id="1,9,12" node-id="455" stroke="#1a1a1a" stroke-linecap="round" stroke-width="3" target-height="351.59985" target-width="0" target-x="594.9" target-y="2095.1"></path><path d="M 555.90 2446.70 L 636.60 2446.70" fill="none" group-id="1,9,12" node-id="457" stroke="#1a1a1a" stroke-linecap="round" stroke-width="3" target-height="0" target-width="80.69995" target-x="555.9" target-y="2446.7"></path><path d="M 751.00 2149.10 C 751.00 2149.10 716.80 2178.70 656.90 2143.20 C 631.20 2118.60 594.90 2121.00 594.90 2121.00" fill="none" group-id="1,9,12" node-id="459" stroke="#1a1a1a" stroke-linecap="round" stroke-width="3" target-height="60.099854" target-width="156.09998" target-x="594.9" target-y="2118.6"></path><path d="M 772.90 2329.50 L 718.40 2160.40 L 659.60 2329.50" fill="none" group-id="1,9,12" node-id="461" stroke="#1a1a1a" stroke-linecap="round" stroke-width="3" target-height="169.1001" target-width="113.30005" target-x="659.6" target-y="2160.4"></path><path d="M 393.20 2329.50 C 392.70 2331.80 392.40 2334.10 392.40 2336.50 C 392.40 2364.10 429.00 2386.40 474.20 2386.40 C 519.40 2386.40 556.00 2364.10 556.00 2336.50 C 556.00 2334.10 555.70 2331.80 555.20 2329.50 L 393.20 2329.50 Z" fill="#ffb114" fill-rule="nonzero" group-id="1,9,12" node-id="463" stroke="none" target-height="56.899902" target-width="163.6" target-x="392.4" target-y="2329.5"></path><path d="M 796.60 2329.50 C 797.10 2331.80 797.40 2334.10 797.40 2336.50 C 797.40 2364.10 760.80 2386.40 715.60 2386.40 C 670.40 2386.40 633.80 2364.10 633.80 2336.50 C 633.80 2334.10 634.10 2331.80 634.60 2329.50 L 796.60 2329.50 Z" fill="#ffb114" fill-rule="nonzero" group-id="1,9,12" node-id="465" stroke="none" target-height="56.899902" target-width="163.60004" target-x="633.8" target-y="2329.5"></path><path d="M 617.80 2086.20 C 617.80 2098.85 607.55 2109.10 594.90 2109.10 C 582.25 2109.10 572.00 2098.85 572.00 2086.20 C 572.00 2073.55 582.25 2063.30 594.90 2063.30 C 607.55 2063.30 617.80 2073.55 617.80 2086.20 Z" fill="#ffde70" fill-rule="nonzero" group-id="1,9" node-id="468" stroke="none" target-height="45.80005" target-width="45.799988" target-x="572" target-y="2063.3"></path></g><path d="M 2210.90 1495.90 L 2161.30 1495.90 C 2161.30 1495.90 2197.60 1522.20 2210.90 1520.60 C 2210.90 1509.50 2210.90 1495.90 2210.90 1495.90 Z" fill="#db6767" fill-rule="nonzero" node-id="472" stroke="none" target-height="26.299927" target-width="49.599854" target-x="2161.3" target-y="1495.9"></path></svg>