<svg xml:space="preserve" style="enable-background:new 0 0 4000 4000;" viewBox="0 0 4000 4000" y="0px" x="0px" xmlns:xlink="http://www.w3.org/1999/xlink" xmlns="http://www.w3.org/2000/svg" id="Layer_1" version="1.1">
<style type="text/css">
	
		.Graphic_x0020_Style_x0020_26{fill:#FFFFFF;stroke:#1A1A1A;stroke-width:2;stroke-linecap:round;stroke-linejoin:round;stroke-miterlimit:10;}
	.Graphic_x0020_Style_x0020_129{fill:#1A1A1A;}
	.Graphic_x0020_Style_x0020_12{fill:#339E7E;}
	.Graphic_x0020_Style_x0020_115{fill:url(#SVGID_1_);}
	.Graphic_x0020_Style_x0020_13{fill:url(#SVGID_2_);}
	
		.Graphic_x0020_Style_x0020_14{fill:none;stroke:#1A1A1A;stroke-width:3;stroke-linecap:round;stroke-linejoin:round;stroke-miterlimit:10;}
	.Graphic_x0020_Style_x0020_143{fill:#FFCF4A;}
	.Graphic_x0020_Style_x0020_122{fill:#FFB114;}
	.Graphic_x0020_Style_x0020_15{fill:#FFCF4A;}
	.Graphic_x0020_Style_x0020_144{fill:#DB6767;}
	.Graphic_x0020_Style_x0020_128{fill:#102140;}
	.Graphic_x0020_Style_x0020_16{fill:#DB6767;}
	
		.Graphic_x0020_Style_x0020_17{fill:none;stroke:#FFFFFF;stroke-width:2;stroke-linecap:round;stroke-linejoin:round;stroke-miterlimit:10;}
	
		.Graphic_x0020_Style_x0020_45{fill:none;stroke:#1A1A1A;stroke-width:3;stroke-linecap:round;stroke-linejoin:round;stroke-miterlimit:10;}
	
		.Graphic_x0020_Style_x0020_46{fill:none;stroke:#1A1A1A;stroke-width:2;stroke-linecap:round;stroke-linejoin:round;stroke-miterlimit:10;}
	.Graphic_x0020_Style_x0020_102{fill:#FFFFFF;}
	.Graphic_x0020_Style_x0020_136{fill:url(#SVGID_3_);}
	.Graphic_x0020_Style_x0020_120{fill:#6584C6;}
	.st0{fill:#B9B4B9;}
	.st1{fill:#545154;}
	.st2{fill:#DBD2DB;}
	.st3{fill:#FFFFFF;}
	
		.st4{fill:none;stroke:#E2B433;stroke-width:2;stroke-linecap:round;stroke-linejoin:round;stroke-miterlimit:10;stroke-dasharray:12;}
	.st5{fill:none;stroke:#DB3019;stroke-width:3;stroke-linecap:round;stroke-linejoin:round;stroke-miterlimit:10;}
	.st6{fill:url(#SVGID_4_);}
	.st7{fill:#127755;}
	.st8{fill:#339E7E;}
	.st9{fill:#D7EFFF;}
	.st10{fill:url(#SVGID_5_);}
	.st11{opacity:0.5;fill:#152A52;}
	.st12{fill:#FC9590;}
	.st13{fill:#FFDE70;}
	.st14{fill:#FFB114;}
	.st15{fill:#1A1A1A;}
	.st16{fill:#152A52;}
	.st17{fill:#102140;}
	.st18{fill:url(#SVGID_6_);}
	.st19{fill:#EF5668;}
	.st20{fill:#CCC4CC;}
	.st21{fill:url(#SVGID_7_);}
	.st22{fill:#1A1A1A;stroke:#1A1A1A;stroke-width:2;stroke-linecap:round;stroke-linejoin:round;stroke-miterlimit:10;}
	.st23{fill:url(#SVGID_8_);}
	.st24{fill:url(#SVGID_9_);}
	.st25{fill:none;stroke:#E2B433;stroke-width:2;stroke-linecap:round;stroke-linejoin:round;}
	.st26{fill:none;stroke:#E2B433;stroke-width:2;stroke-linecap:round;stroke-linejoin:round;stroke-dasharray:11.8181,11.8181;}
	.st27{fill:none;stroke:#E2B433;stroke-width:2;stroke-linecap:round;stroke-linejoin:round;stroke-dasharray:11.6567,11.6567;}
</style>
<linearGradient y2="0" x2="1" y1="0" x1="0" gradientUnits="userSpaceOnUse" id="SVGID_1_">
	<stop style="stop-color:#4085F0" offset="0"></stop>
	<stop style="stop-color:#275DC9" offset="1"></stop>
</linearGradient>
<linearGradient y2="0" x2="1" y1="0" x1="0" gradientUnits="userSpaceOnUse" id="SVGID_2_">
	<stop style="stop-color:#4085F0" offset="0"></stop>
	<stop style="stop-color:#275DC9" offset="1"></stop>
</linearGradient>
<linearGradient y2="0" x2="1" y1="0" x1="0" gradientUnits="userSpaceOnUse" id="SVGID_3_">
	<stop style="stop-color:#4085F0" offset="0"></stop>
	<stop style="stop-color:#275DC9" offset="1"></stop>
</linearGradient>
<g>
	<g>
		<polygon points="549.8,393.3 677,1829.8 2370.3,2035.7 2411.1,1988.9 2233.8,750.2 590.6,346.5" class="st0"></polygon>
		<polygon points="717.8,1783 677,1829.8 2370.3,2035.7 2411.1,1988.9" class="st1"></polygon>
		<polygon points="590.6,346.5 717.8,1783 2411.1,1988.9 2274.7,703.4" class="st2"></polygon>
		<polygon points="762.1,1645.1 770.6,1741.5 2349.7,1933.5 2340,1842" class="Graphic_x0020_Style_x0020_120"></polygon>
		<polygon points="2222.5,734.7 652,401.9 762.1,1645.1 2340,1842" class="st3"></polygon>
		<line y2="1808.8" x2="1517.9" y1="715.9" x1="1418.4" class="st4"></line>
		<path d="M830.4,1167.7c0,0,173.1,45.8,323.1-201.7c150-247.5,194.4,167.3,311.9,248.5
			c117.5,81.2,151.6-271.8,287.3-316s368.1,75.7,426.7,29.7" class="st5"></path>
		<path d="M830.4,1331.5c0,0,209.3-255.7,402.6-55.7s415.3,214.5,535.4,15.3s449,142.3,449,142.3" class="st5"></path>
		<path d="M846.5,1555.8c0,0,287.3-241.9,467.5-44.6s602.8,331.5,637.7-50.4c34.9-382,253-210.5,253-210.5" class="st5"></path>
		<linearGradient y2="655.1043" x2="2217.4824" y1="655.1043" x1="677.0148" gradientUnits="userSpaceOnUse" id="SVGID_4_">
			<stop style="stop-color:#4085F0" offset="0"></stop>
			<stop style="stop-color:#275DC9" offset="1"></stop>
		</linearGradient>
		<polygon points="677,452.1 2207.4,773.9 2217.5,858.1 686.3,549.8" class="st6"></polygon>
		<circle r="26.1" cy="518.3" cx="753.4" class="Graphic_x0020_Style_x0020_102"></circle>
		<circle r="26.1" cy="544.5" cx="905" class="Graphic_x0020_Style_x0020_102"></circle>
		<circle r="26.1" cy="570.6" cx="1056.6" class="Graphic_x0020_Style_x0020_102"></circle>
	</g>
	<g>
		<path d="M3198.7,2486.7c0,0-292.5,474.2-125.1,873.6" class="Graphic_x0020_Style_x0020_45"></path>
		<g>
			<path d="M3406.9,2527.4c-14.8,28.9-52,39.3-83.1,23.4c31.1,16,44.4,52.3,29.6,81.2c-14.8,28.9-52,39.3-83.2,23.4
				c-11.3-5.8-25.5-29.4-31.6-39.3c5.8,15.1,10.8,47.1,3.2,62c-12.5,24.4-40.8,35.7-68.1,29.4c-5.3-1.3-10.6-3.2-15.7-5.8
				c-5.1-2.6-9.8-5.8-13.9-9.4c-17-14.9-25.1-37-21-57.8c-14.5,15.4-37.2,21.8-59.2,16.7c-5.3-1.3-10.6-3.2-15.7-5.8
				c-5.1-2.6-9.8-5.8-13.9-9.4c-21.1-18.4-28.4-48.1-16-72.4c7.6-14.9,41-28.2,56.6-32.3c-11.5,0.8-43.4,1.7-54.8-4.1
				c-31.1-15.9-44.4-52.3-29.6-81.2c14.8-28.9,52-39.3,83.2-23.4c-31.1-16-44.4-52.3-29.6-81.2c14.8-28.9,52-39.3,83.2-23.4
				c11.3,5.8,24.9,21.6,31,31.4c-5.8-15.1-10.3-39.3-2.6-54.2c12.5-24.4,40.8-35.7,68.1-29.4c5.3,1.3,10.6,3.2,15.7,5.8
				c5.1,2.6,9.8,5.8,13.9,9.4c17,14.9,25.1,37,21,57.8c14.5-15.4,37.2-21.8,59.2-16.7c5.3,1.3,10.6,3.2,15.7,5.8
				c5.1,2.6,9.8,5.8,13.9,9.4c21.1,18.4,28.4,48.1,15.9,72.4c-7.6,14.9-30.4,25-46.1,29.1c11.6-0.8,32.9,1.5,44.2,7.3
				C3408.4,2462.2,3421.7,2498.5,3406.9,2527.4z" class="st7"></path>
			<path d="M3073.7,2422.7c35.3,38.3,75.8,62.8,125,64.1c-41.1,34.8-62,88-75.7,147.8" class="Graphic_x0020_Style_x0020_46"></path>
			<path d="M3274.4,2338.9c-11.4,64.6-37.2,113.3-75.7,147.8c29.6,31.2,74.7,49.8,125,64.1" class="Graphic_x0020_Style_x0020_46"></path>
		</g>
	</g>
	<g>
		<path d="M3459.6,2886c0,0-432,63.3-587.5,364.9" class="Graphic_x0020_Style_x0020_45"></path>
		<g>
			<path d="M3539.7,3030.8c-24.7,5.6-49.6-11.4-55.7-38c6.1,26.6-9,52.8-33.7,58.4c-24.7,5.6-49.6-11.4-55.7-38
				c-2.2-9.7,4.8-30,7.6-38.6c-6.1,11.1-22.7,30.1-35.5,33c-20.8,4.8-41.8-6.5-51.7-26c-1.9-3.8-3.4-7.9-4.4-12.3
				c-1-4.4-1.4-8.7-1.3-13c0.4-17.6,9.5-33.6,24-41.5c-16.5-0.9-31.7-11.3-39.6-27c-1.9-3.8-3.4-7.9-4.4-12.3c-1-4.4-1.4-8.7-1.3-13
				c0.4-21.9,14.5-41.1,35.3-45.9c12.7-2.9,37.4,10.4,47.7,17.7c-6.3-6.5-22.8-25.1-25.1-34.8c-6.1-26.6,9-52.8,33.7-58.4
				c24.7-5.6,49.6,11.4,55.7,38c-6.1-26.6,9-52.8,33.7-58.4c24.7-5.6,49.6,11.4,55.7,38c2.2,9.7-0.4,25.7-3.2,34.3
				c6.1-11.1,18.3-25.8,31.1-28.7c20.8-4.7,41.8,6.5,51.7,26c1.9,3.8,3.4,7.9,4.4,12.3c1,4.4,1.4,8.7,1.3,13
				c-0.4,17.6-9.5,33.6-24,41.6c16.5,0.9,31.7,11.3,39.6,27c1.9,3.8,3.4,7.9,4.4,12.3s1.4,8.7,1.3,13c-0.4,21.9-14.5,41.1-35.3,45.9
				c-12.7,2.9-30.2-5.7-40.5-13c6.3,6.5,15.6,20.4,17.8,30.1C3579.5,2999.1,3564.4,3025.2,3539.7,3030.8z" class="st8"></path>
			<path d="M3435.2,2779.1c-5.2,40.3,0.5,76.8,24.4,106.9c-41.5-7.1-83.8,7.1-126.4,28.9" class="Graphic_x0020_Style_x0020_46"></path>
			<path d="M3586,2857.1c-44.4,25.6-86.4,34.6-126.4,28.9c-3.8,33.4,7.7,69.7,24.4,106.9" class="Graphic_x0020_Style_x0020_46"></path>
		</g>
	</g>
	<g>
		<path d="M799.7,2741.3c0,0-3.7,354.1,218.5,516.6" class="Graphic_x0020_Style_x0020_45"></path>
		<g>
			<path d="M918,2680.7c1.5,21-15.7,39.3-38.4,40.8c22.6-1.6,42.2,14.2,43.6,35.2c1.5,21-15.7,39.3-38.4,40.8
				c-8.2,0.6-24-7.8-30.7-11.2c8.3,6.4,21.8,22.6,22.5,33.4c1.2,17.7-10.7,33.5-28,39.1c-3.4,1.1-7,1.8-10.7,2.1
				c-3.7,0.3-7.4,0-10.9-0.6c-14.4-2.6-26.3-12.2-31-25.1c-2.9,13.4-13.4,24.6-27.3,29.1c-3.4,1.1-7,1.8-10.7,2.1
				c-3.7,0.3-7.4,0-10.9-0.6c-17.9-3.2-31.9-17.2-33.1-34.9c-0.8-10.8,13.3-29.4,20.7-36.9c-6.1,4.3-23.5,15.5-31.8,16.1
				c-22.6,1.6-42.2-14.2-43.6-35.2c-1.4-21,15.7-39.3,38.4-40.8c-22.6,1.6-42.2-14.2-43.6-35.2c-1.5-21,15.7-39.3,38.4-40.8
				c8.2-0.6,21.1,3.6,27.8,7.1c-8.3-6.4-18.8-18.4-19.6-29.2c-1.2-17.7,10.7-33.5,28-39.1c3.4-1.1,7-1.8,10.7-2.1
				c3.7-0.3,7.4,0,10.9,0.6c14.4,2.6,26.3,12.2,31,25c2.9-13.4,13.3-24.6,27.3-29.1c3.4-1.1,7-1.8,10.7-2.1c3.7-0.3,7.4,0,10.9,0.6
				c17.9,3.2,31.9,17.2,33.1,34.9c0.8,10.8-8.6,24-15.9,31.6c6.2-4.3,18.8-10.2,27-10.7C897,2644,916.5,2659.7,918,2680.7z" class="st7"></path>
			<path d="M697.8,2734.1c32.4,9.5,63.1,9.5,90.9-6.3c-11.2,33.1-5,69.7,7.4,107.5" class="Graphic_x0020_Style_x0020_46"></path>
			<path d="M781.3,2620.3c15.3,39.7,17.3,75.4,7.4,107.5c26.9,7.4,58.2,2.6,90.9-6.3" class="Graphic_x0020_Style_x0020_46"></path>
		</g>
	</g>
	<g>
		<path d="M402,3067.7c0,0,484.6-130,786,117.6" class="Graphic_x0020_Style_x0020_45"></path>
		<g>
			<path d="M383.4,3257.1c28.6-5.3,47.2-34.6,41.5-65.4c5.7,30.9,33.5,51.6,62.1,46.3c28.6-5.3,47.2-34.6,41.5-65.4
				c-2.1-11.2-18.7-29.5-25.6-37.3c11.5,8.9,37.7,21.4,52.5,18.7c24.1-4.4,41.2-25.9,42.8-51c0.3-4.9,0-9.9-0.9-15
				c-0.9-5.1-2.5-9.9-4.5-14.4c-8.4-18.4-25.3-31.1-44.2-32.9c17-8.5,28.3-26.3,29.5-46.6c0.3-4.9,0-9.9-0.9-15
				c-0.9-5.1-2.5-9.9-4.5-14.4c-10.4-22.9-34-36.8-58.1-32.3c-14.8,2.7-34.8,28-42.3,40.4c3.7-9.7,12.7-36.9,10.6-48.1
				c-5.7-30.9-33.5-51.6-62.1-46.3c-28.6,5.3-47.2,34.6-41.5,65.5c-5.7-30.9-33.5-51.6-62.1-46.3c-28.6,5.3-47.2,34.6-41.5,65.4
				c2.1,11.2,12.1,27,19,34.7c-11.5-8.9-31.1-18.9-45.9-16.2c-24.1,4.5-41.2,25.9-42.8,51c-0.3,4.9,0,9.9,0.9,15
				c0.9,5.1,2.5,9.9,4.5,14.4c8.4,18.4,25.3,31.1,44.2,32.9c-17,8.5-28.3,26.3-29.5,46.6c-0.3,4.9,0,9.9,0.9,15
				c0.9,5.1,2.5,9.9,4.5,14.4c10.4,22.9,34,36.8,58.1,32.3c14.8-2.7,29.3-19.7,36.8-32.1c-3.7,9.7-7.2,28.6-5.1,39.9
				C327,3241.7,354.8,3262.4,383.4,3257.1z" class="st8"></path>
			<path d="M379.1,2943.8c23.9,40.2,34.5,81.3,22.9,123.9c40.5-26.4,91.6-30.7,146.5-27.1" class="Graphic_x0020_Style_x0020_17"></path>
			<path d="M255.5,3094.8c58.5,6.8,106.9-2.8,146.5-27.1c19.2,33.5,23.5,77,22.9,123.9" class="Graphic_x0020_Style_x0020_17"></path>
		</g>
	</g>
	<path d="M948.9,3438c-51.8-168.9-23-352,73.3-459.9c132.1-147.8,380.1-142,539.3,55.6
		c18.2-53.1,99.8-273.5,310.7-389.1c271.2-148.8,526.6,1.8,556.6,20.2c84.5-117.9,215.2-174.6,340.9-146.5
		c144.7,32.3,259.3,171.7,284.8,348.7c37.8,19.2,101.6,60.2,146.7,141.5c73,131.6,66.6,313.8-12.9,470
		C2441.8,3464.9,1695.4,3451.4,948.9,3438z" class="st9"></path>
	<linearGradient y2="3484.8113" x2="3345.2625" y1="3484.8113" x1="154.5519" gradientUnits="userSpaceOnUse" id="SVGID_5_">
		<stop style="stop-color:#68B2FC" offset="0"></stop>
		<stop style="stop-color:#529BF7" offset="1"></stop>
	</linearGradient>
	<path d="M3028.4,3432.4c6.7-5.1,10.2-10.4,10.2-15.8c0-55.5-370.8-100.5-828.1-100.5c-374.9,0-691.6,30.2-793.6,71.7
		c-24.5,0.8-48.7,1.6-72.5,2.5c-110.4-5.1-234.9-8-366.6-8c-454.6,0-823.1,34.3-823.1,76.7c0,22.2,101.6,42.3,263.9,56.3
		c-0.1,0.6-0.2,1.3-0.2,1.9c0,75.3,655.2,136.3,1463.5,136.3s1463.5-61,1463.5-136.3C3345.3,3485.1,3226.8,3455.7,3028.4,3432.4z" class="st10"></path>
	<ellipse ry="82.3" rx="625.9" cy="3478.4" cx="1897.8" class="st11"></ellipse>
	<path d="M1448,881.3c-7.5,0.9-13.9-2.4-18-7.9c-0.9,5.1-0.4,10.6,2.4,16.4
		c13.5,28.1,50.8,24.4,50.8,24.4l25.3,42.1l23-3.2C1511.7,918.4,1495.2,879.4,1448,881.3z" class="Graphic_x0020_Style_x0020_16"></path>
	<path d="M1420.1,773c-11.2,19.1,37.7,67.5,37.7,67.5s-24.4,13.3-27.8,32.8c4.1,5.5,10.5,8.9,18,7.9
		c47.2-1.9,63.8,37.1,83.5,71.8l35.7-4.9C1567.2,948.2,1431.3,753.9,1420.1,773z" class="st12"></path>
	<path d="M1689.8,1203.7c-17.1-24.4-41.5-36.6-56.2-61.1c-44.7-73.8-85.4-141.4-140.6-201
		c-5,4.5-9.4,9.8-12.6,16.2c104.4,204.4,187.1,392.4,289.6,482.8c76.6,68.8,161.7,99.5,161.7,99.5s37.2,21,87.7,14.3l-13.8-76.3
		c-50.9-8.8-99.8-28.3-144.8-54.6C1777.7,1374.7,1746,1284.3,1689.8,1203.7z" class="Graphic_x0020_Style_x0020_122"></path>
	<path d="M1806.7,1248.1c-65-70.6-251.5-329.7-251.5-329.7s-38.5,2.1-62.2,23.3c55.2,59.6,95.9,127.2,140.6,201
		c14.7,24.4,39.1,36.6,56.2,61.1c56.2,80.6,87.9,171,171,219.8c44.9,26.3,93.8,45.8,144.8,54.6l-13.3-73.5
		C1992.2,1404.7,1871.7,1318.7,1806.7,1248.1z" class="st13"></path>
	<path d="M1787.3,1416.3c0.6-1.9,62.1-91.6,124.8-84.8c-43.5,74.1-105.1,130.7-106.8,126.5
		C1803.6,1453.9,1787.3,1416.3,1787.3,1416.3z" class="st14"></path>
	<path d="M2035.9,3329.8c-9.8-17.3-20.9-46.9-30.4-75.3c-29.4,27.8-73.1,40.8-114.3,45.9c4.7,25.9,5.1,58.6-14.6,79.4
		c-36.9,38.9-138.8,50.8-127.3,87.3s154.8,9.3,202.2-16.2c11.4-6.1,23.6-14,35.2-23c3.5-2.7-0.1,6.7,9.7,7.6
		c26.2,2.3,77.3-43.6,57.7-61C2041.6,3363.3,2041.7,3340,2035.9,3329.8z" class="st15"></path>
	<path d="M1982.7,3179.9l-102.9,80.3c0,0,7.3,17.6,11.4,40.2c41.2-5.1,84.9-18.1,114.3-45.9
		C1992.7,3216,1982.7,3179.9,1982.7,3179.9z" class="Graphic_x0020_Style_x0020_26"></path>
	<path d="M1855.9,2837.8c-9.8-141.7,4.9-280.9,34.2-425c26.9-136.8,61.1-266.2,26.9-405.5c-0.9-3.4-1.6-6.8-2.3-10.2
		l-89.2-43.7l-63,274c0,0-19.9,451.3-12.7,554.6c7.3,103.3,102.6,466.4,126.2,486.4c16.5,14,70.1-10.8,100.5-26.7
		c-26.1-60.5-61.1-117.7-79.1-184.1C1877.9,2984.3,1858.3,2913.5,1855.9,2837.8z" class="st16"></path>
	<path d="M1992.7,2035.3l-78-38.2c0.7,3.4,1.5,6.8,2.3,10.2c34.2,139.2,0,268.7-26.9,405.5
		c-29.3,144.1-44,283.3-34.2,425c2.4,75.7,22,146.6,41.5,219.8c17.9,66.4,53,123.5,79.1,184.1c12.9-6.8,21.6-12,21.6-12
		s-68.9-384.2-68.9-467.6c0-83.4,59.8-396.9,85.3-549.2C2040,2060.7,1992.7,2035.3,1992.7,2035.3z" class="Graphic_x0020_Style_x0020_128"></path>
	<path d="M1775.2,2926c0.7,3.2,169.1,133.7,184.4,75.3c-4.8-75.8-4.8-75.8-4.8-75.8l-183.7-51.3l5.6,58.4" class="st15"></path>
	<path d="M1752.3,2685.8c0.7,3.2,168,209.1,183.3,150.7c-4.8-75.8-6.1-90.4-6.1-90.4l-181.3-112.2l5.6,58.4" class="st15"></path>
	<path d="M1949.2,2127.8l-192.3,237.7l-2.5,69.2C1754.5,2434.7,1984.9,2217.2,1949.2,2127.8z" class="Graphic_x0020_Style_x0020_129"></path>
	<path d="M2024.1,2874.2c-47.6-15.2-101.8-37.7-101.8-37.7V2967c0,0,54.7,15,80.2,48.6
		c9.2-15.8,17.3-32,24.9-48.2C2041.5,2937.3,2034.4,2904.6,2024.1,2874.2z" class="Graphic_x0020_Style_x0020_26"></path>
	<path d="M2073.1,2886.8c-13-1.9-30.5-6.7-49.1-12.6c10.4,30.4,17.4,63.1,3.3,93.2c-7.6,16.2-15.7,32.5-24.9,48.2
		c6.1,8.1,10.6,17.2,12.1,27.5c8,53-8,163.1,30,167.2c38.1,4.1,67.2-133.9,76.2-186.9c1-6.1,1.8-12.5,2.3-19
		c0.4-4.7,12.2,2.1,12.3-2.7c0.4-33-7.4-88.6-24.1-108.4C2104,2884.8,2084.3,2888.4,2073.1,2886.8z" class="st15"></path>
	<path d="M1650.7,2664.4c-41.5-44-75.7-92.8-95.3-149c-22-56.2,24.4-107.5,70.8-144.1
		c138.1-114.3,320.4-231,297.7-426.9l-2.4-12.3c-94.2-37.2-226.2-41.8-226.2-41.8s-358.4,482.9-327.6,660.5
		c30.8,177.6,545.1,459.6,577.7,437.9c19.5-13,31.9-55.2,27.4-95.5c-68.3-33.2-131.4-78.5-197.7-123.7
		C1728.9,2735.2,1687.4,2705.9,1650.7,2664.4z" class="st16"></path>
	<path d="M1938.3,2823.7c-52.6-39.9-353.5-313.6-284.6-369.7
		c38.4-31.4,148.6-123.1,237.1-219.5c0,0,51.4-45.2,69.9-98.3l-36.8-191.9c22.7,196-159.5,312.6-297.7,426.9
		c-46.4,36.6-92.8,87.9-70.8,144.1c19.5,56.2,53.7,105,95.3,149c36.6,41.5,78.2,70.8,124.6,105c66.3,45.3,129.3,90.5,197.7,123.7
		C1970,2866,1959.4,2839.7,1938.3,2823.7z" class="Graphic_x0020_Style_x0020_128"></path>
	<path d="M1938,1311c0,0,23.1-55.7,24.5-85.6c-31.3,15-62.5-27.2-59.8-110.1c2.7-82.9,42.1-103.3,122.3-81.6
		c80.2,21.7,23.1,295,23.1,295s-127.8,42.1-126.4,17.7C1923.1,1321.9,1938,1311,1938,1311z" class="st12"></path>
	<path d="M1994.5,1208.9l-32,16.4l-2.2,16.3C1960.3,1241.7,1991,1218.8,1994.5,1208.9z" class="Graphic_x0020_Style_x0020_144"></path>
	<path d="M2141.7,1470.6c-2.2-59.9-17.8-99.8-37.9-126.3c1.9,148.2,19.6,308.6-116,406.6
		c-29.3,22-63.5,34.2-97.7,34.2c-71.8,0-151.1,15.1-222.7-1.6c-8.5,35.5-13.2,62.8-13.7,76.5c-2.7,76.1,373.8,228.4,373.8,228.4
		S2148.5,1652.7,2141.7,1470.6z" class="Graphic_x0020_Style_x0020_15"></path>
	<path d="M1890.1,1785.1c34.2,0,68.4-12.2,97.7-34.2c135.6-98,118-258.4,116-406.6c-41-54.3-100.6-53.1-103.5-53.1
		c-174.9,0-294.1,331-332.9,492.3C1739,1800.1,1818.3,1785.1,1890.1,1785.1z" class="st13"></path>
	<path d="M1696,2141.1c-20.3-20.7-33.8-46.5-42.6-68.7l26.1-22.9c0,0,33.8,41.7,36.4,50.9
		C1717.8,2107.4,1707.7,2138.9,1696,2141.1z" class="st12"></path>
	<path d="M1785.1,2031.8c87.9-129.5,190.5-239.4,212.5-393.2c8.9-68.3,15.1-136.6,17.5-204.9
		c-16.7,21.8-29,49.3-37,75.5c-64.7,214.7-149,422.9-285.9,597.7c5.1,8.8,11.2,16.4,18.5,21.1c11.2-8.1,21-19.7,32.9-27.7
		C1768,2085.5,1768,2056.2,1785.1,2031.8z" class="Graphic_x0020_Style_x0020_15"></path>
	<path d="M2041.1,1470.5c0,0,1.2-24.3-10.5-54.2c-5.6,5.2-10.7,11-15.5,17.3
		c-2.4,68.3-8.6,136.6-17.5,204.9c-22,153.9-124.6,263.8-212.5,393.2c-17.1,24.4-17.1,53.7-41.5,68.4c-12,8-21.8,19.6-32.9,27.7
		c4.8,3.1,10.2,5,16,5c135.9-184.9,263-341.1,297.9-473.1C2051.7,1560.4,2041.1,1470.5,2041.1,1470.5z" class="Graphic_x0020_Style_x0020_122"></path>
	<path d="M1761.2,1802.1c0,0,121.6-199.7,116.3-300.3c3.3-128,78.9-183.9,147.3-98.5
		c-63.9,247.9-232.3,425.5-232.3,425.5L1761.2,1802.1z" class="Graphic_x0020_Style_x0020_143"></path>
	<path d="M1892.8,1477.1c0,0-22.9,146.3-56.9,236c-34,89.7-164.8,332.1-164.8,332.1s6.1,35.7,21,61.5
		c137-174.8,221.3-383,285.9-597.7c10.4-33.7,27.6-69.5,52.5-92.8c-3.8-9.8-9-20.2-16-30.5
		C1946.4,1355.3,1904.2,1382.2,1892.8,1477.1z" class="st13"></path>
	<path d="M1716.1,2158c-15.6-6.8-9-5.6-20.1-16.9c-20.3-20.7-33.8-46.5-42.6-68.7
		c-10.9-27.7-6.6-18.6-6.6-18.6" class="Graphic_x0020_Style_x0020_14"></path>
	<path d="M1900,1030.3c0,0-11.7,28.6,54,41.3c88.1,16.9,64,27,64,27l-14.3,50.5c0,0,9.8,13.5,20-16
		c10.3-29.5,29.7-14.3,33.9-0.8c4.2,13.5-9.3,71.6-9.3,71.6s28.6,18.5,43,6.7c14.3-11.8,25.3-170.1-16.8-204.7
		C2032.4,971.4,1905.8,984,1900,1030.3z" class="st17"></path>
	<linearGradient y2="2206.6292" x2="628.3994" y1="2206.6292" x1="471.214" gradientUnits="userSpaceOnUse" id="SVGID_6_">
		<stop style="stop-color:#4085F0" offset="0"></stop>
		<stop style="stop-color:#275DC9" offset="1"></stop>
	</linearGradient>
	<path d="M628.4,2206.6c0,43.4-35.2,78.6-78.6,78.6s-78.6-35.2-78.6-78.6s35.2-78.6,78.6-78.6
		S628.4,2163.2,628.4,2206.6z" class="st18"></path>
	<ellipse ry="55.6" rx="55.6" cy="2550.8" cx="284.7" class="st19"></ellipse>
	<ellipse ry="72.2" rx="72.2" cy="2038.9" cx="2896.8" class="st13"></ellipse>
	<ellipse ry="102.1" rx="102.1" cy="2415" cx="2492" class="st20"></ellipse>
	<linearGradient y2="2565.6775" x2="3845.4482" y1="2565.6775" x1="3736.4426" gradientUnits="userSpaceOnUse" id="SVGID_7_">
		<stop style="stop-color:#4085F0" offset="0"></stop>
		<stop style="stop-color:#275DC9" offset="1"></stop>
	</linearGradient>
	<path d="M3845.4,2565.7c0,30.1-24.4,54.5-54.5,54.5c-30.1,0-54.5-24.4-54.5-54.5s24.4-54.5,54.5-54.5
		C3821,2511.2,3845.4,2535.6,3845.4,2565.7z" class="st21"></path>
	<path d="M1902.5,1331.5c0,0,4.4-32.8,29.6-46.3c25.3-13.5,149.1-8.4,149.1-8.4l-13.4,48.8
		C2067.8,1325.6,1938.6,1294.5,1902.5,1331.5z" class="st22"></path>
	<g>
		<rect height="261.1" width="261.1" class="st2" y="1715.9" x="3239.1"></rect>
		<polygon points="3276.1,1818.5 3372.1,1914.5 3586.8,1699.8 3550.8,1663.8 3372.1,1842.6 
			3312.1,1782.6 3276.1,1818.5" class="Graphic_x0020_Style_x0020_12"></polygon>
	</g>
	<linearGradient y2="998.2963" x2="3173.8589" y1="998.2963" x1="2370.4119" gradientUnits="userSpaceOnUse" id="SVGID_8_">
		<stop style="stop-color:#4085F0" offset="0"></stop>
		<stop style="stop-color:#275DC9" offset="1"></stop>
	</linearGradient>
	<path d="M3116.6,1040.1h-596.5l-120,149.7l27.5-149.7c-31.6,0-57.2-25.6-57.2-57.2V864c0-31.6,25.6-57.2,57.2-57.2
		h689c31.6,0,57.2,25.6,57.2,57.2v118.9C3173.9,1014.5,3148.2,1040.1,3116.6,1040.1z" class="st23"></path>
	<g>
		<rect height="466.9" width="310.4" class="st20" y="1214.5" x="2648.5"></rect>
		<linearGradient y2="1352.1071" x2="2936.5854" y1="1352.1071" x1="2678.0217" gradientUnits="userSpaceOnUse" id="SVGID_9_">
			<stop style="stop-color:#4085F0" offset="0"></stop>
			<stop style="stop-color:#275DC9" offset="1"></stop>
		</linearGradient>
		<path d="M2678,1250.2h258.6v132.2c0,0-23.6-54.7-64.9-54.7c-41.3,0-48.8,63.2-75.8,63.2c-27,0-117.9,63.2-117.9,63.2
			V1250.2z" class="st24"></path>
		<rect height="19.2" width="254.4" class="st3" y="1491.9" x="2678.9"></rect>
		<rect height="19.2" width="254.4" class="st3" y="1544" x="2678.9"></rect>
		<rect height="19.2" width="254.4" class="st3" y="1596.2" x="2678.9"></rect>
	</g>
	<rect height="28.5" width="553.3" class="st3" y="882.1" x="2523.4"></rect>
	<rect height="28.5" width="553.3" class="st3" y="940.4" x="2524.2"></rect>
	<g>
		<g>
			<line y2="626" x2="748.3" y1="611.4" x1="746.9" class="st25"></line>
			<line y2="1675.3" x2="843.8" y1="654.7" x1="750.9" class="st26"></line>
			<line y2="1704.2" x2="846.5" y1="1689.6" x1="845.1" class="st25"></line>
		</g>
	</g>
	<g>
		<g>
			<line y2="872.6" x2="2169.5" y1="858.1" x1="2167.7" class="st25"></line>
			<line y2="1847.7" x2="2288.2" y1="900.9" x1="2172.9" class="st27"></line>
			<line y2="1876.4" x2="2291.7" y1="1861.8" x1="2289.9" class="st25"></line>
		</g>
	</g>
</g>
</svg>
