<svg xml:space="preserve" style="enable-background:new 0 0 4000 4000;" viewBox="0 0 4000 4000" y="0px" x="0px" xmlns:xlink="http://www.w3.org/1999/xlink" xmlns="http://www.w3.org/2000/svg" id="Layer_1" version="1.1">
<style type="text/css">
	.Graphic_x0020_Style_x0020_216{fill:#1A1A1A;}
	.Graphic_x0020_Style_x0020_78{fill:#FFDE70;}
	.Graphic_x0020_Style_x0020_80{fill:#FFB114;}
	.Graphic_x0020_Style_x0020_89{fill:#EB485C;}
	.Graphic_x0020_Style_x0020_88{fill:#D1334A;}
	.Graphic_x0020_Style_x0020_449{fill:#1C0311;stroke:#1A1A1A;stroke-linecap:round;stroke-linejoin:round;stroke-miterlimit:10;}
	.Graphic_x0020_Style_x0020_450{fill:#B080B0;}
	.Graphic_x0020_Style_x0020_451{fill:#CCC4CC;}
	.Graphic_x0020_Style_x0020_452{fill:#DB6767;}
	.Graphic_x0020_Style_x0020_453{fill:#912433;}
	.Graphic_x0020_Style_x0020_454{fill:#152A52;}
	.Graphic_x0020_Style_x0020_455{fill:#D1334A;}
	.Graphic_x0020_Style_x0020_456{fill:#102140;}
	.st0{fill:#00593B;}
	.st1{fill:none;stroke:#134411;stroke-width:3;stroke-linecap:round;stroke-linejoin:round;stroke-miterlimit:10;}
	.st2{fill:#127755;}
	.st3{fill:#339E7E;}
	.st4{fill:none;stroke:#FFFFFF;stroke-width:3;stroke-linecap:round;stroke-linejoin:round;stroke-miterlimit:10;}
	.st5{fill:#1A1A1A;}
	.st6{fill:url(#SVGID_1_);}
	.st7{fill:url(#SVGID_2_);}
	.st8{opacity:0.5;fill:#152A52;}
	.st9{fill:#1C0311;stroke:#1A1A1A;stroke-linecap:round;stroke-linejoin:round;stroke-miterlimit:10;}
	.st10{fill:#FFCF4A;}
	.st11{fill:#D1334A;}
	.st12{fill:#1A1A1A;stroke:#1A1A1A;stroke-width:2;stroke-linecap:round;stroke-linejoin:round;stroke-miterlimit:10;}
	.st13{fill:#152A52;}
	.st14{fill:#FFFFFF;}
	.st15{fill:none;stroke:#1A1A1A;stroke-width:2;stroke-linecap:round;stroke-linejoin:round;stroke-miterlimit:10;}
	.st16{fill:#FFFFFF;stroke:#1A1A1A;stroke-width:2;stroke-linecap:round;stroke-linejoin:round;stroke-miterlimit:10;}
	.st17{fill:#FFB114;}
	.st18{fill:#EF5668;}
	.st19{fill:#EB485C;}
	.st20{fill:#FC9590;}
	.st21{fill:#DB6767;}
	.st22{fill:#E8766F;}
	.st23{fill:#102140;}
	.st24{fill:#FFDE70;}
	.st25{fill:#999399;}
	.st26{fill:#572658;}
	.st27{fill:#CCC4CC;}
	.st28{fill:#B080B0;}
	.st29{fill:#6584C6;}
	.st30{fill:#80590A;}
	.st31{fill:none;stroke:#203560;stroke-width:3;stroke-linecap:round;stroke-linejoin:round;stroke-miterlimit:10;}
	.st32{fill:#1A3669;}
	.st33{fill:#4C6395;}
	.st34{fill:none;stroke:#1A1A1A;stroke-width:3;stroke-linecap:round;stroke-linejoin:round;stroke-miterlimit:10;}
	.st35{fill:none;stroke:#FFFFFF;stroke-width:2;stroke-linecap:round;stroke-linejoin:round;stroke-miterlimit:10;}
</style>
<g>
	<path d="M2528,2122.1l-6.9,11.5c0,0,27.7,24.6,90.4,24.6c62.7,0,106.4-11.7,112.3-27.7
		c-12-13.5-12-13.5-12-13.5L2528,2122.1z" class="Graphic_x0020_Style_x0020_216"></path>
	<g>
		<g>
			<path d="M3282.7,2358.8c9.8,4.9,18.3,9.8,25.7,14.7c53.2,35.2,47.2,69.8,5.1,90c-23.8,13.2-101.7-55.4-141.2-35.6
				c-27.6,13.9-43.6,45.9-50.7,64c-3.1,7.8-4.5,13.1-4.5,13.1s0.4-41.4-11.2-65.3c0,0-85.4-155.4-3.4-190.1
				c50.9-19.1,60.1,40.5,60.8,46.5c-0.9-9-12.4-139.4,70.6-147.4c0,0,44.3-0.8,43.7,34.5c45.5-67.7,138-30.8,120.2,21.5
				c-17.3,50.6-77.8,69.9-81.7,71.2c3-0.8,38.9-9.5,63.9,0.9c16.4,6.8,28.1,21.9,23,52.9c-5.1,36.1-68.1,25.6-101.6,25.6
				c0,0,0,0-0.1,0c-4.6,0-8.7,0.2-11.9,0.8C3286.5,2356.8,3284.2,2357.6,3282.7,2358.8z" class="st0"></path>
			<path d="M3320.7,2191.3c0,0-193.3,115.4-203.9,317.9" class="st1"></path>
			<path d="M3294.6,2412.4c0,0-92.9-80.7-149-22.1" class="st1"></path>
			<path d="M3342.9,2304.6c0,0-103.2-22.4-164.4,27.8" class="st1"></path>
			<path d="M3226.8,2180.4c0,0,15.5,49.7-7.7,97.9" class="st1"></path>
			<path d="M3117.6,2290.7c0,0,24.4,60.1,16.5,125.2" class="st1"></path>
			<path d="M3313.5,2463.5c-23.8,13.2-101.7-55.4-141.2-35.6c-27.6,13.9-43.6,45.9-50.7,64c1.4-30.5,12-71.4,55.7-85.2
				c73-23.1,155.2,66.6,131.1-33.2C3361.6,2408.8,3355.6,2443.3,3313.5,2463.5z" class="st2"></path>
			<path d="M3301.5,2355.5c31.2-3,109.9-16.7,77.6-78.1c0.4-0.1,0.7-0.3,1-0.4c16.4,6.8,28.1,21.9,23,52.9
				C3397.9,2365.9,3334.9,2355.4,3301.5,2355.5z" class="st2"></path>
		</g>
		<g>
			<path d="M3427.3,2369.4c-80.2,33.6-50.4,168.6-127,209.2c0,0,1,0,3,0.1c4.5-0.9,9.6-1.8,15.2-2.7
				c26.1-4,159.5,5,212.1,92.5c52,86.5,88.5,41.9,89.4,40.9c0,0,0,0,0,0c3-22.1-5.7-52.2-33.9-87.5c91,2.7,93.4,118.1,163.4,39.2
				c45-50.8-10.8-88.8-12.6-90c3.5,1.3,181.5,46.9,171.3-64.9c-13.5-148.6-170.4-36.8-172.5-34.9c1.1-1.7,47.8-73.9-22.2-118
				c-64.2-40.4-99.4,21.3-105.4,33.2c4.4-9.8,20.9-54.5-33.1-74.1c-60.2-21.8-102,105.9-102.9,108.6
				C3472.3,2419.1,3483.3,2345.9,3427.3,2369.4z" class="st3"></path>
			<path d="M3300.3,2578.6c131.1-82.9,195.6-70.4,273-36.4c77.3,34,214.3-36.3,214.3-36.3" class="st4"></path>
			<path d="M3706.4,2412.4c0,0-27.7,130.7-137.8,127.8" class="st4"></path>
			<path d="M3566.6,2358.5c0,0,12,142.1-86.3,157.9" class="st4"></path>
			<path d="M3701.9,2609.3c0,0-28-48.9-67.7-58.1" class="st4"></path>
			<path d="M3522.3,2622.7c0,0-21.2-87.1-92.5-102.3" class="st4"></path>
			<path d="M3432,2429.8c0,0-0.7,84.3-39.7,101.5" class="st4"></path>
			<path d="M3303.3,2578.8c21.1,1.1,148.3,11.6,197.9,112.4c38.1,77.4,111.6,70.6,118.8,18.3
				c-0.9,1-37.3,45.6-89.4-40.9c-52.7-87.5-186-96.5-212.1-92.5C3312.9,2576.9,3307.8,2577.9,3303.3,2578.8z" class="st0"></path>
			<path d="M3754.9,2588.4c22.7,39.6-22.8,117.5-83,68.7c-62.6-50.7-85.8-35.3-85.8-35.3s85.4,82.8,143.1,67.3
				C3761.3,2680.6,3798.1,2628.9,3754.9,2588.4z" class="st0"></path>
			<path d="M3303.3,2578.8c0,0-88.6,79.4-106.1,54.8s119.5-65,119.5-65L3303.3,2578.8z" class="st5"></path>
		</g>
		<linearGradient y2="2820.8279" x2="2740.0449" y1="2228.811" x1="2941.2727" gradientUnits="userSpaceOnUse" id="SVGID_1_">
			<stop style="stop-color:#68B2FC" offset="0"></stop>
			<stop style="stop-color:#EBF0F7" offset="1"></stop>
		</linearGradient>
		<path d="M2143.3,2629.1c69-257.4,310.2-483.4,506-433.3c144,36.9,259.3,176.1,295.6,352.1
			c38.1-87.2,122.9-122.7,182.7-94.4c59.9,28.4,72.3,110.2,73.1,116.1c15.7-5.1,82.6-24.6,139.5,14.5
			c69.4,47.7,57.6,272.6,12.6,383.7c-321.1,0-601.7-107.9-922.8-107.9C2339.2,2756,2234.1,2733.2,2143.3,2629.1z" class="st6"></path>
		<linearGradient y2="2909.7566" x2="3414.9746" y1="2909.7566" x1="91.4807" gradientUnits="userSpaceOnUse" id="SVGID_2_">
			<stop style="stop-color:#68B2FC" offset="0"></stop>
			<stop style="stop-color:#529BF7" offset="1"></stop>
		</linearGradient>
		<path d="M2955.3,2849c19.2-16.2,29.5-33.3,29.5-51c0-99.6-325.5-180.3-727-180.3c-385.5,0-700.9,74.4-725.4,168.5
			C719,2799.8,91.5,2887.2,91.5,2993.1c0,115.3,744,208.7,1661.7,208.7S3415,3108.3,3415,2993.1
			C3415,2937.2,3240.1,2886.4,2955.3,2849z" class="st7"></path>
		<ellipse ry="54.6" rx="354.4" cy="2964.3" cx="1959.4" class="st8"></ellipse>
		<polygon points="2115.7,2753.4 1140.9,2753.4 1140.9,2846.5 715.1,2844.4 566.3,3018.9 796.7,3018.9 1191.5,2883.9 
			2115.7,2883.9" class="st8"></polygon>
		<ellipse ry="86.3" rx="512" cy="2843.9" cx="2436.3" class="st8"></ellipse>
		<path d="M1298.6,2730.6c0-0.1,0.1-0.3,0.1-0.4C1307.4,2730.4,1308.5,2730.6,1298.6,2730.6z" class="st9"></path>
		<path d="M2866.7,1694c-12.5,4.5-28.7-2.9-28.7-22.1V1340c-36.6-9.5-63.6-42.7-63.6-82.2
			c0-46.9,38-84.9,84.9-84.9c2.5,0,4.9,0.1,7.3,0.3c-43.5,3.7-77.7,40.2-77.7,84.6c0,39.5,27,72.8,63.6,82.2v331.8
			C2852.6,1683.8,2858.9,1691.2,2866.7,1694z" class="Graphic_x0020_Style_x0020_80"></path>
		<path d="M2932.4,1579.3c5.5,0,9.9-4.4,9.9-9.9c0-2.7-1.1-5.2-2.9-7c-1.8-1.8-4.3-2.9-7-2.9h-51.6V1340
			c36.6-9.5,63.6-42.7,63.6-82.2c0-44.5-34.1-80.9-77.6-84.6c-43.5,3.7-77.7,40.2-77.7,84.6c0,39.5,27,72.8,63.6,82.2v331.8
			c0,12,6.3,19.4,14.1,22.1c7.8-2.8,14.1-10.1,14.1-22.1v-7.1h51.6c5.5,0,9.9-4.4,9.9-9.9s-4.4-9.9-9.9-9.9h-51.6v-65.6H2932.4z
			 M2874,1301.1c-2.5,0-4.9-0.2-7.3-0.6c-20.4-3.5-35.9-21.2-35.9-42.6c0-21.4,15.5-39.2,35.9-42.6c2.4-0.4,4.8-0.6,7.3-0.6
			c23.9,0,43.2,19.4,43.2,43.2C2917.2,1281.7,2897.9,1301.1,2874,1301.1z" class="st10"></path>
		<path d="M2917.2,1257.8c0,23.9-19.4,43.2-43.2,43.2c-2.5,0-4.9-0.2-7.3-0.6
			c20.4-3.5,35.9-21.3,35.9-42.6c0-21.4-15.5-39.2-35.9-42.6c2.4-0.4,4.8-0.6,7.3-0.6C2897.9,1214.6,2917.2,1233.9,2917.2,1257.8z" class="Graphic_x0020_Style_x0020_80"></path>
		<g>
			<g>
				<path d="M2026.2,2828.6l7.1,19.7c0,0,67.4,14.4,141.3-9.9c73.8-24.2,82.2-40.6,82.2-40.6l0.3-16.1L2026.2,2828.6z" class="st5"></path>
				<path d="M2257,2781.8c4.4-17.5,1.1-42.9-3.5-64.2c-31.3,17.4-67.3,23.6-102.8,12.5l0.3,6.7
					c0,0-22.8,20.6-63.7,28.2c-40.9,7.6-89.4,45-58.7,71.8C2086.6,2861.3,2248.1,2817.5,2257,2781.8z" class="st11"></path>
				<path d="M2253.5,2717.6c-4.7-22.2-10.8-40-10.8-40l-93.7,12.3l1.7,40.2C2186.2,2741.2,2222.2,2735,2253.5,2717.6z" class="st5"></path>
				<path d="M2058.8,2770.5c8.7-5.3,36.9,19,31.6,23.2c-2.2,1.8,62.8-26.6,62.8-26.6s-10.2-19.4-27.5-23.6
					C2084.5,2757,2058.8,2770.5,2058.8,2770.5z" class="st12"></path>
			</g>
			<path d="M2351.9,1540.1l-225.5,27c0,0-31.8,113.3-35.7,280.7c-4.5,196.4,15.4,445.6,18.7,544.9
				c3.3,99.3,19.3,314.4,19.3,314.4s60.4,6.9,108.4-8.9c12.8-165.9,16.8-331.8,22.7-497.8c2-77.7,8.2-153.4,22.5-233.2
				c2-12.3,4.1-26.6,10.2-38.9c7.2-18.8,23.7-30.5,40.7-43c6-73.8,10-121.3,10-121.3L2351.9,1540.1z" class="st13"></path>
			<path d="M2292.5,1928.4c-6.1,12.3-8.2,26.6-10.2,38.9c-14.3,79.8-20.5,155.5-22.5,233.2
				c-5.9,165.9-9.9,331.8-22.7,497.8c15.4-5.1,29.5-12.5,39.9-23.2c5-147.7,39-577.5,56.2-789.6
				C2316.2,1897.9,2299.7,1909.6,2292.5,1928.4z" class="Graphic_x0020_Style_x0020_456"></path>
			<g>
				<path d="M2530.6,2821.7l23.2,10.7c0,0,61.9-20.1,116.7-88.9c39.6-57.7,40.1-67.9,40.1-67.9l-8.9-14.3L2530.6,2821.7
					z" class="st5"></path>
				<path d="M2703.5,2661.2c-5.2-17.3-21.2-37.3-36.1-53.2c-17.9,31-45.5,54.9-81.7,63.6l3.7,5.6c0,0-8.9,29.4-40.1,57
					c-31.2,27.6-53.5,84.6-13.4,91.8C2598.4,2817.1,2714.2,2696.4,2703.5,2661.2z" class="st11"></path>
				<path d="M2667.4,2608c-15.5-16.6-29.9-28.7-29.9-28.7l-73.9,58.8l22.1,33.6C2621.9,2662.9,2649.5,2639,2667.4,2608z" class="st5"></path>
				<path d="M2527.7,2753.6c4.7-9,41.4-2.7,39.1,3.6c-1,2.7,40.1-55.1,40.1-55.1s-18.7-11.4-35.7-6
					C2542.8,2728.8,2527.7,2753.6,2527.7,2753.6z" class="st14"></path>
			</g>
			<path d="M2462.3,1891.6c2-34.8,6.1-69.5,12.3-106.4c14.6-77.8-8.1-149.2-42.6-215.2c-69-51.2-214.7-1.6-214.7-1.6
				l82,180.1c-14.6-3.3-10.3,299.8,10.6,475.7c19.9,167.4,71,231.2,233.2,437.4c31.9,13.7,69.2-23,91.7-50.8
				c-80-96.1-150.1-202-174.7-330.7C2435.7,2147.3,2458.2,2020.5,2462.3,1891.6z" class="st13"></path>
			<path d="M2486.8,2236.6c-5.6-122.8,17.3-218.1,35-352.7c17.7-134.7-20.8-262.6-89.7-313.8
				c0,0,0,0,0,0c34.5,66,57.1,137.4,42.6,215.2c-6.1,36.8-10.2,71.6-12.3,106.4c-4.1,128.9-26.6,255.7-2,388.6
				c24.6,128.7,94.7,234.6,174.7,330.7c12.5-15.4,20.4-28.1,20.4-28.1S2492.3,2359.4,2486.8,2236.6z" class="Graphic_x0020_Style_x0020_456"></path>
			<path d="M2381,1721c0,0,14.1,42.8,69.8,49" class="st15"></path>
			<path d="M2169.2,1650.6c5.3,2.7,59.9,16,141.5,15.4c81.6-0.7,147.8-25.4,147.8-25.4l-13.4-19.4h-269.4l-6.6,32.7" class="st12"></path>
			<path d="M2453.1,1619.7c-102.5,22-188,49-296.8-7.9l8-56c94.5,49.7,190.8,52.6,288.8,13.8V1619.7z" class="st16"></path>
			<path d="M2229.5,1135.4c0,0-138.8,16.5-116.5,180c22.4,163.5,80,272.9,80,272.9c82.3,13.9,168.8,32.8,204.7-10.6
				c0,0,91.8-324.7,34.1-395.2C2374.2,1111.9,2229.5,1135.4,2229.5,1135.4z" class="st17"></path>
			<path d="M2002.1,1477.7c-219.1-16-309.2-23.5-309.2-23.5s-20.9,18-18.9,50.6c8.4,2.1,16.9,4.2,25.3,6.3
				c85.1,28.4,168.9,49.4,257.2,47.3c-1.8-0.7-3.7-1.5-5.6-2.3c1.9,0.8,3.7,1.6,5.6,2.3c26.2-0.6,52.8-3.3,80-8.4
				c28.9-17.9,50.9-49.9,59.7-81.9c11.8-37.5-4.9-113,49-118.3l7.7-189.7C2152.9,1160.1,2032.3,1198.4,2002.1,1477.7z" class="st18"></path>
			<path d="M2096.1,1468.2c-8.8,32-30.8,64-59.7,81.9c0.1,0,0.3,0,0.4-0.1
				c50.8-9.4,81.8-46.8,100.9-92.5c5.9-38.8,6-70.8,6-70.8l1.5-36.9C2091.3,1355.2,2108,1430.7,2096.1,1468.2z" class="Graphic_x0020_Style_x0020_88"></path>
			<path d="M2036.8,1550c-118.6,22.5-227-2-337.5-38.9c-8.4-2.1-16.9-4.2-25.3-6.3
				c0.7,11.2,4.1,24.2,12.1,38.8c84.9,28.8,302.7,116.1,400.1,36.7c30.5-24.8,44.8-78.3,51.5-122.8
				C2118.6,1503.2,2087.6,1540.5,2036.8,1550z" class="Graphic_x0020_Style_x0020_455"></path>
			<path d="M2178,1449.8c-10.6-19.7-49.7-24.1-70.3-20.1c-11.1,104.4-21.5,239.1-21.5,239.1
				s166.1,70.8,178.1-73c0.2-2.9-0.5-12.1-1.9-26c-6.3-1.8-12.6-4.2-19-7.5C2202.5,1541.8,2198.4,1490.7,2178,1449.8z" class="Graphic_x0020_Style_x0020_89"></path>
			<path d="M2110.6,1330.7c4.3,21.8,0,52.1-2.9,98.9c20.6-4,59.7,0.4,70.3,20.1c20.5,40.9,24.5,92,65.5,112.5
				c6.3,3.3,12.7,5.7,19,7.5c-10.1-98.3-56.3-432.1-56.3-432.1C2099.2,1158.2,2096,1256.3,2110.6,1330.7z" class="st18"></path>
			<path d="M2392.7,1437.5c-21.1,28.6-53.3,31.7-85.2,26.5c-7.2,61.8-12.5,109.1-12.5,115.2
				c0,117.6,155.8,132.3,212.4,68.2c-30.4-76.6-38.9-193.1-43.5-286.3C2436.6,1380.4,2413.2,1408.3,2392.7,1437.5z" class="st19"></path>
			<path d="M2426.1,1391.2c0,0,1.4,53.6-26.4,71.1c-27.8,17.5-87.2,82.7-87.2,82.7l8,24.7
				l136-72.8v-67.3L2426.1,1391.2z" class="Graphic_x0020_Style_x0020_88"></path>
			<path d="M2347.4,1131.7c0,0-24.4,199.5-39.9,332.3c31.9,5.3,64.1,2.2,85.2-26.5c20.5-29.1,43.9-57.1,71.3-76.5
				c-2.4-48.8-3.7-91.2-6.4-118.2C2449.6,1164.4,2410,1132.7,2347.4,1131.7z" class="st18"></path>
			<polygon points="2341.7,1115.8 2295.4,1448.3 2295.1,1579.2 2319.1,1532 2329.2,1448.3 2399.7,1264.8 
				2368.4,1209.9 2399.7,1189.5 2364.5,1122.1" class="st14"></polygon>
			<polygon points="2218.8,1126.7 2263.6,1448.3 2264.3,1595.7 2233.2,1517.7 2229.9,1448.3 2159.3,1264.8 
				2190.7,1209.9 2159.3,1189.5 2194.6,1133.3" class="st14"></polygon>
			<path d="M2253.6,1095.9c-3.5-0.9-7.4-2.5-10.5-5.1l-8.2,50.5c0,0,18.8,24.3,58.4,25.1c39.6,0.8,44.8-25.5,44.8-25.5
				l-3.8-37C2308.6,1109.4,2278.8,1103.4,2253.6,1095.9z" class="st20"></path>
			<path d="M2249.9,1049.2l-6.7,41.7c3.1,2.5,7,4.2,10.5,5.1c25.2,7.5,55,13.5,80.8,8l-5.8-57.1L2249.9,1049.2z" class="st21"></path>
			<path d="M2329.5,869.6c25.5,54.5,45.6,121.7,25.7,179.4c13.8-20.5,22.1-47.2,22.1-76.4
				C2377.3,928.2,2358,889.5,2329.5,869.6z" class="st22"></path>
			<path d="M2329.5,869.6c-13-9-27.8-14.2-43.6-14.2c-50.5,0-91.4,52.5-91.4,117.2c0,64.7,40.9,117.2,91.4,117.2
				c27.7,0,52.5-15.9,69.3-40.9C2375.1,991.3,2355,924.2,2329.5,869.6z" class="st20"></path>
			<path d="M2235,1115.8l-8.7,33.1c9.1,18.7,21.5,30.4,37.1,35.6l15-36.8C2278.3,1147.8,2240.2,1130,2235,1115.8z" class="st14"></path>
			<path d="M2338.2,1115.8c0,0-24.6,31-51.6,32.5c16.2,24.7,18.5,33.7,18.5,33.7s21-6.2,29.5-15.7
				c4.2-30.5,4.2-30.5,4.2-30.5L2338.2,1115.8z" class="st14"></path>
			<polygon points="2278.3,1182.1 2240.7,1284 2263.6,1448.3 2264.3,1600 2287.9,1602.8 
				2295.4,1448.3 2319.1,1278.5 2286.6,1182.1" class="Graphic_x0020_Style_x0020_454"></polygon>
			<polygon points="2278.3,1157.7 2288.8,1157.7 2298.2,1177.4 2286.6,1181 2277.3,1181 2270.3,1172.3" class="st13"></polygon>
			<path d="M2377.3,952.1c0,0,10-17.7,22.4-7.3c12.4,10.5-13.2,57-26.6,49C2375.4,963.3,2377.3,952.1,2377.3,952.1z" class="st22"></path>
			<path d="M2222.8,864.9c0,0,12.5,49.4,85.5,51c55.1-5.2,44.7,0,44.7,0s16.1,20.5,13.3,85.5c14.1,5.5,8.8-1.2,8.8-1.2
				s-1.9-43.4,9-58.7c15.8-22.1,11.6-43.4,3.8-67.2c-7.8-23.8-34.6-58-75.1-76.1c-58.6,1.6-94.6,29.8-95.4,42.3
				C2216.5,853.1,2222.8,864.9,2222.8,864.9z" class="st23"></path>
			<path d="M2194.6,960.5c0,0-26.8-12.9-21.8,12.9c5.1,25.8,14.6,38.4,28.1,36.6
				C2196.6,976.1,2194.6,960.5,2194.6,960.5z" class="st20"></path>
			<path d="M2243.6,850.8c0,0-48.6-4.3-62,18.8c-13.3,23.1,2.4,76.5,5.1,87.8c2.7,11.4,11.4,50.2,11.4,50.2
				s5.5-4.4,5.9-4.8c0.4-0.3-2.4-71.3,9.4-82.7C2225.2,908.8,2301.7,890,2243.6,850.8z" class="st23"></path>
			<path d="M1694,1463.2c0,0-18.9,18.9-14.5,44.1c4.4,25.2,6.7,29.5,18.2,33
				C1709.1,1543.8,1725.8,1441.7,1694,1463.2z" class="Graphic_x0020_Style_x0020_453"></path>
			<path d="M1556.1,1564.3c34.8-22.5,67.5-38.9,106.4-47c13.1-3.3,27.7-4.6,42.2-3.4c6.1-13.9,4.7-27,0.6-36
				c0,0-84.4-21.9-111.6-14.6c-27.2,7.3,6.9,19.5,21.3,20.8c-35.9,18.3-81.3,59.3-74.2,81.9
				C1546.2,1567.9,1551.6,1568,1556.1,1564.3z" class="st20"></path>
			<path d="M1662.5,1517.3c-38.9,8.2-71.6,24.5-106.4,47c-4.6,3.6-9.9,3.6-15.4,1.6
				c0.7,2.1,1.7,4.1,3.4,5.8c19,20.6,123.1-56.1,151.6-43.6c4-4.8,6.9-9.6,9-14.3C1690.2,1512.7,1675.5,1514,1662.5,1517.3z" class="Graphic_x0020_Style_x0020_452"></path>
			<g>
				<path d="M2482.7,1513.2c38.2-83.3,39.5-178.4,21.6-270.3c-50-95.5-109.5-102.6-109.5-102.6l25.3,194.3
					c0,20,5.3,116.3,5.3,116.3s-101.3,107.4-147,105.8c-29.6,20.6-19.1,65.3-6.1,94.6C2360.6,1637.1,2445.8,1599.3,2482.7,1513.2z" class="st18"></path>
				<path d="M2552.9,1392.2c-12.4-65.1-29.8-113.4-48.6-149.3c18,91.9,16.6,187-21.6,270.3
					c-36.9,86.1-122.2,123.9-210.3,138c2.4,5.4,4.9,10.3,7.2,14.4c14.9,26.3,55.5,13.6,65.6,9.9
					C2393,1657.6,2591.5,1594.8,2552.9,1392.2z" class="Graphic_x0020_Style_x0020_88"></path>
				<path d="M2282.9,1562.9c0,0,37.2,32.6,25.7,80.6c-11.5,48-27.7,12-33.9-14.4
					C2268.5,1602.6,2267.4,1566,2282.9,1562.9z" class="Graphic_x0020_Style_x0020_453"></path>
				<path d="M2136.5,1646.1c0.1,2,0.2,4,0.2,6.1c0.1,17.2,30.5,42.7,76.7,30.1
					c46.2-12.6,34-19,62.4-32.4c28.4-13.4,28.4-13.4,28.4-13.4c4.3,1.4,7.1-10.5,5.7-23.8c-38.4,9.4-76.6,27.8-113.6,41.6
					C2176.8,1661.3,2155.3,1656.8,2136.5,1646.1z" class="Graphic_x0020_Style_x0020_452"></path>
				<path d="M2294.2,1582.6c-4.8,0.9-12.3,1.8-12.3,1.8s-85.8-8-85.8,8.7c-0.1,16.7,29.5,17.1,29.5,17.1
					s-20,29.1-57.6,19.3c-33-8.6-32.2,2.1-31.4,16.4c18.8,10.7,40.3,15.2,59.9,8.2c36.9-13.8,75.1-32.2,113.6-41.6
					C2308.7,1600.9,2304.1,1588.1,2294.2,1582.6z" class="st20"></path>
			</g>
		</g>
		<g>
			<ellipse ry="110" rx="110" cy="1882.3" cx="3235.5" class="st24"></ellipse>
			<ellipse ry="94.5" rx="94.5" cy="1882.3" cx="3235.5" class="st17"></ellipse>
			<g>
				<g>
					<path d="M3256.4,1909.5c0-4.6-1.6-8.4-4.8-11.5c-3.2-3.1-8.6-5.9-16.2-8.5c-10.5-3.2-18.2-7.4-23.1-12.6
						c-4.8-5.2-7.2-11.7-7.2-19.7c0-8.1,2.4-14.8,7.1-20c4.7-5.2,11.2-8.3,19.5-9.3v-16.3h11.1v16.3c8.3,1.1,14.8,4.6,19.4,10.5
						c4.6,5.8,6.9,13.8,6.9,24h-13.7c0-7-1.7-12.6-5-16.7c-3.3-4.1-7.8-6.2-13.4-6.2c-5.9,0-10.4,1.5-13.5,4.6
						c-3.1,3.1-4.7,7.3-4.7,12.8c0,5.1,1.6,9.1,4.9,12.1c3.3,3,8.7,5.7,16.3,8.2c7.6,2.5,13.4,5.2,17.7,8.1
						c4.2,2.9,7.4,6.4,9.4,10.3c2,3.9,3,8.5,3,13.7c0,8.4-2.5,15.1-7.5,20.2c-5,5.1-12.1,8.1-21.1,9.1v14.2h-11v-14.2
						c-9.2-0.8-16.4-4.1-21.7-9.8c-5.2-5.7-7.8-13.5-7.8-23.3h13.7c0,6.9,1.8,12.2,5.4,15.9c3.6,3.7,8.7,5.6,15.4,5.6
						c6.5,0,11.6-1.6,15.3-4.7C3254.5,1919.2,3256.4,1914.9,3256.4,1909.5z" class="st24"></path>
				</g>
			</g>
		</g>
		<g>
			
				<ellipse ry="110" rx="110" cy="1089.9" cx="1319.5" class="st17" transform="matrix(0.9999 -1.041487e-02 1.041487e-02 0.9999 -11.2801 13.802)"></ellipse>
			<ellipse ry="94.5" rx="94.5" cy="1089.9" cx="1319.5" class="st24"></ellipse>
			<g>
				<g>
					<path d="M1340.4,1117.2c0-4.6-1.6-8.4-4.8-11.5c-3.2-3.1-8.6-5.9-16.2-8.5c-10.5-3.2-18.2-7.4-23.1-12.6
						c-4.8-5.2-7.2-11.7-7.2-19.7c0-8.1,2.4-14.8,7.1-20c4.7-5.2,11.2-8.3,19.5-9.3v-16.3h11.1v16.3c8.3,1.1,14.8,4.6,19.4,10.5
						c4.6,5.8,6.9,13.8,6.9,24h-13.7c0-7-1.7-12.6-5-16.7c-3.3-4.1-7.8-6.2-13.4-6.2c-5.9,0-10.4,1.5-13.5,4.6
						c-3.1,3.1-4.7,7.3-4.7,12.8c0,5.1,1.6,9.1,4.9,12.1c3.3,3,8.7,5.7,16.3,8.2c7.6,2.5,13.4,5.2,17.7,8.1
						c4.2,2.9,7.4,6.4,9.4,10.3c2,3.9,3,8.5,3,13.7c0,8.4-2.5,15.1-7.5,20.2c-5,5.1-12.1,8.1-21.1,9.1v14.2h-11v-14.2
						c-9.2-0.8-16.4-4.1-21.7-9.8c-5.2-5.7-7.8-13.5-7.8-23.3h13.7c0,6.9,1.8,12.2,5.4,15.9c3.6,3.7,8.7,5.6,15.4,5.6
						c6.5,0,11.6-1.6,15.3-4.7C1338.5,1126.9,1340.4,1122.6,1340.4,1117.2z" class="st14"></path>
				</g>
			</g>
		</g>
		<g>
			
				<ellipse ry="110" rx="110" cy="1818.2" cx="403.6" class="st17" transform="matrix(0.9999 -1.041486e-02 1.041486e-02 0.9999 -18.9144 4.3025)"></ellipse>
			<ellipse ry="94.5" rx="94.5" cy="1818.2" cx="403.6" class="st10"></ellipse>
			<g>
				<g>
					<path d="M424.5,1845.5c0-4.6-1.6-8.4-4.8-11.5c-3.2-3.1-8.6-5.9-16.2-8.5c-10.5-3.2-18.2-7.4-23.1-12.6
						c-4.8-5.2-7.2-11.7-7.2-19.7c0-8.1,2.4-14.8,7.1-20c4.7-5.2,11.2-8.3,19.5-9.3v-16.3h11.1v16.3c8.3,1.1,14.8,4.6,19.4,10.5
						c4.6,5.8,6.9,13.8,6.9,24h-13.7c0-7-1.7-12.6-5-16.7c-3.3-4.1-7.8-6.2-13.4-6.2c-5.9,0-10.4,1.5-13.5,4.6
						c-3.1,3.1-4.7,7.3-4.7,12.8c0,5.1,1.6,9.1,4.9,12.1c3.3,3,8.7,5.7,16.3,8.2c7.6,2.5,13.4,5.2,17.7,8.1
						c4.2,2.9,7.4,6.4,9.4,10.3c2,3.9,3,8.5,3,13.7c0,8.4-2.5,15.1-7.5,20.2c-5,5.1-12.1,8.1-21.1,9.1v14.2h-11v-14.2
						c-9.2-0.8-16.4-4.1-21.7-9.8c-5.2-5.7-7.8-13.5-7.8-23.3h13.7c0,6.9,1.8,12.2,5.4,15.9c3.6,3.7,8.7,5.6,15.4,5.6
						c6.5,0,11.6-1.6,15.3-4.7C422.6,1855.1,424.5,1850.9,424.5,1845.5z" class="st14"></path>
				</g>
			</g>
		</g>
		<g>
			<g>
				<path d="M1995,1600.3h-170.2v601.6l197-100.7V1627C2021.7,1612.2,2009.7,1600.3,1995,1600.3z" class="st25"></path>
				<polygon points="1824.7,2201.8 1824.7,2794.5 2021.7,2794.5 2021.7,2101.1" class="st26"></polygon>
				<rect height="599.3" width="783" class="st27" y="1600.3" x="1041.7"></rect>
				<rect height="594.9" width="783" class="st28" y="2199.6" x="1041.7"></rect>
				<polygon points="1605,1600.3 1673.8,1602.8 1753.2,2790.5 1575.4,2784.5" class="st8"></polygon>
				<rect height="48.1" width="140" class="st17" y="1730" x="1859.9"></rect>
				<rect height="48.1" width="140" class="st17" y="1838" x="1859.9"></rect>
				<path d="M2000.9,2433.6c0,84.6-31.8,153.1-71.1,153.1c-2.6,0-5.2-0.3-7.8-0.9
					c-35.6-8.3-63.3-73.3-63.3-152.2c0-78.9,27.7-143.8,63.3-152.2c2.6-0.6,5.2-0.9,7.8-0.9
					C1969.1,2280.5,2000.9,2349.1,2000.9,2433.6z" class="Graphic_x0020_Style_x0020_80"></path>
				<path d="M1985.4,2433.6c0,78.9-27.7,143.9-63.3,152.2c-35.6-8.3-63.3-73.3-63.3-152.2
					c0-78.9,27.7-143.8,63.3-152.2C1957.7,2289.8,1985.4,2354.7,1985.4,2433.6z" class="st24"></path>
			</g>
			<path d="M1540.5,2847.2H750.4c-11.9,0-21.5-9.6-21.5-21.5V1557.6c0-9.3,7.6-16.9,16.9-16.9h794.7V2847.2z" class="st13"></path>
			<path d="M1570.5,2847.2H793.4V1540.7h777.1c19.1,0,34.5,15.5,34.5,34.5v1237.5
				C1605,2831.8,1589.5,2847.2,1570.5,2847.2z" class="st29"></path>
			<path d="M1394.6,2784.5h-370.1c-12.7,0-23-10.3-23-23l0,0c0-12.7,10.3-23,23-23h370.1c12.7,0,23,10.3,23,23l0,0
				C1417.6,2774.2,1407.3,2784.5,1394.6,2784.5z" class="st14"></path>
			<path d="M1468.1,1899.4H950.9c-3.8,0-6.8-3-6.8-6.8v-123.5c0-3.8,3-6.8,6.8-6.8h517.2c3.8,0,6.8,3,6.8,6.8v123.5
				C1474.9,1896.4,1471.9,1899.4,1468.1,1899.4z" class="st14"></path>
			<rect height="17.5" width="438.8" class="Graphic_x0020_Style_x0020_451" y="1848.6" x="1001.5"></rect>
			<rect height="17.5" width="438.8" class="Graphic_x0020_Style_x0020_451" y="1800" x="1001.5"></rect>
			<path d="M1400.8,2102.1h-382.6c-9.3,0-16.8-7.5-16.8-16.8v-35c0-9.3,7.5-16.8,16.8-16.8h382.6
				c9.3,0,16.8,7.5,16.8,16.8v35C1417.6,2094.6,1410.1,2102.1,1400.8,2102.1z" class="st24"></path>
			<polygon points="1035.9,2193.6 1272.2,2847.2 812.8,2847.2" class="st8"></polygon>
		</g>
		<g>
			<path d="M1905.4,2991.9c-16.1,0-31.4-0.4-45.9-1c-8.6-0.4-16.9-0.9-24.9-1.6c-371.3-29.5-128.1-299.3-128.1-299.3
				h397.7C2104.3,2690.1,2376.5,2991.9,1905.4,2991.9z" class="st27"></path>
			<path d="M1834.7,2989.3c-371.3-29.5-128.1-299.3-128.1-299.3h256.1C1962.7,2690.1,2206,2959.8,1834.7,2989.3z" class="st14"></path>
			<path d="M1869.8,2820.9l-30.3,25.9c-12.4,0-23.2-0.8-32.6-2.3c10.6-22.2,7.1-39.5,0.3-51.6c9.3-1.5,20-2.3,32.3-2.3
				L1869.8,2820.9z" class="st10"></path>
			<polygon points="1905.4,2790.5 1905.4,2856.4 1869.8,2820.9" class="st10"></polygon>
			<path d="M1806.9,2844.4c-57.5-9.1-57.4-42.5,0.3-51.6C1814,2804.9,1817.5,2822.2,1806.9,2844.4z" class="st17"></path>
			<path d="M1794.9,2811.7c0,2-1.6,3.6-3.6,3.6c-2,0-3.6-1.6-3.6-3.6c0-2,1.6-3.6,3.6-3.6
				C1793.2,2808,1794.9,2809.7,1794.9,2811.7z" class="st12"></path>
			<ellipse ry="15.4" rx="199" cy="2690.1" cx="1906" class="st5"></ellipse>
		</g>
		<path d="M859.9,1542.3c0,39.6,0,627.3,0,627.3l63.4-69.8v-559.6l36.5,0.6c0,0-1.1-16.6-23.8-12.3
			C913.2,1532.8,859.9,1521.5,859.9,1542.3z" class="st11"></path>
		<g>
			<polygon points="945.5,2103.2 919.3,2193.6 706.4,2928.5 190.2,2928.5 429.3,2103.2" class="Graphic_x0020_Style_x0020_450"></polygon>
			<path d="M796.7,3018.9c4.4-98.4-90.4-90.4-90.4-90.4l212.9-734.9l26.2-90.4c0,0,75.8-30.6,90.4,90.4L796.7,3018.9z" class="st26"></path>
			<path d="M796.7,3018.9H280.6l-14.1-16c0,0,6.7,0.1,18.7,0.3c7.3,0.1,16.6,0.2,27.5,0.4
				c125.8,1.7,465.2,5.7,465.6-0.7c2.9-34-32.6-60.3-47.1-62.7c-10.5-1.8-278.1-1-427.6-0.4c-17.8,0.1-33.9,0.1-47.7,0.2
				c-23.4,0.1-44,0.7-53.1,1l-12.5-12.5h516.2C706.4,2928.5,801.1,2920.5,796.7,3018.9z" class="st30"></path>
			<path d="M778.3,3002.9c-0.4,6.3-339.9,2.4-465.6,0.7l-20.9-23.3l-36-40.3c13.8-0.1,29.9-0.1,47.7-0.2
				c149.5-0.6,417.2-1.3,427.6,0.4C745.7,2942.6,781.2,2968.8,778.3,3002.9z" class="st14"></path>
			<polygon points="266.5,3002.9 285.1,2972.7 312.6,3003.5" class="st17"></polygon>
			<polygon points="499.3,2235.9 796.9,2235.9 778.4,2284 481.8,2284" class="st29"></polygon>
			<polygon points="472.1,2327.7 769.7,2327.7 764.8,2343.3 468.2,2343.3" class="st26"></polygon>
			<polygon points="456.8,2379.5 754.4,2379.5 749.5,2395 452.9,2395" class="st26"></polygon>
		</g>
		<g>
			<path d="M2964.2,2397.3v-382.8c0-97-341.6-97-341.6,0l0,56.5" class="st31"></path>
			<g>
				<path d="M2528,2122.1l77.3-75.2l17.2-16.8l0.2,0.2l0.3,0.9l-86.9,102.5C2531,2130.4,2528,2126.5,2528,2122.1z" class="st17"></path>
				<path d="M2623.1,2031.2l42,114.8c-45.3,5.8-107,1.7-128.9-12.3L2623.1,2031.2z" class="st24"></path>
				<polygon points="2622.7,2030.3 2623.3,2030.9 2623.1,2031.2" class="Graphic_x0020_Style_x0020_449"></polygon>
				<path d="M2623.3,2030.9l16.5,16l77.3,75.2c0,12.2-22.6,20.1-52.1,23.9l-42-114.8L2623.3,2030.9z" class="st17"></path>
				<path d="M2605.3,2046.9c11.4,0.5,23.1,0.5,34.4,0l-17.2-16.8L2605.3,2046.9z" class="st12"></path>
			</g>
			<path d="M2787.7,2967.9h347.8c8.2,0,11.7-11.4,10.6-21.2c-0.9-7.4-4.4-13.9-10.6-13.9h-347.8
				C2774.2,2932.9,2774.2,2967.9,2787.7,2967.9z" class="st32"></path>
			<path d="M2859.4,2926.4v6.5h204.4v-6.5c0-14.7-11.9-26.7-26.7-26.7h-151C2871.3,2899.7,2859.4,2911.6,2859.4,2926.4
				z" class="st32"></path>
			<path d="M2930.2,2411.1v488.6h62.8v-488.6c0-17.3-14.1-31.4-31.4-31.4c-0.3,0-0.6,0-0.9,0
				C2943.8,2380.2,2930.2,2394.1,2930.2,2411.1z" class="st29"></path>
			<path d="M2930.2,2411.1v488.6h14.7c-0.3-64.3-1.7-457.1,0-486.2c0.9-15.8,8.5-26.7,15.8-33.7
				C2943.8,2380.2,2930.2,2394.1,2930.2,2411.1z" class="st32"></path>
			<path d="M2898.7,2932.9h165.1v-6.5c0-14.7-11.9-26.7-26.7-26.7h-124.6C2905.9,2905.6,2899,2915.8,2898.7,2932.9z" class="st29"></path>
			<path d="M2899.7,2946.7c0-0.1,0-0.2,0-0.2C2894.2,2946.6,2893.5,2946.7,2899.7,2946.7z" class="st9"></path>
			<path d="M2796.4,2932.9c1.7,3.3,4.3,6.7,8,10c13.7,12.4,281.6,5.6,341.8,3.9c-0.9-7.4-4.4-13.9-10.6-13.9H2796.4z" class="st29"></path>
		</g>
		<g>
			<path d="M470.1,2821.7c-46.6-7.3-84.8-35.7-104.8-78c-20.9-44.1-19.9-98.6,2.6-149.4
				c18.8-42.5,51.2-79.6,91.3-104.4c41-25.4,86.5-35.9,128-29.4c46.6,7.3,84.8,35.7,104.8,78c20.9,44.1,19.9,98.6-2.6,149.4
				c-18.8,42.5-51.2,79.6-91.3,104.4C557,2817.8,511.6,2828.2,470.1,2821.7z" class="Graphic_x0020_Style_x0020_78"></path>
			
				<ellipse ry="95.6" rx="128.6" cy="2636.5" cx="524.5" class="st14" transform="matrix(0.739 -0.6737 0.6737 0.739 -1639.2656 1041.3705)"></ellipse>
			
				<ellipse ry="82.1" rx="110.4" cy="2636.5" cx="524.5" class="st17" transform="matrix(0.739 -0.6737 0.6737 0.739 -1639.2649 1041.3693)"></ellipse>
			<g>
				<g>
					<path d="M537.1,2664.2c1.4-4.6,0.9-8.5-1.3-11.7c-2.3-3.2-6.8-6-13.6-8.6c-9.6-3.3-16-7.5-19.3-12.8
						c-3.3-5.3-3.7-11.9-1.3-20c2.4-8.3,6.8-15,13.1-20.3c6.3-5.3,13.7-8.4,22.3-9.4l4.9-16.5h11.1l-4.9,16.6
						c8,1.2,13.4,4.7,16.3,10.6c2.9,5.9,2.8,14.1-0.2,24.4h-13.7c2.1-7.1,2.1-12.8,0-17c-2.1-4.2-5.9-6.3-11.6-6.3
						c-5.9,0-10.9,1.6-14.9,4.7c-4,3.1-6.9,7.4-8.5,13c-1.5,5.1-1.1,9.2,1.3,12.3c2.4,3.1,7,5.8,13.8,8.3c6.8,2.5,11.9,5.2,15.3,8.2
						c3.4,3,5.4,6.5,6.3,10.5c0.8,4,0.5,8.6-1.1,14c-2.5,8.5-7,15.4-13.6,20.5c-6.6,5.2-14.5,8.3-23.8,9.2l-4.2,14.4h-11l4.2-14.4
						c-9-0.9-15.2-4.2-18.7-10c-3.5-5.8-3.8-13.7-0.9-23.7h13.7c-2.1,7-1.8,12.4,0.7,16.2c2.5,3.8,7.1,5.7,13.7,5.7
						c6.5,0,12.1-1.6,16.7-4.8C532.4,2674,535.5,2669.7,537.1,2664.2z" class="st14"></path>
				</g>
			</g>
		</g>
		<g>
			<g>
				<path d="M675.1,1220.3L553.5,1272l37.2,95.4c0,0,81.8-27.6,143.1,3.5c24.1-64.3,102.9-99.4,102.9-99.4l-37.2-95.4
					L675.1,1220.3z" class="st13"></path>
				<path d="M825.5,1241.6l-37.2-95.4l-123.8,43.9l57.2,150.5c0.3,0.1,0.5,0.2,0.8,0.4
					C746.6,1276.7,825.5,1241.6,825.5,1241.6z" class="st33"></path>
				<path d="M663.8,1190.4l-121.5,51.7l37.2,95.4c0,0,81.1-27.3,142.3,3.1l-57.2-150.5L663.8,1190.4z" class="st29"></path>
				<polygon points="627.4,1097.1 475.7,1249.8 690.7,1259.5 842.5,1106.8" class="st13"></polygon>
				<path d="M876.2,1201.1l39.1,46c0,0,16.3,0.4,21.7-22.2C885.1,1215.3,876.2,1201.1,876.2,1201.1z" class="st13"></path>
				<path d="M797.4,1124.4c0,0,31.4,60.1,84.5,83.4" class="st34"></path>
			</g>
			<line y2="1141.5" x2="808" y1="1172.7" x1="659.1" class="st35"></line>
		</g>
	</g>
</g>
</svg>
