<svg xml:space="preserve" style="enable-background:new 0 0 4000 4000;" viewBox="0 0 4000 4000" y="0px" x="0px" xmlns:xlink="http://www.w3.org/1999/xlink" xmlns="http://www.w3.org/2000/svg" id="Layer_1" version="1.1">
<style type="text/css">
	.Graphic_x0020_Style_x0020_129{fill:#1A1A1A;}
	.Graphic_x0020_Style_x0020_115{fill:url(#SVGID_1_);}
	.Graphic_x0020_Style_x0020_102{fill:#FFFFFF;}
	.Graphic_x0020_Style_x0020_106{fill:#EB485C;}
	.Graphic_x0020_Style_x0020_138{fill:#FFCF4A;}
	.Graphic_x0020_Style_x0020_137{fill:#FFB114;}
	.Graphic_x0020_Style_x0020_171{fill:#DB6767;}
	.Graphic_x0020_Style_x0020_172{fill:#DB6767;}
	.Graphic_x0020_Style_x0020_173{fill:#FFFFFF;}
	.Graphic_x0020_Style_x0020_174{fill:#FFB114;}
	.Graphic_x0020_Style_x0020_175{fill:#DB6767;}
	.Graphic_x0020_Style_x0020_176{fill:#FFDE70;}
	
		.Graphic_x0020_Style_x0020_177{fill:none;stroke:#FFFFFF;stroke-width:2;stroke-linecap:round;stroke-linejoin:round;stroke-miterlimit:10;}
	
		.Graphic_x0020_Style_x0020_178{fill:none;stroke:#1A1A1A;stroke-width:3;stroke-linecap:round;stroke-linejoin:round;stroke-miterlimit:10;}
	
		.Graphic_x0020_Style_x0020_179{fill:none;stroke:#1A1A1A;stroke-width:2;stroke-linecap:round;stroke-linejoin:round;stroke-miterlimit:10;}
	.st0{fill:#1A1A1A;}
	.st1{fill:#339E7E;}
	.st2{fill:#127755;}
	.st3{fill:#D7EFFF;}
	.st4{fill:url(#SVGID_2_);}
	.st5{fill:#152A52;}
	.st6{fill:#102140;}
	.st7{fill:#FFDE70;}
	.st8{fill:#FFCF4A;}
	.st9{fill:#FC9590;}
	.st10{fill:url(#SVGID_3_);}
	.st11{fill:url(#SVGID_4_);}
	.st12{fill:url(#SVGID_5_);}
	.st13{fill:#FFB114;}
	.st14{fill:#CCC4CC;}
	.st15{fill:#FFFFFF;}
	.st16{fill:#D1334A;}
	.st17{fill:#FFFFFF;stroke:#1A1A1A;stroke-width:2;stroke-linecap:round;stroke-linejoin:round;stroke-miterlimit:10;}
	.st18{fill:none;stroke:#E2B433;stroke-width:2;stroke-linecap:round;stroke-linejoin:round;}
	.st19{fill:none;stroke:#E2B433;stroke-width:2;stroke-linecap:round;stroke-linejoin:round;stroke-dasharray:11.9305,11.9305;}
</style>
<linearGradient y2="0" x2="1" y1="0" x1="0" gradientUnits="userSpaceOnUse" id="SVGID_1_">
	<stop style="stop-color:#4085F0" offset="0"></stop>
	<stop style="stop-color:#275DC9" offset="1"></stop>
</linearGradient>
<g>
	<g>
		<path d="M2038.1,1712.9h-1553c-8.7,0-15.8-7.1-15.8-15.8v-38.3c0-8.7,7.1-15.8,15.8-15.8h1553
			c8.7,0,15.8,7.1,15.8,15.8v38.3C2054,1705.8,2046.9,1712.9,2038.1,1712.9z" class="st0"></path>
		<g>
			<path d="M950.6,2011.9c0,0-273.4,443.3-117,816.7" class="Graphic_x0020_Style_x0020_178"></path>
			<g>
				<path d="M1145.2,2049.9c-13.8,27-48.6,36.8-77.7,21.9c29.1,14.9,41.5,48.9,27.7,75.9c-13.8,27-48.6,36.8-77.7,21.9
					c-10.6-5.4-23.8-27.5-29.5-36.7c5.5,14.1,10.1,44.1,3,58c-11.7,22.8-38.2,33.4-63.7,27.5c-5-1.2-9.9-2.9-14.7-5.4
					c-4.8-2.5-9.1-5.4-13-8.8c-15.9-13.9-23.4-34.6-19.7-54c-13.6,14.4-34.7,20.4-55.3,15.6c-5-1.2-9.9-2.9-14.7-5.4
					c-4.8-2.5-9.1-5.4-13-8.8c-19.7-17.2-26.6-44.9-14.9-67.7c7.1-13.9,38.3-26.4,53-30.2c-10.8,0.7-40.6,1.6-51.2-3.8
					c-29.1-14.9-41.5-48.9-27.7-75.9c13.8-27,48.6-36.8,77.7-21.9c-29.1-14.9-41.5-48.9-27.7-75.9c13.8-27,48.6-36.8,77.7-21.9
					c10.6,5.4,23.3,20.2,29,29.4c-5.5-14.1-9.6-36.7-2.5-50.6c11.7-22.8,38.2-33.4,63.7-27.5c5,1.2,9.9,2.9,14.7,5.4
					c4.8,2.5,9.1,5.4,13,8.8c15.9,13.9,23.4,34.6,19.7,54c13.5-14.4,34.7-20.4,55.3-15.6c5,1.2,9.9,2.9,14.7,5.4
					c4.8,2.5,9.1,5.4,13,8.8c19.7,17.2,26.6,44.9,14.9,67.7c-7.1,13.9-28.4,23.3-43.1,27.2c10.8-0.7,30.7,1.4,41.3,6.8
					C1146.7,1988.9,1159,2022.9,1145.2,2049.9z" class="st1"></path>
				<path d="M833.7,1952c33,35.8,70.8,58.7,116.9,59.9c-38.4,32.6-58,82.3-70.8,138.2" class="Graphic_x0020_Style_x0020_179"></path>
				<path d="M1021.4,1873.7c-10.7,60.4-34.8,105.9-70.8,138.2
					c27.7,29.2,69.9,46.5,116.9,59.9" class="Graphic_x0020_Style_x0020_179"></path>
			</g>
		</g>
		<g>
			<path d="M1251.5,2190.8c0,0-312.2,155.5-355.2,423.1" class="Graphic_x0020_Style_x0020_178"></path>
			<g>
				<path d="M1348.3,2280.8c-17.3,10.4-40.5,3.7-51.7-15c11.2,18.7,6.3,42.3-11,52.7c-17.3,10.4-40.5,3.7-51.7-15
					c-4.1-6.8-3.8-24-3.8-31.2c-1.9,9.9-9.8,28.5-18.7,33.9c-14.6,8.8-33.4,5.5-45.7-6.9c-2.4-2.4-4.6-5.2-6.4-8.2s-3.3-6.3-4.3-9.6
					c-4.1-13.5-1.1-27.8,7.9-37.5c-12.8,3.4-26.9-0.7-36.8-10.6c-2.4-2.4-4.6-5.2-6.4-8.2c-1.9-3.1-3.3-6.3-4.3-9.6
					c-5.1-16.7,0.8-34.8,15.4-43.6c9-5.4,31-1.4,40.6,1.5c-6.4-3.4-23.6-13.4-27.7-20.2c-11.2-18.7-6.3-42.3,11-52.7
					c17.3-10.4,40.5-3.7,51.7,15c-11.2-18.7-6.3-42.3,11-52.7c17.3-10.4,40.5-3.7,51.7,15c4.1,6.8,6.1,19.6,6.1,26.8
					c1.9-9.9,7.5-24.2,16.4-29.5c14.6-8.8,33.4-5.5,45.7,6.9c2.4,2.4,4.6,5.2,6.4,8.2c1.9,3.1,3.3,6.3,4.3,9.6
					c4.1,13.5,1.1,27.8-7.9,37.5c12.7-3.4,26.9,0.7,36.8,10.6c2.4,2.4,4.6,5.2,6.4,8.2c1.9,3.1,3.3,6.3,4.3,9.6
					c5.1,16.7-0.8,34.8-15.4,43.6c-9,5.4-24.3,3.2-34,0.2c6.4,3.4,16.9,11.6,21,18.4C1370.6,2246.8,1365.7,2270.4,1348.3,2280.8z" class="st1"></path>
				<path d="M1206.4,2115.7c6.1,31.9,19.5,58.2,45.1,75.1c-33.2,4.9-61.8,26.2-88.7,53.3" class="Graphic_x0020_Style_x0020_179"></path>
				<path d="M1340.2,2137.4c-27.3,30.5-57,47.8-88.7,53.3c5.4,26.3,23.2,51,45.1,75.1" class="Graphic_x0020_Style_x0020_179"></path>
			</g>
		</g>
		<g>
			<path d="M330.9,2704.4c0,0,453.1-121.5,734.8,109.9" class="Graphic_x0020_Style_x0020_178"></path>
			<g>
				<path d="M313.5,2881.4c26.7-4.9,44.1-32.3,38.8-61.2c5.3,28.9,31.4,48.2,58.1,43.3c26.8-4.9,44.1-32.3,38.8-61.2
					c-1.9-10.5-17.5-27.6-23.9-34.8c10.7,8.3,35.3,20,49,17.5c22.6-4.2,38.5-24.2,40-47.7c0.3-4.6,0-9.3-0.9-14
					c-0.9-4.8-2.3-9.2-4.2-13.4c-7.9-17.2-23.7-29-41.3-30.8c15.9-8,26.4-24.6,27.6-43.5c0.3-4.6,0-9.3-0.9-14
					c-0.9-4.8-2.3-9.2-4.2-13.4c-9.7-21.4-31.8-34.4-54.3-30.2c-13.8,2.5-32.5,26.2-39.6,37.7c3.4-9.1,11.8-34.5,9.9-45
					c-5.3-28.8-31.3-48.2-58.1-43.3c-26.7,4.9-44.1,32.3-38.8,61.2c-5.3-28.9-31.3-48.2-58.1-43.3c-26.8,4.9-44.1,32.3-38.8,61.2
					c1.9,10.5,11.3,25.2,17.8,32.5c-10.7-8.3-29.1-17.7-42.9-15.1c-22.6,4.2-38.5,24.2-40,47.7c-0.3,4.6,0,9.3,0.9,14
					c0.9,4.8,2.3,9.2,4.2,13.4c7.9,17.2,23.7,29,41.3,30.8c-15.9,7.9-26.4,24.6-27.6,43.5c-0.3,4.6,0,9.3,0.9,14
					c0.9,4.8,2.3,9.2,4.2,13.4c9.7,21.4,31.8,34.4,54.4,30.2c13.8-2.5,27.4-18.5,34.4-30c-3.4,9.1-6.7,26.8-4.8,37.3
					C260.8,2867,286.8,2886.4,313.5,2881.4z" class="st2"></path>
				<path d="M309.5,2588.5c22.3,37.5,32.2,76,21.4,115.9c37.9-24.6,85.6-28.7,136.9-25.3" class="Graphic_x0020_Style_x0020_177"></path>
				<path d="M194,2729.7c54.7,6.4,100-2.7,136.9-25.3c18,31.3,22,72,21.4,115.9" class="Graphic_x0020_Style_x0020_177"></path>
			</g>
		</g>
		<path d="M638.3,2942.2c-49.8-229.7,67-459.9,269.3-548c175.5-76.5,387.2-33.8,529.1,108.7
			c-40.2-250.7,61.6-431.7,155.9-444.1c83.2-11,197.4,104.3,255.1,278.7c25.5-31.2,71.7-77.3,127.6-75.6
			c99.6,3,163.6,155.9,203.1,250.4c26.5,63.2,59.6,164,66.1,297.6C1709.1,2854,1173.7,2898.1,638.3,2942.2z" class="st3"></path>
		<path d="M2449.6,2871.2c12.9-440.9,236.2-711.9,402.4-701.4c128.9,8.1,251.4,187,313.5,406.6
			c145.3-155.9,369.2-141.3,470.2-13.4c75.6,95.7,80.2,252.1,4.2,379.8c-165.2,29.8-330.4,59.6-495.6,89.4
			C2912.8,2978.5,2681.2,2924.9,2449.6,2871.2z" class="st3"></path>
		<linearGradient y2="3012.0222" x2="3721.292" y1="3012.0222" x1="99.6815" gradientUnits="userSpaceOnUse" id="SVGID_2_">
			<stop style="stop-color:#68B2FC" offset="0"></stop>
			<stop style="stop-color:#529BF7" offset="1"></stop>
		</linearGradient>
		<path d="M3700.1,2971.3c8.9-9.4,13.6-19.1,13.6-29.1c0-83.5-328.9-151.2-734.6-151.2c-29.3,0-58.2,0.4-86.6,1
			c-237.8-20.9-512.8-32.8-805.9-32.8c-601.5,0-1127.1,50.2-1410.9,125.1c-329.5,14.9-576.1,75.3-576.1,147.6
			c0,83.5,328.9,151.2,734.6,151.2c16,0,31.8-0.1,47.5-0.3c298.8,50.4,728,81.9,1204.9,81.9c902.8,0,1634.6-113.2,1634.6-252.7
			C3721.3,2998.2,3714,2984.5,3700.1,2971.3z" class="st4"></path>
		<g>
			<path d="M2528.9,2567.7c0,4,103.3,64.9,87.4,101.9c-15.9,37.1-95.3,244.9-95.3,244.9s-79.4-37.1-38.4-182.7
				c13.5-48-22.5-88.7-22.5-88.7L2528.9,2567.7z" class="st0"></path>
			<path d="M1463.3,2753c-3.7,1.4-110.6,213.2-150.9,211.7c-40.3-1.5-262.8-1.1-262.8-1.1s6.1-87.4,156.7-101.4
				c49.6-4.6,169.6-164.8,169.6-164.8L1463.3,2753z" class="st0"></path>
			<path d="M2937.7,1969.8c-135.3,0.6-270.2-3.1-405.5-2.8c-110.7,0.2-221.7,3.2-333.4,13.1c-15.5,0-39.8,4.4-42,15.5
				c-11.9,51.2,3.2,98.6,28.6,141.7c21.7,36.9,51,70.7,77.5,101.3c77.3,90.6,170.1,163.5,220.9,273.9c15,30,37.2,57,63.1,81.6
				c-58.7,39.6-159.6,103.3-159.6,103.3s-202.7-186.3-367.3-391.1c-22.4-27.9-44.1-56.1-64.5-84.3
				c-109-150.5-180.5-298.6-121.5-379.8c150.9-207.8,733.4-60,733.4-60l329.6-120C2896.9,1666.8,3000,1845.5,2937.7,1969.8z" class="st5"></path>
			<path d="M1821.2,1972.7c-5.6-21.4,74.6-211.4,190.7-209.4c112.7,1.9,359-24.5,359-24.5l-50.3,100.1l-453.5,173
				l-34.1-3.4L1821.2,1972.7z" class="st0"></path>
			<path d="M2937.7,1969.8c-1.7,3.3-3.4,6.6-5.3,9.8c-10,17-23.3,32.8-40.8,46.7c-82.2,65.8-286.3,61.5-448.5,45.3
				c-125.1-12.5-225.3-32.1-225.3-32.1s10,14,26.7,37.4c0,0,0,0,0,0c84.8,119,342.7,481.3,343.3,486.8c0.2,1.9-16.8,14.1-40.9,30.4
				c-25.9-24.6-48-51.6-63.1-81.6c-50.8-110.5-143.6-183.4-220.9-273.9c-26.5-30.6-55.8-64.4-77.5-101.3
				c-10.2-17.3-18.7-35.3-24.5-54c-8.6-27.8-11.2-57.1-4-87.8c2.2-11,26.5-15.5,42-15.5c111.7-10,222.6-12.9,333.3-13.1h0.2
				c17,0,34.1,0,51.1,0.1c80.8,0.3,161.5,1.7,242.3,2.4C2863,1969.7,2900.3,1969.9,2937.7,1969.8z" class="st6"></path>
			<path d="M2985.2,1981.3c-24.8,53.1-64.5,99-111.4,125c-70.1,38.9-269.1,3.7-430.6-34.8
				c-125.1-12.5-225.3-32.1-225.3-32.1s10,14,26.7,37.4l-59.1,60.4l-165.4,169c0,0,0,0,0,0c-3.9-4.8-7.7-9.7-11.6-14.5
				c-18.3-23.2-36.1-46.5-53-69.8c40.6-77,137.3-254.5,139.8-261.9c1.5-4.6,215.9,0.4,436.8,6.8h0.2c21.8,0.6,43.6,1.3,65.3,1.9
				c65.6,1.9,130,4,187.7,5.8c57.5,1.9,108.4,3.5,147.1,4.8C2954.1,1980.3,2972.1,1980.9,2985.2,1981.3z" class="Graphic_x0020_Style_x0020_129"></path>
			<path d="M2529.1,1080.8c-26.1-14-52.1-28.8-78.4-44c-46.4-26.5-97.2-37.6-148-55.2
				c-6.6-2.2-8.8-13.3-11-13.3c-120.2-31-240.4-19.9-360.7-16.3c9,12.2,25.3,23.2,46.4,28.4c0,0,264.8,27.7,319.2,22.6
				c27.7-2.6,107.1,62.1,186.2,115.5C2495.3,1103.6,2511.1,1091.2,2529.1,1080.8z" class="Graphic_x0020_Style_x0020_174"></path>
			<path d="M2482.7,1118.6c76,51.3,151.7,92.2,181,53.3c4.7-6.2,9.8-13.3,14.8-21
				c-51.3-19.7-100.4-43.6-149.4-70C2511.1,1091.2,2495.3,1103.6,2482.7,1118.6z" class="Graphic_x0020_Style_x0020_174"></path>
			<path d="M2672.7,1025.3c-73.3-55.3-259.7-89.1-326.6-114c-121.6-45.2-406.4-3.6-406.4-3.6
				c-19.9,9.9-20.8,28.2-8.7,44.5c120.2-3.6,240.4-14.7,360.7,16.3c2.2,0,4.4,11,11,13.3c50.8,17.7,101.6,28.7,148,55.2
				c26.3,15.2,52.4,30,78.4,44c44.2-25.6,100.9-39,151.6-48.9C2678.2,1029.7,2675.6,1027.4,2672.7,1025.3z" class="st7"></path>
			<path d="M2680.7,1032c-50.7,9.8-107.4,23.3-151.6,48.9c49,26.4,98.1,50.3,149.4,70
				C2700.8,1116.2,2719.8,1068.6,2680.7,1032z" class="Graphic_x0020_Style_x0020_138"></path>
			<path d="M2859.7,1254.8c-6.5,54.5-24.6,108-51.2,155.4c-61.6,109.5-189.4,130.2-310.6,138.1
				c-19.4,118.1-31.3,209.3-31.3,209.3c47.7,74.1,481.8-42.4,481.8-42.4L2859.7,1254.8z" class="st8"></path>
			<path d="M2859.7,1254.8c-6.5,54.5-24.6,108-51.2,155.4c-28.1,50-70,81.4-118.8,101.7
				c-58.1,24.1-125.9,32.1-191.8,36.4c10-60.9,22-128.9,35.5-195.3c34.4-169.9,78.1-328.8,121.3-328.8c92.7,0,177.4,87.4,177.4,87.4
				L2859.7,1254.8z" class="Graphic_x0020_Style_x0020_176"></path>
			<path d="M2790.4,1212.1c-1.8,64.1-74.6,235.5-100.6,299.7
				c-58.1,24.1-125.9,32.1-191.8,36.4c10-60.9,22-128.9,35.5-195.3c36.5-75.6,89.3-173.2,129.7-199.5
				C2731.7,1108.7,2792.5,1133.4,2790.4,1212.1z" class="Graphic_x0020_Style_x0020_138"></path>
			<path d="M3010.2,1898c-4,28.5-12.6,56.8-25,83.3c-24.8,53.1-64.5,99-111.4,125c-70.1,38.9-269.1,3.7-430.6-34.8
				c-126.9-30.2-230.6-62.5-230.6-62.5l-51.6,74.3l-93.3,134.2c0,0-22.6,29-59.2,74.3c-129.7,160.6-434.8,525.2-524.6,517.4
				c-28.8-2.5-53.1-10.8-73.2-21.7c22.9-32.2,43.9-65.3,74.7-91.7c26.5-22.1,61.9-35.3,83.9-61.9c68.5-77.3,143.6-141.4,192.2-231.9
				c33.1-59.6,57.4-112.7,97.2-170.1c44.2-66.3,92.8-114.9,141.4-178.9c30.9-39.8,61.9-75.1,95-112.7c53-59.6,148-70.7,220.9-28.7
				c33.1,17.7,72.9,26.5,114.9,28.7c8.8,2.2,15.5,8.8,24.3,8.8c19.9,0,37.6,2.2,57.4,6.6c23.7,4.2,47.3,8,70.8,11.2
				c4.7,0.6,9.5,1.3,14.2,1.9c63.3,8.1,126.1,11.7,187.7,5.8c13.5-1.3,27-3,40.4-5.3C2888.8,1958.8,2950.6,1936.8,3010.2,1898z" class="st6"></path>
			<path d="M2948.5,1715.2c-319-29.8-430.2,13.9-430.2,13.9s-523.2,28.2-554,71.5l-637.4,896.8c0,0,23.4,57.3,83.7,90.1
				c22.9-32.2,44-65.4,74.7-91.7c26.5-22.1,61.9-35.3,83.9-61.9c68.5-77.3,143.6-141.4,192.2-231.9c33.1-59.6,57.4-112.7,97.2-170.1
				c44.2-66.3,92.8-114.9,141.4-178.9c30.9-39.8,61.9-75.1,95-112.7c53-59.6,148-70.7,220.9-28.7c33.1,17.7,72.9,26.5,114.9,28.7
				c8.8,2.2,15.5,8.8,24.3,8.8c19.9,0,37.6,2.2,57.4,6.6c172.1,30.1,342.1,43.5,497.7-57.8C3019.4,1831.5,3003,1763.8,2948.5,1715.2
				z" class="st5"></path>
			<path d="M1947,1604.6c46.4-17.7,103.8-15.5,154.6-2.2c8,2.7,16.1,4.9,24.3,7c4.8-14.1,6.5-28.9-1.9-37.2
				c0,0-71.7,0.8-131.5-7.9c-50.6-7.3-175.5,45.5-192.7,71.1C1850.5,1643.6,1899.6,1621.7,1947,1604.6z" class="st9"></path>
			<path d="M2101.6,1602.4c-50.8-13.3-108.2-15.5-154.6,2.2c-47.4,17.1-96.5,39-147.2,30.9
				c-1.5,2.2-2.2,4.2-2,6c3,22,162.4,3.9,162.4,3.9s-35.5,10.9-9.5,16.8c26,6,70.9-20.8,96.9-18.4c26,2.4,60.6,1.6,60.6,1.6
				s11.4-17.5,17.6-36C2117.7,1607.3,2109.6,1605,2101.6,1602.4z" class="Graphic_x0020_Style_x0020_175"></path>
			<path d="M2740.7,1139.3c-2.1-1.1-4.1-2-6.2-2.7c-10.4,119.5-25.6,243.2-127.1,322.1
				c-42,30.9-81.7,61.9-132.5,79.5c-92.8,30.9-181.1,57.4-278.3,70.7c-40.2,6.4-79.2,2.3-118.7,0.5c-2.8,13-0.6,26.8,3.6,44.1
				c0,0,455.2,6,547.3-85.4C2720.9,1476.9,2828.1,1187,2740.7,1139.3z" class="Graphic_x0020_Style_x0020_174"></path>
			<path d="M2196.6,1609c97.2-13.3,185.6-39.8,278.3-70.7c50.8-17.7,90.6-48.6,132.5-79.5
				c101.5-78.9,116.6-202.6,127.1-322.1c-85.5-28.2-173.7,314.9-224.2,332.3c-51.6,17.9-398.2,94.7-398.2,94.7
				c-21.3,16.9-31.2,30.8-34.4,45.9C2117.4,1611.3,2156.4,1615.4,2196.6,1609z" class="st7"></path>
			<path d="M2707.6,927.4l82.7,163c0,0-74.5-20.6-100.3,15.2c-25.8,35.7-75.9,40.2-75.9,40.2s74.1-81.1,52.9-132.3
				c-8.6-20.7-18.4-43.7-18.4-43.7s-37,55.6-61.5,33.1c-24.5-22.5-111.4-181.9-39.1-213.1C2642.3,749.1,2707.6,927.4,2707.6,927.4z" class="st9"></path>
			<path d="M2492.7,854.1c2.4,0.9,30,41.5,70.2,17.7c40.2-23.8,59.6,22.1,60.9,24.3c1.3,2.2,19.4-1.8,14.1-21
				s17.2-28.4,27.2-5.9c9.9,22.5-11.3,33.5,10.8,37.9s25.1,4.2,25.1,4.2s1.3-44.8-21.6-98.6c-22.9-53.8-76.2-107.3-113-57.8
				c-45.4-14.6-76.8,15.4-73.7,45.4c3.1,30-34.9,6.6-34.9,6.6S2472.4,846.6,2492.7,854.1z" class="st6"></path>
		</g>
		<linearGradient y2="2050.991" x2="542.8359" y1="2050.991" x1="395.8865" gradientUnits="userSpaceOnUse" id="SVGID_3_">
			<stop style="stop-color:#4085F0" offset="0"></stop>
			<stop style="stop-color:#275DC9" offset="1"></stop>
		</linearGradient>
		<ellipse ry="73.5" rx="73.5" cy="2051" cx="469.4" class="st10"></ellipse>
		<linearGradient y2="1530.964" x2="691.7964" y1="1530.964" x1="587.8876" gradientUnits="userSpaceOnUse" id="SVGID_4_">
			<stop style="stop-color:#68B2FC" offset="0"></stop>
			<stop style="stop-color:#529BF7" offset="1"></stop>
		</linearGradient>
		<path d="M691.8,1531c0,28.7-23.3,52-52,52s-52-23.3-52-52c0-28.7,23.3-52,52-52S691.8,1502.3,691.8,1531z" class="st11"></path>
		<linearGradient y2="1922.9602" x2="3620.6687" y1="1922.9602" x1="3485.6001" gradientUnits="userSpaceOnUse" id="SVGID_5_">
			<stop style="stop-color:#4085F0" offset="0"></stop>
			<stop style="stop-color:#275DC9" offset="1"></stop>
		</linearGradient>
		<path d="M3620.7,1923c0,37.3-30.2,67.5-67.5,67.5s-67.5-30.2-67.5-67.5s30.2-67.5,67.5-67.5
			S3620.7,1885.7,3620.7,1923z" class="st12"></path>
		
			<ellipse ry="51" rx="51" cy="2500.1" cx="3849.4" class="st13" transform="matrix(4.212768e-03 -1 1 4.212768e-03 1333.0435 6338.9258)"></ellipse>
		<g>
			<rect height="575.7" width="575.7" class="st14" y="1066" x="1021"></rect>
			
				<ellipse ry="81.4" rx="81.4" cy="1197.8" cx="1164.5" class="st15" transform="matrix(0.7071 -0.7071 0.7071 0.7071 -505.9265 1174.2419)"></ellipse>
			<polygon points="1180,1390.7 1092.7,1555.5 1269.2,1555.5" class="st16"></polygon>
			<polygon points="1421.3,1125.1 1334.1,1289.9 1510.5,1289.9" class="Graphic_x0020_Style_x0020_137"></polygon>
			<rect height="170.6" width="170.6" class="st15" y="1387.8" x="1337"></rect>
		</g>
		<g>
			<path d="M3450.6,1275.5c0,81.6-118.6,278.8-147.7,278.8c-29.1,0-147.7-197.2-147.7-278.8
				c0-81.6,66.1-147.7,147.7-147.7S3450.6,1193.9,3450.6,1275.5z" class="Graphic_x0020_Style_x0020_106"></path>
			<circle r="70.7" cy="1275.5" cx="3302.8" class="Graphic_x0020_Style_x0020_173"></circle>
		</g>
		<g>
			<path d="M1889.2,1084.7c0-22.2-18-40.3-40.3-40.3h-72.4c-22.2,0-40.3,18-40.3,40.3v362.8h152.9V1084.7z" class="st14"></path>
			<polygon points="1889.2,1447.4 1736.3,1447.4 1797.4,1557.2 1828.1,1557.2" class="Graphic_x0020_Style_x0020_138"></polygon>
			<polygon points="1828.1,1557.2 1797.4,1557.2 1812.8,1584.7" class="st6"></polygon>
			<line y2="1417.6" x2="1776" y1="1145.3" x1="1776" class="st17"></line>
			<line y2="1417.6" x2="1812.7" y1="1145.3" x1="1812.7" class="st17"></line>
			<line y2="1417.6" x2="1849.4" y1="1145.3" x1="1849.4" class="st17"></line>
		</g>
		<path d="M1823.3,972.8c24.3-26.5,64.1-13.3,99.4-19.9c22.2-4.2,42.6-10.9,63.5-15.4c-1-14.9-19.9-27-43.5-19.9
			c0,0-100.4-1-144.9,22c-24.6,12.8-89.4,55.4-72.4,70.3c6.2,5.5,16,7.7,26.1,7.9C1778.4,1010.4,1803.2,997.2,1823.3,972.8z" class="st9"></path>
		<path d="M1922.7,952.9c-35.3,6.6-75.1-6.6-99.4,19.9c-20.1,24.4-44.8,37.6-71.8,45.1
			c12.2,0.2,25-2.7,32.7-6.8c31.5-16.8,105.1-25.7,105.1-25.7s-19,40.5-7.4,38.9c11.5-1.6,16.8-36,35.7-43.5
			c18.9-7.5,55.6-21.1,55.6-21.1c9.7-6.7,13.5-14.7,13-22C1965.3,942,1944.8,948.8,1922.7,952.9z" class="Graphic_x0020_Style_x0020_172"></path>
		<g>
			<g>
				<line y2="1524.8" x2="3302.8" y1="1511.6" x1="3302.8" class="st18"></line>
				<line y2="2855.8" x2="3302.8" y1="1551.2" x1="3302.8" class="st19"></line>
				<line y2="2882.2" x2="3302.8" y1="2868.9" x1="3302.8" class="st18"></line>
			</g>
		</g>
		<g>
			<path d="M1023.1,1543.8l-26.2-32.8l-128.3,79.3l30.3,34.2C957.6,1587.3,1023.1,1543.8,1023.1,1543.8z" class="st15"></path>
			<path d="M868.6,1590.4l-92.9,57.5c0,0,15.8,33.1,34.1,29.2c7.7-1.7,46.6-25.4,89.1-52.5L868.6,1590.4z" class="st0"></path>
			<path d="M1066.7,1548.2l-54.8-103c-9.8,20.3-24.2,37.7-46.3,49.5c-10.4,5.2-22.9,11.7-35.8,17l88.1,75.6
				C1050.5,1594.8,1066.8,1581.8,1066.7,1548.2z" class="st0"></path>
			<path d="M1011.9,1445.3L887.7,1212c-64.8,18.5-115.3,66-158.9,127.2l201,172.6c12.9-5.3,25.4-11.8,35.8-17
				C987.7,1483,1002.1,1465.5,1011.9,1445.3z" class="st15"></path>
			<path d="M887.7,1212c0,0-1.2,39.8-54.4,80.4c-53.2,40.6-71.3,70.3-104.5,46.9C695.7,1315.8,860.2,1184.1,887.7,1212z" class="st0"></path>
			<path d="M837.9,1251.9c0,0-48.1-72.7-84.2-37.1c-36.1,35.6,37.7,84.8,37.7,84.8
				S842.6,1284.6,837.9,1251.9z" class="Graphic_x0020_Style_x0020_138"></path>
		</g>
		<path d="M3128.5,2257.1h-650.6c-6.2,0-11.2-5-11.2-11.2v-112.1c0-6.2,5-11.2,11.2-11.2h650.6c6.2,0,11.2,5,11.2,11.2
			v112.1C3139.8,2252.1,3134.7,2257.1,3128.5,2257.1z" class="st0"></path>
	</g>
	<path d="M2584,1200c0,0,22-60.9,51.4-85c29.4-24.1,156.6-69.3,154.9-65.1s5.7,40.9,5.7,40.9
		S2593.4,1137.1,2584,1200z" class="Graphic_x0020_Style_x0020_102"></path>
	<path d="M3002.9,1111.9" class="st15"></path>
	<path d="M2670.6,932.9l-22,36.9l9.8,23C2658.4,992.8,2674.8,954.9,2670.6,932.9z" class="Graphic_x0020_Style_x0020_171"></path>
</g>
</svg>
