<svg xml:space="preserve" style="enable-background:new 0 0 4000 4000;" viewBox="0 0 4000 4000" y="0px" x="0px" xmlns:xlink="http://www.w3.org/1999/xlink" xmlns="http://www.w3.org/2000/svg" id="Layer_1" version="1.1">
<style type="text/css">
	
		.Graphic_x0020_Style_x0020_251{fill:none;stroke:#1A1A1A;stroke-width:2;stroke-linecap:round;stroke-linejoin:round;stroke-miterlimit:10;}
	.Graphic_x0020_Style_x0020_252{fill:url(#SVGID_1_);}
	.Graphic_x0020_Style_x0020_253{fill:#B080B0;}
	.Graphic_x0020_Style_x0020_254{fill:#CCC4CC;}
	.Graphic_x0020_Style_x0020_255{fill:#D1334A;}
	.Graphic_x0020_Style_x0020_256{fill:#FFFFFF;}
	.Graphic_x0020_Style_x0020_257{fill:#152A52;}
	.Graphic_x0020_Style_x0020_258{fill:url(#SVGID_2_);}
	.Graphic_x0020_Style_x0020_259{fill:#DB6767;}
	.Graphic_x0020_Style_x0020_260{fill:#1A1A1A;}
	.Graphic_x0020_Style_x0020_261{fill:#FFB114;}
	.Graphic_x0020_Style_x0020_262{fill:#FFCF4A;}
	.Graphic_x0020_Style_x0020_263{fill:#FFCF4A;}
	.Graphic_x0020_Style_x0020_264{fill:#102140;}
	
		.Graphic_x0020_Style_x0020_265{fill:#1A1A1A;stroke:#1A1A1A;stroke-width:2;stroke-linecap:round;stroke-linejoin:round;stroke-miterlimit:10;}
	
		.Graphic_x0020_Style_x0020_266{fill:none;stroke:#1A1A1A;stroke-width:2;stroke-linecap:round;stroke-linejoin:round;stroke-miterlimit:10;}
	
		.Graphic_x0020_Style_x0020_267{fill:none;stroke:#1A1A1A;stroke-width:3;stroke-linecap:round;stroke-linejoin:round;stroke-miterlimit:10;}
	.st0{fill:url(#SVGID_3_);}
	.st1{fill:url(#SVGID_4_);}
	.st2{fill:#339E7E;}
	.st3{fill:#127755;}
	.st4{fill:#00593B;}
	.st5{fill:none;stroke:#1A1A1A;stroke-width:2;stroke-linecap:round;stroke-linejoin:round;stroke-miterlimit:10;}
	.st6{fill:none;stroke:#FFFFFF;stroke-width:2;stroke-linecap:round;stroke-linejoin:round;stroke-miterlimit:10;}
	.st7{fill:#B9B4B9;}
	.st8{fill:#CCC4CC;}
	.st9{fill:url(#SVGID_5_);}
	.st10{fill:#691A25;}
	.st11{fill:#5D5A5D;}
	.st12{fill:#8B878B;}
	.st13{fill:#152A52;}
	.st14{fill:#1A1A1A;}
	.st15{fill:#FC9590;}
	.st16{fill:#FFDE70;}
	.st17{fill:#FFB114;}
	.st18{fill:#102140;}
	.st19{fill:#D1334A;}
	.st20{fill:#EF5668;}
	.st21{fill:url(#SVGID_6_);}
	.st22{fill:url(#SVGID_7_);}
	.st23{fill:url(#SVGID_8_);}
	.st24{fill:url(#SVGID_9_);}
	.st25{fill:url(#SVGID_10_);}
</style>
<linearGradient y2="0" x2="1" y1="0" x1="0" gradientUnits="userSpaceOnUse" id="SVGID_1_">
	<stop style="stop-color:#4085F0" offset="0"></stop>
	<stop style="stop-color:#275DC9" offset="1"></stop>
</linearGradient>
<linearGradient y2="0" x2="1" y1="0" x1="0" gradientUnits="userSpaceOnUse" id="SVGID_2_">
	<stop style="stop-color:#68B2FC" offset="0"></stop>
	<stop style="stop-color:#529BF7" offset="1"></stop>
</linearGradient>
<g>
	<g>
		<path d="M1866.8,936.3H935.6c-17.1,0-30.9-13.8-30.9-30.9V651.3
			c0-17.1,13.8-30.9,30.9-30.9h931.2c17.1,0,30.9,13.8,30.9,30.9v254.1C1897.7,922.4,1883.9,936.3,1866.8,936.3z" class="Graphic_x0020_Style_x0020_256"></path>
		<linearGradient y2="628.0421" x2="1320.8207" y1="628.0421" x1="898.7705" gradientUnits="userSpaceOnUse" id="SVGID_3_">
			<stop style="stop-color:#68B2FC" offset="0"></stop>
			<stop style="stop-color:#529BF7" offset="1"></stop>
		</linearGradient>
		<ellipse ry="211" rx="211" cy="628" cx="1109.8" class="st0"></ellipse>
		<path d="M3564.8,774.4h-581.9l-189.2,91.1l35.7-91.1c-33.1,0-59.9-26.8-59.9-59.9V531.1
			c0-33.1,26.8-59.9,59.9-59.9h735.3c33.1,0,59.9,26.8,59.9,59.9v183.4C3624.7,747.6,3597.9,774.4,3564.8,774.4z" class="Graphic_x0020_Style_x0020_256"></path>
		<linearGradient y2="3476.5923" x2="3645.21" y1="3476.5923" x1="1519.0817" gradientUnits="userSpaceOnUse" id="SVGID_4_">
			<stop style="stop-color:#68B2FC" offset="0"></stop>
			<stop style="stop-color:#529BF7" offset="1"></stop>
		</linearGradient>
		<ellipse ry="106.4" rx="1063.1" cy="3476.6" cx="2582.1" class="st1"></ellipse>
		<g>
			<g>
				<g>
					<path d="M3834.8,2550.1c0,0-509.8,188.8-710.7,401.1C3161.5,2878.2,3381.7,2492.2,3834.8,2550.1z" class="st2"></path>
					<path d="M3834.8,2550.1c-117,411.5-716.4,412.9-716.4,412.9s1.9-4.2,5.8-11.8
						C3325,2738.9,3834.8,2550.1,3834.8,2550.1z" class="st3"></path>
					<path d="M2936.7,3242.6c0,0-16.9-39.9,162.8-263.4c7.6-9.4,15.8-18.8,24.6-28.1" class="Graphic_x0020_Style_x0020_267"></path>
				</g>
				<g>
					<path d="M3923,3170.5c-275.4,229.5-723.3-62.8-723.3-62.8s3.4-2,9.8-5.4C3454.8,3052.9,3916.9,3169,3923,3170.5
						C3922.9,3170.5,3923,3170.5,3923,3170.5z" class="st4"></path>
					<path d="M3922.9,3170.5c-6-1.5-468.1-117.5-713.5-68.2C3270.9,3069.6,3611.4,2908.5,3922.9,3170.5z" class="st2"></path>
					<path d="M2936.3,3213.7c0,0,5.6-36.1,241.9-103.9c10-2.9,20.4-5.4,31.3-7.5" class="Graphic_x0020_Style_x0020_267"></path>
				</g>
				<line y2="2627.6" x2="3483.2" y1="2722.9" x1="3452.4" class="st5"></line>
				<line y2="2590.6" x2="3569.5" y1="2680.7" x1="3534.8" class="st5"></line>
				<path d="M3279,2765.9c0,0-45.8,55.7-72.4,111.5" class="st5"></path>
				<line y2="2786.8" x2="3332.3" y1="2711.2" x1="3379.2" class="Graphic_x0020_Style_x0020_266"></line>
				<path d="M3328,3090.4" class="st5"></path>
				<line y2="3092.7" x2="3329.3" y1="3050.1" x1="3416.7" class="st5"></line>
				<line y2="3096.5" x2="3444.2" y1="3040.7" x1="3515.6" class="st5"></line>
				<line y2="3104.5" x2="3564.8" y1="3047.3" x1="3639.3" class="st5"></line>
				<line y2="3119.1" x2="3667.3" y1="3079.5" x1="3721.5" class="st5"></line>
				<path d="M3726.2,3201.2c-1.8-3.4-58.9-82-58.9-82" class="st6"></path>
				<line y2="3231.4" x2="3645.2" y1="3103.4" x1="3566.2" class="st6"></line>
				<line y2="3220.2" x2="3527" y1="3093.5" x1="3450.4" class="st6"></line>
				<line y2="3174.2" x2="3391.9" y1="3090.1" x1="3334.6" class="st6"></line>
				<line y2="2627.6" x2="3648" y1="2680.7" x1="3737.3" class="st6"></line>
				<line y2="2679.2" x2="3538" y1="2765.9" x1="3667.3" class="st6"></line>
				<line y2="2823.8" x2="3582.5" y1="2721.5" x1="3454.9" class="st6"></line>
				<line y2="2873.5" x2="3463.3" y1="2788.7" x1="3332.3" class="st6"></line>
				<line y2="2925.2" x2="3302.4" y1="2875" x1="3209.7" class="st6"></line>
			</g>
			<g>
				<g>
					<path d="M142.3,2594.6c0,0,377.2,139.7,525.9,296.8C640.5,2837.4,477.6,2551.8,142.3,2594.6z" class="st2"></path>
					<path d="M142.3,2594.6c86.6,304.5,530.1,305.5,530.1,305.5s-1.4-3.1-4.3-8.7
						C519.5,2734.3,142.3,2594.6,142.3,2594.6z" class="st3"></path>
					<path d="M793.5,3065.7c0,0,25.9,11.9-107.2-153.5c-5.6-6.9-11.7-13.9-18.2-20.8" class="Graphic_x0020_Style_x0020_267"></path>
				</g>
				<g>
					<path d="M77,3053.7c203.8,169.8,535.2-46.5,535.2-46.5s-2.5-1.5-7.2-4C423.5,2966.7,81.5,3052.6,77,3053.7
						C77.1,3053.7,77,3053.7,77,3053.7z" class="st4"></path>
					<path d="M77.1,3053.7c4.4-1.1,346.4-87,527.9-50.5C559.6,2979,307.6,2859.8,77.1,3053.7z" class="st2"></path>
					<path d="M807.2,3053.7c0,0-4.1,5.3-179-44.9c-7.4-2.1-15.1-4-23.1-5.6" class="Graphic_x0020_Style_x0020_267"></path>
				</g>
				<line y2="2652" x2="402.4" y1="2722.5" x1="425.2" class="st5"></line>
				<line y2="2624.6" x2="338.6" y1="2691.3" x1="364.3" class="st5"></line>
				<path d="M553.5,2754.3c0,0,33.9,41.2,53.6,82.5" class="st5"></path>
				<line y2="2769.8" x2="514.1" y1="2713.8" x1="479.4" class="Graphic_x0020_Style_x0020_266"></line>
				<path d="M517.3,2994.4" class="st5"></path>
				<line y2="2996.1" x2="516.4" y1="2964.6" x1="451.6" class="st5"></line>
				<line y2="2999" x2="431.3" y1="2957.6" x1="378.5" class="st5"></line>
				<line y2="3004.9" x2="342.1" y1="2962.5" x1="286.9" class="st5"></line>
				<line y2="3015.7" x2="266.2" y1="2986.4" x1="226.1" class="st5"></line>
				<path d="M222.6,3076.4c1.3-2.5,43.6-60.7,43.6-60.7" class="st6"></path>
				<line y2="3098.8" x2="282.6" y1="3004.1" x1="341.1" class="st6"></line>
				<line y2="3090.5" x2="370.1" y1="2996.7" x1="426.7" class="st6"></line>
				<line y2="3056.5" x2="470" y1="2994.2" x1="512.4" class="st6"></line>
				<line y2="2652" x2="280.5" y1="2691.3" x1="214.4" class="st6"></line>
				<line y2="2690.1" x2="361.9" y1="2754.3" x1="266.2" class="st6"></line>
				<line y2="2797.1" x2="329" y1="2721.5" x1="423.4" class="st6"></line>
				<line y2="2833.9" x2="417.2" y1="2771.2" x1="514.1" class="st6"></line>
				<line y2="2872.2" x2="536.3" y1="2835" x1="604.8" class="st6"></line>
			</g>
			<g>
				<path d="M363.4,1825.5c0,21.3,347.1,1261.4,347.1,1261.4h1468.3l-386.1-1269.8l-1373-28.4L363.4,1825.5z" class="st7"></path>
				<path d="M419.8,1788.7c0,21.3,368.9,1298.2,368.9,1298.2h1468.3l-386.1-1269.8
					L419.8,1788.7z" class="Graphic_x0020_Style_x0020_256"></path>
				<path d="M1826.4,1873.8L500,1845.4c0,2.5,5.6,23.9,15.2,59.3l1330.3,32.4L1826.4,1873.8z" class="Graphic_x0020_Style_x0020_257"></path>
				<path d="M2176.6,3030.1l-331-1093l-1330.3-32.4c65.7,240.2,321.4,1125.4,321.4,1125.4H2176.6z" class="st8"></path>
				<linearGradient y2="2260.2219" x2="1542.1683" y1="2260.2219" x1="1110.4232" gradientUnits="userSpaceOnUse" id="SVGID_5_">
					<stop style="stop-color:#68B2FC" offset="0"></stop>
					<stop style="stop-color:#529BF7" offset="1"></stop>
				</linearGradient>
				<path d="M1536.9,2260.2c-26.1-114.2-141.6-206.9-257.9-206.9c-116.3,0-189.4,92.6-163.3,206.9
					c26.1,114.2,141.6,206.9,257.9,206.9C1489.9,2467.1,1563,2374.5,1536.9,2260.2z" class="st9"></path>
				<path d="M1372.2,2187c-8.8-26.8-42.8-48.8-76-49.1c-33.3-0.3-52.8,21.4-43.6,48.4
					c9.2,26.8,43.3,48.5,76.2,48.6C1361.6,2235,1381,2213.6,1372.2,2187z" class="Graphic_x0020_Style_x0020_256"></path>
				<path d="M1353.2,2235l-24.3-0.1l-24.4-0.1c-43.4-0.1-69,28.1-56.9,62.9l29,83.8l201.7-1
					l-27-82.8C1440,2263.3,1396.2,2235.1,1353.2,2235z" class="Graphic_x0020_Style_x0020_256"></path>
				<rect height="48.4" width="904.8" class="st10" y="3253.1" x="887.9"></rect>
				<rect height="102.5" width="904.8" class="st11" y="3149.9" x="887.9"></rect>
				<rect height="48.4" width="1503.4" class="st10" y="3253.1" x="1583.9"></rect>
				<rect height="102.5" width="1503.4" class="st12" y="3149.9" x="1583.9"></rect>
			</g>
			<path d="M2519.4,3146.6c0,0,64.5,331.6,20.1,337.8c-44.3,6.2-392.8,0-392.8,0
				s12.4-69.2,46.1-82.5c33.7-13.3,222.6-65.6,224.3-110c1.8-44.3-9.8-131.2-9.8-131.2L2519.4,3146.6z" class="Graphic_x0020_Style_x0020_265"></path>
			<path d="M3060.7,2990.6c0,0,69.2,170.9,101.1,191.1c31.9,20.2,58.5,55.9,58.5,55.9
				s-45.2,225.1-93.1,236.1c-47.9,11-135.7,0-135.7,0s29.3-81.3,63.8-96.9c5.3-84.2,33-100.1-14.1-178.6
				c-47.1-78.6-87-126.1-87-126.1L3060.7,2990.6z" class="Graphic_x0020_Style_x0020_265"></path>
			<path d="M2893.2,2703c-52.9-126.9-121.6-237.8-150.6-375.3c-2.6-13.2-13.2-21.1-15.9-34.4
				c-22.2-222.5-9.8-442.6-8.1-664.8l-232.4-29.3c0,0,10.6,635.8,33.1,731.6c22.4,95.8,404,770.9,441.3,792.1
				c29.4,16.8,73-27.2,103.2-60.9c-8.7-35.5-17.7-69.7-30.6-102.7C2996.3,2866.8,2932.9,2792.8,2893.2,2703z" class="st13"></path>
			<path d="M2829.4,2341.4c-95.8-236.8-69.2-707.6-69.2-707.6l-41.6-5.3
				c-1.7,222.2-14.1,442.3,8.1,664.8c2.6,13.2,13.2,21.1,15.9,34.4c29.1,137.4,97.8,248.4,150.6,375.3
				c39.6,89.9,103.1,163.8,140.1,256.3c12.8,33,21.8,67.2,30.6,102.7c8.1-9.1,15.3-17.4,20.9-23.6
				C3111.4,3009.2,2925.2,2578.2,2829.4,2341.4z" class="Graphic_x0020_Style_x0020_264"></path>
			<polygon points="2801.2,2252.5 2685.6,2663.1 2608.2,2544.2 2775.1,2163.9" class="Graphic_x0020_Style_x0020_260"></polygon>
			<path d="M2483.6,3020.1c18.5-118.9,34.4-232.6,68.7-348.8c23.8-76.6,58.1-148,89.9-219.3
				c117.5-275.8,89.4-591,34.9-876.6h-222.7c0,0-95.8,210.2-79.8,502.8c16,292.6-66.5,1005.6,22.2,1107.5
				c28.8,3.5,62.2,6.4,89.7,4.8C2482.7,3134.2,2475.9,3077.6,2483.6,3020.1z" class="st13"></path>
			<path d="M2844,1790.8c-47.6-293.2-110.4-215.5-110.4-215.5h-56.6
				c54.5,285.6,82.6,600.8-34.9,876.6c-31.7,71.4-66.1,142.7-89.9,219.3c-34.4,116.3-50.2,229.9-68.7,348.8
				c-7.8,57.5-0.9,114.1,2.8,170.3c26.7-1.6,47.9-7.5,53.9-21.6c16.4-38.4-6.3-117.2,8.3-188.9
				C2574.1,2854.9,2887.9,2061.2,2844,1790.8z" class="Graphic_x0020_Style_x0020_264"></path>
			<path d="M2440.3,1609.7c0,0-9.3,28.4-10.1,30.9s215.8,68.4,325.8,57.8c57.9-10.6,61.1-33.5,61.1-33.5l-13.8-37.5
				L2440.3,1609.7z" class="st14"></path>
			<path d="M1978.9,1135.8c34.4,95.1,42.3,200.8,124.2,261.6c122.7,91.4,249.1-22.3,368.1-93.3l-35.7-95.1
				c0,0-247.8,157.4-285.7,111.1c-37.9-46.4-167.2-283.6-216-360c-48.7-76.5-128.6-86.2-128.6-86.2s-49.9,0.8-8.8,63.6
				c41.1,62.8,61.3,81.8,61.3,81.8s-55.1,9.8-75.3,17.6c-11.4,4.4-16.1,12-13.4,18.2C1852.4,1040.9,1946.3,1047.5,1978.9,1135.8z" class="st15"></path>
			<path d="M2103.1,1397.5c-81.9-60.8-89.9-166.5-124.2-261.6
				c-32.6-88.4-126.5-94.9-209.8-80.8c2.3,5.4,10.2,9.8,24,10.2c29.9,1.1,114.5,1.3,138.8,34.1c24.3,32.7,131.9,335,204.5,363.6
				c72.6,28.6,341.9-140,341.9-140l-7.1-18.9C2352.1,1375.2,2225.7,1488.9,2103.1,1397.5z" class="Graphic_x0020_Style_x0020_259"></path>
			<path d="M2265.5,1292.4c10,86,26.2,145.8,51.1,184.8c37.9-86.9,40.8-191.7,50-289.3
				C2338,1228.8,2300.4,1274.5,2265.5,1292.4z" class="st16"></path>
			<path d="M2504.9,1240.1c-5.3-106.4-90.4-128.1-90.4-128.1s-19.6,35.6-47.8,75.9
				c-9.2,97.6-12.1,202.5-50,289.3c14.7,23,22.4,7.4,43.9,17C2397.7,1478.2,2510.2,1346.5,2504.9,1240.1z" class="Graphic_x0020_Style_x0020_263"></path>
			<path d="M2423.6,1116.5c0,0-28.3,82.9-32,150.2c-3.8,67.4,4,200,4,200l31-35.2L2423.6,1116.5z" class="st17"></path>
			<path d="M2570.8,1508.5c115.5-163.6,143.3-355.6,117.5-544.2c-1.9-3.7-3.9-7.3-5.8-10.7
				c-21.9-37.7-47.5-57.5-77.7-48.6c0,0-173.8,33.1-193.9,232.9c-8.2,81.2-12.2,175.2-11.1,259.1c1.1,78.8,6.8,148.6,18,190.3
				c6.3-0.9,12.4-1.6,18.3-2.2C2488.9,1579.8,2539.1,1556,2570.8,1508.5z" class="st16"></path>
			<path d="M2804.6,1529.2c-16.9-112.8-46.4-430.4-116.2-564.9
				c25.8,188.6-2.1,380.6-117.5,544.2c-31.7,47.6-81.9,71.4-134.8,76.6c-5.9,0.5-12,1.3-18.3,2.2c6.2,23.1,14.1,37.6,23.9,40.1
				c46.1,11.8,284.9,63.8,319.2,53.2C2795.1,1669.9,2827,1679.4,2804.6,1529.2z" class="Graphic_x0020_Style_x0020_262"></path>
			<path d="M2564.8,1080c0,0-19.3,28.7-21.2,55.8c-1,13.5,10.2,75.2,9.2,134.5
				c-1,59.7-14.1,117.1,12.4,130.3c52.8,26.4,162.2,77.3,193.1,17.9C2789.2,1359.1,2564.8,1080,2564.8,1080z" class="Graphic_x0020_Style_x0020_261"></path>
			<path d="M2708.3,1265.3c38.8-92.2,30.8-204.5-9.6-298c-5.8-5.9-11.6-11.3-17.4-16c-64.6,20.2-104.6,66.9-128.4,131
				c0,0,16.4,248.4,0.8,316.7c0.6,0.9,1.2,1.8,1.9,2.6C2621.9,1377.5,2681.3,1329.5,2708.3,1265.3z" class="st16"></path>
			<path d="M2698.6,967.4c40.5,93.5,48.5,205.7,9.6,298c-26.9,64.2-86.4,112.2-152.8,136.3
				c78.8,111.7,246.4,56.2,238.4,5.8C2823.4,1189.4,2766.6,1037.3,2698.6,967.4z" class="Graphic_x0020_Style_x0020_261"></path>
			<path d="M2565.2,1400.6c-5.4-26.7,40.8-76.6,130.2-69.2c43.9,3.6,106.5,34.3,84.3,79.5
				c-11.5,23.4-31.5,43.7-109.9,33.1C2596.8,1434.2,2567.8,1413.5,2565.2,1400.6z" class="Graphic_x0020_Style_x0020_260"></path>
			<path d="M2529.1,991.3l-56.7-81.6c0,0-64.2,65-87.1,48.5s-76.1-191.5-47.7-230.6c28.4-39,80.4-96.9,134.8-59.1
				c54.4,37.8,94.3,215.2,133.5,242.4C2610.7,991.3,2529.1,991.3,2529.1,991.3z" class="st15"></path>
			<path d="M2491.4,886.6l-19,23l19,23.4C2491.4,933.1,2500.8,903.6,2491.4,886.6z" class="Graphic_x0020_Style_x0020_259"></path>
			<path d="M2274.4,692.1c0,0,24.6,76.3,83.3,79.8c79.9-14.2,79.9-14.2,79.9-14.2s3.5,55,21.3,55c17.7,0,9-60.3,9-60.3
				s19.9,17.7,37.4,51.4s3.8,50,63,45.4c59.2-4.6,80.6-135.8,32.7-208.6C2552.8,568,2332.9,484.6,2274.4,692.1z" class="st18"></path>
			<path d="M2570.1,1723.7c-51,63.7-124.2,119-156.4,155.1c-16,55.6-32.8,72.7-68.4,95.6
				c-69.7,44.9-138.3,40.2-150.1,5.9c-1-2.8-1.5-5.2-1.6-7.2c-1-22,49.9,1.3,100.9-76.5c-37.8,8.6-79.8,12.4-74.5-6.2
				c5.3-18.6,96-17.7,234.4-150.7c138.3-133,188.9-399,188.9-399s35.3-21.8,87.4,1.7c3.5,1.6,7.1,3.3,10.7,5.3
				C2749.7,1473.1,2657.5,1614.5,2570.1,1723.7z" class="st15"></path>
			<path d="M2570.1,1723.7c-51,63.7-124.2,119-156.4,155.1c-16,55.6-32.8,72.7-68.4,95.6
				c-69.7,44.9-138.3,40.2-150.1,5.9c-1-2.8-1.5-5.2-1.6-7.2c100.4,52.8,192.3-83,206-111.8c13.7-28.9,67.9-50.2,196.4-203.4
				c98.9-117.8,127-257.3,134.7-315.4c3.5,1.6,7.1,3.3,10.7,5.3C2749.7,1473.1,2657.5,1614.5,2570.1,1723.7z" class="Graphic_x0020_Style_x0020_259"></path>
			<line y2="3297.1" x2="3790.1" y1="3297.1" x1="194.8" class="Graphic_x0020_Style_x0020_251"></line>
			<path d="M1391.2,2248.5c0,0-711-200.1-583.4-914.4c141.9,51.9,182,58.7,182,58.7h50.9l-191.5-462l-547.4,218.8
				l177.3,77.9C479.1,1227.5,214.4,2097,1391.2,2248.5z" class="st19"></path>
			<path d="M1391.2,2248.5c0,0-660.2-200.1-532.5-914.4c141.9,51.9,182,58.7,182,58.7l-191.5-462l-496.5,218.8
				l177.3,77.9C530,1227.5,310.5,2094.3,1391.2,2248.5z" class="st20"></path>
			<path d="M1014.3,3086.9c0,0-23.6,44.2,24.8,59.7c145.4,3.3,189.2,0,189.2,0s-26-39.2-20.1-59.7
				C1106.5,3086.9,1014.3,3086.9,1014.3,3086.9z" class="st12"></path>
			<path d="M1057.2,3086.9c0,0-23.6,44.2,24.8,59.7c145.4,3.3,189.2,0,189.2,0s-26-39.2-20.1-59.7
				C1149.4,3086.9,1057.2,3086.9,1057.2,3086.9z" class="st7"></path>
			<path d="M1667.2,3086.9c0,0-23.6,44.2,24.8,59.7c145.4,3.3,189.2,0,189.2,0s-26-39.2-20.1-59.7
				C1759.4,3086.9,1667.2,3086.9,1667.2,3086.9z" class="st12"></path>
			<path d="M1710.1,3086.9c0,0-23.6,44.2,24.8,59.7c145.4,3.3,189.2,0,189.2,0s-26-39.2-20.1-59.7
				C1802.3,3086.9,1710.1,3086.9,1710.1,3086.9z" class="st7"></path>
			<linearGradient y2="2656.2917" x2="1835.2147" y1="2656.2917" x1="1066.7794" gradientUnits="userSpaceOnUse" id="SVGID_6_">
				<stop style="stop-color:#68B2FC" offset="0"></stop>
				<stop style="stop-color:#529BF7" offset="1"></stop>
			</linearGradient>
			<path d="M1122.4,2616.4c0,0,602.1,13.7,658,13.7s80.2,62.4,18.1,65.6c-62.1,3.3-624.9-11.8-676.2-9.5
				C1071.2,2688.5,1028.3,2616.4,1122.4,2616.4z" class="st21"></path>
		</g>
		<polygon points="1225.2,2732.3 1746.8,2732.3 1756.5,2763.2 1232.8,2763.2" class="Graphic_x0020_Style_x0020_256"></polygon>
		<polygon points="1241.2,2805.8 1762.8,2805.8 1772.5,2836.6 1248.8,2836.6" class="Graphic_x0020_Style_x0020_257"></polygon>
		<rect height="24.8" width="558.8" class="Graphic_x0020_Style_x0020_254" y="535.3" x="2933"></rect>
		<rect height="24.8" width="558.8" class="Graphic_x0020_Style_x0020_254" y="608" x="2933"></rect>
		<rect height="24.8" width="558.8" class="Graphic_x0020_Style_x0020_254" y="680.7" x="2933"></rect>
		<ellipse ry="60.3" rx="60.3" cy="523.8" cx="1119.7" class="Graphic_x0020_Style_x0020_256"></ellipse>
		<path d="M1243,759.6H996.5V625.7c0-23,18.7-41.7,41.7-41.7h163.1c23,0,41.7,18.7,41.7,41.7
			V759.6z" class="Graphic_x0020_Style_x0020_256"></path>
		<rect height="21.5" width="500.1" class="Graphic_x0020_Style_x0020_255" y="684" x="1329"></rect>
		<rect height="21.5" width="500.1" class="Graphic_x0020_Style_x0020_254" y="738.1" x="1329"></rect>
		<rect height="21.5" width="500.1" class="Graphic_x0020_Style_x0020_254" y="792.3" x="1329"></rect>
		<rect height="21.5" width="500.1" class="Graphic_x0020_Style_x0020_254" y="846.4" x="1329"></rect>
		<rect height="36.9" width="267.2" class="Graphic_x0020_Style_x0020_253" y="868.5" x="976.2"></rect>
		<linearGradient y2="2603.0386" x2="3257.7405" y1="2603.0386" x1="3103.6992" gradientUnits="userSpaceOnUse" id="SVGID_7_">
			<stop style="stop-color:#4085F0" offset="0"></stop>
			<stop style="stop-color:#275DC9" offset="1"></stop>
		</linearGradient>
		<polygon points="3133.5,2538.5 3257.7,2581.5 3227.9,2667.6 3103.7,2624.6" class="st22"></polygon>
		<linearGradient y2="2280.8467" x2="3202.5225" y1="2506.9187" x1="3260.9241" gradientUnits="userSpaceOnUse" id="SVGID_8_">
			<stop style="stop-color:#68B2FC" offset="0"></stop>
			<stop style="stop-color:#EBF0F7" offset="1"></stop>
		</linearGradient>
		<polygon points="3267.6,2363.6 3223.4,2418.9 3186.9,2389.7 3231.1,2334.4" class="st23"></polygon>
		<linearGradient y2="1956.7745" x2="185.1599" y1="2570.9368" x1="335.8751" gradientUnits="userSpaceOnUse" id="SVGID_9_">
			<stop style="stop-color:#68B2FC" offset="0"></stop>
			<stop style="stop-color:#EBF0F7" offset="1"></stop>
		</linearGradient>
		<polygon points="334.1,2358.8 168.6,2301.6 198.4,2215.5 363.9,2272.8" class="st24"></polygon>
		<linearGradient y2="1681.9625" x2="1680.538" y1="1681.9625" x1="1538.1705" gradientUnits="userSpaceOnUse" id="SVGID_10_">
			<stop style="stop-color:#4085F0" offset="0"></stop>
			<stop style="stop-color:#275DC9" offset="1"></stop>
		</linearGradient>
		<polygon points="1635,1750.9 1538.2,1663.4 1583.7,1613 1680.5,1700.6" class="st25"></polygon>
	</g>
	<path d="M2593.2,1788.7c0,0-21.1,145.7,129.8,158.7" class="Graphic_x0020_Style_x0020_251"></path>
</g>
</svg>
