<?xml version="1.0" standalone="no"?><!DOCTYPE svg PUBLIC "-//W3C//DTD SVG 1.1//EN" "http://www.w3.org/Graphics/SVG/1.1/DTD/svg11.dtd"><svg height="4000" node-id="1" sillyvg="true" template-height="4000" template-width="4000" version="1.1" viewBox="0 0 4000 4000" width="4000" xmlns="http://www.w3.org/2000/svg" xmlns:xlink="http://www.w3.org/1999/xlink"><defs node-id="173"><linearGradient gradientUnits="userSpaceOnUse" id="SVGID_2_" node-id="32" spreadMethod="pad" x1="1114.7002" x2="1200.073" y1="974.6557" y2="974.6557"><stop offset="0" stop-color="#68b2fc"></stop><stop offset="1" stop-color="#529bf7"></stop></linearGradient><linearGradient gradientUnits="userSpaceOnUse" id="SVGID_3_" node-id="37" spreadMethod="pad" x1="1113.101" x2="1222.0371" y1="1016.5085" y2="1016.5085"><stop offset="0" stop-color="#68b2fc"></stop><stop offset="1" stop-color="#529bf7"></stop></linearGradient><linearGradient gradientUnits="userSpaceOnUse" id="SVGID_4_" node-id="41" spreadMethod="pad" x1="1129.6302" x2="1219.794" y1="1046.7172" y2="1046.7172"><stop offset="0" stop-color="#68b2fc"></stop><stop offset="1" stop-color="#529bf7"></stop></linearGradient><linearGradient gradientUnits="userSpaceOnUse" id="SVGID_5_" node-id="50" spreadMethod="pad" x1="2028.5261" x2="2011.6063" y1="2595.8718" y2="3023.088"><stop offset="0" stop-color="#68b2fc"></stop><stop offset="1" stop-color="#ebf0f7"></stop></linearGradient><linearGradient gradientUnits="userSpaceOnUse" id="SVGID_6_" node-id="83" spreadMethod="pad" x1="2743.0432" x2="2824.3787" y1="1616.3125" y2="1616.3125"><stop offset="0" stop-color="#4085f0"></stop><stop offset="1" stop-color="#275dc9"></stop></linearGradient><linearGradient gradientUnits="userSpaceOnUse" id="SVGID_7_" node-id="87" spreadMethod="pad" x1="2957.6692" x2="2994.3276" y1="2405.4158" y2="2131.8857"><stop offset="0" stop-color="#68b2fc"></stop><stop offset="1" stop-color="#ebf0f7"></stop></linearGradient><linearGradient gradientUnits="userSpaceOnUse" id="SVGID_8_" node-id="91" spreadMethod="pad" x1="2367.6106" x2="2415.953" y1="1753.8531" y2="1753.8531"><stop offset="0" stop-color="#4085f0"></stop><stop offset="1" stop-color="#275dc9"></stop></linearGradient><linearGradient gradientUnits="userSpaceOnUse" id="SVGID_9_" node-id="95" spreadMethod="pad" x1="333.8127" x2="415.2931" y1="2155.9766" y2="2155.9766"><stop offset="0" stop-color="#4085f0"></stop><stop offset="1" stop-color="#275dc9"></stop></linearGradient><linearGradient gradientUnits="userSpaceOnUse" id="SVGID_10_" node-id="103" spreadMethod="pad" x1="2569.3557" x2="2865.0696" y1="906.997" y2="906.997"><stop offset="0" stop-color="#68b2fc"></stop><stop offset="1" stop-color="#529bf7"></stop></linearGradient><linearGradient gradientUnits="userSpaceOnUse" id="SVGID_11_" node-id="160" spreadMethod="pad" x1="263.215" x2="3134.2883" y1="3079.1035" y2="3079.1035"><stop offset="0" stop-color="#68b2fc"></stop><stop offset="1" stop-color="#529bf7"></stop></linearGradient></defs><g node-id="519"><g node-id="520"><g node-id="521"><g node-id="527"><path d="M 950.60 1245.70 C 950.60 1245.70 946.90 1248.00 940.20 1252.40" fill="none" group-id="1,2,3,9" node-id="246" stroke="#ffb600" stroke-linecap="round" stroke-width="2" target-height="6.7000732" target-width="10.399963" target-x="940.2" target-y="1245.7"></path><path d="M 919.40 1266.40 C 788.90 1355.40 301.70 1712.80 489.10 1972.30 C 704.70 2270.80 1029.60 1790.00 1074.70 2160.90 C 1112.60 2472.70 892.00 2633.50 820.70 2676.80" fill="none" group-id="1,2,3,9" node-id="248" stroke="#ffb600" stroke-dasharray="12.1038 12.1038" stroke-linecap="round" stroke-width="2" target-height="1410.4" target-width="810.89996" target-x="301.7" target-y="1266.4"></path><path d="M 809.80 2683.20 C 802.80 2687.10 798.90 2689.10 798.90 2689.10" fill="none" group-id="1,2,3,9" node-id="250" stroke="#ffb600" stroke-linecap="round" stroke-width="2" target-height="5.9001465" target-width="10.899963" target-x="798.9" target-y="2683.2"></path></g></g><g node-id="522"><path d="M 693.40 1279.70 C 693.40 1279.70 558.60 1431.40 602.40 1406.00 C 646.20 1380.60 611.20 1429.90 575.90 1454.30 C 540.60 1478.70 485.20 1553.40 508.90 1539.10 C 532.60 1524.80 741.80 1349.80 741.80 1349.80 L 693.40 1279.70 Z" fill="#eb485c" fill-rule="nonzero" group-id="1,2,4" node-id="256" stroke="none" target-height="273.70007" target-width="256.59998" target-x="485.2" target-y="1279.7"></path><path d="M 825.80 1439.20 C 825.80 1439.20 689.00 1525.70 711.70 1539.20 C 734.40 1552.80 725.60 1585.70 692.80 1608.80 C 660.10 1631.90 587.60 1716.30 639.40 1686.30 C 691.20 1656.30 830.80 1521.30 813.20 1552.10 C 795.60 1582.90 765.30 1624.80 792.20 1610.90 C 819.10 1597.10 881.10 1502.30 881.10 1502.30 L 825.80 1439.20 Z" fill="#eb485c" fill-rule="nonzero" group-id="1,2,4" node-id="258" stroke="none" target-height="277.1001" target-width="293.5" target-x="587.6" target-y="1439.2"></path><path d="M 665.40 1287.70 C 670.20 1301.30 676.30 1313.80 683.60 1325.20 C 690.10 1320.80 696.50 1316.50 702.90 1312.20 C 693.80 1300.80 687.50 1288.00 686.00 1273.90 L 665.40 1287.70 Z" fill="#1a1a1a" fill-rule="nonzero" group-id="1,2,4" node-id="260" stroke="none" target-height="51.299927" target-width="37.5" target-x="665.4" target-y="1273.9"></path><path d="M 810.80 1190.40 L 686.00 1273.90 C 687.60 1288.00 693.80 1300.80 702.90 1312.20 C 752.80 1279.00 801.40 1249.30 841.90 1202.30 C 847.70 1194.60 851.10 1186.40 852.90 1177.90 C 840.60 1176.60 825.30 1180.60 810.80 1190.40 Z" fill="#ffde70" fill-rule="nonzero" group-id="1,2,4" node-id="262" stroke="none" target-height="135.59998" target-width="166.90002" target-x="686" target-y="1176.6"></path><path d="M 702.90 1312.20 C 696.50 1316.50 690.00 1320.80 683.60 1325.20 C 698.70 1348.50 719.10 1367.20 745.00 1381.00 L 766.10 1358.20 C 742.70 1347.20 718.60 1331.80 702.90 1312.20 Z" fill="#1a1a1a" fill-rule="nonzero" group-id="1,2,4" node-id="264" stroke="none" target-height="68.80005" target-width="82.5" target-x="683.6" target-y="1312.2"></path><path d="M 877.10 1193.30 L 871.60 1186.80 C 867.30 1181.70 860.70 1178.70 852.90 1177.80 C 851.10 1186.20 847.70 1194.40 841.90 1202.20 C 801.40 1249.20 752.90 1279.00 702.90 1312.10 C 718.60 1331.70 742.70 1347.10 766.10 1358.20 L 864.00 1252.70 C 883.60 1231.80 888.20 1206.50 877.10 1193.30 Z" fill="#ffb114" fill-rule="nonzero" group-id="1,2,4" node-id="266" stroke="none" target-height="180.3999" target-width="185.29999" target-x="702.9" target-y="1177.8"></path><path d="M 851.40 1515.50 C 858.80 1521.20 866.90 1526.20 875.60 1530.10 L 887.80 1517.00 C 881.20 1513.10 875.10 1508.50 869.30 1503.20 C 863.40 1507.40 857.50 1511.60 851.40 1515.50 Z" fill="#1a1a1a" fill-rule="nonzero" group-id="1,2,4" node-id="268" stroke="none" target-height="26.900024" target-width="36.399963" target-x="851.4" target-y="1503.2"></path><path d="M 1007.70 1342.40 L 1002.20 1335.90 C 998.30 1331.40 992.70 1328.50 986.10 1327.30 C 979.20 1399.20 929.30 1459.30 869.30 1503.10 C 875.10 1508.40 881.30 1513.10 887.80 1516.90 L 994.70 1401.80 C 1014.30 1380.90 1018.90 1355.50 1007.70 1342.40 Z" fill="#ffb114" fill-rule="nonzero" group-id="1,2,4" node-id="270" stroke="none" target-height="189.59998" target-width="149.60004" target-x="869.3" target-y="1327.3"></path><path d="M 815.80 1423.50 L 796.00 1436.80 C 809.80 1469.70 827.50 1497.10 851.40 1515.50 C 857.40 1511.50 863.40 1507.40 869.30 1503.10 C 846.20 1482.00 829.00 1451.20 815.80 1423.50 Z" fill="#1a1a1a" fill-rule="nonzero" group-id="1,2,4" node-id="272" stroke="none" target-height="92" target-width="73.29999" target-x="796" target-y="1423.5"></path><path d="M 986.10 1327.40 C 973.50 1325.10 957.00 1328.90 941.40 1339.40 L 815.80 1423.50 C 829.00 1451.20 846.10 1482.00 869.30 1503.10 C 929.30 1459.40 979.20 1399.30 986.10 1327.40 Z" fill="#ffcf4a" fill-rule="nonzero" group-id="1,2,4" node-id="274" stroke="none" target-height="178" target-width="170.29999" target-x="815.8" target-y="1325.1"></path><path d="M 1405.30 869.90 C 1405.30 869.90 1405.30 869.90 1390.80 853.30 C 1390.10 852.50 1389.50 851.80 1388.70 850.90 C 1381.70 843.00 1328.00 849.30 1260.70 866.20 C 1306.60 884.80 1342.20 921.70 1364.50 965.10 C 1379.60 934.70 1393.50 903.20 1406.80 871.70 C 1406.40 871.10 1405.90 870.50 1405.30 869.90 Z" fill="#ffffff" fill-rule="nonzero" group-id="1,2,4" node-id="276" stroke="none" target-height="122.099976" target-width="146.1001" target-x="1260.7" target-y="843"></path><path d="M 1260.80 866.20 C 1167.50 889.60 1048.40 933.20 992.50 987.00 C 927.20 1049.90 883.30 1149.90 861.90 1207.70 C 883.80 1238.40 907.10 1268.10 933.00 1295.10 C 934.30 1294.50 935.60 1293.90 936.90 1293.30 C 1004.10 1263.60 1069.40 1228.00 1138.60 1200.30 C 1248.60 1157.20 1313.90 1067.00 1364.60 965.10 C 1342.30 921.70 1306.60 884.80 1260.80 866.20 Z" fill="#ffde70" fill-rule="nonzero" group-id="1,2,4" node-id="278" stroke="none" target-height="428.89996" target-width="502.69995" target-x="861.9" target-y="866.2"></path><path d="M 1138.60 1200.30 C 1069.40 1228.00 1004.10 1263.60 936.90 1293.30 C 935.60 1293.90 934.30 1294.50 933.00 1295.10 C 950.80 1313.70 969.80 1331.00 990.40 1346.50 C 1051.20 1332.20 1151.80 1302.00 1220.60 1247.30 C 1282.20 1198.30 1341.70 1083.50 1377.00 993.50 C 1373.50 983.80 1369.40 974.30 1364.70 965.10 C 1313.90 1067.00 1248.60 1157.20 1138.60 1200.30 Z" fill="#bfa754" fill-rule="nonzero" group-id="1,2,4" node-id="280" stroke="none" target-height="381.40002" target-width="444" target-x="933" target-y="965.1"></path><path d="M 1407.40 872.20 C 1407.20 872.00 1407.10 871.80 1406.90 871.70 C 1393.50 903.30 1379.70 934.70 1364.60 965.10 C 1369.30 974.30 1373.40 983.80 1376.90 993.50 C 1401.50 930.70 1414.20 880.00 1407.40 872.20 Z" fill="#ccc4cc" fill-rule="nonzero" group-id="1,2,4" node-id="282" stroke="none" target-height="121.79999" target-width="49.599976" target-x="1364.6" target-y="871.7"></path><path d="M 861.90 1207.70 C 851.80 1235.00 846.60 1252.90 846.60 1252.90 C 862.80 1302.50 892.00 1338.50 937.80 1357.00 C 937.80 1357.00 958.70 1353.90 990.30 1346.50 C 939.90 1308.50 898.80 1259.60 861.90 1207.70 Z" fill="#152a52" fill-rule="nonzero" group-id="1,2,4" node-id="284" stroke="none" target-height="149.30005" target-width="143.70001" target-x="846.6" target-y="1207.7"></path><g node-id="528"><path d="M 1171.93 933.39 L 1178.39 934.09 L 1184.58 935.26 L 1190.55 936.89 L 1196.30 938.98 L 1201.90 941.53 L 1207.20 944.46 L 1212.21 947.76 L 1216.97 951.45 L 1221.43 955.50 L 1225.53 959.84 L 1229.30 964.48 L 1232.73 969.43 L 1235.76 974.63 L 1238.38 980.03 L 1240.59 985.67 L 1242.38 991.55 L 1243.70 997.53 L 1244.54 1003.66 L 1244.89 1009.95 L 1244.73 1016.44 L 1244.03 1022.90 L 1242.86 1029.09 L 1241.23 1035.06 L 1239.14 1040.81 L 1236.59 1046.41 L 1233.66 1051.71 L 1230.36 1056.73 L 1226.67 1061.48 L 1222.62 1065.94 L 1218.28 1070.05 L 1213.64 1073.81 L 1208.69 1077.24 L 1203.50 1080.27 L 1198.09 1082.89 L 1192.45 1085.10 L 1186.57 1086.89 L 1180.59 1088.21 L 1174.46 1089.05 L 1168.17 1089.40 L 1161.68 1089.24 L 1155.22 1088.54 L 1149.03 1087.37 L 1143.06 1085.74 L 1137.31 1083.65 L 1131.71 1081.10 L 1126.41 1078.17 L 1121.40 1074.87 L 1116.64 1071.18 L 1112.18 1067.13 L 1108.08 1062.79 L 1104.31 1058.15 L 1100.88 1053.20 L 1097.85 1048.01 L 1095.23 1042.60 L 1093.02 1036.96 L 1091.23 1031.08 L 1089.91 1025.10 L 1089.07 1018.98 L 1088.73 1012.68 L 1088.88 1006.19 L 1089.58 999.73 L 1090.75 993.54 L 1092.38 987.57 L 1094.47 981.82 L 1097.02 976.22 L 1099.95 970.92 L 1103.25 965.91 L 1106.94 961.15 L 1110.99 956.69 L 1115.33 952.59 L 1119.97 948.82 L 1124.92 945.40 L 1130.11 942.36 L 1135.52 939.74 L 1141.16 937.54 L 1147.04 935.74 L 1153.02 934.42 L 1159.15 933.58 L 1165.44 933.24 L 1171.93 933.39 Z" fill="#ffffff" fill-rule="nonzero" group-id="1,2,4,10" node-id="288" stroke="none" target-height="156.15991" target-width="156.15991" target-x="1088.7253" target-y="933.23596"></path></g><path d="M 1130.50 969.80 C 1123.00 976.40 1117.80 984.50 1114.70 993.20 L 1200.10 967.20 C 1179.60 951.80 1150.50 952.20 1130.50 969.80 Z" fill="url(#SVGID_2_)" fill-rule="nonzero" group-id="1,2,4" node-id="291" stroke="none" target-height="41.400024" target-width="85.400024" target-x="1114.7" target-y="951.8"></path><path d="M 1218.70 992.40 C 1216.40 986.20 1213.00 980.20 1208.40 974.90 C 1205.80 972.00 1203.10 969.40 1200.10 967.20 L 1114.70 993.20 C 1111.30 1003.10 1110.70 1013.80 1113.10 1024.00 L 1218.70 992.40 Z" fill="#ffffff" fill-rule="nonzero" group-id="1,2,4" node-id="293" stroke="none" target-height="56.799988" target-width="108" target-x="1110.7" target-y="967.2"></path><path d="M 1222.00 1011.10 C 1222.00 1004.80 1220.90 998.50 1218.70 992.40 L 1113.10 1024.00 C 1114.50 1029.80 1116.80 1035.40 1120.10 1040.70 L 1222.00 1011.10 Z" fill="url(#SVGID_3_)" fill-rule="nonzero" group-id="1,2,4" node-id="295" stroke="none" target-height="48.299927" target-width="108.900024" target-x="1113.1" target-y="992.4"></path><path d="M 1129.60 1052.10 C 1150.10 1070.90 1181.90 1071.60 1203.20 1052.80 C 1211.40 1045.60 1216.90 1036.60 1219.70 1026.90 L 1129.60 1052.10 Z" fill="url(#SVGID_4_)" fill-rule="nonzero" group-id="1,2,4" node-id="297" stroke="none" target-height="44.69995" target-width="90.099976" target-x="1129.6" target-y="1026.9"></path><path d="M 1222.00 1011.10 L 1120.00 1040.70 C 1121.50 1043.20 1123.30 1045.50 1125.20 1047.80 C 1126.60 1049.40 1128.00 1050.80 1129.50 1052.20 L 1219.70 1027.00 C 1221.30 1021.70 1222.10 1016.40 1222.00 1011.10 Z" fill="#ffffff" fill-rule="nonzero" group-id="1,2,4" node-id="299" stroke="none" target-height="41.099976" target-width="102.099976" target-x="1120" target-y="1011.1"></path><path d="M 1258.90 866.70 C 1258.90 866.70 1332.50 891.00 1377.00 993.40" fill="none" group-id="1,2,4" node-id="301" stroke="#1a1a1a" stroke-linecap="round" stroke-width="3" target-height="126.70001" target-width="118.099976" target-x="1258.9" target-y="866.7"></path></g><g node-id="523"><path d="M 798.90 2689.10 C 798.90 2689.10 1254.70 2275.90 1949.30 2503.40 C 2203.80 2188.20 2476.70 2160.80 2741.70 2222.90 C 2920.20 2027.30 3010.40 1936.10 3136.00 1960.20 L 3227.70 2140.60 L 3335.70 1758.60 L 3335.70 1704.10 L 3014.40 1655.20 L 3086.40 1790.40 C 2945.70 1804.90 2827.20 1890.10 2713.30 1989.60 C 2713.30 1989.60 2139.50 1908.10 1938.80 2329.40 C 1717.70 2311.80 1153.90 2232.20 798.90 2689.10 Z" fill="#ffb114" fill-rule="nonzero" group-id="1,2,5" node-id="306" stroke="none" target-height="1033.9001" target-width="2536.7998" target-x="798.9" target-y="1655.2"></path><path d="M 798.90 2689.10 C 798.90 2689.10 1236.40 2243.70 1931.00 2471.10 C 2185.50 2155.90 2458.40 2128.50 2723.40 2190.60 C 2901.90 1995.00 3019.10 1907.30 3144.80 1931.30 L 3222.60 2093.90 L 3335.80 1703.90 L 2971.70 1564.80 L 3068.20 1758.00 C 2927.50 1772.50 2809.00 1857.70 2695.10 1957.20 C 2695.10 1957.20 2121.30 1875.70 1920.60 2297.00 C 1699.40 2279.60 1153.90 2232.20 798.90 2689.10 Z" fill="#ffde70" fill-rule="nonzero" group-id="1,2,5" node-id="308" stroke="none" target-height="1124.3" target-width="2536.9" target-x="798.9" target-y="1564.8"></path></g><path d="M 1031.20 2947.20 C 1079.50 2916.90 1170.30 2868.70 1301.10 2845.90 C 1537.00 2804.80 1729.30 2876.40 1779.40 2896.50 C 1785.20 2767.20 1905.60 2657.20 2069.90 2626.50 C 2209.10 2600.50 2360.30 2635.10 2460.10 2715.10 C 2520.30 2637.20 2624.40 2585.30 2730.00 2588.50 C 2910.70 2594.00 3043.60 2759.20 2991.10 2879.60 C 2960.50 2949.70 2874.80 2987.00 2841.50 2999.80 C 2238.10 2982.40 1634.70 2964.80 1031.20 2947.20 Z" fill="url(#SVGID_5_)" fill-rule="nonzero" group-id="1,2" node-id="311" stroke="none" target-height="414.5" target-width="2012.4001" target-x="1031.2" target-y="2585.3"></path><path d="M 1112.90 2086.40 C 1146.50 2029.00 1211.80 2009.30 1257.30 1963.80 C 1273.10 1950.00 1292.90 1946.00 1310.70 1934.10 C 1325.40 1924.30 1340.20 1928.00 1353.80 1934.10 C 1349.50 1918.90 1344.20 1908.50 1322.70 1906.30 C 1286.60 1902.60 1134.60 2025.80 1108.30 2058.90 C 1090.20 2081.80 1096.60 2097.20 1111.10 2105.10 C 1109.90 2098.10 1109.70 2091.70 1112.90 2086.40 Z" fill="#ffffff" fill-rule="nonzero" group-id="1,2,6" node-id="315" stroke="none" target-height="202.50012" target-width="263.6001" target-x="1090.2" target-y="1902.6"></path><path d="M 1365.80 1970.70 C 1359.10 1957.00 1356.60 1944.40 1353.70 1934.10 C 1340.10 1928.00 1325.30 1924.30 1310.60 1934.10 C 1292.80 1946.00 1273.00 1949.90 1257.20 1963.80 C 1211.70 2009.30 1146.40 2029.10 1112.80 2086.40 C 1109.60 2091.70 1109.90 2098.10 1111.10 2105.10 C 1117.60 2108.60 1125.80 2110.70 1134.00 2111.20 C 1147.50 2112.10 1189.30 2109.00 1227.20 2105.70 C 1223.20 2087.00 1216.20 2067.70 1223.60 2052.80 C 1250.80 2000.00 1309.00 1982.90 1365.80 1970.70 Z" fill="#572658" fill-rule="nonzero" group-id="1,2,6" node-id="317" stroke="none" target-height="187.80005" target-width="256.20007" target-x="1109.6" target-y="1924.3"></path><path d="M 1223.60 2052.80 C 1216.20 2067.60 1223.20 2087.00 1227.20 2105.70 C 1264.10 2102.50 1297.40 2099.20 1297.40 2099.20 L 1395.40 2035.50 C 1395.40 2035.50 1381.60 2003.10 1365.80 1970.80 C 1309.00 1982.90 1250.80 2000.00 1223.60 2052.80 Z" fill="#1a1a1a" fill-rule="nonzero" group-id="1,2,6" node-id="319" stroke="none" target-height="134.8999" target-width="179.20007" target-x="1216.2" target-y="1970.8"></path><path d="M 1866.40 2205.10 C 1911.90 2098.50 1929.50 1981.00 1930.20 1863.60 L 1747.40 1904.50 L 1653.80 2223.10 C 1653.80 2223.10 1574.60 2397.40 1613.40 2495.60 C 1616.80 2494.40 1620.10 2493.10 1623.00 2491.80 C 1739.80 2434.50 1817.00 2323.70 1866.40 2205.10 Z" fill="#152a52" fill-rule="nonzero" group-id="1,2,6" node-id="321" stroke="none" target-height="632.0001" target-width="355.59998" target-x="1574.6" target-y="1863.6"></path><path d="M 1930.30 1863.60 C 1929.50 1981.00 1911.90 2098.40 1866.50 2205.10 C 1817.10 2323.80 1739.90 2434.50 1623.20 2491.90 C 1620.30 2493.10 1617.00 2494.50 1613.60 2495.70 C 1627.70 2531.40 1657.30 2557.00 1711.90 2560.70 C 1916.90 2574.50 2017.10 1844.30 2017.10 1844.30 L 1930.30 1863.60 Z" fill="#102140" fill-rule="nonzero" group-id="1,2,6" node-id="323" stroke="none" target-height="730.19995" target-width="403.5" target-x="1613.6" target-y="1844.3"></path><path d="M 1730.30 2094.80 C 1730.30 2094.80 1820.50 2108.90 1716.20 2266.80 C 1611.90 2424.70 1601.00 2450.60 1601.00 2450.60 L 1608.40 2371.50 L 1730.30 2094.80 Z" fill="#1a1a1a" fill-rule="nonzero" group-id="1,2,6" node-id="325" stroke="none" target-height="355.80005" target-width="219.5" target-x="1601" target-y="2094.8"></path><path d="M 1518.30 2396.90 C 1484.70 2436.50 1419.40 2466.10 1393.70 2416.70 C 1330.10 2293.10 1289.90 2162.80 1274.60 2025.90 C 1252.30 2038.70 1235.20 2053.40 1236.60 2068.10 C 1236.60 2068.10 1275.30 2525.10 1409.30 2551.00 C 1517.40 2575.70 1643.70 2371.30 1736.20 2186.70 C 1731.10 2191.10 1725.80 2195.30 1720.10 2199.20 C 1637.00 2254.50 1579.60 2319.80 1518.30 2396.90 Z" fill="#102140" fill-rule="nonzero" group-id="1,2,6" node-id="327" stroke="none" target-height="549.7999" target-width="501" target-x="1235.2" target-y="2025.9"></path><path d="M 1749.70 2046.80 C 1678.50 2149.60 1631.00 2246.60 1553.90 2341.50 C 1534.50 2366.80 1509.40 2388.20 1497.20 2417.10 C 1505.00 2411.00 1512.20 2404.10 1518.30 2396.90 C 1579.60 2319.80 1637.00 2254.50 1720.00 2199.10 C 1725.60 2195.20 1731.00 2191.00 1736.10 2186.60 C 1759.70 2139.50 1781.10 2093.60 1799.50 2053.20 L 1862.70 1943.70 C 1819.70 1971.10 1781.50 2002.70 1749.70 2046.80 Z" fill="#102140" fill-rule="nonzero" group-id="1,2,6" node-id="329" stroke="none" target-height="473.40015" target-width="365.5" target-x="1497.2" target-y="1943.7"></path><path d="M 1619.70 1858.00 C 1619.70 1858.00 1471.20 2092.20 1462.30 2157.60 C 1396.90 1983.70 1368.70 1987.10 1368.70 1987.10 C 1368.70 1987.10 1313.60 2003.40 1274.60 2025.80 C 1289.90 2162.80 1330.10 2293.00 1393.70 2416.60 C 1398.90 2426.60 1405.70 2433.40 1413.60 2437.50 C 1413.00 2436.00 1412.80 2434.30 1413.50 2432.40 C 1412.90 2434.30 1413.00 2436.00 1413.60 2437.50 C 1437.50 2449.90 1470.90 2437.70 1497.20 2417.00 C 1509.30 2388.10 1534.50 2366.70 1553.90 2341.40 C 1631.00 2246.50 1678.50 2149.50 1749.70 2046.70 C 1781.50 2002.50 1819.60 1971.00 1862.70 1943.60 L 1912.20 1857.90 L 1619.70 1857.90 Z" fill="#152a52" fill-rule="nonzero" group-id="1,2,6" node-id="331" stroke="none" target-height="591.9999" target-width="637.6" target-x="1274.6" target-y="1857.9"></path><path d="M 1613.90 1858.00 L 1608.30 1876.20 C 1608.30 1876.20 1635.80 1926.90 1770.10 1937.50 C 1904.40 1948.10 2004.50 1906.50 2004.50 1906.50 L 2014.70 1881.80 L 1613.90 1858.00 Z" fill="#1a1a1a" fill-rule="nonzero" group-id="1,2,6" node-id="333" stroke="none" target-height="90.099976" target-width="406.3999" target-x="1608.3" target-y="1858"></path><path d="M 1601.20 1678.60 C 1581.90 1748.00 1574.90 1818.80 1606.60 1859.90 C 1658.60 1927.20 1827.80 1930.10 1939.50 1911.90 C 1835.20 1892.90 1726.20 1905.30 1644.90 1831.40 C 1602.20 1793.50 1596.30 1733.90 1601.20 1678.60 Z" fill="#d1334a" fill-rule="nonzero" group-id="1,2,6" node-id="335" stroke="none" target-height="251.5" target-width="364.59998" target-x="1574.9" target-y="1678.6"></path><path d="M 2041.70 1874.50 C 2048.20 1859.70 2058.10 1799.60 2063.50 1725.70 C 2057.70 1723.00 2051.30 1721.20 2044.40 1720.50 C 1993.00 1716.50 1941.60 1710.60 1892.10 1724.50 C 1791.20 1754.20 1650.80 1756.10 1613.20 1653.30 C 1612.30 1651.20 1611.60 1649.10 1610.80 1647.00 C 1607.40 1657.40 1604.10 1668.00 1601.20 1678.70 C 1596.30 1734.10 1602.20 1793.60 1644.90 1831.40 C 1726.20 1905.30 1835.20 1892.90 1939.50 1911.90 C 1994.50 1902.80 2035.50 1888.70 2041.70 1874.50 Z" fill="#eb485c" fill-rule="nonzero" group-id="1,2,6" node-id="337" stroke="none" target-height="264.90002" target-width="467.19995" target-x="1596.3" target-y="1647"></path><path d="M 2032.60 1382.30 C 2061.00 1377.20 2079.50 1358.60 2093.40 1335.40 C 2046.30 1362.80 1989.50 1369.90 1989.50 1369.90 L 1993.60 1384.40 C 2006.70 1384.60 2019.70 1384.10 2032.60 1382.30 Z" fill="#eb485c" fill-rule="nonzero" group-id="1,2,6" node-id="339" stroke="none" target-height="49.19995" target-width="103.8999" target-x="1989.5" target-y="1335.4"></path><path d="M 2228.70 1031.20 C 2228.70 1031.20 2175.60 1257.40 2128.70 1307.90 C 2118.60 1318.80 2106.30 1327.90 2093.40 1335.40 C 2079.40 1358.70 2060.90 1377.30 2032.60 1382.30 C 2019.70 1384.10 2006.70 1384.60 1993.60 1384.40 L 2044.40 1564.90 C 2044.40 1564.90 2044.50 1564.90 2044.70 1564.80 C 2046.20 1564.50 2053.50 1562.80 2064.40 1559.50 C 2070.70 1536.00 2081.80 1514.80 2103.70 1501.00 C 2139.30 1477.30 2176.90 1459.50 2196.70 1423.90 C 2256.00 1319.10 2269.90 1204.40 2289.70 1085.70 C 2292.70 1062.90 2302.80 1042.50 2308.10 1020.70 C 2280.00 1006.00 2253.20 1007.00 2228.70 1031.20 Z" fill="#ef5668" fill-rule="nonzero" group-id="1,2,6" node-id="341" stroke="none" target-height="558.9" target-width="314.50012" target-x="1993.6" target-y="1006"></path><path d="M 2322.30 1029.20 C 2317.50 1025.90 2312.80 1023.10 2308.10 1020.60 C 2302.70 1042.30 2292.70 1062.80 2289.70 1085.60 C 2269.90 1204.30 2256.10 1319.00 2196.70 1423.80 C 2176.90 1459.40 2139.30 1477.20 2103.70 1500.90 C 2081.80 1514.70 2070.70 1535.90 2064.40 1559.40 C 2108.90 1546.20 2213.70 1507.00 2235.30 1427.30 C 2263.00 1325.60 2325.00 1031.10 2325.00 1031.10 C 2324.20 1030.50 2323.20 1029.90 2322.30 1029.20 Z" fill="#d1334a" fill-rule="nonzero" group-id="1,2,6" node-id="343" stroke="none" target-height="538.80005" target-width="260.6001" target-x="2064.4" target-y="1020.6"></path><path d="M 1822.90 1402.10 C 1785.00 1426.80 1745.70 1442.30 1705.40 1451.60 C 1695.20 1461.70 1687.50 1471.80 1682.90 1481.00 C 1682.90 1481.00 1639.90 1558.80 1610.80 1646.90 C 1611.50 1649.00 1612.30 1651.10 1613.20 1653.20 C 1650.80 1756.00 1791.20 1754.10 1892.10 1724.40 C 1941.50 1710.60 1993.00 1716.50 2044.40 1720.40 C 2051.40 1721.10 2057.70 1723.00 2063.50 1725.60 C 2072.60 1600.90 2068.60 1436.70 2012.80 1384.00 C 1947.70 1387.30 1880.40 1366.10 1822.90 1402.10 Z" fill="#ef5668" fill-rule="nonzero" group-id="1,2,6" node-id="345" stroke="none" target-height="389.90002" target-width="461.80005" target-x="1610.8" target-y="1366.1"></path><path d="M 1705.40 1451.60 C 1745.60 1442.30 1784.90 1426.80 1822.90 1402.10 C 1880.40 1366.20 1947.60 1387.30 2012.90 1384.10 C 2005.90 1377.50 1998.20 1372.70 1989.50 1369.90 C 1888.90 1337.10 1760.70 1396.40 1705.40 1451.60 Z" fill="#eb485c" fill-rule="nonzero" group-id="1,2,6" node-id="347" stroke="none" target-height="114.5" target-width="307.5" target-x="1705.4" target-y="1337.1"></path><path d="M 1488.70 1607.80 C 1383.90 1621.60 1285.00 1683.00 1178.20 1679.00 C 1176.10 1678.90 1173.90 1678.60 1171.80 1678.20 C 1175.10 1681.10 1179.40 1683.80 1184.60 1686.30 C 1236.40 1710.60 1588.20 1621.20 1653.60 1604.20 C 1601.70 1587.00 1541.70 1599.50 1488.70 1607.80 Z" fill="#d1334a" fill-rule="nonzero" group-id="1,2,6" node-id="349" stroke="none" target-height="123.599976" target-width="481.79993" target-x="1171.8" target-y="1587"></path><path d="M 1608.90 1463.70 C 1652.70 1462.00 1695.70 1456.20 1737.60 1442.60 L 1749.70 1416.60 L 1608.90 1463.70 Z" fill="#eb485c" fill-rule="nonzero" group-id="1,2,6" node-id="351" stroke="none" target-height="47.099976" target-width="140.79993" target-x="1608.9" target-y="1416.6"></path><path d="M 1191.70 1603.10 C 1191.70 1603.10 1138.70 1649.60 1171.80 1678.10 C 1173.90 1678.50 1176.10 1678.70 1178.20 1678.90 C 1285.00 1682.90 1383.90 1621.50 1488.70 1607.70 C 1541.70 1599.40 1601.70 1587.00 1653.50 1604.10 C 1660.20 1602.40 1663.90 1601.40 1663.90 1601.40 L 1737.60 1442.60 C 1695.70 1456.20 1652.60 1462.00 1608.90 1463.70 L 1191.70 1603.10 Z" fill="#ef5668" fill-rule="nonzero" group-id="1,2,6" node-id="353" stroke="none" target-height="240.30005" target-width="598.9" target-x="1138.7" target-y="1442.6"></path><path d="M 2240.70 1024.80 C 2240.70 1024.80 2225.50 1032.80 2236.80 1040.50 C 2248.10 1048.30 2326.00 1049.60 2314.70 1032.70 C 2303.40 1016.00 2240.70 1024.80 2240.70 1024.80 Z" fill="#d1334a" fill-rule="nonzero" group-id="1,2,6" node-id="355" stroke="none" target-height="33.599976" target-width="100.5" target-x="2225.5" target-y="1016"></path><path d="M 1934.50 1383.20 L 1918.50 1292.70 C 1918.50 1292.70 1957.90 1280.00 1949.90 1240.00 C 1941.90 1200.10 1919.20 1151.10 1909.50 1133.80 C 1899.80 1116.60 1851.20 1105.80 1826.80 1148.80 C 1802.40 1191.90 1805.20 1234.90 1829.90 1284.60 C 1854.70 1334.30 1850.00 1407.30 1850.00 1407.30 C 1850.00 1407.30 1938.50 1451.90 1934.50 1383.20 Z" fill="#fc9590" fill-rule="nonzero" group-id="1,2,6" node-id="357" stroke="none" target-height="346.09998" target-width="155.5" target-x="1802.4" target-y="1105.8"></path><path d="M 1945.00 1157.40 C 1945.00 1157.40 1898.60 1202.40 1863.70 1194.30 C 1862.00 1232.90 1872.40 1249.30 1872.40 1249.30 C 1872.40 1249.30 1863.20 1265.70 1849.10 1241.70 C 1835.10 1217.70 1826.60 1227.50 1826.60 1227.50 C 1826.60 1227.50 1813.50 1255.00 1829.90 1284.60 C 1846.30 1314.20 1849.40 1367.30 1849.40 1367.30 C 1853.70 1367.80 1799.70 1382.20 1783.30 1395.20 C 1732.50 1302.10 1719.90 1158.90 1832.20 1113.70 C 1944.40 1068.70 1945.00 1157.40 1945.00 1157.40 Z" fill="#102140" fill-rule="nonzero" group-id="1,2,6" node-id="359" stroke="none" target-height="326.5" target-width="225.09998" target-x="1719.9" target-y="1068.7"></path><path d="M 1819.20 1141.50 C 1819.20 1141.50 1821.40 1031.40 1771.90 1050.90 C 1722.40 1070.40 1753.50 1182.20 1819.20 1141.50 Z" fill="#102140" fill-rule="nonzero" group-id="1,2,6" node-id="361" stroke="none" target-height="150.79993" target-width="99" target-x="1722.4" target-y="1031.4"></path><path d="M 1194.70 1605.30 C 1194.70 1605.30 1221.60 1606.30 1225.10 1638.00 C 1228.60 1669.70 1217.10 1683.40 1194.70 1684.90 C 1172.30 1686.40 1167.20 1655.40 1171.70 1637.70 C 1176.20 1620.00 1188.20 1606.60 1194.70 1605.30 Z" fill="#d1334a" fill-rule="nonzero" group-id="1,2,6" node-id="363" stroke="none" target-height="81.099976" target-width="61.400024" target-x="1167.2" target-y="1605.3"></path><path d="M 1120.80 1711.70 C 1086.80 1705.70 1056.10 1743.60 1021.80 1728.40 C 1019.90 1727.80 1018.00 1726.90 1016.20 1725.80 C 1019.10 1735.90 1030.40 1742.70 1049.90 1745.40 C 1080.20 1749.70 1107.90 1725.50 1120.80 1711.70 Z" fill="#db6767" fill-rule="nonzero" group-id="1,2,6" node-id="365" stroke="none" target-height="44" target-width="104.60004" target-x="1016.2" target-y="1705.7"></path><path d="M 1212.30 1645.70 C 1213.60 1632.90 1211.00 1617.50 1190.80 1616.40 C 1190.80 1616.40 1072.40 1643.60 1038.40 1679.50 C 1020.30 1698.60 1013.00 1714.40 1016.30 1725.90 C 1018.10 1726.90 1020.00 1727.80 1021.90 1728.50 C 1056.20 1743.70 1086.80 1705.80 1120.90 1711.80 C 1125.90 1706.50 1128.70 1702.80 1128.70 1702.80 C 1128.70 1702.80 1133.00 1708.50 1131.00 1728.70 C 1129.80 1740.60 1132.30 1748.00 1136.60 1752.10 C 1139.10 1749.00 1140.60 1745.00 1140.60 1740.40 C 1142.40 1695.50 1172.40 1659.60 1212.30 1645.70 Z" fill="#fc9590" fill-rule="nonzero" group-id="1,2,6" node-id="367" stroke="none" target-height="135.69995" target-width="200.59998" target-x="1013" target-y="1616.4"></path><path d="M 1140.60 1740.30 C 1140.60 1744.90 1139.10 1748.90 1136.60 1752.00 C 1139.70 1754.90 1143.70 1756.10 1148.10 1756.10 C 1158.80 1756.10 1157.20 1707.60 1160.90 1697.80 C 1164.60 1688.10 1208.30 1662.80 1208.30 1662.80 C 1208.30 1662.80 1211.40 1654.80 1212.40 1645.50 C 1172.40 1659.60 1142.40 1695.50 1140.60 1740.30 Z" fill="#db6767" fill-rule="nonzero" group-id="1,2,6" node-id="369" stroke="none" target-height="110.599976" target-width="75.80005" target-x="1136.6" target-y="1645.5"></path><path d="M 2754.80 1587.30 L 2824.40 1611.40 L 2812.60 1645.30 L 2743.00 1621.20 Z" fill="url(#SVGID_6_)" fill-rule="nonzero" group-id="1,2" node-id="372" stroke="none" target-height="58" target-width="81.3999" target-x="2743" target-y="1587.3"></path><path d="M 3022.50 2306.60 L 2942.60 2337.40 L 2922.30 2284.70 L 3002.10 2253.90 Z" fill="url(#SVGID_7_)" fill-rule="nonzero" group-id="1,2" node-id="374" stroke="none" target-height="83.5" target-width="100.19995" target-x="2922.3" target-y="2253.9"></path><path d="M 2383.70 1784.40 L 2367.60 1733.50 L 2399.80 1723.30 L 2416.00 1774.30 Z" fill="url(#SVGID_8_)" fill-rule="nonzero" group-id="1,2" node-id="376" stroke="none" target-height="61.099976" target-width="48.399902" target-x="2367.6" target-y="1723.3"></path><path d="M 356.10 2200.60 L 333.80 2130.10 L 393.00 2111.30 L 415.30 2181.90 Z" fill="url(#SVGID_9_)" fill-rule="nonzero" group-id="1,2" node-id="378" stroke="none" target-height="89.30005" target-width="81.5" target-x="333.8" target-y="2111.3"></path><path d="M 2305.50 941.20 C 2303.50 947.10 2301.50 957.00 2303.50 957.00 C 2314.50 960.70 2325.40 959.70 2336.20 956.60 C 2335.10 951.20 2329.10 948.50 2318.20 950.90 C 2296.60 955.60 2318.20 938.70 2331.40 906.70 C 2337.80 891.00 2339.30 870.00 2333.20 857.90 C 2336.80 885.60 2316.00 915.70 2305.50 941.20 Z" fill="#db6767" fill-rule="nonzero" group-id="1,2" node-id="380" stroke="none" target-height="102.79999" target-width="42.69995" target-x="2296.6" target-y="857.9"></path><path d="M 2300.40 1038.30 C 2300.40 1038.30 2303.60 1020.00 2310.60 1002.50 C 2301.90 1015.50 2293.30 1028.40 2286.10 1041.60 C 2294.20 1040.50 2300.40 1038.30 2300.40 1038.30 Z" fill="#db6767" fill-rule="nonzero" group-id="1,2" node-id="382" stroke="none" target-height="39.099976" target-width="24.5" target-x="2286.1" target-y="1002.5"></path><path d="M 2336.20 956.60 C 2325.40 959.70 2314.50 960.70 2303.50 957.00 C 2301.50 957.00 2303.50 947.10 2305.50 941.20 C 2316.00 915.70 2336.80 885.60 2333.20 857.80 C 2326.80 845.20 2312.20 842.30 2286.30 865.30 C 2235.50 910.40 2246.00 1020.00 2249.60 1027.90 C 2256.40 1042.70 2273.60 1043.40 2286.00 1041.60 C 2293.20 1028.40 2301.80 1015.50 2310.50 1002.50 C 2314.20 993.10 2319.10 984.00 2325.10 978.10 C 2333.60 969.80 2337.30 961.90 2336.20 956.60 Z" fill="#fc9590" fill-rule="nonzero" group-id="1,2" node-id="384" stroke="none" target-height="201.10004" target-width="101.80005" target-x="2235.5" target-y="842.3"></path><path d="M 1823.30 1376.00 C 1823.30 1376.00 1825.10 1355.10 1848.90 1368.50 C 1872.70 1381.90 1882.50 1424.20 1913.50 1417.10 C 1944.50 1410.10 1909.40 1352.90 1939.30 1352.90 C 1969.20 1352.90 1962.80 1420.60 1935.40 1429.00 C 1907.90 1437.60 1834.60 1457.60 1823.30 1376.00 Z" fill="#ffffff" fill-rule="nonzero" group-id="1,2" node-id="386" stroke="none" target-height="104.69995" target-width="145.8999" target-x="1823.3" target-y="1352.9"></path><path d="M 2865.10 907.00 C 2865.10 988.68 2798.88 1054.90 2717.20 1054.90 C 2635.52 1054.90 2569.30 988.68 2569.30 907.00 C 2569.30 825.32 2635.52 759.10 2717.20 759.10 C 2798.88 759.10 2865.10 825.32 2865.10 907.00 Z" fill="url(#SVGID_10_)" fill-rule="nonzero" group-id="1,2" node-id="388" stroke="none" target-height="295.80005" target-width="295.80005" target-x="2569.3" target-y="759.1"></path><path d="M 2599.00 927.60 C 2600.90 928.10 2712.20 932.50 2712.20 932.50 L 2767.20 840.90 L 2738.90 827.50 L 2801.10 807.20 L 2825.50 863.60 L 2802.60 853.10 L 2733.30 968.80 L 2599.00 927.60 Z" fill="#ffffff" fill-rule="nonzero" group-id="1,2" node-id="390" stroke="none" target-height="161.59998" target-width="226.5" target-x="2599" target-y="807.2"></path><path d="M 694.40 1914.70 L 799.50 1996.20 L 858.00 1883.50" fill="none" group-id="1,2,7" node-id="394" stroke="#10663f" stroke-linecap="round" stroke-width="2" target-height="112.69995" target-width="163.59998" target-x="694.4" target-y="1883.5"></path><path d="M 712.20 1912.00 C 712.20 1924.92 701.72 1935.40 688.80 1935.40 C 675.88 1935.40 665.40 1924.92 665.40 1912.00 C 665.40 1899.08 675.88 1888.60 688.80 1888.60 C 701.72 1888.60 712.20 1899.08 712.20 1912.00 Z" fill="#152a52" fill-rule="nonzero" group-id="1,2,7" node-id="396" stroke="none" target-height="46.80005" target-width="46.799988" target-x="665.4" target-y="1888.6"></path><path d="M 881.40 1883.00 C 881.40 1895.92 870.92 1906.40 858.00 1906.40 C 845.08 1906.40 834.60 1895.92 834.60 1883.00 C 834.60 1870.08 845.08 1859.60 858.00 1859.60 C 870.92 1859.60 881.40 1870.08 881.40 1883.00 Z" fill="#152a52" fill-rule="nonzero" group-id="1,2,7" node-id="398" stroke="none" target-height="46.80005" target-width="46.80005" target-x="834.6" target-y="1859.6"></path><path d="M 822.90 1995.70 C 822.90 2008.62 812.42 2019.10 799.50 2019.10 C 786.58 2019.10 776.10 2008.62 776.10 1995.70 C 776.10 1982.78 786.58 1972.30 799.50 1972.30 C 812.42 1972.30 822.90 1982.78 822.90 1995.70 Z" fill="#152a52" fill-rule="nonzero" group-id="1,2,7" node-id="400" stroke="none" target-height="46.799927" target-width="46.80005" target-x="776.1" target-y="1972.3"></path><path d="M 870.10 2258.00 C 1020.00 2492.00 790.00 2843.90 790.00 2843.90 C 790.00 2843.90 788.70 2841.10 786.60 2835.70 C 763.60 2634.00 868.80 2262.90 870.10 2258.00 C 870.10 2258.00 870.10 2258.00 870.10 2258.00 Z" fill="#127755" fill-rule="nonzero" group-id="1,2,8,11,13,16" node-id="411" stroke="none" target-height="585.8999" target-width="256.40002" target-x="763.6" target-y="2258"></path><path d="M 870.10 2258.10 C 868.70 2262.90 763.60 2634.00 786.70 2835.80 C 766.40 2784.40 668.50 2500.30 870.10 2258.10 Z" fill="#339e7e" fill-rule="nonzero" group-id="1,2,8,11,13,16" node-id="413" stroke="none" target-height="577.69995" target-width="201.59998" target-x="668.5" target-y="2258.1"></path><path d="M 852.60 3062.80 C 852.60 3062.80 827.20 3056.70 790.50 2861.50 C 789.00 2853.30 787.70 2844.70 786.70 2835.70" fill="none" group-id="1,2,8,11,13,16" node-id="415" stroke="#1a1a1a" stroke-linecap="round" stroke-width="3" target-height="227.1001" target-width="65.89996" target-x="786.7" target-y="2835.7"></path><path d="M 759.70 2664.80 L 785.70 2737.80" fill="none" group-id="1,2,8,11,13" node-id="418" stroke="#1a1a1a" stroke-linecap="round" stroke-width="2" target-height="73" target-width="26" target-x="759.7" target-y="2664.8"></path><path d="M 757.80 2584.00 L 794.10 2644.50" fill="none" group-id="1,2,8,11,13" node-id="420" stroke="#1a1a1a" stroke-linecap="round" stroke-width="2" target-height="60.5" target-width="36.299988" target-x="757.8" target-y="2584"></path><path d="M 768.60 2483.60 L 805.70 2546.70" fill="none" group-id="1,2,8,11,13" node-id="422" stroke="#1a1a1a" stroke-linecap="round" stroke-width="2" target-height="63.099854" target-width="37.100037" target-x="768.6" target-y="2483.6"></path><path d="M 795.60 2418.10 L 821.10 2463.90" fill="none" group-id="1,2,8,11,13" node-id="424" stroke="#1a1a1a" stroke-linecap="round" stroke-width="2" target-height="45.799805" target-width="25.5" target-x="795.6" target-y="2418.1"></path><path d="M 882.30 2419.50 C 879.80 2420.80 821.00 2463.90 821.00 2463.90" fill="none" group-id="1,2,8,11,13" node-id="426" stroke="#ffffff" stroke-linecap="round" stroke-width="2" target-height="44.399902" target-width="61.299988" target-x="821" target-y="2419.5"></path><path d="M 805.00 2545.50 L 899.90 2486.70" fill="none" group-id="1,2,8,11,13" node-id="428" stroke="#ffffff" stroke-linecap="round" stroke-width="2" target-height="58.80005" target-width="94.900024" target-x="805" target-y="2486.7"></path><path d="M 792.20 2639.30 L 886.20 2582.40" fill="none" group-id="1,2,8,11,13" node-id="430" stroke="#ffffff" stroke-linecap="round" stroke-width="2" target-height="56.900146" target-width="94" target-x="792.2" target-y="2582.4"></path><path d="M 784.10 2733.40 L 846.80 2690.30" fill="none" group-id="1,2,8,11,13" node-id="432" stroke="#ffffff" stroke-linecap="round" stroke-width="2" target-height="43.099854" target-width="62.700012" target-x="784.1" target-y="2690.3"></path><path d="M 439.00 2326.10 C 439.00 2326.10 679.20 2669.30 717.00 2879.80 C 723.80 2822.40 745.50 2508.10 439.00 2326.10 Z" fill="#339e7e" fill-rule="nonzero" group-id="1,2,8,11,14,17" node-id="439" stroke="none" target-height="553.69995" target-width="306.5" target-x="439" target-y="2326.1"></path><path d="M 439.00 2326.10 C 342.50 2605.70 715.80 2889.00 715.80 2889.00 C 715.80 2889.00 716.30 2885.80 717.00 2879.90 C 679.20 2669.40 439.00 2326.10 439.00 2326.10 Z" fill="#127755" fill-rule="nonzero" group-id="1,2,8,11,14,17" node-id="441" stroke="none" target-height="562.8999" target-width="374.5" target-x="342.5" target-y="2326.1"></path><path d="M 713.90 3127.10 C 713.90 3127.10 740.90 3113.30 720.90 2906.70 C 720.00 2898.00 718.80 2889.00 717.10 2879.80" fill="none" group-id="1,2,8,11,14,17" node-id="443" stroke="#1a1a1a" stroke-linecap="round" stroke-width="3" target-height="247.30005" target-width="27" target-x="713.9" target-y="2879.8"></path><path d="M 606.40 2600.60 L 626.40 2534.10" fill="none" group-id="1,2,8,11,14" node-id="446" stroke="#1a1a1a" stroke-linecap="round" stroke-width="2" target-height="66.5" target-width="20" target-x="606.4" target-y="2534.1"></path><path d="M 572.30 2538.80 L 587.80 2473.30" fill="none" group-id="1,2,8,11,14" node-id="448" stroke="#1a1a1a" stroke-linecap="round" stroke-width="2" target-height="65.5" target-width="15.5" target-x="572.3" target-y="2473.3"></path><path d="M 696.80 2705.80 C 696.80 2705.80 702.40 2757.80 696.00 2800.70" fill="none" group-id="1,2,8,11,14" node-id="450" stroke="#1a1a1a" stroke-linecap="round" stroke-width="2" target-height="94.8999" target-width="6.4000244" target-x="696" target-y="2705.8"></path><path d="M 656.80 2628.80 L 654.90 2692.10" fill="none" group-id="1,2,8,11,14" node-id="452" stroke="#1a1a1a" stroke-linecap="round" stroke-width="2" target-height="63.30005" target-width="1.8999634" target-x="654.9" target-y="2628.8"></path><path d="M 446.00 2443.40 L 523.60 2456.50" fill="none" group-id="1,2,8,11,14" node-id="454" stroke="#ffffff" stroke-linecap="round" stroke-width="2" target-height="13.100098" target-width="77.599976" target-x="446" target-y="2443.4"></path><path d="M 454.60 2522.80 L 571.00 2536.40" fill="none" group-id="1,2,8,11,14" node-id="456" stroke="#ffffff" stroke-linecap="round" stroke-width="2" target-height="13.5998535" target-width="116.399994" target-x="454.6" target-y="2522.8"></path><path d="M 605.40 2598.70 L 483.70 2594.40" fill="none" group-id="1,2,8,11,14" node-id="458" stroke="#ffffff" stroke-linecap="round" stroke-width="2" target-height="4.300049" target-width="121.70001" target-x="483.7" target-y="2594.4"></path><path d="M 654.20 2693.10 L 537.50 2677.70" fill="none" group-id="1,2,8,11,14" node-id="460" stroke="#ffffff" stroke-linecap="round" stroke-width="2" target-height="15.4001465" target-width="116.70001" target-x="537.5" target-y="2677.7"></path><path d="M 695.00 2798.00 L 616.60 2781.70" fill="none" group-id="1,2,8,11,14" node-id="462" stroke="#ffffff" stroke-linecap="round" stroke-width="2" target-height="16.300049" target-width="78.400024" target-x="616.6" target-y="2781.7"></path><path d="M 60.00 2513.70 C 60.00 2513.70 457.50 2694.90 602.90 2864.00 C 578.50 2808.80 431.60 2514.90 60.00 2513.70 Z" fill="#127755" fill-rule="nonzero" group-id="1,2,8,12,15,18" node-id="472" stroke="none" target-height="350.30005" target-width="542.9" target-x="60" target-y="2513.7"></path><path d="M 205.60 2542.00 L 207.40 2589.40" fill="#ffffff" fill-rule="nonzero" group-id="1,2,8,12,15,18" node-id="474" stroke="#1a1a1a" stroke-linecap="round" stroke-width="2" target-height="47.399902" target-width="1.7999878" target-x="205.6" target-y="2542"></path><path d="M 60.00 2513.70 C 121.30 2816.00 606.60 2872.80 606.60 2872.80 C 606.60 2872.80 605.40 2869.60 602.90 2863.90 C 457.50 2694.90 60.00 2513.70 60.00 2513.70 Z" fill="#00593b" fill-rule="nonzero" group-id="1,2,8,12,15,18" node-id="476" stroke="none" target-height="359.1001" target-width="546.6" target-x="60" target-y="2513.7"></path><path d="M 730.90 3087.80 C 730.90 3087.80 747.90 3061.10 620.50 2886.10 C 615.10 2878.80 609.30 2871.30 602.90 2863.90" fill="none" group-id="1,2,8,12,15,18" node-id="478" stroke="#1a1a1a" stroke-linecap="round" stroke-width="3" target-height="223.90015" target-width="145" target-x="602.9" target-y="2863.9"></path><path d="M 355.60 2671.70 L 338.40 2601.30" fill="none" group-id="1,2,8,12,15" node-id="481" stroke="#1a1a1a" stroke-linecap="round" stroke-width="2" target-height="70.3999" target-width="17.200012" target-x="338.4" target-y="2601.3"></path><path d="M 292.30 2634.20 L 271.50 2567.10" fill="none" group-id="1,2,8,12,15" node-id="483" stroke="#1a1a1a" stroke-linecap="round" stroke-width="2" target-height="67.09985" target-width="20.799988" target-x="271.5" target-y="2567.1"></path><path d="M 492.50 2718.30 C 492.50 2718.30 525.10 2762.00 542.10 2804.00" fill="none" group-id="1,2,8,12,15" node-id="485" stroke="#1a1a1a" stroke-linecap="round" stroke-width="2" target-height="85.69995" target-width="49.599976" target-x="492.5" target-y="2718.3"></path><path d="M 424.10 2652.40 L 447.70 2728.10" fill="none" group-id="1,2,8,12,15" node-id="487" stroke="#1a1a1a" stroke-linecap="round" stroke-width="2" target-height="75.700195" target-width="23.600006" target-x="424.1" target-y="2652.4"></path><path d="M 204.90 2586.00 L 128.30 2615.30" fill="none" group-id="1,2,8,12,15" node-id="489" stroke="#ffffff" stroke-linecap="round" stroke-width="2" target-height="29.300049" target-width="76.59999" target-x="128.3" target-y="2586"></path><path d="M 178.10 2682.20 L 289.80 2632.80" fill="none" group-id="1,2,8,12,15" node-id="491" stroke="#ffffff" stroke-linecap="round" stroke-width="2" target-height="49.399902" target-width="111.69998" target-x="178.1" target-y="2632.8"></path><path d="M 353.70 2670.50 L 242.00 2731.00" fill="none" group-id="1,2,8,12,15" node-id="493" stroke="#ffffff" stroke-linecap="round" stroke-width="2" target-height="60.5" target-width="111.70001" target-x="242" target-y="2670.5"></path><path d="M 447.50 2729.50 L 334.50 2777.40" fill="none" group-id="1,2,8,12,15" node-id="495" stroke="#ffffff" stroke-linecap="round" stroke-width="2" target-height="47.899902" target-width="113" target-x="334.5" target-y="2729.5"></path><path d="M 539.70 2802.00 L 460.60 2829.00" fill="none" group-id="1,2,8,12,15" node-id="497" stroke="#ffffff" stroke-linecap="round" stroke-width="2" target-height="27" target-width="79.100006" target-x="460.6" target-y="2802"></path><path d="M 2552.40 2958.20 C 2525.10 2959.00 2498.20 2960.10 2471.90 2961.50 C 2259.20 2937.90 1956.50 2927.80 1620.90 2937.10 C 1600.90 2937.70 1581.10 2938.30 1561.30 2938.90 C 1432.10 2921.00 1216.90 2912.90 973.70 2919.70 C 580.00 2930.60 261.90 2976.20 263.20 3021.60 C 263.90 3046.30 358.80 3065.80 508.40 3076.70 C 479.60 3090.70 464.30 3105.00 464.70 3119.40 C 467.00 3202.30 988.30 3255.20 1629.10 3237.50 C 1947.70 3228.70 2235.80 3204.10 2444.70 3171.40 C 2481.40 3171.70 2519.30 3171.40 2558.20 3170.30 C 2877.90 3161.50 3135.80 3106.80 3134.20 3048.30 C 3132.70 2989.70 2872.20 2949.40 2552.40 2958.20 Z" fill="url(#SVGID_11_)" fill-rule="nonzero" group-id="1,2" node-id="502" stroke="none" target-height="342.30005" target-width="2873.9001" target-x="261.9" target-y="2912.9"></path><path d="M 931.00 2898.80 L 560.10 2898.80 C 548.10 2907.00 538.70 2916.00 532.40 2925.60 L 958.60 2925.60 C 952.40 2916.00 943.00 2907.00 931.00 2898.80 Z" fill="#1a1a1a" fill-rule="nonzero" group-id="1,2" node-id="504" stroke="none" target-height="26.800049" target-width="426.19995" target-x="532.4" target-y="2898.8"></path><path d="M 525.40 2966.20 C 539.40 3015.10 632.60 3052.90 745.50 3052.90 C 856.80 3052.90 949.00 3016.20 965.00 2968.30 C 824.70 3019.20 658.40 3035.90 525.40 2966.20 Z" fill="#572658" fill-rule="nonzero" group-id="1,2" node-id="506" stroke="none" target-height="86.69995" target-width="439.59998" target-x="525.4" target-y="2966.2"></path><path d="M 958.60 2925.60 L 532.50 2925.60 C 526.70 2934.40 523.60 2943.80 523.60 2953.50 C 523.60 2957.80 524.20 2962.10 525.40 2966.20 C 658.40 3035.90 824.70 3019.20 965.00 2968.30 C 966.60 2963.50 967.50 2958.50 967.50 2953.50 C 967.50 2943.80 964.40 2934.50 958.60 2925.60 Z" fill="#b080b0" fill-rule="nonzero" group-id="1,2" node-id="508" stroke="none" target-height="110.299805" target-width="443.90002" target-x="523.6" target-y="2925.6"></path><path d="M 2949.60 2608.00 C 2951.00 2587.50 2951.00 2587.40 2952.40 2566.90 L 2913.70 2550.10 C 2909.50 2537.80 2907.40 2531.60 2903.30 2519.30 L 2923.90 2482.50 C 2910.30 2467.00 2910.30 2467.00 2896.70 2451.50 L 2857.50 2467.00 C 2845.90 2461.20 2840.00 2458.30 2828.40 2452.60 L 2816.90 2412.00 C 2796.40 2410.60 2796.30 2410.60 2775.80 2409.20 L 2759.00 2447.90 C 2746.70 2452.10 2740.50 2454.20 2728.20 2458.30 L 2691.40 2437.70 C 2675.90 2451.30 2675.90 2451.30 2660.40 2464.90 L 2675.90 2504.10 C 2670.20 2515.70 2667.20 2521.60 2661.50 2533.20 L 2620.90 2544.70 C 2619.50 2565.20 2619.50 2565.30 2618.10 2585.80 L 2656.80 2602.60 C 2661.00 2614.90 2663.00 2621.10 2667.20 2633.40 L 2646.60 2670.20 C 2660.20 2685.70 2660.20 2685.70 2673.80 2701.20 L 2713.00 2685.70 C 2724.60 2691.40 2730.50 2694.40 2742.10 2700.10 L 2753.60 2740.70 C 2774.10 2742.10 2774.20 2742.10 2794.70 2743.50 L 2811.50 2704.80 C 2823.80 2700.60 2830.00 2698.50 2842.30 2694.40 L 2879.10 2715.00 C 2894.60 2701.40 2894.60 2701.40 2910.10 2687.90 L 2894.60 2648.70 C 2900.30 2637.10 2903.30 2631.20 2909.00 2619.60 L 2949.60 2608.00 Z M 2785.20 2646.90 C 2746.20 2646.90 2714.60 2615.30 2714.60 2576.30 C 2714.60 2537.30 2746.20 2505.70 2785.20 2505.70 C 2824.20 2505.70 2855.80 2537.30 2855.80 2576.30 C 2855.80 2615.30 2824.20 2646.90 2785.20 2646.90 Z" fill="#1a1a1a" fill-rule="nonzero" group-id="1,2" node-id="510" stroke="none" target-height="334.30005" target-width="334.2998" target-x="2618.1" target-y="2409.2"></path><path d="M 2937.00 2590.00 C 2938.40 2569.50 2938.40 2569.40 2939.80 2548.90 L 2901.10 2532.10 C 2896.90 2519.80 2894.80 2513.60 2890.70 2501.30 L 2911.30 2464.50 C 2897.70 2449.00 2897.70 2449.00 2884.10 2433.50 L 2844.90 2449.00 C 2833.30 2443.20 2827.40 2440.30 2815.80 2434.60 L 2804.30 2394.00 C 2783.80 2392.60 2783.70 2392.60 2763.20 2391.20 L 2746.40 2429.90 C 2734.10 2434.10 2727.90 2436.20 2715.60 2440.30 L 2678.80 2419.70 C 2663.30 2433.30 2663.30 2433.30 2647.80 2446.90 L 2663.30 2486.10 C 2657.60 2497.70 2654.60 2503.60 2648.90 2515.20 L 2608.30 2526.70 C 2606.90 2547.20 2606.90 2547.30 2605.50 2567.80 L 2644.20 2584.60 C 2648.40 2596.90 2650.40 2603.10 2654.60 2615.40 L 2634.00 2652.20 C 2647.60 2667.70 2647.60 2667.70 2661.20 2683.20 L 2700.40 2667.70 C 2712.00 2673.40 2717.90 2676.40 2729.50 2682.10 L 2741.00 2722.70 C 2761.50 2724.10 2761.60 2724.10 2782.10 2725.50 L 2798.90 2686.80 C 2811.20 2682.60 2817.40 2680.50 2829.70 2676.40 L 2866.50 2697.00 C 2882.00 2683.40 2882.00 2683.40 2897.50 2669.90 L 2882.00 2630.70 C 2887.70 2619.10 2890.70 2613.20 2896.40 2601.60 L 2937.00 2590.00 Z M 2772.70 2629.00 C 2733.70 2629.00 2702.10 2597.40 2702.10 2558.40 C 2702.10 2519.40 2733.70 2487.80 2772.70 2487.80 C 2811.70 2487.80 2843.30 2519.40 2843.30 2558.40 C 2843.20 2597.40 2811.60 2629.00 2772.70 2629.00 Z" fill="#ccc4cc" fill-rule="nonzero" group-id="1,2" node-id="512" stroke="none" target-height="334.30005" target-width="334.30005" target-x="2605.5" target-y="2391.2"></path></g><path d="M 1871.00 1287.40 C 1871.00 1287.40 1884.70 1294.90 1918.50 1292.60 C 1925.40 1331.70 1925.40 1331.70 1925.40 1331.70 C 1925.40 1331.70 1879.00 1313.50 1871.00 1287.40 Z" fill="#db6767" fill-rule="nonzero" group-id="1" node-id="515" stroke="none" target-height="44.299927" target-width="54.400024" target-x="1871" target-y="1287.4"></path><path d="M 1671.40 1599.60 L 1619.30 1612.90 L 1605.30 1664.20 C 1605.40 1664.20 1664.00 1619.30 1671.40 1599.60 Z" fill="#d61e41" fill-rule="nonzero" group-id="1" node-id="517" stroke="none" target-height="64.599976" target-width="66.099976" target-x="1605.3" target-y="1599.6"></path></g></svg>