<svg xml:space="preserve" style="enable-background:new 0 0 4000 4000;" viewBox="0 0 4000 4000" y="0px" x="0px" xmlns:xlink="http://www.w3.org/1999/xlink" xmlns="http://www.w3.org/2000/svg" id="Layer_1" version="1.1">
<style type="text/css">
	.Graphic_x0020_Style_x0020_212{fill:#FFFFFF;}
	.Graphic_x0020_Style_x0020_216{fill:#1A1A1A;}
	.Graphic_x0020_Style_x0020_210{fill:#CCC4CC;}
	.Graphic_x0020_Style_x0020_80{fill:#FFB114;}
	.Graphic_x0020_Style_x0020_83{fill:#3B546B;}
	.Graphic_x0020_Style_x0020_87{fill:#6584C6;}
	.Graphic_x0020_Style_x0020_467{fill:#FFB114;}
	.Graphic_x0020_Style_x0020_468{fill:#D1334A;}
	.Graphic_x0020_Style_x0020_469{fill:#E8766F;}
	.Graphic_x0020_Style_x0020_470{fill:#FFCF4A;}
	.Graphic_x0020_Style_x0020_471{fill:#102140;}
	.Graphic_x0020_Style_x0020_472{fill:#152A52;}
	.st0{fill:url(#SVGID_1_);}
	.st1{fill:#00593B;}
	.st2{fill:none;stroke:#134411;stroke-width:3;stroke-linecap:round;stroke-linejoin:round;stroke-miterlimit:10;}
	.st3{fill:none;stroke:#1A1A1A;stroke-width:3;stroke-linecap:round;stroke-linejoin:round;stroke-miterlimit:10;}
	.st4{fill:#339E7E;}
	.st5{fill:none;stroke:#FFFFFF;stroke-width:3;stroke-linecap:round;stroke-linejoin:round;stroke-miterlimit:10;}
	.st6{fill:#127755;}
	.st7{fill:#1A1A1A;}
	.st8{fill:url(#SVGID_2_);}
	.st9{opacity:0.5;fill:#152A52;}
	.st10{fill:#666266;}
	.st11{fill:#CCC4CC;}
	.st12{fill:#FFFFFF;}
	.st13{fill:url(#SVGID_3_);}
	.st14{fill:#152A52;}
	.st15{fill:none;stroke:#1A1A1A;stroke-width:2;stroke-linecap:round;stroke-linejoin:round;}
	.st16{fill:none;stroke:#1A1A1A;stroke-width:2;stroke-linecap:round;stroke-linejoin:round;stroke-dasharray:12.0371,12.0371;}
	.st17{fill:#FFDE70;}
	.st18{fill:#1A1A1A;stroke:#1A1A1A;stroke-width:2;stroke-linecap:round;stroke-linejoin:round;stroke-miterlimit:10;}
	.st19{fill:#BF850F;}
	.st20{fill:#FC9590;}
	.st21{fill:#102140;}
	.st22{fill:#DB6767;}
	.st23{fill:#5067EF;stroke:#1A1A1A;stroke-width:2;stroke-linecap:round;stroke-linejoin:round;stroke-miterlimit:10;}
	.st24{fill:#2C3F50;}
	.st25{fill:#999399;}
	.st26{fill:none;stroke:#1A1A1A;stroke-width:2;stroke-linecap:round;stroke-linejoin:round;stroke-miterlimit:10;}
</style>
<g>
	<g>
		<linearGradient y2="2819.1865" x2="2178.6296" y1="2403.7004" x1="2178.6296" gradientUnits="userSpaceOnUse" id="SVGID_1_">
			<stop style="stop-color:#68B2FC" offset="0"></stop>
			<stop style="stop-color:#EBF0F7" offset="1"></stop>
		</linearGradient>
		<path d="M967,2950.2c13.3-50.2-52.7-277.5,151.7-397.7c206.3-121.4,400.7-40,615.7,106.8
			c33.6-30.3,235.4-243.8,527.8-219.3c246.9,20.7,400.5,168.9,439.8,209.3c89.5-135.9,239.8-208.9,376.1-182
			c187.5,36.9,262.5,245.8,282.1,300.3c22,61.3,28.6,116.1,30.3,154.7C2515.9,2933.5,1841.5,2939.1,967,2950.2z" class="st0"></path>
		<g>
			<path d="M3214.7,2384.3c10.8,5.6,20.2,11.3,28.3,16.9c58.4,40.2,51,78.5,3.9,100.1c-26.7,14.2-111.9-63.6-156.3-42.3
				c-30.9,14.8-49.3,50.1-57.6,70.1c-3.6,8.7-5.3,14.4-5.3,14.4s1.3-46-11.2-72.7c0,0-91.9-174.5,0-211.3
				c57-20.3,65.9,46.2,66.7,52.9c-0.8-10-11-155.2,81.4-162.4c0,0,49.2,0,47.9,39.3c51.9-74.4,154-31.5,133.1,26.3
				c-20.2,55.9-87.8,76.2-92.2,77.5c3.4-0.8,43.4-9.8,71,2.3c18.1,7.9,30.8,24.9,24.5,59.2c-6.4,40-76.2,27-113.4,26.5
				c0,0-0.1,0-0.1,0c-5.1-0.1-9.7,0.1-13.3,0.6C3218.9,2382.1,3216.3,2383,3214.7,2384.3z" class="st1"></path>
			<path d="M3260.3,2198.9c0,0-217.1,124.4-232.9,349.3" class="st2"></path>
			<path d="M3226.8,2444.1c0,0-101.7-91.5-165.2-27.5" class="st2"></path>
			<path d="M3282.7,2325.2c0,0-114.3-26.9-183.2,27.6" class="st2"></path>
			<path d="M3156.1,2184.9c0,0,16.3,55.5-10.5,108.7" class="st2"></path>
			<path d="M3032.6,2305.4c0,0,25.9,67.3,15.9,139.5" class="st3"></path>
			<path d="M3246.9,2501.3c-26.7,14.2-111.9-63.6-156.3-42.3c-30.9,14.8-49.3,50.1-57.6,70.1
				c2.2-33.9,14.8-79.1,63.6-93.6c81.5-24.2,171.2,77.1,146.4-34.3C3301.4,2441.4,3294,2479.7,3246.9,2501.3z" class="st4"></path>
			<path d="M3235.6,2381c34.7-2.7,122.5-16.3,87.7-85.3c0.4-0.1,0.8-0.3,1.2-0.4c18.1,7.9,30.8,24.9,24.5,59.2
				C3342.6,2394.5,3272.8,2381.5,3235.6,2381z" class="st4"></path>
		</g>
		<g>
			<path d="M3344.2,2429.3c-89.8,35.8-59.4,186.4-145.2,230c0,0,1.1,0,3.3,0.2c5-0.9,10.7-1.8,16.9-2.7
				c29.1-3.9,177.1,8.7,233.9,107c56.1,97.2,97.5,48.3,98.5,47.2c0,0,0,0,0,0c3.8-24.5-5.3-58.1-35.9-98
				c101,4.8,101.4,133.1,180.8,46.8c51.1-55.6-10.2-98.9-12.3-100.3c3.9,1.5,200.7,55.7,191.7-68.8c-12.1-165.4-188.7-44.3-191-42.2
				c1.3-1.8,54.6-81.2-22.3-131.6c-70.5-46.2-110.9,21.6-117.8,34.8c5.1-10.9,24.3-60.2-35.3-83c-66.5-25.4-115.4,115.7-116.5,118.7
				C3393.3,2485.4,3407,2404.3,3344.2,2429.3z" class="st4"></path>
			<path d="M3199,2659.3c147.3-89.6,218.8-74.4,304.1-35.1c85.3,39.3,238.9-36.1,238.9-36.1" class="st5"></path>
			<path d="M3653.5,2482.7c0,0-33.3,144.7-155.7,139.3" class="st5"></path>
			<path d="M3499.3,2420c0,0,10.6,158.2-99,173.7" class="st5"></path>
			<path d="M3644.7,2701.4c0,0-30.1-54.9-74.1-65.9" class="st5"></path>
			<path d="M3444.8,2712.7c0,0-21.9-97.3-100.8-115.5" class="st5"></path>
			<path d="M3348.2,2496.5c0,0-2.4,93.6-46.1,112" class="st5"></path>
			<path d="M3202.3,2659.5c23.4,1.6,164.6,15.9,217.7,128.8c40.8,86.7,122.6,80.7,131.6,22.7c-1,1.1-42.4,50-98.5-47.2
				c-56.8-98.3-204.8-110.9-233.9-107C3213,2657.7,3207.3,2658.6,3202.3,2659.5z" class="st6"></path>
			<path d="M3703.9,2679.2c24.5,44.5-27.7,130.2-93.6,74.7c-68.6-57.6-94.6-40.9-94.6-40.9s93.3,93.7,157.7,77.7
				C3709.2,2781.8,3751.2,2725.1,3703.9,2679.2z" class="st6"></path>
			<path d="M3202.3,2659.5c0,0-100,86.5-119,58.8c-19-27.7,134.1-69.9,134.1-69.9L3202.3,2659.5z" class="st7"></path>
		</g>
		<linearGradient y2="3045.1753" x2="3863.6082" y1="3045.1753" x1="123.8181" gradientUnits="userSpaceOnUse" id="SVGID_2_">
			<stop style="stop-color:#68B2FC" offset="0"></stop>
			<stop style="stop-color:#529BF7" offset="1"></stop>
		</linearGradient>
		<path d="M2194.4,2775.7c-139.9,0-275.7,2.9-405.5,8.2c-160.1-14.7-343.7-23.1-539-23.1
			c-621.9,0-1126.1,84.8-1126.1,189.4c0,59.9,165.6,113.4,424.1,148.1c131.4,131.2,818.6,231.2,1646.5,231.2
			c921.9,0,1669.2-124,1669.2-276.9C3863.6,2899.7,3116.3,2775.7,2194.4,2775.7z" class="st8"></path>
		<path d="M848.6,2929.4l-261.7,115.8l1259.1,21.4l-388.9-176.1c0,0,266.6-28.6,313.3-68.2
			c18.5-38.4,18.5-38.4,18.5-38.4s-647.3-68.6-906.7-9.9C1019.5,2828.4,1071.3,2919,848.6,2929.4z" class="st9"></path>
		<ellipse ry="95.7" rx="578.7" cy="2970.9" cx="2798.2" class="st9"></ellipse>
		<polygon points="1233.8,1369.4 1233.8,2878.4 1311.8,2878.4 1311.8,1372" class="Graphic_x0020_Style_x0020_210"></polygon>
		<polygon points="1200.2,1369.4 1200.2,2878.4 1240.3,2878.4 1240.3,1372" class="st10"></polygon>
		<polygon points="2191.5,2265.4 2376,2131.1 2347.3,2347.4 2300.2,2253.3" class="Graphic_x0020_Style_x0020_468"></polygon>
		<polygon points="2094.1,1731.5 2158.8,1582.2 2219.5,1725.6 2156.5,1684.8" class="Graphic_x0020_Style_x0020_468"></polygon>
		<g>
			<path d="M3123.5,884.6h419.9c38.5,0,69.6-31.2,69.6-69.6v-62.1c0-38.5-31.2-69.6-69.6-69.6h-419.9
				c-38.5,0-69.6,31.2-69.6,69.6l21.2,223.3C3075.1,976.1,3123.1,888.2,3123.5,884.6z" class="st11"></path>
			<path d="M3144.7,871.9h419.9c38.5,0,69.6-31.2,69.6-69.6v-62.1c0-38.5-31.2-69.6-69.6-69.6h-419.9
				c-38.5,0-69.6,31.2-69.6,69.6v233.2C3075.1,996.1,3128.9,871.9,3144.7,871.9z" class="st12"></path>
			
				<rect height="16.2" width="446.6" class="Graphic_x0020_Style_x0020_472" transform="matrix(-1 -1.224647e-16 1.224647e-16 -1 6705.7065 1437.6643)" y="710.7" x="3129.6"></rect>
			
				<rect height="16.2" width="446.6" class="Graphic_x0020_Style_x0020_472" transform="matrix(-1 -1.224647e-16 1.224647e-16 -1 6705.7065 1542.4238)" y="763.1" x="3129.6"></rect>
			
				<rect height="16.2" width="446.6" class="Graphic_x0020_Style_x0020_472" transform="matrix(-1 -1.224647e-16 1.224647e-16 -1 6705.7065 1647.1831)" y="815.5" x="3129.6"></rect>
		</g>
		<g>
			<linearGradient y2="1254.116" x2="3590.9487" y1="1254.116" x1="3308.8611" gradientUnits="userSpaceOnUse" id="SVGID_3_">
				<stop style="stop-color:#68B2FC" offset="0"></stop>
				<stop style="stop-color:#529BF7" offset="1"></stop>
			</linearGradient>
			<path d="M3590.9,1254.1c0,30.7-9.8,59.1-26.4,82.2c-25.6,35.6-67.4,58.9-114.6,58.9c-77.9,0-141-63.2-141-141.1
				c0-77.9,63.2-141.1,141-141.1c45.3,0,85.6,21.4,111.5,54.6C3579.9,1191.5,3590.9,1221.5,3590.9,1254.1z" class="st13"></path>
			<path d="M3590.9,1254.1c0,30.7-9.8,59.1-26.4,82.2l-114.6-82.2l111.5-86.5
				C3579.9,1191.5,3590.9,1221.5,3590.9,1254.1z" class="st14"></path>
		</g>
		<g>
			<g>
				<path d="M678.9,2293.6c0,0,4.8,1.4,14,3.9" class="st15"></path>
				<path d="M720.9,2305c263.2,67.8,1669,382.3,1578-661.4c-90.8-1039.8-936.7-777.5-1099.4-717.1" class="st16"></path>
				<path d="M1185.9,931.7c-8.8,3.4-13.4,5.5-13.4,5.5" class="st15"></path>
			</g>
		</g>
		<polygon points="607.9,2190.7 822.1,2326.2 586.8,2383.9 664.8,2297.5" class="Graphic_x0020_Style_x0020_468"></polygon>
		<g>
			<path d="M2273.6,1290.4c-44.9-27.8-70.9-68.7-94.7-111.2c-4,8.5-5.8,17.2-3.7,24.2
				c16.7,58,125.4,203.8,292.5,187.8c90.1-8.6,138.2-29,163.4-45.8C2507.8,1358.5,2382.9,1360.2,2273.6,1290.4z" class="Graphic_x0020_Style_x0020_467"></path>
			<path d="M2657.5,1319.1l59.8-196.6c0,0-109.5,30.5-200.8,106.8c-112.5,94.1-271.3-57.6-285.1-83.1
				c-13.8-12.7-41.5,9.8-52.4,33c23.8,42.5,49.8,83.5,94.7,111.2c109.3,69.7,234.2,68.1,357.5,55
				C2652.7,1331,2657.5,1319.1,2657.5,1319.1z" class="st17"></path>
			<path d="M2226.8,1151.5c0,0,26.3,19,4.8,44.5c-21.5,25.5-55.6,12.1-52.1-4c3.5-16.2,27.8-46.8,47.3-41.7" class="st18"></path>
			<path d="M2478.9,2857.3c45.7,2,92.6,5.3,133.9-13.6c4.3-1.8,8-4.6,11.3-7.9
				c10.8,36.8,21.9,82.9,14.7,97.5c-12.7,25.4-285.1,67.8-318,53C2295.1,2974.6,2416.7,2902,2478.9,2857.3z" class="Graphic_x0020_Style_x0020_216"></path>
			<path d="M2612.9,2843.7c-41.3,18.9-88.2,15.6-133.9,13.6c17.3-12.5,30.1-22.8,33.8-29
				c17-28.6,95.4-42.4,95.4-42.4s8,22.3,16.1,49.9C2620.9,2839.1,2617.1,2841.8,2612.9,2843.7z" class="Graphic_x0020_Style_x0020_212"></path>
			<path d="M3120.2,2778.8c6.4-9.1,10.7-16.3,11.8-20.8c7.4-30,70.9-60.6,70.9-60.6
				s8.8,13.3,19.8,31.4C3196,2757,3158.7,2774,3120.2,2778.8z" class="Graphic_x0020_Style_x0020_212"></path>
			<path d="M3120.2,2778.8c38.6-4.8,75.8-21.8,102.5-50c19.4,32,45.6,79.1,42.7,95.7
				c-4.6,26.1-226.5,127.5-258.2,121.6C2980.2,2941.1,3083.9,2830.3,3120.2,2778.8z" class="Graphic_x0020_Style_x0020_216"></path>
			<path d="M2707.1,1937c-31.5,67.8-55.7,140.5-79.9,210.7
				c-70.2,215.5-60.5,435.9-82.3,658.7c-1.3,10-3.2,20.1-5.4,30.1c35.3-6.3,77-23.8,80.5-71.3c0.9-100.3,52.9-495.5,69.6-586.2
				c14.7-80.2,77.9-239.9,110.9-320.1C2759.5,1866.9,2724.1,1901.1,2707.1,1937z" class="Graphic_x0020_Style_x0020_471"></path>
			<path d="M2931.9,1584.6l-274.2,12.2c0,0-139.7,215.9-170,396c-46,273.8,1.5,846.9,1.5,846.9s23.3,1.8,50.2-3
				c2.2-10,4.1-20.1,5.4-30.1c21.8-222.8,12.1-443.2,82.3-658.7c24.2-70.2,48.4-142.9,79.9-210.7c16.9-36,52.3-70.1,93.3-78.1
				c12.1-29.5,20.2-48.3,20.2-48.3L2931.9,1584.6z" class="st14"></path>
			<path d="M3007.4,2198.6c-14.5-33.9,0-75.1-4.8-113.8c0-14.5-12.1-26.6-14.5-41.2c-2.4-87.2,12.1-176.8,9.7-264
				c-2-67-36-121.2-68.2-176.9c-33.1,17.8-82.4,35.6-147,35.6l-9.8,179.7c0,0-22.2,272.7,67.5,461.1
				c77,161.7,240.4,510.3,291.7,478.9c30.8-16.4,51-26.4,63.3-32.3c-2.9-25.4-8-50.6-15.9-74.4
				C3123.7,2498.9,3063.1,2351.1,3007.4,2198.6z" class="st14"></path>
			<path d="M3031.7,2076.5c-15.1-53.1,47.5-367.2-52.7-508.8c0,0-16.9,17.4-49.6,35
				c32.2,55.7,66.2,109.9,68.2,176.9c2.4,87.2-12.1,176.8-9.7,264c2.4,14.5,14.5,26.6,14.5,41.2c4.8,38.7-9.7,79.9,4.8,113.8
				c55.7,152.6,116.2,300.3,171.9,452.9c7.9,23.7,12.9,48.9,15.9,74.4c11-5.2,15.6-7.1,15.6-7.1S3046.9,2129.6,3031.7,2076.5z" class="Graphic_x0020_Style_x0020_471"></path>
			<path d="M2998.5,1603c0,0-63.2,100.3-191.2,85.4c-128-14.9-165.4-54.2-165.4-54.2l4-21.1l335.8-40.4
				C2981.8,1572.7,2993.5,1585.9,2998.5,1603z" class="st18"></path>
			<path d="M2847.6,1539.9c33.9-60.5,75.1-116.2,94.4-184c7.3-24.2,14.5-46,17-70.2c6-37.8-0.2-73.6-12.2-107.6
				c-26.1-27.4-60.3-47.2-104-55.6c-37.4-7.2-78.4-18.1-133.1,2.9c-71.3,28.3-99.5,80.5-98.3,149.1c-0.1,29,3.3,60.3,6.7,92.8
				c6.1,59.7,13.1,122.7,18.4,169.1C2702.7,1562.1,2782,1559.9,2847.6,1539.9z" class="st17"></path>
			<path d="M3000.3,1423c0,0,10.5-120.1-2.7-158.3c-11.4-33.1-28-62.8-50.8-86.7
				c12,34,18.2,69.9,12.2,107.6c-2.4,24.2-9.7,46-17,70.2c-19.4,67.8-60.5,123.5-94.4,184c-65.6,20-144.9,22.3-211.1-3.7
				c4.8,42,8.2,70.4,8.2,70.4C2774.8,1696.1,3043.4,1731.3,3000.3,1423z" class="Graphic_x0020_Style_x0020_470"></path>
			<path d="M2934,1380.7c0,0,18,108.6,70.9,120.1c4.6-23.3,0-64.7,0-64.7S2952.9,1379.7,2934,1380.7z" class="st19"></path>
			<path d="M2840.4,1146.2c0,0-9.1-9.2,15.6-68.1c37.1-32.8,83.3-170.1-26.8-210.9s-128.8,146.3-126.4,185.8
				c0.7,23.2,49.1,23.2,49.1,23.2s-9.5,47.6-14.3,61.4C2746.1,1170.6,2826.1,1158.8,2840.4,1146.2z" class="st20"></path>
			<path d="M2844.7,976.4c0,0-9.7,7.7-18.9,19.5c-6.5,8.3,37.5-19.7,43.8,16.7c5.4,31.1-40.1,34.9-34.7,44.5
				c3.4,6.2,13.2,15.3,21.1,21.1c55.8,41,70.7-26.8,76.8-66.6c9.8-64.3,10.7-149.1-63.3-129.4c-1.9-73.7-85.3-76.2-177.4-52.8
				c-33.2,65.1,1.4,95.5,48.3,95.2C2787.3,924.3,2835.1,935.3,2844.7,976.4z" class="st21"></path>
			<polygon points="2782.8,1156.5 2800.3,1193 2784.7,1210.9 2768.1,1209.6 2750.8,1180.9 
				2772,1155.7" class="Graphic_x0020_Style_x0020_216"></polygon>
			<path d="M2784.3,1207.2l-18.2-2.7l-56.2,216.7c0,0,22.7,134.6,37.6,134.6
				s47.4-131.6,47.4-131.6L2784.3,1207.2z" class="Graphic_x0020_Style_x0020_216"></path>
			<path d="M2735.7,1083.1c12,0,17,17.1,22.1,33.8l10.3,42.4c0,0-36.1-1.7-41.2-16.7c-5.1-14.9,0.3-50.6,0.3-50.6
				L2735.7,1083.1z" class="st12"></path>
			<path d="M2858.1,1115.6l-9.4-19.2c0,0-32.5,20.2-40.7,32.9s-20.2,29.7-20.2,29.7s3.5,10,13.7,11.1
				C2811.7,1171.1,2855.2,1157.8,2858.1,1115.6z" class="st12"></path>
			<path d="M2751.8,1076.2l42.8,10c0,0-31.1,11.6-44.5,0.3C2752.7,1078.1,2751.8,1076.2,2751.8,1076.2z" class="st22"></path>
			<path d="M3008.7,1369.4" class="st23"></path>
			<path d="M2096.9,1120.9c-7-2.8-14-11.4-17.8-21.3c-8.5,28.1,23.5,65.4,64.7,76.6
				c26,7.1,46.6,26.9,46.6,26.9s11,0.5,22.2-2.3C2188.5,1159.4,2149.4,1135.1,2096.9,1120.9z" class="Graphic_x0020_Style_x0020_469"></path>
			<path d="M2225.1,1151.6c-32.3-48.3-9.7-78-38.7-76.7c-22.2,1-13.6,47-13.6,47s-55.1-64.7-84.4-36.9
				c-4.6,4.4-7.6,9.3-9.2,14.6c3.7,10,10.7,18.5,17.8,21.3c52.6,14.2,91.6,38.4,115.8,79.9
				C2229.6,1196.6,2246.7,1184.7,2225.1,1151.6z" class="st20"></path>
			<path d="M3065.5,1915.2c-25.1-29.3-21.3-67.7-5.6-99.5c-9.7-7.1-24.4-12.7-43.5-4.7c0,0-11.5,91-15.6,112.2
				c-3.4,18.1,15.4,48.4,26.7,61.4C3056.6,1967.6,3087,1940.6,3065.5,1915.2z" class="st20"></path>
			<path d="M3066.9,1870.7c-0.4-18.2,6.7-40.4,6.7-40.4s-4.7-8-13.7-14.5
				c-15.6,31.8-19.5,70.2,5.6,99.5c21.5,25.4-9,52.3-38.1,69.4c2,2.3,3.7,4,5.1,5.1c9.1,7.1,77.4-39.2,76.4-65.5
				C3107.9,1898,3067.3,1888.9,3066.9,1870.7z" class="Graphic_x0020_Style_x0020_469"></path>
			<path d="M3034.1,1445.4c-12.1-40.4-56.3-60.6-100.1-64.7c31.3,27.4,70.2,69.3,90.6,122
				c30.9,80.1-16.3,323.1-16.3,323.1s6.2,3,15.2,6.5C3076.1,1712.1,3074.5,1568.7,3034.1,1445.4z" class="Graphic_x0020_Style_x0020_80"></path>
			<path d="M3161,1467.8c-24.3-207.1-265.3-327.7-265.3-327.7l-9.2,204.8c0,0,21,12.7,47.5,35.8
				c43.8,4.2,88,24.3,100.1,64.7c40.4,123.2,42,266.7-10.6,386.8c15.7,6.1,39.7,13.5,54.1,8.6
				C3100.3,1833.3,3181.4,1641.6,3161,1467.8z" class="st17"></path>
		</g>
		<g>
			
				<rect height="265.4" width="385.9" class="Graphic_x0020_Style_x0020_83" transform="matrix(-0.8937 -0.4487 0.4487 -0.8937 3368.4407 2818.5808)" y="877.6" x="1825.2"></rect>
			<polygon points="1901.7,812.1 1984.7,1006.8 2058.5,1036.1 2247,984.4 2250.1,978.2 1905.2,805.1" class="st11"></polygon>
			<polygon points="2093.5,1112.6 2131,1215.4 1786.2,1042.3 1889.1,1010 2033.1,980.5" class="st12"></polygon>
			<polygon points="2250.1,978.2 2006.8,1032.8 1905.2,805.1" class="st12"></polygon>
		</g>
		<g>
			
				<rect height="489.1" width="711.1" class="Graphic_x0020_Style_x0020_87" transform="matrix(-0.9451 0.3268 -0.3268 -0.9451 3786.4321 3611.6543)" y="1879.4" x="1234.3"></rect>
			<polygon points="1821.8,2156.2 2005.8,2238.8 1333.7,2471.2 1423.5,2293.9 1569.8,2065.9" class="st12"></polygon>
			<polygon points="1178.6,2022.7 1542.4,2163.6 1625.4,2193.9 1675.9,2103.9 1850.1,1788.6 1846,1776.6 1173.9,2009" class="st11"></polygon>
			<polygon points="1846,1776.6 1605,2167.9 1173.9,2009" class="st12"></polygon>
		</g>
		<path d="M2188.3,1113c-1-22.6-22.2-38.1-26.8-59.8c-8-38.4,46.8,17.7,52.4,38.7c5.7,21-4.5,39.3,8.3,62.9" class="st20"></path>
		<path d="M1125.8,1196c-87.2-19.4-176.8,9.7-259.1-17c-32.2-11.1-54.7-37.2-67.2-69.2V1372h540.3v-81.2
			C1282.3,1234.5,1203,1214.2,1125.8,1196z" class="st24"></path>
		<path d="M1496.8,937.2H956.5c-86.7,0-157,70.3-157,157v15.7c12.5,32,34.9,58.1,67.2,69.2
			c82.3,26.6,171.9-2.4,259.1,17c77.2,18.2,156.6,38.5,214.1,94.9v-196.7C1339.9,1007.4,1410.1,937.2,1496.8,937.2z" class="Graphic_x0020_Style_x0020_83"></path>
		<path d="M1653.8,1091.7v278.2h-313.9v-278.2c0-85.4,70.3-154.6,157-154.6
			C1583.5,937.1,1653.8,1006.3,1653.8,1091.7z" class="Graphic_x0020_Style_x0020_212"></path>
		<path d="M1361.1,1348.6v-257c0-73.5,60.9-133.3,135.7-133.3s135.7,59.8,135.7,133.3v257
			H1361.1z" class="Graphic_x0020_Style_x0020_468"></path>
		<rect height="23.5" width="170.6" class="Graphic_x0020_Style_x0020_216" y="1064.3" x="1419.2"></rect>
		<path d="M1506.9,1002.6h31.6v21.2c0,0-30.4,0.2-31.6,0
			C1499.1,1022.6,1499.3,1002.6,1506.9,1002.6z" class="Graphic_x0020_Style_x0020_212"></path>
		<ellipse ry="16.6" rx="16.6" cy="1011.1" cx="1540.3" class="Graphic_x0020_Style_x0020_467"></ellipse>
		<g>
			<polygon points="940.3,2743 947.9,3007.3 1857.8,2970.2" class="st25"></polygon>
			<polygon points="934.3,2726.1 1857.8,2970.2 622.8,2832.7" class="st12"></polygon>
			<polygon points="1095.8,2694.8 1857.8,2970.2 1077.4,2763.9" class="st11"></polygon>
			<polygon points="1213.7,2564.5 1095.8,2694.8 1857.8,2970.2" class="st12"></polygon>
		</g>
		<path d="M2858.1,1743.1c0,0,9.3,27.9,88.9,33" class="st26"></path>
		<path d="M2953.7,1704.4c0,0-34.1,272.5,15.9,442.3s201.8,547.5,201.8,547.5" class="st26"></path>
		<path d="M2770.5,1871.7c0,0-148.3,184.2-170.6,474.9c-22.3,290.6-17.7,475.8-17.7,475.8" class="st26"></path>
	</g>
	<path d="M1173.9,2009l16.8,73.1c0,0,112.8,380.7,143,389.2
		C1246.7,2219.5,1173.9,2009,1173.9,2009z" class="Graphic_x0020_Style_x0020_212"></path>
</g>
</svg>
