<svg viewBox="0 0 300 300" xmlns:xlink="http://www.w3.org/1999/xlink" xmlns="http://www.w3.org/2000/svg" id="图层_1"><defs><style>.cls-1{fill:none;}.cls-2{clip-path:url(#clip-path);}.cls-3{fill:#4acee1;}.cls-4{fill:#00a2b8;}.cls-5{fill:#f6c1a9;}.cls-6{fill:#ffd9c1;}.cls-7{fill:#efbba0;}.cls-8{fill:#9b8270;}.cls-9{fill:#7f634f;}.cls-10{fill:#fff;opacity:0.05;}.cls-11{fill:#bab5b5;}.cls-12{fill:#b41f20;}.cls-13{fill:#d42e2f;}.cls-14{fill:url(#未命名的渐变_8);}.cls-15{fill:#66605e;}.cls-16{fill:#f7ccbc;}</style><clipPath id="clip-path"><rect height="299" width="299" y="0.5" x="0.5" class="cls-1"></rect></clipPath><linearGradient gradientUnits="userSpaceOnUse" y2="190.7" x2="167.15" y1="190.7" x1="128.52" id="未命名的渐变_8"><stop stop-color="#f2f2f2" offset="0"></stop><stop stop-color="#efefef" offset="0.62"></stop><stop stop-color="#e8e8e8" offset="1"></stop></linearGradient></defs><g class="cls-2"><path d="M160.06,248.5l-83.31.2-17.89,5.16c-13.27,3.83-23.36,12.23-27.18,22.62L21.2,305H70.43Z" class="cls-3"></path><path d="M156.66,253,219,249.21l17.89,5.17C250.11,258.21,260.2,266.6,264,277l10.48,28.5H225.27Z" class="cls-3"></path><polygon points="147.85 233.35 117.17 234.5 76.83 248.7 72.03 304.98 223.67 304.98 218.87 248.7 178.53 234.5 147.85 233.35" class="cls-4"></polygon><path d="M147.85,193.13,115,203,112.2,234.5h0a66.41,66.41,0,0,0,71.3,0h0L180.68,203Z" class="cls-5"></path><path d="M85.64,141.62s-4.1-4.44-7.87-3S71.93,147.3,73,152.8s6.87,19.87,10.13,21.91S92,176.54,92,176.54Z" class="cls-6"></path><path d="M209,141.62s4.11-4.43,7.88-3,5.82,8.74,4.7,14.24-6.9,19.85-10.17,21.89-8.85,1.81-8.85,1.81Z" class="cls-6"></path><path d="M204.71,110.2c-3.38-34.34-25.21-50.7-60.21-50.7-22,0-47.93,17-54,51-5,28-.83,79.21,3,84s32.4,24.24,36,25,15.09,1,18.09,1,15.31-.27,18.91-1,33.46-20,37-25C208.5,187.5,207.5,138.5,204.71,110.2Z" class="cls-6"></path><path d="M213,150.91s-4.63,4.26-5,10.09c-.24,4.1,3.1,2.88,3.55.47s-.88-3-.88-3A16.78,16.78,0,0,1,213,150.91Z" class="cls-7"></path><path d="M82.16,151s4.61,4.26,4.94,10.09c.24,4.1-3.1,2.88-3.55.47s.89-3,.89-3A16.72,16.72,0,0,0,82.16,151Z" class="cls-7"></path><path d="M163.5,80.5c-5.91,0-35.33-1-49-2-22.29-1.56-26.22,43.08-26,55s2,31,2,31l-7.62-24.65a8.56,8.56,0,0,0-5.21-5.9h0s1.47-27.86,2.83-35.45c0,0,7.43-36.35,21-39,0,0,14-7,28-9a183.8,183.8,0,0,1,34-2c30,0,32,15,32,15C216.93,70.14,215.19,103,215.19,103,216.55,110.6,218,134,218,134h0c-2.59,1-5.84,2.86-6.52,5.55l-8,30s10.43-28.93,6-40c-22-55-20-51-20-55C183.5,76.5,180.5,80.5,163.5,80.5Z" class="cls-8"></path><path d="M91.84,120a20.64,20.64,0,0,0-7.57-11.61h0C82,106.55,80.5,98.5,80.5,98.5c-1.36,7.59-3,32-3,32,2.59,1,4.9,6.65,5.58,9.35L89.82,157s-.25-7.15-.47-19.07C89.28,134.33,90.12,127.6,91.84,120Z" class="cls-9"></path><path d="M87.92,130.47c-1.12-3.2-2.89-6.53-5.68-8.11a16.21,16.21,0,0,1-3.74-3.86,76.86,76.86,0,0,0-1,20c4,0,5.49,1.87,6.46,3.82L90.5,163.5a203.72,203.72,0,0,0,1-23C91.47,138.72,87.51,133.55,87.92,130.47Z" class="cls-9"></path><path d="M203.25,120a20.64,20.64,0,0,1,7.57-11.61h0c2.22-1.79,3.76-9.84,3.76-9.84,1.36,7.59,3,32,3,32-2.59,1-4.9,6.65-5.58,9.35L205.27,157s.25-7.15.47-19.07C205.81,134.33,205,127.6,203.25,120Z" class="cls-9"></path><path d="M207.16,130.47c1.13-3.2,2.9-6.53,5.69-8.11a16.21,16.21,0,0,0,3.74-3.86,76.86,76.86,0,0,1,1,20c-4,0-5.49,1.87-6.46,3.82l-6.54,21.18a203.72,203.72,0,0,1-1-23C203.62,138.72,207.58,133.55,207.16,130.47Z" class="cls-9"></path><polygon points="95.87 304.98 86.64 304.98 86.64 245.24 95.87 242 95.87 304.98" class="cls-10"></polygon><polyline points="204.15 304.98 214.14 304.98 214.14 245.24 204.15 242" class="cls-10"></polyline><polygon points="118.07 304.98 108.85 304.98 108.85 239.73 118.07 242 118.07 304.98" class="cls-10"></polygon><polygon points="177.62 304.98 186.85 304.98 186.85 239.73 177.62 242 177.62 304.98" class="cls-10"></polygon><polygon points="191.62 301.98 200.85 301.98 200.85 236.73 191.62 239 191.62 301.98" class="cls-10"></polygon><polygon points="140.28 304.98 131.06 304.98 131.06 239.73 140.28 242 140.28 304.98" class="cls-10"></polygon><polygon points="156.05 304.98 166.04 304.98 166.04 239.73 156.05 242 156.05 304.98" class="cls-10"></polygon><polygon points="112.11 224.73 147.85 244.88 118.76 272.43 99.2 238.04 112.11 224.73" class="cls-3"></polygon><polygon points="183.58 224.73 147.85 244.88 176.94 272.43 196.5 238.04 183.58 224.73" class="cls-3"></polygon><path d="M130.5,128.5c1.94.64,2.77-2.38.5-4-1.34-1-11.74-.52-17.5,0-4,.35-4,1-4,1h7a21.73,21.73,0,0,1,7,1C126.77,127.3,128,127.68,130.5,128.5Z" class="cls-11"></path><path d="M164.37,128.5c-1.94.64-2.77-2.38-.5-4,1.34-1,11.74-.52,17.5,0,4,.35,4,1,4,1h-7a21.7,21.7,0,0,0-7,1C168.1,127.3,166.87,127.68,164.37,128.5Z" class="cls-11"></path><path d="M147.83,177.38a60.9,60.9,0,0,1-8.68-.91s1.65,2.77,8.68,3c7-.26,8.67-3,8.67-3A60.81,60.81,0,0,1,147.83,177.38Z" class="cls-7"></path><path d="M126.17,188.94c2.47,5.49,11.22,9.56,21.67,9.56s19.19-4.07,21.66-9.56Z" class="cls-12"></path><path d="M164.12,194.49c-3-2.69-9.15-4.54-16.28-4.54s-13.3,1.85-16.29,4.54c4.07,2.46,9.85,4,16.29,4S160.05,197,164.12,194.49Z" class="cls-13"></path><path d="M167.15,188.94H128.52a9.7,9.7,0,0,0,5.37,2.85c4.33.68,14,.68,14,.68v0s9.61,0,13.94-.68A9.7,9.7,0,0,0,167.15,188.94Z" class="cls-14"></path><path d="M115.5,149.36c-2.22.43-3.54-.16-1-1.54s10-3.84,17-.76c1.91.84-3,.76-8,.76C120.5,147.82,119.5,148.59,115.5,149.36Z" class="cls-15"></path><path d="M181.54,149.36c2.22.43,3.54-.16,1-1.54s-10-3.84-17-.76c-1.92.84,3,.76,8,.76C176.54,147.82,177.54,148.59,181.54,149.36Z" class="cls-15"></path><path d="M126,180.12S120.5,197,116.38,197.5C120.5,189.44,122.5,186.91,126,180.12Z" class="cls-16"></path><path d="M169.38,180.12S174.88,197,179,197.5C174.88,189.44,172.88,186.91,169.38,180.12Z" class="cls-16"></path></g></svg>