<svg viewBox="0 0 300 300" xmlns:xlink="http://www.w3.org/1999/xlink" xmlns="http://www.w3.org/2000/svg" id="图层_1"><defs><style>.cls-1{fill:none;}.cls-2{clip-path:url(#clip-path);}.cls-3{fill:#295774;}.cls-4{fill:#3d6e88;}.cls-5{fill:#a1b7bf;}.cls-6{fill:#dfa945;}.cls-7{fill:#d9e5e8;}.cls-8{fill:#e0cbb6;}.cls-9{fill:#ffe0cf;}.cls-10{fill:#5892b9;}.cls-11{fill:#efbba0;}.cls-12{fill:#4490b1;}.cls-13{fill:url(#linear-gradient);}.cls-14{fill:url(#linear-gradient-2);}.cls-15{fill:#b41f20;}.cls-16{fill:#d42e2f;}.cls-17{fill:url(#未命名的渐变_8);}.cls-18{fill:#f5c25b;}.cls-19{fill:#e2c9a1;}.cls-20{fill:#6b4f27;fill-rule:evenodd;}</style><clipPath id="clip-path"><rect height="300" width="300" class="cls-1"></rect></clipPath><linearGradient gradientUnits="userSpaceOnUse" y2="132.66" x2="131.12" y1="132.66" x1="125.82" id="linear-gradient"><stop stop-color="#dbdbdb" offset="0"></stop><stop stop-color="#d8d8d8" offset="0.3"></stop><stop stop-color="#cecece" offset="0.54"></stop><stop stop-color="#bcbcbc" offset="0.76"></stop><stop stop-color="#a4a4a4" offset="0.98"></stop><stop stop-color="#a1a1a1" offset="1"></stop></linearGradient><linearGradient xlink:href="#linear-gradient" y2="132.66" x2="182.9" y1="132.66" x1="177.6" id="linear-gradient-2"></linearGradient><linearGradient gradientUnits="userSpaceOnUse" y2="184.44" x2="166.83" y1="184.44" x1="135.69" id="未命名的渐变_8"><stop stop-color="#f2f2f2" offset="0"></stop><stop stop-color="#efefef" offset="0.62"></stop><stop stop-color="#e8e8e8" offset="1"></stop></linearGradient></defs><g class="cls-2"><path d="M106.27,254.45s-8.16-11.09-5.88-19.9a28.94,28.94,0,0,1,8-13.7s16.48-1.63,26.75,4.08-7,34.08-7,34.08Z" class="cls-3"></path><path d="M194.65,254.45s8.15-11.09,5.87-19.9a28.85,28.85,0,0,0-8-13.7s-16.47-1.63-26.74,4.08,7,34.08,7,34.08Z" class="cls-3"></path><path d="M126.46,263.14l-46-18.59-13.39,5.09a33.49,33.49,0,0,0-20.35,22.28l-7.84,33.6H75.77Z" class="cls-4"></path><path d="M174.46,263.14l46-18.59,13.39,5.09a33.49,33.49,0,0,1,20.34,22.28l7.85,33.6H225.15Z" class="cls-4"></path><polygon points="150.46 229.43 120.23 230.57 80.5 244.55 90.45 305.52 210.47 305.52 220.42 244.55 180.68 230.57 150.46 229.43" class="cls-5"></polygon><path d="M84,83s-14.63,28.36-7.07,54,45.26,30.45,40.38-.62S84,83,84,83Z" class="cls-6"></path><path d="M150.46,228.26l-30.23,2.31-9.91,3.49h0a60.89,60.89,0,0,0,80.27,0h0l-9.91-3.49Z" class="cls-7"></path><path d="M150.46,189.82l-27.83,9.73-2.4,31h0a49.79,49.79,0,0,0,60.44,0h0l-2.39-31Z" class="cls-8"></path><path d="M93.32,141.15S88.24,130.67,76.57,131s-4.28,33.67,7,38,14-17,14-17Z" class="cls-9"></path><path d="M207.6,141.15s5.07-10.48,16.75-10.13,4.28,33.67-7,38-14-17-14-17Z" class="cls-9"></path><path d="M150.46,218.09c-.86,0-1.72.08-2.58.08-37.84,0-62.81-47.83-62.81-94.4s25-74.25,62.81-74.25c.86,0,1.72,0,2.58,0s1.71,0,2.58,0c37.84,0,62.81,27.68,62.81,74.25s-25,94.4-62.81,94.4C152.17,218.17,151.31,218.14,150.46,218.09Z" class="cls-9"></path><path d="M132.31,134.89a7.58,7.58,0,1,1-7.58-7.59A7.58,7.58,0,0,1,132.31,134.89Z" class="cls-10"></path><path d="M168.6,134.89a7.59,7.59,0,1,0,7.59-7.59A7.59,7.59,0,0,0,168.6,134.89Z" class="cls-10"></path><path d="M81.34,145.61s5.19,3.55,4.62,7.83c-.39,3-4.45,1.81-4.62,0A1.91,1.91,0,0,1,83,151.36,7.54,7.54,0,0,0,81.34,145.61Z" class="cls-11"></path><path d="M219.57,145.61s-5.18,3.55-4.62,7.83c.4,3,4.45,1.81,4.62,0a1.91,1.91,0,0,0-1.63-2.08A7.56,7.56,0,0,1,219.57,145.61Z" class="cls-11"></path><path d="M106.36,122.7s11.31-11.78,32.29-7.69l-2,5.88A45,45,0,0,0,106.36,122.7Z" class="cls-6"></path><path d="M194.77,123.22s-11.23-11.7-32.05-7.65l2,5.85A44.56,44.56,0,0,1,194.77,123.22Z" class="cls-6"></path><polygon points="150.46 273.87 104.14 247.38 80.5 244.55 75.77 305.52 225.15 305.52 220.42 244.55 196.77 247.38 150.46 273.87" class="cls-3"></polygon><path d="M150.46,269.45S116.17,243,110.32,234.06s-1.94-13.21-1.94-13.21S96,222.68,92.73,229.43c0,0-16.7,5.93-18.3,17.43,0,0,27.39,33.89,76,29.5,48.63,4.39,76-29.5,76-29.5-1.59-11.5-18.29-17.43-18.29-17.43-3.27-6.75-15.66-8.58-15.66-8.58s3.91,4.24-1.94,13.21S150.46,269.45,150.46,269.45Z" class="cls-12"></path><circle r="2.65" cy="132.66" cx="128.47" class="cls-13"></circle><circle r="2.65" cy="132.66" cx="180.25" class="cls-14"></circle><path d="M133.79,182.29c2,6.69,9,11.65,17.47,11.65s15.47-5,17.46-11.65Z" class="cls-15"></path><path d="M164.39,189.05c-2.42-3.27-7.38-5.52-13.13-5.52s-10.72,2.25-13.14,5.52a20.09,20.09,0,0,0,26.27,0Z" class="cls-16"></path><path d="M166.83,182.29H135.69a7.51,7.51,0,0,0,4.32,3.47c3.49.83,11.25.83,11.25.83v0s7.75,0,11.24-.83A7.53,7.53,0,0,0,166.83,182.29Z" class="cls-17"></path><path d="M173.64,77.54a157.7,157.7,0,0,1-60.25,25.31c-37.17,6.79-63.14-17-63.14-17s23.18,3.51,28.93,2.93c0,0-27-13.66-32.22-34.38,0,0,33.5,4.06,57.83-5.15,26.85-10.15,63.55-14.79,86,9.21,0,0,15.12,7.23,23.87,28.93s1.45,46.74,1.45,46.74L209.25,140s5-15.45-9-28.27S174.52,86.41,173.64,77.54Z" class="cls-18"></path><path d="M150.45,162.42h-.26V135l-8.3,26.67.72,1.81c.81,1.18,4.21,3.15,5.52,5a2.53,2.53,0,0,0,4.65,0c2-2.86,4.28-6.05,4.22-6.05Z" class="cls-19"></path><path d="M188.24,128.14a28.36,28.36,0,0,0-3.46-.84,26.75,26.75,0,0,0-7.85-.33,17.57,17.57,0,0,0-2.07.38,13.9,13.9,0,0,0-1.92.61,13.72,13.72,0,0,0-1.68.76,10.81,10.81,0,0,0-1.37.87c-.42.28-.75.59-1.07.84l-.74.73-.6.67h0a.09.09,0,0,1-.11,0,.06.06,0,0,1,0-.09l.5-.74c.17-.24.4-.5.67-.81a11,11,0,0,1,2.41-1.92,11.36,11.36,0,0,1,1.75-.84,14.06,14.06,0,0,1,2-.58,17,17,0,0,1,2.16-.33,28.11,28.11,0,0,1,8,.55,27.7,27.7,0,0,1,3.47.93.06.06,0,0,1,0,.09A.08.08,0,0,1,188.24,128.14Z" class="cls-20"></path><path d="M112.68,128.14a28.26,28.26,0,0,1,3.47-.84A26.68,26.68,0,0,1,124,127a17.2,17.2,0,0,1,2.07.38A13.9,13.9,0,0,1,128,128a13.72,13.72,0,0,1,1.68.76,10.81,10.81,0,0,1,1.37.87c.42.28.75.59,1.07.84l.74.73.6.67h0s.07,0,.11,0a.07.07,0,0,0,0-.09l-.51-.74a9.11,9.11,0,0,0-.67-.81,11,11,0,0,0-2.41-1.92,11.36,11.36,0,0,0-1.75-.84,13.71,13.71,0,0,0-2-.58,17,17,0,0,0-2.16-.33,28.11,28.11,0,0,0-8,.55,27.7,27.7,0,0,0-3.47.93.06.06,0,0,0,0,.09A.08.08,0,0,0,112.68,128.14Z" class="cls-20"></path></g></svg>