<svg viewBox="0 0 300 300" xmlns:xlink="http://www.w3.org/1999/xlink" xmlns="http://www.w3.org/2000/svg" id="图层_1"><defs><style>.cls-1{fill:none;}.cls-2{clip-path:url(#clip-path);}.cls-3{fill:#efb978;}.cls-4{fill:#e8d6ed;}.cls-5{fill:#f2d4c4;}.cls-6{fill:#ffe0cf;}.cls-7{fill:#efbba0;}.cls-8{fill:#946a9e;}.cls-9{fill:#e7d1ed;}.cls-10{fill:#fcf3ff;}.cls-11{fill:#f7ccbc;}.cls-12{fill:#d8a66f;}.cls-13{fill:#e0cbb6;}.cls-14{fill:#ccb89f;}.cls-15{fill:#ef78a3;}.cls-15,.cls-16{fill-rule:evenodd;}.cls-16{fill:#c23249;}.cls-17{fill:#5892b9;}.cls-18{fill:url(#linear-gradient);}.cls-19{fill:url(#linear-gradient-2);}</style><clipPath id="clip-path"><rect height="300" width="294" x="3" class="cls-1"></rect></clipPath><linearGradient gradientUnits="userSpaceOnUse" y2="154" x2="134.17" y1="154" x1="131.7" id="linear-gradient"><stop stop-color="#dbdbdb" offset="0"></stop><stop stop-color="#d8d8d8" offset="0.3"></stop><stop stop-color="#cecece" offset="0.54"></stop><stop stop-color="#bcbcbc" offset="0.76"></stop><stop stop-color="#a4a4a4" offset="0.98"></stop><stop stop-color="#a1a1a1" offset="1"></stop></linearGradient><linearGradient xlink:href="#linear-gradient" y2="154" x2="173.71" y1="154" x1="171.25" id="linear-gradient-2"></linearGradient></defs><g class="cls-2"><circle r="15.12" cy="151.16" cx="207.95" class="cls-3"></circle><circle r="15.12" cy="169.65" cx="208.95" class="cls-3"></circle><circle r="15.12" cy="182.84" cx="207.14" class="cls-3"></circle><circle r="15.12" cy="188.1" cx="97.71" class="cls-3"></circle><circle r="15.12" cy="202.16" cx="116.7" class="cls-3"></circle><circle r="15.12" cy="196.58" cx="110.48" class="cls-3"></circle><circle r="15.12" cy="194" cx="196.26" class="cls-3"></circle><circle r="15.12" cy="200.93" cx="188" class="cls-3"></circle><circle r="15.12" cy="167.66" cx="92.71" class="cls-3"></circle><circle r="15.12" cy="166.28" cx="95.53" class="cls-3"></circle><circle r="16.98" cy="133.02" cx="203.82" class="cls-3"></circle><circle r="32.96" cy="162.08" cx="113.11" class="cls-3"></circle><circle r="13.49" cy="111.95" cx="90.72" class="cls-3"></circle><circle r="13.49" cy="133.02" cx="90.72" class="cls-3"></circle><circle r="14.39" cy="92.07" cx="97.71" class="cls-3"></circle><circle r="15.29" cy="73.18" cx="113" class="cls-3"></circle><circle r="12.59" cy="59.41" cx="131.7" class="cls-3"></circle><circle r="17" cy="62.24" cx="156.69" class="cls-3"></circle><path d="M180.75,70.06,197.49,73a17,17,0,1,1,.26-2.94Z" class="cls-3"></path><circle r="14.96" cy="81.27" cx="195.71" class="cls-3"></circle><path d="M191.55,236.39c5.07,10.05-17.3,19.58-39.34,19.58s-56.16-1.06-40.46-19.58c4.86-5.74,17.86-13.62,39.9-13.62S188.17,229.67,191.55,236.39Z" class="cls-4"></path><path d="M254.14,281c-34.31-18.43-77-42-77-42V211.2l-28,.12-28-.12V239s-42.64,23.61-77,42l-4.76,64.28s41.71,7.16,108.29,13.32c.48,0,2,.08,2.25.06,67-6.17,109-13.38,109-13.38Z" class="cls-5"></path><path d="M94.19,146.68s-6.38-6.57-9.82-5.27-6.1,9.36-3.62,17.4S86,173.39,88.19,175.1s10.39,3.22,10.58,2.41S94.19,146.68,94.19,146.68Z" class="cls-6"></path><path d="M204,146.68s6.39-6.57,9.83-5.27,6.1,9.36,3.62,17.4-5.24,14.58-7.44,16.29-10.4,3.22-10.58,2.41S204,146.68,204,146.68Z" class="cls-6"></path><path d="M206.47,97c-11-33.3-39.26-41-57.39-41S103.4,63.74,92.45,97s7,99,9.88,103c6,6.11,20.39,18.31,20.39,18.31S145.41,228.42,151,228.5c6.34.1,25.23-10.19,25.23-10.19s17.41-12.23,21.44-16.31C199.59,198,217.42,130.34,206.47,97Z" class="cls-6"></path><path d="M209.94,159.88a12.89,12.89,0,0,0-4,7.67c-.27,3.16,2.28,2.29,2.67.44s-.6-2.31-.6-2.31A12.93,12.93,0,0,1,209.94,159.88Z" class="cls-7"></path><path d="M88.73,159.88a13,13,0,0,1,4,7.67c.26,3.16-2.28,2.29-2.68.44s.61-2.31.61-2.31A13.09,13.09,0,0,0,88.73,159.88Z" class="cls-7"></path><path d="M161.39,249.62,88,255l-16.21,5.17c-12,3.83-21.18,12.23-24.64,22.63l-9.5,28.53,142.44-5.57Z" class="cls-8"></path><path d="M154.17,258.29l56.46-3.8,16.22,5.16c12,3.84,21.17,12.24,24.64,22.64L261,310.81l-147.31-6.14Z" class="cls-8"></path><path d="M150,254.91c-30.09,0-26.79-15.15-26.79-15.15L89,254l34.58,62.34h56.1L209.6,254l-34.25-14.21S169.75,254.91,150,254.91Z" class="cls-9"></path><path d="M194.5,239c11.42,14.37-20.16,29.64-43.4,29.64s-54.75-15.27-41.29-27.52c11.52-10.48,18,4.23,41.28,4.23S183.13,224.72,194.5,239Z" class="cls-10"></path><path d="M171,192s6,10,3,20C175,200.75,171,199.5,171,192Z" class="cls-11"></path><path d="M129.84,192s-6,10-3,20C125.84,200.75,129.84,199.5,129.84,192Z" class="cls-11"></path><path d="M158.65,142.24S167.13,139,170,138s7.28-3,12.95-1.56,10.05,3.74,10.87,3.85c0,0-11.88-3-15.58-1.89s-13.9,6-16.09,6.25S158.23,143.58,158.65,142.24Z" class="cls-12"></path><path d="M142,142.37s-8.66-2.8-11.61-3.64-7.43-2.55-13-.81-9,5.16-9.83,5.32c0,0,10.88-4.52,14.64-3.64s14.22,5.17,16.42,5.33S142.53,143.68,142,142.37Z" class="cls-12"></path><path d="M151.23,188.93H151L150.35,157l-9.94,29.13.64,1.92c.72,1.24,7,5.32,8.12,7.26.64,1.08,1.35,1.62,2.06,1.62s1.42-.54,2.07-1.62c1.8-3,3.8-6.38,3.74-6.38Z" class="cls-13"></path><path d="M113,96l22-2s46.89,2.07,50,1c6.79-2.34-15.59-20.65-15.59-20.65l-45.27-1.17Z" class="cls-14"></path><path d="M179,96.18S170,111,159,117c11-12,13-19.79,13-20.82S162,112.85,149,118s-38,7.85-43,13-10.2,18.7-8.55,26.84c4,19.66,11.5,17.66,11.5,17.66s-6.74,3.31-20.16-19.33c0,0-15.17-50.17-2.79-68.23C99.88,67.7,138,33.35,175,56c37,10.3,42,33.68,42,48.41,0,25.58-4.35,32.89-6.12,47.81-1.14,9.56-17.94,23.61-14.43,20.61C218.45,154,175.93,102.51,179,96.18Z" class="cls-3"></path><path d="M136.35,206.06c4.93.59,6.08-5.7,13.27-2.89,4.79,1.87,2.89-3.66,11.92.75a5.14,5.14,0,0,0,3.2.71c.48,0-.45.9-5.23,4.22-6.1,4.24-14,2.66-17.93.15C138.44,207,141.54,208.55,136.35,206.06Z" class="cls-15"></path><path d="M131.35,204c3.81,0-2,1,10.16,2.21,5.57.55,5.08.08,8.25.19,7.55-1.09,19.11-1.55,20.55-3,.48,1.66-15.78,3.27-17.24,3.38-7.88.57-.32.64-7.72.26C128.52,206.14,135.41,204.24,131.35,204Z" class="cls-16"></path><circle r="15.72" cy="96.23" cx="202.01" class="cls-3"></circle><circle r="10.52" cy="112.11" cx="209.94" class="cls-3"></circle><path d="M94.77,177.62s-1.37,9.49,0,12.89c2.89,7.41,13.52,13.67,17.64,12.66,0,0-8.52-2.68-14-15.25C97,184.82,94.77,177.62,94.77,177.62Z" class="cls-3"></path><path d="M203.29,182.59s1.67,10.11-.93,12.67-9.8,10.47-17.62,9.78c-.89-.07,8.07-.14,14.38-13.37C200.57,188.62,203.29,182.59,203.29,182.59Z" class="cls-3"></path><path d="M135.72,157.65c0,3.29-3,2.31-4.95,2.71-2.49.51-5.25,2.08-5.76-3.29-.43-4.59,1.84-7,6.15-7.77a2.93,2.93,0,0,1,2.94,1.08C135.31,151.89,135.76,154.71,135.72,157.65Z" class="cls-17"></path><ellipse ry="1.82" rx="1.23" cy="154" cx="132.94" class="cls-18"></ellipse><path d="M134.53,151.16s-2.84-5.91-11-1.91l-1.63-1,1.63,2a24.05,24.05,0,0,1,4.88-1C130.06,149.25,134.11,150.06,134.53,151.16Z" class="cls-12"></path><path d="M175.38,157.65c0,3.29-2.34,2.14-4.28,2.54-2.48.52-6.25,2.25-6.43-3.12-.16-4.61,1.83-7,6.14-7.77a2.92,2.92,0,0,1,2.94,1.08C175,151.89,175.4,154.71,175.38,157.65Z" class="cls-17"></path><path d="M166.67,151.16s2.84-5.91,11-1.91l1.63-1-1.63,2a23.89,23.89,0,0,0-4.88-1C171.14,149.25,167.09,150.06,166.67,151.16Z" class="cls-12"></path><ellipse ry="1.82" rx="1.23" cy="154" cx="172.48" class="cls-19"></ellipse><circle r="17" cy="99.84" cx="147.57" class="cls-3"></circle><circle r="17" cy="107.21" cx="133" class="cls-3"></circle><circle r="17" cy="112.13" cx="115.02" class="cls-3"></circle><circle r="17" cy="120.17" cx="95.53" class="cls-3"></circle><circle r="17" cy="101.59" cx="195.71" class="cls-3"></circle><circle r="17" cy="116.04" cx="203.82" class="cls-3"></circle><path d="M224.11,128.83c0,9.39-9.35,17-17.8,17s-15.31-7.61-15.31-17,6.86-17,15.31-17S224.11,119.45,224.11,128.83Z" class="cls-3"></path></g></svg>