<svg xmlns:xlink="http://www.w3.org/1999/xlink" xmlns="http://www.w3.org/2000/svg" version="1.1" viewBox="0 0 1024 1024" height="1024px" width="1024px">
    <title>男/头像/督导备份</title>
    <defs>
        <path id="path-1" d="M22.5120184,20.513553 C19.3685358,87.038237 12.5875713,125.985777 2.1691249,137.356173 C-8.24932153,148.726569 18.8625834,185.206895 83.5048396,246.797151 L140.419083,246.797151 L181.70044,133.655352 C171.675245,77.8140301 169.168946,38.566571 174.181543,15.9129748 C179.194141,-6.74062148 128.637633,-5.2070954 22.5120184,20.513553 Z"></path>
    </defs>
    <g fill-rule="evenodd" fill="none" stroke-width="1" stroke="none" id="男/头像/督导备份">
        <g transform="translate(160.000000, 88.145869)" id="督导">
            <g transform="translate(257.335901, 446.840033)" id="脖子">
                <mask fill="white" id="mask-2">
                    <use xlink:href="#path-1"></use>
                </mask>
                <use xlink:href="#path-1" fill="#F1D7BE" id="路径-5"></use>
                <path mask="url(#mask-2)" fill="#E5B487" id="路径-6" d="M3.08908454e-12,61.8823239 C5.05760745,61.8823239 56.9661089,108.337852 90.5661089,108.337852 C124.166109,108.337852 175.45901,79.2006331 181.70044,68.2667476 C185.861393,60.9774906 187.896997,46.0963696 187.807254,23.6233846 L130.344495,-19.9437226 L-4.92873188,9.6 C-5.01464893,44.4548826 -3.3717383,61.8823239 3.08908454e-12,61.8823239 Z"></path>
            </g>
            <g transform="translate(0.000000, 567.866482)" id="衣服">
                <path fill="#B7CAE0" id="路径-9" d="M263.590625,12.9621079 C242.307384,27.0276493 211.246712,36.3441903 170.408607,40.9117308 C109.15145,47.7630416 64.5887016,72.1363398 32.7561529,117.750693 C11.5344537,148.160262 0.615736089,222.826929 0,341.750693 L706.756988,337.166532 C705.146164,213.625512 694.306332,138.256857 674.237491,111.060568 C644.13423,70.2661336 631.449314,56.7550424 536.131826,34.8585751 C472.586834,20.2609303 434.396871,8.64140523 421.561939,0 L363.016741,89.9396232 L263.590625,12.9621079 Z"></path>
                <polygon points="361.006121 83.5467288 336.4059 117.971567 345.450817 134.485718 330.764786 339.011194 399.856719 339.011194 380.889468 134.485718 391.73604 114.781518" fill="#575E69" id="路径-19"></polygon>
            </g>
            <g fill="#F3F5FC" transform="translate(235.068183, 551.420137)" id="领子">
                <polygon points="199.855421 0 122.607606 100.087278 188.085387 163.691406 242.952228 37.4933238" id="路径-8"></polygon>
                <polygon points="37.609825 5.33925671 0 43.5864195 77.0077455 173.044779 125.937939 99.9930739" id="路径-7"></polygon>
            </g>
            <g transform="translate(146.581137, 0.000000)" id="头">
                <path fill="#253A51" id="路径-3" d="M77.343569,449.318922 C30.6637895,386.727431 13.275406,329.894697 25.1784183,278.820721 C43.0329369,202.209757 166.747771,103.605191 246.264431,121.353674 C325.781091,139.102157 375.252414,159.49982 380.718107,215.947647 C386.183801,272.395475 385.047888,391.511322 349.268308,432.661033 C325.415255,460.094173 234.773675,465.646803 77.343569,449.318922 Z"></path>
                <path fill="#F1D7BE" id="路径-4" d="M44.4003781,136.529538 C21.8836257,157.10716 32.8645615,200.529115 13.0382781,274.805882 C-0.179244225,324.323727 14.9364097,365.071259 58.3852398,397.048478 C57.9245635,420.730035 66.8408248,442.528033 85.1340237,462.442473 C112.573822,492.314133 158.69754,537.403579 188.787466,537.403579 C218.877392,537.403579 222.962337,538.899584 235.849154,533.285493 C248.735971,527.671403 332.81765,473.476716 342.052841,450.238959 C348.209635,434.747121 352.577919,417.016961 355.157694,397.048478 C381.648218,381.11177 398.171299,354.179361 404.726936,316.251252 C411.282574,278.323142 401.102559,252.393777 374.186891,238.463156 L342.052841,136.529538 C268.37971,117.021137 221.794474,109.265311 202.297133,113.262059 C173.051122,119.257181 66.9171304,115.951915 44.4003781,136.529538 Z"></path>
                <path fill="#171516" id="路径-18" d="M56.9523227,357.628308 C51.7106544,283.649051 50.4082168,235.857883 53.0450101,214.254804 C57.0001999,181.850185 69.6770222,154.435725 80.1541526,145.837466 C87.1389061,140.105294 103.191959,134.387688 128.31331,128.68465 C138.676067,153.281278 156.913739,176.900997 183.026326,199.543806 C222.195207,233.50802 235.55827,242.037995 280.169194,249.437196 C324.780118,256.836396 358.262249,273.513958 358.262249,287.394629 C358.262249,301.275299 349.067165,357.628308 349.067165,357.628308 C349.067165,357.628308 353.822968,362.577496 358.262249,352.873045 C362.701531,343.168593 373.03503,286.004377 381.63165,281.352904 C390.228269,276.701432 393.505199,279.984503 400.404837,274.805882 C407.304476,269.627261 419.193984,216.499965 419.193984,186.987836 C419.193984,157.475706 420.252602,102.843442 394.284533,79.5560363 C368.316464,56.2686307 322.072395,15.3640816 280.169194,5.01776535 C238.265992,-5.32855089 156.566186,-1.75322672 118.360169,35.6196997 C89.0238498,40.465097 67.263656,49.6251012 53.0795881,63.0997123 C31.8034861,83.3116289 6.25567274,106.033647 1.17270851,160.144225 C-2.2159343,196.217944 1.73925555,234.438497 13.0382781,274.805882 C25.8392265,271.437229 34.6663662,280.574473 39.5196971,302.217611 C44.373028,323.86075 50.1839032,342.330982 56.9523227,357.628308 Z"></path>
            </g>
        </g>
    </g>
</svg>