<svg xmlns:xlink="http://www.w3.org/1999/xlink" xmlns="http://www.w3.org/2000/svg" version="1.1" viewBox="0 0 1024 1024" height="1024px" width="1024px">
    <title>男/头像/项目经理备份</title>
    <defs>
        <path id="path-1" d="M22.5120184,20.513553 C19.3685358,87.038237 12.5875713,125.985777 2.1691249,137.356173 C-8.24932153,148.726569 18.8625834,185.206895 83.5048396,246.797151 L140.419083,246.797151 L181.70044,133.655352 C171.675245,77.8140301 169.168946,38.566571 174.181543,15.9129748 C179.194141,-6.74062148 128.637633,-5.2070954 22.5120184,20.513553 Z"></path>
        <path id="path-3" d="M263.590625,12.9621079 C242.307384,27.0276493 211.246712,36.3441903 170.408607,40.9117308 C109.15145,47.7630416 64.5887016,72.1363398 32.7561529,117.750693 C11.5344537,148.160262 0.615736089,222.826929 0,341.750693 L706.756988,337.166532 C705.146164,213.625512 694.306332,138.256857 674.237491,111.060568 C644.13423,70.2661336 631.449314,56.7550424 536.131826,34.8585751 C472.586834,20.2609303 434.396871,8.64140523 421.561939,0 L363.016741,89.9396232 L263.590625,12.9621079 Z"></path>
    </defs>
    <g fill-rule="evenodd" fill="none" stroke-width="1" stroke="none" id="男/头像/项目经理备份">
        <g transform="translate(160.000000, 75.925682)" id="项目经理">
            <g transform="translate(257.335901, 459.060220)" id="脖子">
                <mask fill="white" id="mask-2">
                    <use xlink:href="#path-1"></use>
                </mask>
                <use xlink:href="#path-1" fill="#F1D7BE" id="路径-5"></use>
                <path mask="url(#mask-2)" fill="#E5B487" id="路径-6" d="M3.08908454e-12,61.8823239 C5.05760745,61.8823239 56.9661089,108.337852 90.5661089,108.337852 C124.166109,108.337852 175.45901,79.2006331 181.70044,68.2667476 C185.861393,60.9774906 187.896997,46.0963696 187.807254,23.6233846 L130.344495,-19.9437226 L-4.92873188,9.6 C-5.01464893,44.4548826 -3.3717383,61.8823239 3.08908454e-12,61.8823239 Z"></path>
            </g>
            <g transform="translate(0.000000, 580.086670)" id="衣服">
                <g id="编组">
                    <mask fill="white" id="mask-4">
                        <use xlink:href="#path-3"></use>
                    </mask>
                    <use xlink:href="#path-3" fill="#D9DFE7" id="路径-9"></use>
                    <path mask="url(#mask-4)" fill="#485B78" id="形状结合" d="M325.250572,346.984635 L399.937366,346.984635 L515.108651,22.3876485 L667.423075,51.5472939 L723.2,315.681825 C689.920198,350.552374 671.327889,367.987648 667.423075,367.987648 C663.51826,367.987648 432.510569,362.937904 -25.6,352.838416 L7.53907511,92.5573789 L99.5081189,30.1282548 L207.080125,22.3876485 M211.2,22.3876485 L329.6,348.787648"></path>
                    <path mask="url(#mask-4)" fill="#879BB5" id="形状结合" d="M208.159735,23.9076898 L181.577182,33.5971998 L192.757386,162.957292 L233.189109,134.468972 L192.757386,210.45419 L281.078765,340.751545 L324.250834,341.750693 L208.159735,23.9076898 Z M512.875815,23.9076898 L539.458368,33.5971998 L528.278164,162.957292 L487.846441,134.468972 L528.278164,210.45419 L439.956785,340.751545 L402.196756,341.750693 L512.875815,23.9076898 Z"></path>
                </g>
                <polygon points="361.006121 83.5467288 336.4059 117.971567 345.450817 134.485718 330.764786 339.011194 399.856719 339.011194 380.889468 134.485718 391.73604 114.781518" fill="#5280C3" id="路径-19"></polygon>
            </g>
            <g fill="#F3F5FC" transform="translate(240.073535, 563.640325)" id="领子">
                <polygon points="194.850069 0 117.602254 100.087278 162.123221 142.217046 223.533634 35.3435095" id="路径-8"></polygon>
                <polygon points="32.6044727 5.33925671 0 39.9679378 84.1772988 151.878104 120.932586 99.9930739" id="路径-7"></polygon>
            </g>
            <g transform="translate(149.890731, 0.000000)" id="头">
                <path fill="#382B1B" id="路径-3" d="M74.0339752,461.539109 C27.3541958,398.947618 9.96581221,342.114884 21.8688246,291.040908 C39.7233431,214.429944 163.438177,115.825379 242.954837,133.573861 C322.471497,151.322344 371.94282,171.720007 377.408514,228.167835 C382.874207,284.615662 381.738294,403.731509 345.958714,444.88122 C322.105661,472.314361 231.464081,477.86699 74.0339752,461.539109 Z"></path>
                <path fill="#F1D7BE" id="路径-4" d="M41.0907843,148.749725 C18.5740319,169.327347 29.5549677,212.749303 9.72868429,287.026069 C-3.48883799,336.543914 11.6268159,377.291446 55.075646,409.268665 C54.6149698,432.950222 63.5312311,454.74822 81.8244299,474.66266 C109.264228,504.534321 155.387946,549.623766 185.477873,549.623766 C215.567799,549.623766 219.652743,551.119771 232.53956,545.505681 C245.426377,539.89159 329.508056,485.696903 338.743247,462.459146 C344.900041,446.967308 349.268325,429.237148 351.8481,409.268665 C378.338624,393.331957 394.861705,366.399549 401.417342,328.471439 C407.97298,290.543329 397.792965,264.613964 370.877298,250.683343 L338.743247,148.749725 C265.070116,129.241324 218.484881,121.485498 198.98754,125.482246 C169.741528,131.477368 63.6075367,128.172102 41.0907843,148.749725 Z"></path>
                <path fill="#382B1B" id="路径-23" d="M49.8267119,346.312793 C44.5461062,299.400081 48.3736252,268.315927 61.3092689,253.06033 C80.7127345,230.176933 90.6686363,209.89699 122.73489,200.87385 C154.801144,191.850711 183.655721,164.209551 198.295389,160.782881 C212.935057,157.356212 224.692086,157.356212 249.965988,160.782881 C275.239891,164.209551 293.815134,170.486265 305.829795,183.434369 C317.844456,196.382473 324.143547,212.579343 326.249801,236.501167 C328.356055,260.422991 346.237082,286.976705 355.252175,295.041237 C357.44798,325.45464 359.980102,342.545158 362.848541,346.312793 C367.151199,351.964244 366.634378,340.014325 371.535311,314.48591 C376.436243,288.957495 403.343308,290.968604 403.343308,290.968604 C403.343308,290.968604 418.684131,253.769039 418.684131,183.502655 C418.684131,113.23627 416.435217,128.100753 411.762601,105.835697 C407.089986,83.5706416 353.53603,39.3193226 305.829795,17.2338077 C258.123561,-4.8517071 200.892149,-2.15483346 176.985152,5.77155196 C153.078155,13.6979374 140.224171,22.9929063 122.73489,39.6332921 C93.4413628,34.27697 66.677008,45.1600473 42.4418254,72.2825241 C6.08905146,112.966239 0,115.381596 0,174.4 C0,233.418404 9.36927251,290.968604 9.36927251,290.968604 C9.36927251,290.968604 19.9005406,282.581132 23.0968009,290.968604 C26.2930612,299.356076 36.1137363,348.8 49.8267119,348.8"></path>
            </g>
        </g>
    </g>
</svg>